/* XPM */
static char *xpm_[] = {
/* columns rows colors chars-per-pixel */
"60 60 194 2 ",
"   c #355B1F",
".  c #2E5520",
"X  c #355724",
"o  c #355D24",
"O  c #395E25",
"+  c #355E29",
"@  c #3B5F28",
"#  c #366325",
"$  c #3A6326",
"%  c #366827",
"&  c #3B6926",
"*  c #376528",
"=  c #3C6529",
"-  c #366B2A",
";  c #3C6B2A",
":  c #3E712C",
">  c #3E782E",
",  c #3F7430",
"<  c #406F27",
"1  c #41632B",
"2  c #426D2C",
"3  c #43742D",
"4  c #49752E",
"5  c #45792E",
"6  c #4A7B2F",
"7  c #436631",
"8  c #446B34",
"9  c #496A36",
"0  c #476C39",
"q  c #4A6B3A",
"w  c #447531",
"e  c #4A7534",
"r  c #467A31",
"t  c #4B7C32",
"y  c #467238",
"u  c #4C743A",
"i  c #4C7B39",
"p  c #517D34",
"a  c #52753D",
"s  c #527C3C",
"d  c #4F6C40",
"f  c #516C43",
"g  c #566E4A",
"h  c #4F7343",
"j  c #537444",
"k  c #557B44",
"l  c #5A7C45",
"z  c #557449",
"x  c #5A744C",
"c  c #577D49",
"v  c #5B7B4B",
"b  c #5E7551",
"n  c #5E7A53",
"m  c #617E4D",
"M  c #617752",
"N  c #627C55",
"B  c #6B775F",
"V  c #647D59",
"C  c #6A7F5C",
"Z  c #6C7D63",
"A  c #47802F",
"S  c #4B812F",
"D  c #538A2F",
"F  c #468332",
"G  c #4D8333",
"H  c #4D8834",
"J  c #4E833A",
"K  c #528534",
"L  c #558A36",
"P  c #598C37",
"I  c #54843B",
"U  c #59853E",
"Y  c #558B3A",
"T  c #5A8C3B",
"R  c #589037",
"E  c #559238",
"W  c #5A903A",
"Q  c #618C3F",
"!  c #60923C",
"~  c #558342",
"^  c #5A8444",
"/  c #578A40",
"(  c #5E8A41",
")  c #5E8D41",
"_  c #5B8B42",
"`  c #5E834B",
"'  c #5E8A4A",
"]  c #5D9343",
"[  c #618347",
"{  c #618C45",
"}  c #62844D",
"|  c #628A4B",
" . c #688C4F",
".. c #629443",
"X. c #649845",
"o. c #65914B",
"O. c #69934E",
"+. c #6A984D",
"@. c #648354",
"#. c #698456",
"$. c #658C53",
"%. c #6B8D54",
"&. c #668259",
"*. c #6B855C",
"=. c #6C8C5B",
"-. c #668A5C",
";. c #718C5D",
":. c #679154",
">. c #6B9453",
",. c #6E915A",
"<. c #6D935B",
"1. c #719B52",
"2. c #72955C",
"3. c #759B5D",
"4. c #7A9C5F",
"5. c #6D8462",
"6. c #6F8A62",
"7. c #718562",
"8. c #728C63",
"9. c #788C67",
"0. c #75866D",
"q. c #768B6C",
"w. c #7A8C6C",
"e. c #759463",
"r. c #799565",
"t. c #759A61",
"y. c #7A9C65",
"u. c #779169",
"i. c #7B936C",
"p. c #7C9B6B",
"a. c #7A8670",
"s. c #7C8C71",
"d. c #7D9273",
"f. c #7E9B71",
"g. c #7BA063",
"h. c #7FA069",
"j. c #819E66",
"k. c #829D6D",
"l. c #819374",
"z. c #839B73",
"x. c #859479",
"c. c #8A937C",
"v. c #8A9B7C",
"b. c #879A7C",
"n. c #81A567",
"m. c #84A36A",
"M. c #8BAA6F",
"N. c #85A273",
"B. c #8AA475",
"V. c #87A078",
"C. c #8CA37C",
"Z. c #8DA97C",
"A. c #91A57D",
"S. c #97AB7F",
"D. c #899581",
"F. c #8D9C81",
"G. c #929D83",
"H. c #92988C",
"J. c #8EA382",
"K. c #93A484",
"L. c #95A984",
"P. c #95A48A",
"I. c #9AA58C",
"U. c #96A98A",
"Y. c #9BAB8C",
"T. c #98AD84",
"R. c #9DB18D",
"E. c #9CA792",
"W. c #9EAC92",
"Q. c #9EB192",
"!. c #A0AE8E",
"~. c #A2AE94",
"^. c #A5AD9B",
"/. c #A8AF9D",
"(. c #A2B194",
"). c #A8B597",
"_. c #A7B896",
"`. c #A5B39A",
"'. c #AAB59D",
"]. c #AABA9A",
"[. c #ACB99D",
"{. c #B0BA9F",
"}. c #ACB4A2",
"|. c #AEBAA2",
" X c #B2BBA4",
".X c #B2B6AA",
"XX c #B3BCA9",
"oX c #B9BCAC",
"OX c #B7C0A5",
"+X c #B9C1AC",
"@X c #BCC3B3",
"#X c #C6CEB7",
"$X c #C6C9B8",
"%X c #C2C3B5",
/* pixels */
"o.w 5.I.U.P.N p.J.P.r.I i u ( ) u e i I 0 I T u 7 a U i u ) ..u y i I y s T e 7 e U s y T { e e i I y I U u 1 a U i e o.",
"t G p.'.R.].V v.OX[.J.; K K 3 t T w - 3 5 5 K 3 5 e 3 K K w 6 L 5 # w 5 5 I 3 e t w K L e 4 T 5 * 3 5 4 K 3 w 6 w K K r ",
"8 * =.`.'.'.@.i.[.].F.; 5 K 2 o ; 5 w r I L K L G L 6 2 K 4 o ; 5 w t L K L L K H t 2 K 3 + ; 5 w t L D Y L G L t 2 I t ",
"U 5 F ( B.d.e ( x.l.[ ; o O r K t K L L L P K G t r - @ O r G 5 D U K K L K G r r $ $ O t G 5 K L I L K K K r r * = o ~ ",
"! K 2.K G ` 8.#.g g <.Y { 4 G T L t K Y e & $ O ; t 6 p t G W P t K P e = = o 2 6 5 p t t W L 6 K K e 2 = o ; 5 t t t I ",
"_ 3.^.B.~ k.|.[.i.*.|.U.~.>.F G K = 2 G 5 1 $ 5 p G r $ 4 G K G = 2 K 5 8 n @.| Y t O t K K I 1 2 G 6 $ $ 4 p G t $ t ( ",
"y..X~.'.Z w.(.(.i.*.(.I.'.*.# 3 ; t - = 3 L L P P t 2 $ O 2 3 ; r - # 3 U 4.|.[.t.3 $ $ : 3 ; 5 ; $ 3 L L U P t 3 $ O e ",
">.t.>.V.@.e.~.).d.C ).~.}.b ; K t G r 4 t 3 3 G L 3 t p o 2 G r K t w 5 ' U.W.|.d.4 6 o 2 t t H t 5 t 5 3 K L 3 t t o i ",
"] G G K T W [ v l u @.$.v 9 G W L K Y P T 6 - K K t 5 & $ K W L K K P L s K.Y.Y.*.> # O S E L K K P Y r - K K t 3 * $ U ",
"U t S K 2 5 t 3 r 3 : > % & w r r K K 2 t 6 w G w w 5 % 2 r G r G I p [ ' z ^ | i I u c G G ~ K ~ l [ K 3 G 3 3 5 ; 2 Y ",
"7 2 K G w O # ; ; r ; 4 K t 4 r t p G 4 O O : ; 3 2 e K t $ O 3 G 3 l.}.!.z.` J.I.E.@.z.E.K.z.| 6.f.XX@.- ; 3 2 6 P t 7 ",
"U K , ; H t 2 5 S t o ; G L L L K : - G r 3 5 G K o 2 K t 2 4 K , # C.).Y.K.*.P.Y.`.*.i.'.W.F.a.t.r %.=.5 G K O 1 K F u ",
"] L 3 2 3 t K %.+.` 1 9 ` / F G K n @.k : e s U e # o 2 U K L L 3 2 J.'.`.P.M Y.`.{.=.i.'.).v.7.`.p.f.@.t K 6 O O 2 K _ ",
"I 5 r t O 3 L ,.Y.'.5.b.oXC.` r 2.(.z.l *.I.E.F.t F 5 3 K S r r 5 6 n l.i.N h C 8.w.d j l.l.x 2 ,.q.c.v # ; G F 5 3 L Y ",
"y $ ; 4 e = ~ X.V.}.;.^ I.}.x.@.(.I.B.s e.|.T.Y.k ; G 3 2 t - $ - 4 2 X v 9.e.*.t ^ b.u.q d C $./ 2 o 6 G 3 * 3 G 3 ; I ",
"/ 2 ; 3 G # N '.`.'.8.U C.Y.1.o.~.'.'.~ J ^.R.|.M # K 3 ; K K 2 - 3 H # 6.#X[.Q.8.L.`. X8.=. XoXV.F * w Y 2 X 1 G 3 ; U ",
"U Y 5 # 3 5 s %.u.;.s l { S 3 5 { 8.Z ; r G.x.=.s 5 3 K K 4 e T w # > 3 %.'.R.W.0.I.~.).0.8.).~.U.^ w r K w 6 4 5 K K i ",
"8 ; 5 4 r L K K G G v @.^ l b N G t 2 ` | S S 6 F L t 2 p 3 o ; 5 6 t 3 ` E.I.i.*.b.J.T.*.Z ~.V.U. .H K L Y G L t 2 G s ",
"U 5 K U L Y L K U C.'.W.=.c.`.'.e.G M. Xk.K L Y p r = @ # r S t K U K ; r s q F K e L e u ` ` K K U K L K 6 r r * $ * s ",
"X.Y t K L t $ o 0.%XY.U.U k.~.(.A.I V.R.Y.c = $ ; 5 e K 6 G R Y t K Y e & $ @ ; r G S 5 F E L t K Y 6 & 1 O ; e t p t Y ",
"_ G = 2 G 4 = $ | g.Z. X7.i. X'.l.V U.Q./.c X 2 K I r # 6 K K K = 2 K 5 2 $ 6 K G r O 4 G K K = 2 p 5 ; = 4 K G r * t T ",
"i - r & $ 3 P Y K K ^ ;.g d M N 9 r ^ M h K _ g.Q K 5 $ O 2 w ; 5 - $ w L P Y T r 2 $ O ; 3 ; r & * 3 Y Y Y P t 2 $ $ q ",
"I G K t 6 6 w 5 G L ; 3 t o * s v.y.p.t 5 A.!.}.<.S K t o 3 t t K 6 6 t 5 w G L 5 t t   2 G t H t 5 t 4 3 K L 3 t t O e ",
"..L K I T W r ; G L t 3 = $ F _ '.@XU.Y T S.'.Y.M.U 5 = = G Y L K K L L r * K K t 3 = $ K Y Y K L ! T r - L G r 3 # $ _ ",
"Y t G K 2 4 t 3 r 5 3 5 ; ; 5 U A.T.R.} 3 [ ~.>.N y 5 ; 2 r G ' S K l ` { e G k u J w ; t F t G K 2 4 t 3 6 i ~ ^ l 8 I ",
"8 2 K G e O # : ; 5 2 4 P r o j e.I O.` o 1 5.8 : & e P 3 1 ~.N.' | %.Y.).F.v A.K.[ U 6 o # 2 K p e $ # ; & i.).$.O.t 7 ",
"U K ; ; H t 3 6 K p   2 K t 3 t t ; % F t 2 3 G K O = K t ~ k.>.W.u.> >.U.2.S +.XXV.Y t 2 t K 2 ; G t 3 t t O.'.N.T t i ",
"] Y w : , t G 5 K t $ + ; Y K L L 3 2 2 F K 5 G 6 $ $ ; K K G Y _.i.-.y.O.=.U r.I.(.8.G K Y L 5 3 & 5 G w K p.P.^.K.G / ",
"Y 3 3 K O 3 P r 2 r F r 5 L G r r w G O e T 6 2 t F w 5 K F r k 6.s V } L %.v k 5 ~ ~ F r > : w t n =.L r w ~ t i | U Y ",
"e # ; 3 4 1 p T 3 O 3 G 3 & 6 $ = - 4 5 $ 6 T 5 * 3 G 3 : r ; # o 2 3 O r Y w 6.<.K j @.m.z.z.z =.m.(.>.L 3 # : G - 3 s ",
"U 2 - 3 J # w K 2 X 1 K w - I K 2 - 3 G = 5 K 2 X 1 K 2 - K K 3 4 3 F # 4 G a oXL.>.e.s.g.+.).V -.H I.p.K 1 X 1 K 3 ; ~ ",
"^ L 5 % 3 t t K 3 5 t 4 K K 4 t T r # 3 5 e G 3 w t 3 K K 4 4 P L t 5 5 t S i :.m.Y.o.T p.t.X.3 ; f.C.k.p 3 5 t 3 K K i ",
"7 ; r w 6 L K P Y G L r 3 K 2 * G K t 5 L K L K F F r 4 6 2 o : r L G G L K G > G %.u s K.H.w.s 4 =.K K K H G H t 3 p p ",
"U w K L K L K K K t r = @ $ r G t S P { T K t t $.8.` 5 c e.| I w %.>.Y G G 3.2.c q M n s a m K K U Y K K %.I 5 = $ O I ",
"X.P t L L e ; = o ; 5 r p t G W L ; ` W.K.Y.I v .X}.E.' | 3.! G =.}.R.A.&.p.oX+X2.~ >.3.G E { t.L G r.!.V.oXv : e G t U ",
"T K = 2 G 6 = $ 4 K t t $ t K K I # 7.XXR.'.| I Y.Y.Y.x.2.H L U 7.[.Y.W.;.z.y.n.>.~ U.y.L G >.~.A.{ =.(.L.r.' t r $ t / ",
"i ; w - $ 3 L L W L t 2 $ $ ; 3 ; 3 c }.P.G G G t.'.(.n i.(.U.w.r :.^.f.K G H U ;.*.U.`.Y.&.l.' f.D.N { Y G L t 3 $ $ e ",
"U t K r 6 t 3 3 I L 3 t p o 2 t 6 H 6 ` } u I K K @.V U [ *.8.V w 8 %.N l N I G a ` T b *.| U r e } s u q I L w p 6 o i ",
"] L K P P W t & K K 5 r = # K R L K L L K 2.`.>.( y q.[.Y.r G C.I.G.k i.'.~.^ K N.~.I.0 5 L K L K K T 6 - K K 6 5 $ $ U ",
"~ r G K 2 4 p 3 F 3 3 5 ; 3 t F e K K 2 w 2.).K.~.6.C.~.W.' G A.`.Y.s k.~.Y.i.7. XY.XXN 5 F >.o.g.N.s 6 3 F 5 : 5 - 2 U ",
"8 2 K F e O # 2 : w 2 e K t $ O 2 K G w o w.[.U.T.@.v.~.'.z.N '.'.(.[ v.'.(.i.7.].>.3.c # 9 8.3.g.N.d o ; ; 3 2 6 L t = ",
"U G 3 : G t 3 r K K O 1 L r ; p K ; ; G e } t.U Y s | z.l.*.N d.8.8.t ' 3.;.S p s.l r G 3 p { G.i.t r w 6 K K O 2 I t e ",
"o.L 3 ; 2 F K 5 K 6 $ o : L K L P 5 ; 2 6 F 3 r 3 ; G 3 b u y 5 q w.$.F 3 e o.I - : r G G Y K a q y K G r K 6 # o 2 K ] ",
"I 5 4 p O 4 T r 2 r F 5 3 K G r r w K O 5 Y 6 2 t F 5 ; F.Z.F ' l.t.Z.W.5.d.'.A.e.i 3 L G r 3 r S @ e T r : t G 3 w L / ",
"y # ; 5 e & G T 3 = 3 S 3 ; t & # ; 4 5 2 6 T 8 $ 3 r : w. XZ.F.s.k.V. X=.e.`.~.(.^ ; ; 5 & $ ; 3 3 = t L 3 * 3 G 3 ; I ",
"U 3 * 3 G * 4 L = . = G 6 : 5 G 2 ; 3 G # 5 K 2 X 2 S : u.t.>.F.5.v.G.^. .K U.}.V.t 3 2 K I 2 ; w G * 4 K ; o 2 K 3 ; U ",
"I Y w & w r 3 k 9.e.;.^ U %.r.2.U 3 % 3 t 5 K 3 5 e 4 G H r 8 f j z z l I G ` $.} e K K 5 6 T 5 $ 3 t 5 s @.F 6 5 K K s ",
"8 ; w 6 t 5 5 ` XX'.|.*.e. XoX^.u > 5 t L K L L G L t 2 t 2 w.`.K.G.K G G L G F G 6 2 t 3 o ; 5 t t 3 5 C.XXt. .t 2 t s ",
"^ 5 K P K 2 5 %.~.K.'.*.M }.p.N.^ K T K L K G K t r ; = o 3 4._.Q.E.` L H K p G 4 ; O o r K 6 K P K 2 5 n.`.~.A.1 = O I ",
"X.L t K P 4 o v ^.).x.U | m.F L W 6 L L e & $ o = t t p t F L T _.}.k : $ & O ; 5 t K e G W P r K P 6 7 v.}.'.2.5 t t I ",
"/ r 1 $ 6 6 3 o v 3.t : - w G 6 t * 2 r 3 2 1 4 K G 6 $ t K G I 0.w.l : 2 1 5 p G r $ 6 K K G 1 ; K 3 7 V 2.4.$.t # e T ",
"^ v > 5 N ^ 1.e.j J ( } N 9 v e.` r - M 2.T T T L 5 3 1 O ; w = ; # # 3 L K P P t < 1 @ : 3 ; w ; $ 5 K S K K e e $ # e ",
";.'.y.L.x.x.W. XP.v '.m.n.x w.$XW.<.^ W.`.Y.z.r L 3 t t o 2 K G G 6 e p 3 3 K L 3 t p o 3 G G G t 6 t 3 5 K L w r p O i ",
":.(.}.}.s.J.(._.C.N W.Y.(.l -.'.`.I.M (.!.'.c.G K r 5 - $ K P L K L T W G ; K K F 5 $ * G P P K P R T 6 & K L 5 5 * $ U ",
"/ z.Y.S.{ | Y.I.I c F.P.~.j c W.K.z.s 2.P.}.l.5 3 3 r ; 3 r r t G L 2 4 t 3 G 3 - 3 % ; 5 5 5 G K 2 3 4 w r w : 5 2 ; ~ ",
"q k K 6 K r ~ ^ 5 6 x s ( e a.`.$.6 G L ~ x f y 3 2 6 L e O O 4 K t w O # : ; w v N *.u v x.` 6 k j f v u - 5 2 e L r = ",
"U F ; ; F G w 5 ) n.(.} r T.@X`.V.; ; F H 3 5 K K O 2 K t 3 t K : ; H r w t S { OX|.}.l.v.XXR.i.M ^.[.U.` G K O 1 L t i ",
"] L 3 : : t w d W.Y.[.*.+ P.f.>.k.V : : r K 5 K 4 $ o 2 L K Y K 5 2 3 F K 6 6 ^ W.W.(.w.x.Y.(.v.*.Y.~.y.K K 5 O o ; K ] ",
"t 5 3 t O 3 L I W.[.|.8.# c p.r 3 j 6 O e L t ; r F 5 5 K F r r 4 t O e L r ; c ^.~.~.q.i.).^.J.s J. XL.( S t F r 3 K G ",
"k w e s p 8 U ] *.a.a.$.r i 5.u w y K s 9 I X.u 0 i L u i K y e y p s 8 I ..i 9 N <.N v z N N N ` =.w.i.%.T i i Y i i ^ "
};
