/* XPM */
static char *xpm_[] = {
/* columns rows colors chars-per-pixel */
"60 60 244 2 ",
"   c #040306",
".  c #1B140D",
"X  c #15150B",
"o  c #1C1410",
"O  c #1C1916",
"+  c #111010",
"@  c #251B14",
"#  c #2A1B16",
"$  c #321F19",
"%  c #3B1719",
"&  c #2F0D15",
"*  c #1A230F",
"=  c #1C2812",
"-  c #1E3316",
";  c #292418",
":  c #34211A",
">  c #322116",
",  c #243717",
"<  c #3E1D25",
"1  c #323132",
"2  c #0B0C28",
"3  c #461A1A",
"4  c #4F1A16",
"5  c #4E231E",
"6  c #461E24",
"7  c #4D2324",
"8  c #4B2A25",
"9  c #48262A",
"0  c #522524",
"q  c #542A26",
"w  c #5A2B25",
"e  c #522629",
"r  c #562B2A",
"t  c #5A2E2B",
"y  c #5A2625",
"u  c #5D322C",
"i  c #56302A",
"p  c #5D3331",
"a  c #593836",
"s  c #4E2E31",
"d  c #622E2A",
"f  c #62352E",
"g  c #65382E",
"h  c #69392D",
"j  c #643531",
"k  c #693632",
"l  c #663A32",
"z  c #6B3D33",
"x  c #6E3D38",
"c  c #733E35",
"v  c #763A2E",
"b  c #66251F",
"n  c #2C481C",
"m  c #32541F",
"M  c #325523",
"N  c #355C24",
"B  c #395E25",
"V  c #345F29",
"C  c #2E5129",
"Z  c #346325",
"A  c #3A6226",
"S  c #3C652A",
"D  c #3C6B2A",
"F  c #376828",
"G  c #3E712C",
"H  c #3E782C",
"J  c #296E3F",
"K  c #13413F",
"L  c #6D4035",
"P  c #6B433B",
"I  c #714236",
"U  c #74433A",
"Y  c #79453B",
"T  c #7B4B3C",
"R  c #76483A",
"E  c #426C2C",
"W  c #446727",
"Q  c #44742D",
"!  c #48762F",
"~  c #44792E",
"^  c #4A7A2F",
"/  c #446533",
"(  c #456A35",
")  c #447432",
"_  c #4B7435",
"`  c #467B31",
"'  c #4B7C32",
"]  c #4C7439",
"[  c #4C7A39",
"{  c #467438",
"}  c #517D3A",
"|  c #517B37",
" . c #455A3B",
".. c #313E42",
"X. c #164F4A",
"o. c #284846",
"O. c #28584B",
"+. c #314E49",
"@. c #2C644B",
"#. c #2B6846",
"$. c #336949",
"%. c #337449",
"&. c #367847",
"*. c #396656",
"=. c #2E754B",
"-. c #5D4547",
";. c #454A56",
":. c #4E5957",
">. c #774D43",
",. c #645957",
"<. c #745552",
"1. c #547A44",
"2. c #597849",
"3. c #566E49",
"4. c #637D54",
"5. c #647759",
"6. c #716D58",
"7. c #536F65",
"8. c #676464",
"9. c #767578",
"0. c #737269",
"q. c #5F5666",
"w. c #824B3B",
"e. c #81503F",
"r. c #864F41",
"t. c #8A5746",
"y. c #945D4A",
"u. c #965D49",
"i. c #8F5F50",
"p. c #9A634C",
"a. c #96634C",
"s. c #976956",
"d. c #9B745C",
"f. c #866753",
"g. c #A46B52",
"h. c #A96D54",
"j. c #A26752",
"k. c #AC7256",
"l. c #AE7459",
"z. c #A47259",
"x. c #B2755A",
"c. c #B57A5C",
"v. c #BB7D5D",
"b. c #B27457",
"n. c #A96952",
"m. c #9C7461",
"M. c #83726D",
"N. c #BB7E61",
"B. c #AA7A64",
"V. c #4D8333",
"C. c #4E8439",
"Z. c #528434",
"A. c #548935",
"S. c #54853C",
"D. c #59853E",
"F. c #568A3B",
"G. c #5A8B3C",
"H. c #598C36",
"J. c #558B34",
"K. c #608F3F",
"L. c #3B844A",
"P. c #3B8848",
"I. c #5B8544",
"U. c #5B8C41",
"Y. c #598545",
"T. c #44934D",
"R. c #489A4D",
"E. c #5D9242",
"W. c #59875B",
"Q. c #489A51",
"!. c #559B58",
"~. c #488652",
"^. c #62894B",
"/. c #629443",
"(. c #65924A",
"). c #6B865D",
"_. c #678756",
"`. c #6A9355",
"'. c #729156",
"]. c #4CA352",
"[. c #4FA954",
"{. c #51A554",
"}. c #54AB54",
"|. c #58AA59",
" X c #59B157",
".X c #4AA24E",
"XX c #63B15E",
"oX c #5A8A69",
"OX c #778969",
"+X c #669763",
"@X c #789768",
"#X c #758E6D",
"$X c #67A866",
"%X c #74A468",
"&X c #6AB763",
"*X c #74BD6A",
"=X c #77C36A",
"-X c #6EC264",
";X c #BE805E",
":X c #84966B",
">X c #839676",
",X c #888A74",
"<X c #BD8061",
"1X c #B2836A",
"2X c #B18E7A",
"3X c #8AA377",
"4X c #93A87F",
"5X c #C38362",
"6X c #C78A67",
"7X c #CC9672",
"8X c #D39E78",
"9X c #C4906F",
"0X c #DCA47B",
"qX c #E0AB7F",
"wX c #83CD74",
"eX c #7E7D83",
"rX c #827D83",
"tX c #7D8086",
"yX c #83838B",
"uX c #8D9C81",
"iX c #8E9190",
"pX c #97A789",
"aX c #9EAB92",
"sX c #96A988",
"dX c #A2AD95",
"fX c #A5AB9A",
"gX c #A3B295",
"hX c #AAB59D",
"jX c #A9B79C",
"kX c #B0AC87",
"lX c #ADB6A2",
"zX c #B1BBA4",
"xX c #D9A783",
"cX c #C7A285",
"vX c #E6AC82",
"bX c #EBB98E",
"nX c #B8C1AA",
"mX c #B4C291",
"MX c #F6C598",
"NX c #FFD19F",
"BX c #FFD7A7",
"VX c #FCCFA0",
"CX c #FEE3AD",
"ZX c #C7C094",
/* pixels */
"(.) ).pXpXpX4.@XsXsX@XS.[ ] K./._ ] [ S.] } D.[ / ] D.} _ U./.] _ [ S.{ [ U.] / ] D.} _ I./.] { ' S.) } G.] / _ D.[ _ (.",
"^ V.@XlXaXjX4.uXnXjX>XE Z.A.Q ^ A.Q Z Q ` Q V.Q Q ' E E , . o , A Z ) ~ ^ Z.) ~ ^ Q Z.Z.Q ! H.! F ~ ! Q Z.Q ) ' Q Z.Z.) ",
"( F `.hXhXlX_.@XjXlXuXF ) V.E N E Q ` ' F.A.A.A.V.E , . 8 c c 0 . , B A.A.H.A.V.V.' Q | Q B G Q ) ' A.J.A.F.V.A.' Q Z.[ ",
"D.~ ' U.3X>X_ I.>X>XY.D B Z V.V.^ Z.A.S.A.A.V.S , # 8 k j z z k k 7 @ n S Z.' ' ` S A B ' V.! Z.A.S.A.Z.Z.' ' ' A S B S.",
"E.A.'.Z.V.I.#X_.3.3.'.U.I.^ V.G.A.' V.F._ m = # u l k u f g l u i k h u # = n Q ' ~ V.' ' G.J.' A.A.' W S N D ! ' ' ^ S.",
"U.'.hX3XS.@XhXlX#X_.zXsXgX`.V.V.Z.S W A , @ q f Y j t u u l l u u w j Y u r : , W ' B ' A.Z.V.S E V.Q S S ! Z.V.' A ' U.",
"@XzXaXjX0.OXgXgX>X).fXpXhX).S G D M , @ q U g t z g t t u l l u t t p z u j I r ; , n Z G G D ~ S Z Q A.J.H.A.' Q A B _ ",
"`.@X`.3X^.@XdXhX#X_.fXdXlX2.F N , > 8 l l L u t z f t t u l z f t r g x t u I j j 8 > = n V.' A.' ) ' Q ) Z.A.Q ' ' N [ ",
"E.A.V.A.H.H.^.2.2.] _._.2.C , > 7 c U w u z u w z f t t u z l u w t u L t u z f r c x 6 > , W ^ A.H.A.' D Z.Z.V.~ D A S.",
"F.~ V.V.Q Q ^ G ` ~ F M = @ t z k g l t f z u t z f t u u l l u u t g l w u z u r k k k I i @ ; / 2.I.| ) ` ~ G ~ F Q S.",
"/ Q V.V._ B Z D G m - ; 8 k Y x r l l t u z u t z f u t f l z u u r f z u u L f y d d 4 h v y 6 : 1 ,X_.Z G Q W ^ A._ E ",
"D.V.G D V.' Q N - # 8 T x t g l r j l u u z u t z f t t u l l u u t f z i u z w p M.M.<.f.6.M.<.T 9 : , B V.Z.B W A.' ] ",
"/.A.~ Q G W = : i l f L j r l h r u l u u z u t z j t t u l l f t r f z u u x y <.q.;.;.q.;.;.9.R d k i ; = A A B D A.U.",
"S.` Q | n @ 8 j Y f t z f t l l r l l i f z u t z j t t u l l f u t f z t u z w 8.1   2 2   2 8.R r u Y l 8 @ S ` Q F.S.",
"{ A D Q o z l f z u w z f q l h r g l u t z u t z g t t t l l u t r f z t u x y <.;.O O O O 1 9.>.y u z f k c o V.Q D } ",
"D.E D Q . L d p z u t z f r j z r l l r f z u t z f t t f l l f t t f x t t x t -.eXeXeX9.9.eX0.f e t x u t c . V.Q D U.",
"D.H.~ Z . z u u z u t z g r g g r f l u u L u u z f t t u l l u u r f L r u h w -.yXeXeXeXrXeXq.l w u z u u I . Q Z.A.} ",
"E D ~ _ + x u p z u t z f r g z t j l r u z u w z f t u u l l f t t f z t u z y <.yXyXeXeXeXrX8.k w t z p t I o ^ Q [ [ ",
"Y.) Z.H.. z u u z u t z f r g l r f l u u L u r z f u t t l l u t r u L t u l u s q.9.9.9.9.9.,.h t f x t t x . F A A S.",
"/.A.^ Z.. z u u z u u z j r l g r g l i u z u u z f r u j l l f u r g l u u L j 8 a ,.eXyXyXiX8.k w t z u f L . ^ | ' S.",
"U.Z.A D . l t u z u w z f r l l t l l i p x u t l j t t t l l j t r f L i u z f u u y a ,.9.9.,.h t u z t t c @ ` A ' G.",
"[ D ! D . z j u L u u z f t l g r f l r u z u t x j t t f l l t u t f z w u z u t l z 5 r 9 :.8.l t u z j t x o Q A B ] ",
"S.V.Z.' . z f u z u t z f r g g r f l u u z u t x f t u p l l j w i g l u u L u t l g r g d p a z t u z u t x . ' ' N _ ",
"/.H.V.A.. z t u z u t z f r l g t g l i u L u u z f t t d l l u t u u L w u x u r l j t l x 0 w L w u z u u x . Q F Z U.",
"S._ Z.Z.. l j t z f w z f q l z t g z i u x u t z f t t f x h f t w f z t u L u t l l r l j r l L r u L u u l @ Y.2.) C.",
"E E V.C.. x t f z u u z f t l l r g g r f z u t l l t u r r t r u t f z i u x f t l j t l l r f L r u L u t x @ ^.(.| / ",
"D.A.D D . z u u z u t z f r l h r f l t u z u t L l 0 e 7 0 0 e e e j x t u z u r l j r l l r f g t u l u t x @ 3XS.' [ ",
"E.A.Q D X z u u z u t z f r l g t j z t u L u t l e 8 e p g g u e 8 0 j t u L d t l j r l k r f L i u L j t l @ dXsXV.G.",
"S.) ~ | . z d u z f w z f r l l r g l t j l u 7 8 w u f d j u u u u r 8 7 w z j t l l t l l r p l t u L p u z @ C.Y.Y.Y.",
"' Z D ) . h u u z u t z f r g h t l x t r r 7 r u f u r R y.y.T r j j u r 9 r r t l l r l l r l L t u L t t z o V.D Q | ",
"Y.E F Q . z u p z u t l f r l z w g f 8 7 0 j u f u Y g.k.6X6Xk.g.T u u u j q 7 7 f k r l l r j z u t l p t z @ Z.Q F U.",
"D.F.) F X x t u x f t z f r l l r 0 e e l g i f I j.c.p.j.g.h.j.p.c.p.I j r g j q 7 0 r z l r u z t d z p t k o ) Z.Z.[ ",
"( D Q ) o l u u l f t x j r f r 7 r t l u f L y.v.<Xa.% a.I z u.% u.5X<Xy.L u u h u e 7 q j j l I <.,X,X).<.c . ' E Z.| ",
"S.^ Z.G.. c u u l u t x u 0 6 w i l f t T p.l.k.c.c.k.c l l z x I h.c.c.h.k.p.R u f l p r s OX0.OX@XXX|.T.T.:X1 S E B D.",
"/.F.' A.. z f p I f e r 7 0 g p p u L p.c.5Xg.p.x.k.v.k.u u u t h.N.l.x.j.g.5Xx.p.R t u P j 0.`.{.{.{.|.!.~.T.W.%X%XS.S.",
"E.Z.F W . z u u l q 7 8 j z z L I h.<X6Xv.v.k.j.x.l.l.h.g.l f g.z.x.l.c.j.l.N.N.6X;Xh.f.#X:X%X.X[.}.].XX=X&X&X=X&X}.$X`.",
"[ D ) D . z d 0 7 0 f j l t 3 j T g.u.r.w.r.p.l.c.l.b.j.x.T U x.j.x.x.l.k.a.r.T w.u.p.:XQ.{.[.}. X[.Q.Q.]. X-X=X}.P.+X2.",
"D.' Z.'   6 d e t g f g q r d.m.s.5 l s.m.>.3 u.v.k.x.k.k.v.N.l.k.x.k.v.u.3 >.m.s.l 5 ,X%X[.}. X|.].Q.L.=.P.|.|.&.W.2.[ ",
"/.A.V.A.n   . 6 x u T i.e B.BXNXbXw i.VXVXMX>.z N.b.<Xy.l Y T k y.N.x.<Xc x bXNXNXa.w ZX$X]..XQ.Q.[. XQ.&.~.$X|.P.$X_.S.",
"F.' V.Z.W n . . T r.h.v.z 9X8X7X2Xu t.8X9X0Xz.c <X<Xp.8 c y.t.c 8 u.;X<Xz d.vX7X0Xt.f kX$XT.&.T.].].|. X|.!.!.].-XwX&X%X",
"/ Q Z.V.Q n n X >.j.k.v.f % 6 3 0 l d 6 7 6 3 >.6Xa.7 I T f u T Y 7 u.6Xr.% 5 6 6 t h x +XQ.L.L.Q.].T.T.}.}.XX*X-X X$X+X",
"D.Z.D D ' Z N O T a.k.b.l i.d.s.f.f R s.s.z.>.w.5Xt Y U I m.d.R x Y t v.T >.d.s.s.R f f.3XQ.P.&.P.P.&.&.P.}.*X=X].L.+X[ ",
"/.A.) Q F Z F * T p.h.k.L bXBXVXMXt a.BXNXCX2Xc v.g z T xXMXMXxX>.I k v.x 1XCXNXBXs.u MXmXR.&.&.$.%.@.@.%.T.|.|.L.&.`.`.",
"S.) ^ | M M W O T a.k.b.9 r.vXqX7Xp t.xX0X8Xw Y 5Xu 3 m.bX8X8XbXB.3 y 5X>.r 7XqXxXi.g cX@X&.$.%.=.@.O.O.&.Q.].].Q.$X$X$X",
"_ Z F ) D m B = T u.g.v.j & f p u 3 7 p j 0 & t.5Xu 6 p.vX0X0XvXs.5 f ;Xt.& q j p 6 -.:.O.O.@.%.&.$.@.@.L.]. X}.$X$X$X`.",
"D.) D Q V.n M * T a.g.v.l.l t f u z l f j u Y l.c.k q T a.y.t.r.I 0 u c.l.Y t k j x 8.O.O.@.%.&.&.%.%.&.L.Q.[. X].T.+X@X",
"S.A.Q F D N M * e.p.g.c.l.;Xv.c.k.c.N.v.N.;Xl.g.c.f u u 3 7 u y.u.g t c.g.k.N.c.N.N.2X5.%.%.&.&.@.@.=.=.=.L.P.].R.P.P.W.",
"E G ) ' Q M N ; T u.g.c.l.l.x.x.p.k.b.l.l.l.g.h.c.p u u u l T a.e.u t c.g.g.c.x.l.x.2X7.#.#.%.#.O.X.@.@.O.O.&.P.P.P.#.*.",
"Y.^ A.H.| M m ; Y y.h.c.k.b.x.l.j.h.x.b.b.x.g.g.c.j u u u z l 6 6 q p c.g.g.c.l.b.b.2X7.X.o.O.O.O.@.O.........O.=.J @.#X",
"/.F.' Z.Z.E n O y.y.y.c.N.x.c.c.g.x.c.v.c.N.l.k.<Xj u u p l l f g f p <Xk.k.v.c.c.v.N.9.O.O.O.@.=.=.+.1 < ....+.O.O.7.`.",
"U.V.F F ' V.G - l p.t.h.x.x.x.b.j.h.b.x.b.b.h.h.N.j q d t f j t t y k x.h.g.x.b.b.b.b.OXO.%.#.=.=.+.1 6 6 1 ..+.#.*.W.U.",
"Y.1.G ) 4.G.`._., : : $ $ $ $ $ $ $ $ $ $ $ $ $ : & 0 r e r q e t e & : $ $ > $ $ $ $ :.O.#.#.O.o.1 9 9 6 e 9 +.#.%.~.Y.",
").hX@X4X>X>XdXzX>X/ ,X4.2. .7.pXOX3./ OX,X0.5.F A X X . X X . . . X X M N M S W M A Z :.7.O.K X.:.6.-.s y v >.o.X.O.%.@X",
"`.gXlXlXOXpXgXgX3X_.fXdXdX2._.gXfXaX5.aXaXlX>X' A.' H A B V.H.A.Z.H.H.H.' D Z.A.' ) D A W.7.*.oX'.:X6.r d w.f.8.*.*.7.`.",
"G.>XaX4XI.^.aXpX1.1.>XpXdX} 2.dXuX>X[ '.pXlX@X[ ) H ~ D D ' V.' V.S.Q Q V.G ' Q D H Z F ` Y._.U.V.| 6.9 4 T :X^.Y.2.{ S.",
"( 1.A.V.Z.^ I.I.^ | 2.} ^.] #XhX_.V.V.A.I.3.3.) ) D ^ A._ B B E Z.' ! B A D D ` 2.4.).1.4.@XI.[ } 3.5.9 % t._./ ! A._ / ",
"D.V.G F V.V.Q ) I.:XgX(.` sXnXjX3XF D C.Z.H ~ Z.Z.B W Z.' Q ^ Z.D D V.V.Q ' V./.zXlXlX>X>XnXaX@X5.fXdX9 4 T (.B W A.[ [ ",
"/.A.Q Q G ' ~ ] aXaXjX_.Z pX>X`.:X_.G G ^ Z.Q Z.^ A A D A.C.F.A.Q Q D V.Z._ ^ I.aXaXgXOX:XgXgX3X).jXM.6 b R '.W B D A.G.",
"' ~ Q ' A Q A.S.dXlXzX).Z 2.@X` Q 1.` Z ^ G.` D V.V.` Q Z.V.` ) ~ | B Q H.' G 1.fXdXgXOX#XfXfXuX_.0.r r w 4 c :X` Q Z.V.",
"1.) { } | ( S.E.).OX#X`.[ ] ).] ( { } } ( S./.[ G [ S.[ [ Z.{ { ) } } ( S./.[ ( 4.+X4.2.2.4.4.4.2.5.6.0.6.3.3.).E.[ [ I."
};
