/* XPM */
static char *xpm_[] = {
/* columns rows colors chars-per-pixel */
"60 60 256 2 ",
"   c #29481C",
".  c #2E501E",
"X  c #2E4E22",
"o  c #334D25",
"O  c #335423",
"+  c #355C24",
"@  c #395E25",
"#  c #39522C",
"$  c #3C5D2A",
"%  c #355827",
"&  c #3E5931",
"*  c #2F5623",
"=  c #366325",
"-  c #3A6326",
";  c #366429",
":  c #3C6529",
">  c #3C6B2B",
",  c #386A28",
"<  c #3E712C",
"1  c #3E782E",
"2  c #3F7430",
"3  c #435B36",
"4  c #426D2C",
"5  c #44672E",
"6  c #43742D",
"7  c #49752E",
"8  c #45792E",
"9  c #4A7C2E",
"0  c #456D32",
"q  c #486937",
"w  c #447531",
"e  c #4A7632",
"r  c #467A31",
"t  c #4B7C32",
"y  c #4C733D",
"u  c #4D7E3A",
"i  c #517E33",
"p  c #537C3C",
"a  c #53753D",
"s  c #506D3D",
"d  c #4F6A40",
"f  c #546A48",
"g  c #4F7B41",
"h  c #537443",
"j  c #547C42",
"k  c #597E44",
"l  c #5B744D",
"z  c #5B7B4B",
"x  c #567949",
"c  c #5E7952",
"v  c #5A6A51",
"b  c #627C54",
"n  c #657A59",
"m  c #627155",
"M  c #6C7963",
"N  c #737D69",
"B  c #767C70",
"V  c #475E41",
"C  c #FF150B",
"Z  c #CB271B",
"A  c #FE251A",
"S  c #FF2719",
"D  c #F5371F",
"F  c #D5352A",
"G  c #D83B34",
"H  c #CE352D",
"J  c #FD3224",
"K  c #FA3628",
"L  c #F5322A",
"P  c #B84B39",
"I  c #FA4938",
"U  c #EF4A3A",
"Y  c #C94538",
"T  c #A85844",
"R  c #DC544B",
"E  c #FC4B46",
"W  c #FA5748",
"Q  c #FD5C53",
"!  c #F95952",
"~  c #E75850",
"^  c #F8654C",
"/  c #FE645C",
"(  c #FA6559",
")  c #F8775D",
"_  c #E9705A",
"`  c #DF746C",
"'  c #EA6C66",
"]  c #FC6C63",
"[  c #F66B67",
"{  c #FB756B",
"}  c #FE796E",
"|  c #F67769",
" . c #EB7A75",
".. c #FE7B72",
"X. c #F57B75",
"o. c #EA766C",
"O. c #DA6C5F",
"+. c #4A822F",
"@. c #4D8233",
"#. c #4C8437",
"$. c #528534",
"%. c #548936",
"&. c #598C36",
"*. c #53843A",
"=. c #558A39",
"-. c #598D3A",
";. c #5A873F",
":. c #5A913A",
">. c #579037",
",. c #618B3F",
"<. c #24A06A",
"1. c #558243",
"2. c #5A8344",
"3. c #5D8B44",
"4. c #5D834A",
"5. c #5E8C49",
"6. c #578B40",
"7. c #5E8C4B",
"8. c #61844C",
"9. c #628C4A",
"0. c #628D47",
"q. c #64934C",
"w. c #6A944D",
"e. c #6B9A4E",
"r. c #669547",
"t. c #648453",
"y. c #6C8D55",
"u. c #6B845D",
"i. c #6B8A5C",
"p. c #668656",
"a. c #6B9356",
"s. c #72975B",
"d. c #728E5E",
"f. c #6E8961",
"g. c #718662",
"h. c #728C63",
"j. c #7A8D6C",
"k. c #77896B",
"l. c #769463",
"z. c #7D9C6C",
"x. c #799567",
"c. c #7E9472",
"v. c #7C9A72",
"b. c #7D8D72",
"n. c #7FA76B",
"m. c #829B6C",
"M. c #829373",
"N. c #839B73",
"B. c #89997C",
"V. c #859079",
"C. c #82A36A",
"Z. c #8CA37C",
"A. c #89A677",
"S. c #91A47E",
"D. c #8FB079",
"F. c #F1865E",
"G. c #EB896A",
"H. c #F1936B",
"J. c #EB857A",
"K. c #FD827A",
"L. c #F78579",
"P. c #EB9677",
"I. c #F59779",
"U. c #F18E68",
"Y. c #ECA479",
"T. c #F1A67E",
"R. c #DE8371",
"E. c #5CB38B",
"W. c #4FC197",
"Q. c #6CC7A4",
"!. c #8C9A80",
"~. c #939C83",
"^. c #92A484",
"/. c #94AB84",
"(. c #95A48A",
"). c #9AA68C",
"_. c #9BAB8D",
"`. c #97A88A",
"'. c #9DB28C",
"]. c #9EAC93",
"[. c #9CA394",
"{. c #9DB396",
"}. c #8FA582",
"|. c #A2AD94",
" X c #A5AE9A",
".X c #A8A898",
"XX c #A3B295",
"oX c #A6B39A",
"OX c #A9B59C",
"+X c #ACBA9D",
"@X c #A6BB96",
"#X c #ADAF94",
"$X c #8CBEA3",
"%X c #ACB5A1",
"&X c #ADBAA1",
"*X c #B2BCA3",
"=X c #B5BAA8",
"-X c #B2ACA1",
";X c #A69C90",
":X c #EC8B83",
">X c #E88A86",
",X c #F38B84",
"<X c #F78986",
"1X c #EC9489",
"2X c #F4928C",
"3X c #F89788",
"4X c #E89B95",
"5X c #F39B93",
"6X c #F79996",
"7X c #D7A796",
"8X c #CEA795",
"9X c #F3AA87",
"0X c #F3B78B",
"qX c #F5A599",
"wX c #EFAE95",
"eX c #CCB6AA",
"rX c #D2B4AE",
"tX c #F8A9A6",
"yX c #F6B8A9",
"uX c #F8B8B5",
"iX c #E9B2AE",
"pX c #D0958F",
"aX c #8CCFB1",
"sX c #BCC4AB",
"dX c #AACDB3",
"fX c #F9C69A",
"gX c #C8C9B5",
"hX c #F7C9A6",
"jX c #FBD7A9",
"kX c #F7C4BC",
"lX c #F8D4B5",
"zX c #FCE7B7",
"xX c #FCEFB6",
"cX c #D4D7C6",
"vX c #F9C8C6",
"bX c #FBD2CD",
"nX c #F6D7C5",
"mX c #FBCCD1",
"MX c #FCD4D3",
"NX c #FDDAD7",
"BX c #FDD5DA",
"VX c #FEDCDB",
"CX c #F6D8D3",
"ZX c #ECDBD3",
"AX c #FCF4C9",
"SX c #FEE1DD",
"DX c #FEFAD6",
"FX c #F6E7CC",
"GX c #FDDEE2",
"HX c #FEE4E2",
"JX c #FDEAE5",
"KX c #FEECEA",
"LX c #FAE7EA",
"PX c #FEFEFD",
"IX c #FDF6F4",
"UX c #F6EBE9",
/* pixels */
"s.j h.].|.`.u.N.`._.N.5.1.x q.w.j j 1.5.j 2.q.k s k q.1.x q.w.j k 1.5.g 4.q.1.s p 9.4.j q.e.k x 1.5.g 5.9.k s j 9.2.j s.",
"i #.v.+XXX+Xp.!.=X&X^.< $.$.w t -.r , 7 e 7 $.w r e 7 $.$.t 9 -.w , w w r *.w w t w $.$.w t -.w , 7 8 9 $.7 w t w $.=.9 ",
"y , y.XXOXOXt.v.+X@X!.> 7 @.7 + < w w t %.$.%.%.#.$.9 4 t 7 + > 7 w 9 %.$.&.%.@.@.9 7 $.6 + > 7 w t %.$.%.=.@.$.t 4 @.2.",
"5.7 t 6.N.M.6 2.V.c.t.> + + t @.w $.=.$.%.%.$.t t r ; 5 - t @.w $.=.$.$.$.$.@.r r 5 @ + e @.8 $.%.*.*.$.$.t @.r : : $ 3.",
"e.&.y.@.$.z h.p.f f a.-.2.7 @.>.%.t $.%.7 > : + > r 8 i e @.-.=.t $.=.8 - - + 4 9 8 t t t :.%.t $.%.e > : + : r t t t 3.",
"q.s. XA.;.z.*X%Xx.p.*X`.].a.@.@.$.> 4 $.7 5 : 7 i @.t ; e =.#.@.- 4 $.7 0 c t.9.-.t - t %.$.@.5 4 @.7 > : 7 $.@.t - t q.",
"N.&X].%XM M.XX'.v.u.XX_.OXu.- 6 > e , ; 6 %.%.-.&.t 4 - - 4 6 > 8 , - < -.x.OX&Xl.7 - + > 6 > 8 , = 6 =.$.-.&.t 0 - - j ",
"l.x.w.Z.t.d.|.OXM.n OX|.%Xl > @.t #.t 7 t 6 6 @.%.6 t i + 4 @.9 %.t 8 8 8./.|.*Xc.8 t + 4 @.t $.t 7 t 6 6 @.%.6 t i + 1.",
"e.#.$.$.%.:.8.l k y t.9.z q @.>.%.$.=.&.-.9 , @.$.9 7 , - @.>.&.$.%.&.%.i (.]._.p.2 ; @ +.>.$.$.%.&.%.9 , #.$.t 8 , - 7.",
"3.t +.$.7 6 t < r 8 < 1 , , 7 r r $.$.4 e t w @.6 w 8 , 4 t @.r #.$.t 8.0.h *.t.j *.y x @.@.1.@.2.2.0.t 6 @.6 6 r , w 9.",
"h 4 $.@.7 @ = < < w 4 w $.t w r t $.@.w $ = > < 6 4 t %.7 - + 7 @.6 M.%X|.N.t.Z.`.].t.N.].^.N.0.h.v.=Xn , , 6 > t %.t y ",
"9.@.6 > $.9 > 8 9 t @ > @.&.%.%.$.> , @.9 6 r $.$.@ : %.t 4 e $.< = }.oX_.S.u.(.].XXu.z.oX].~.k.l.1 a.i.8 $.$.$ 4 $.@.j ",
"w.=.w < < t *.y.e.2.5 q 4.6.+.@.$.c t.j 7 t p -.8 + @ 4 =.#.%.%.6 > ^.&XXX(.b ].XX*Xu.v.+X@XB.g.oXz.C.p.r *.8 ; + 4 %.q.",
"5.r 7 t @ 7 %.a._.OXf.B.=XB.4.r a.oXN.k n ).[.B.u #.r 7 =.@.+.1 r t f.~.M.b h n h.j.s h M.V.l > a.j.V.l ; > t +.8 7 =.5.",
"j - > w e - 1.r.A.%Xg.2._.%XN.p.XX).A.p x.+X/._.h < @.6 4 t , ; 6 p v.oXi.x.N.f.@.2.V.j.q d b u.3.> + 8 @.6 = 7 @.6 6 4.",
"9.4 > 1 @.= b +X XOXd.;.S._.s.0.|.OXOX2.u  X'.+Xc = $.w , *.3.y.}.{.dXQ.{.cXdX*Xh.}.@X*Xh.h.*X=XN.+.> w -.4 O 4 t 6 > 9.",
"5.;.6 ; 6 8 p y.x.d.a k 3.@.4 7 0.h.M 4 t ^.M.h.@.7 6 *.-.p.+XI.( / J.E.aXW.dX{.b.`.{.oXk.h.@X|.`.1.6 8 $.w 7 t 7 @.$.2.",
"y < 6 7 t %.$.$.@.9 8.t.2.2.c b i r 6 2.8.@.9 9 #.%.t p A.7XQ / { { / R.<.$X%Xc.n !.Z._.f.M |.Z.^.y.$.%.%.%.#.$.9 6 p 2.",
"q.w $.&.$.%.$.$.*./.OX].i.B.XXOXs.$.A.*Xm.$.%.-.t t g `.K.W { } [ ..{ / x aXl , @.w $.e e 2.8.$.=.;.%.$.#.$.t t ; - ; 9.",
"e.-.t @.%.t : + M gX_.`.2.m.|.XX^.p A.'._.z > ; > 5.*X] Q } } { { { ../ T W.v ; 6 *.@.8 +.>.%.9 @.%.8 - 5 + > w r i t 5.",
"q.$.: > @.e > - 3.z.D.&Xg.j.*XOXM.b ].]. Xk * r w.=X( ( } } { } } { ..] Y <.aX2.@.6 @ r #.$.+., 4 $.9 : : 7 $.@.r $ 9 q.",
"2.> w > ; 6 %.&.$.$.2.g.l d b n q 8 4.n t.q.s.'.gX) / ....} { | { ..K.E H <.W.A.9.1.s > > 6 > 8 > = w %.=.&.&.t 6 - - j ",
"9.@.@.t 9 9 7 6 @.%.> 6 t + , 1.^.C./.'.sXZXUXLXK.^ { ..{ { } ....} ~ G P v.S.cXZXgXsXx.p.3.$.$.t 8 t 7 7 #.%.6 u t + j ",
"w.%.$.=.-.:.r > $.%.t 7 , 0 3.A.cXUXUXJXHXHXIX1XE ..K.K.........[ R G G P !.<X4XHXSXNXNXZXgXn.3.&.&.-.t , $.$.8 < - : q.",
"3.u @.$.4 7 9 w t 7 w #.4.}.cXCXSXHXHXKXJXKXPX4XF F R ~ ^ ! ~ R G G H H ' 5X<XL.VXKXHXHXSXSXJXC.;.4 6 9 7 +.g 1.4.k w 4.",
"h 4 #.@.7 $ = < w 3.i.@XcXKXHXJXJXJXJXKXKXKXKXPXCX>XR G F Z Z Z H G R ' <X<X,XvXPXPXIXIXSXbXyXgX5.7 $ ; > , x.XX9.w.p y ",
"9.*.> > #.t 7 t s.cXCXNXSXSXSXSXSXGXHXJXJXKXJXKXPXPXIXbXuX4X1X1X,X6XtXvXvXCXIXPXSXbXuX5X:X .R 7Xk #.@.6 t @.q.&XN.3.e 1.",
"e.=.6 < < @.@.r s.CXMXVXVXVXVXNXBXNXVXSXVXNXHXHXJXJXIXPXPXPXPXPXPXPXPXIXKXVXkXtX,X . .:XP.P.F.8Xz - 8 @.e t z.(.XX`.$.q.",
"5.8 6 t @ 7 &.t e A.MXCXMXvXuXkXkXvXMXNXHXVXGXNXNXVXHXLXKXKXKXPXLXvXyXtX2X .o. .J.P.Y.) I _ H.8Xh l y.=.9 6 1.@.#.t.-.5.",
"j ; > 7 7 : t -.7 l tXJ.[ wXxXjXzXfX) X.6XkXuXmXBXGXVXBXHXLXIXvX,X,XX.J.,XJ.P.H.Y.Y.^ S C ^ H.Y.n x.XXa.$.8 = > t , 0 2.",
"9.0 , 1 #.= 7 $.5 q 8XW E K.AXAXAX<XE Q E 9XlXhXyXuXvXGXGXHXkXL.,XJ.P.G.I F.T.U.Y.^ A K S ^ 9X Xl r `.m.@.4 O > @.7 > 9.",
"5.&.8 , 6 8 t $.7 ;.-XW / Q 0XAXfX] / ] ] Q lXDXzXhXhXyXkXGXtXo. .G.Y.I C W Y.T.U.A S J S ^ yXf X k.Z.m.i 7 7 7 w $.%.2.",
"y > w e 9 &.%.%.=.q.7XI ] W 3XDXhX( / ] ) Q ] lXAXAXAXzXfXlX1X_ H.0X_ A J E 0X9XL J ( '  .o.iXs + t.$.$.$.@.#.$.+.4 *.2.",
"9.e $.=.$.$.$.$.@.z.5XW / E ) AXyX! / ] ] ] ! I.zXjXFXAXDXAX0XH.0XH.J K A I 0X) W :X6X5X5X<XiXf 7 p ;.$.$.a.p r , - - 0.",
"e.=.9 %.%.8 , : - z.mXmXkX6XqXlX9XQ Q Q Q / Q ] FXAX} } jXAXhXG.T.U A J S ! >X>X4X6X2X6XqX,Xo.).p @.s._.A.=Xz 6 9 t t 9.",
"q.$.: 4 $.8 5 : u C.nXMXLXIXGXmXvXkXtX5X<X{ ) E wXfXI E 9XAXfX9X) C J U ' >X,X<X5X<X6X2X! J U rXB.0.d.XXS.m.2.t t - u q.",
"2.> 7 , - 6 %.%.:.D.zXU.Q yXnXvXVXHXHXLXJXCXkXtXqXK.! E / AXAXI.K L ' >X>X1X6X2X,X5XP.L J [ J.-Xc.!.b 0.%.$.=.9 > : - j ",
"9.t $.t w t w 7 =.n.nXI.E E fXjXhXhXkXnXmXBXSXLXHXVXkX6XQ qXAX_ ~ 1X5X6XtX2XI.3XI.T._ [ 5X>X~ #Xh z p y s $.%.6 t i $ j ",
"e.-.#.%.-.-.9 ; =.A.mXMXvXtXwXAXhX^ ^ I.hXlXkXkXvXbXHXIXMXuXwX .6X6X5X5X[ I U.Y.P.I.1X1X` O.R 8Xp @.-.9 ; #.%.9 7 - ; q.",
"9.e @.$.7 7 9 w #.}.uXvXvXNXBXVXmXtXK.( ) fXzXlXyXyXkXuXbXKXMX6X>X4XG.J C U P.,X2X<X .` o. .[ rXl.M.p 9 6 @.6 < r , 6 5.",
"y 0 $.@.w @ = < 1 1.l h.~.#XrXuXmXHXKXVXuXtXlXlXzXjXL.9XyXuXkXI.P.F.L L ' 5X6X<X,X . .>X,XK.L.eXh.c.d + > < 6 4 t %.e y ",
"9.@.6 > @.t 6 r $.i O X 3 3 & c (.eXkXmXIXJXmXvXCXkX{ | hXfXfXP.G._ ' 6XtX2X<X,X,X2X<XX.2X8X[.B c w t 7 8 #.%.@ : =.t 1.",
"e.=.6 > 4 @.$.r $.9 O   X + + % 3 3 !.iXtXvXHXVXGXVXHXvXkXjXyX>Xo.1XqX2X,X:X2X2X2XX.X.8XV.s $ o # 5 *.@.8 $.7 = $ > =.q.",
"5.6 9 i @ 6 -.t > r r < ; 7 , + . o & f ;XiXuXbXVXNXNXGXSXVXBXtX<X6X2X,X<X<XL. . .pXB.d # X . X : + 7 -.t < t @.8 r =.9.",
"j - > w 7 : @.&.6 - 7 @.< , 7 $ + * + O # v ~.rXuXvXVXVXNXNXHXyXL.J.:X<XJ.<X4XeX[.f o   .     + 4 6 : i &.w @ 6 @.< 4 3.",
"q.4 , 6 #.> 7 $., * - @.t > r t 4 ; , 4   X $ 3 V.eXvXvXMXVXHXtXL. .X.4X8XB.B B v X     $ 0 : : < #., 6 $., + 4 @.7 > 9.",
"5.-.7 = 6 t 8 p j.l.y.1.-.a.l.s.-.1 = < 4 @ $ X % 3 M #XrXvXMX5X[ 4X;Xv 3 # # & 3 X : 4 4 7 %.8 , 6 e 7 p t.@.+.7 $.%.2.",
"y 4 r 8 t 6 8 t.=XOX+Xu.j.*X=X Xy 6 7 9 $.$.t w - @ % # d k.eXiX-XB & X . % O O : @ = t 6 @ > 7 r t 6 r Z.=Xl.9.u 4 #.2.",
"9.r $.&.$.6 7 y.|.^.OXp.n OXz.A.2.@.%.$.%.$.$.t w : X     o f N M m # % - 4 4 4 6 - - - t @.t $.&.$.< r C.oXXXS.0 = - 5.",
"e.;.t $.%.7 + z  XOXN.2.9.m.+.=.-.9 $.=.e , : @ , 6 6 4 @ + @ $ m N & + + $ + : 8 t t e @.:.=.t $.%.6 5 B.%XOXs.6 t e 9.",
"q.@.; , t @.4 + z s.t 6 > e 9 +.9 ; > t 6 , : 7 $.@.t - 7 9 4 5 v m q , 5 4 7 @.@.t - 7 $.$.@.> 5 $.6 5 b s.s.y.t @ 8 q.",
"5.l 6 w b 3.e.d.x @.2.8.b q z l.4.r , b s.;.-.-.%.t 4 : @ , 6 $ $ % $ w =.$.&.&.t 4 : - > 6 > w > = 7 %.$.$.$.e e : : j ",
"x.OXx.S.V.M.].*X(.x OXC.n.c j.gX_.l.2.|.OX_.m.9 %.6 t i @ 4 @.@.$.9 7 t 6 6 #.%.6 @.t + 4 @.+.#.t 9 t 6 6 $.%.6 t i $ j ",
"s.XX&X*Xb.^.XXoXZ.t.|._.].x i.oXoX(.b |.].OXB.@.$.t 7 = - @.>.%.$.%.-.:.t > %.$.r 8 : : @.:.%.$.%.&.:.9 , $.%.9 8 ; - q.",
"7.N._.S.;.9.{.(.*.z B.(.|.h z ].}.N.*.a.).%XM.8 1 6 r > 4 r t 9 #.$.4 7 t 6 t 6 < < , > t 8 7 @.$.4 4 8 2 @.< 6 t > 4 2.",
"h k $.t $.+.2.2.9 9 l p 3.w k. Xp.9 @.$.2.l d 0 6 4 8 %.9 $ @ 6 $.@.w - - > > r c c p.y z N.4.t k h h l y > w > 7 %.u y ",
"9.@.> , @.@.7 r 3.C.XX8.w /.sX&XA.> > #.$.6 8 $.%.@ 5 $.t 4 t $.< > #.@.7 r @.0.*X&X&XM.B.=X'.x.b |.OX`.4.@.$.@ : $.$.1.",
"w.=.6 w > t 8 y ]._.OXu.; (.v.a.m.b < < t #.8 @.7 - - , %.#.-.%.7 > > @.#.7 9 2.]._.XXj.N._.XX!.u._.|.z.$.+.7 - $ > $.q.",
"@.r w t : e &.1.].+X*Xh.; 1.x.#.w j t @ 7 :.t 4 t #.r w *.@.+.r 7 i - w >.u > j  X|. Xk.c. XoX~.j }.sX/.3.@.@.@.r r $.$.",
"p.g j 4.2.y 5.e.h.b.M.d.1.j k.z h u 2.8.h 3.e.2.y 1.5.1.1.5.g j j 2.2.h 5.e.1.h g.l.f.p.z u.g.g.p.l.M.c.s.q.1.1.5.1.2.a."
};
