/* XPM */
static char *xpm_[] = {
/* columns rows colors chars-per-pixel */
"60 60 247 2 ",
"   c #243D16",
".  c #29471C",
"X  c #2C521E",
"o  c #33541F",
"O  c #2D4D22",
"+  c #324B26",
"@  c #345424",
"#  c #355C24",
"$  c #395D25",
"%  c #3A5A2A",
"&  c #38572D",
"*  c #366325",
"=  c #3A6326",
"-  c #376529",
";  c #3C6429",
":  c #3C6B2A",
">  c #396927",
",  c #3E712D",
"<  c #3E782E",
"1  c #3F7430",
"2  c #455C37",
"3  c #405E2C",
"4  c #426D2C",
"5  c #41642B",
"6  c #43742D",
"7  c #49752E",
"8  c #457A2E",
"9  c #497B2E",
"0  c #446633",
"q  c #456D33",
"w  c #4B6B3C",
"e  c #457431",
"r  c #4A7533",
"t  c #457A31",
"y  c #4B7C32",
"u  c #4C733B",
"i  c #4C7B39",
"p  c #467439",
"a  c #517D34",
"s  c #527C3B",
"d  c #50733B",
"f  c #4D5A46",
"g  c #525E46",
"h  c #4E6742",
"j  c #546A49",
"k  c #547B42",
"l  c #597E44",
"z  c #5B7B4C",
"x  c #577549",
"c  c #596652",
"v  c #5D7552",
"b  c #627C54",
"n  c #66785B",
"m  c #617E4E",
"M  c #6D7A66",
"N  c #73776C",
"B  c #FF140B",
"V  c #CB271D",
"C  c #FE251B",
"Z  c #D53C34",
"A  c #D2352A",
"S  c #FE2B23",
"D  c #FC3324",
"F  c #F73727",
"G  c #E83934",
"H  c #BA4B38",
"J  c #F94837",
"K  c #F24E3D",
"L  c #C84638",
"P  c #A95744",
"I  c #DB564B",
"U  c #FD4A46",
"Y  c #FA5748",
"T  c #FD5B53",
"R  c #F85953",
"E  c #E6564E",
"W  c #F8654B",
"Q  c #FD635C",
"!  c #FB6558",
"~  c #EF715A",
"^  c #DD7168",
"/  c #E86C65",
"(  c #FC6C63",
")  c #F66B65",
"_  c #E9786D",
"`  c #FC756B",
"'  c #FD796E",
"]  c #F57668",
"[  c #EB7A75",
"{  c #FE7B71",
"}  c #F77B76",
"|  c #4C812F",
" . c #4D8333",
".. c #4C8436",
"X. c #528534",
"o. c #548A36",
"O. c #598B36",
"+. c #54843B",
"@. c #58863D",
"#. c #558B39",
"$. c #598C3B",
"%. c #588737",
"&. c #5B903A",
"*. c #589037",
"=. c #538A2F",
"-. c #24A068",
";. c #558342",
":. c #5B8345",
">. c #5D8B43",
",. c #5D834A",
"<. c #5E8C4A",
"1. c #5E9146",
"2. c #61834D",
"3. c #628C4A",
"4. c #648D48",
"5. c #64934C",
"6. c #67964A",
"7. c #638353",
"8. c #658C52",
"9. c #6B845C",
"0. c #6C8C5B",
"q. c #698856",
"w. c #708B5C",
"e. c #6A9353",
"r. c #6C9655",
"t. c #73985A",
"y. c #6D8B61",
"u. c #728B63",
"i. c #7A8C6C",
"p. c #75896A",
"a. c #759463",
"s. c #7D9B6B",
"d. c #799568",
"f. c #7B8B72",
"g. c #7D9771",
"h. c #7DA367",
"j. c #7FA071",
"k. c #819C6D",
"l. c #828A78",
"z. c #859878",
"x. c #919C7C",
"c. c #8CA27B",
"v. c #88A375",
"b. c #87A871",
"n. c #F3845E",
"m. c #EB8868",
"M. c #EB867A",
"N. c #F4847B",
"B. c #FA8678",
"V. c #EB9576",
"C. c #F49777",
"Z. c #F08E68",
"A. c #EDA479",
"S. c #F1A67B",
"D. c #DD8270",
"F. c #5DB38B",
"G. c #51C19A",
"H. c #6DCBA7",
"J. c #8D9983",
"K. c #919B87",
"L. c #8DA381",
"P. c #93A385",
"I. c #95A48A",
"U. c #9BAA8D",
"Y. c #96A987",
"T. c #9DB18A",
"R. c #9EAC92",
"E. c #9AA492",
"W. c #9EB291",
"Q. c #A1AD94",
"!. c #A5AE9A",
"~. c #A6A599",
"^. c #B7A798",
"/. c #A3B295",
"(. c #A5B399",
"). c #AAB59D",
"_. c #ABBA9C",
"`. c #A6AF90",
"'. c #96BFA9",
"]. c #ACB5A2",
"[. c #ADB9A1",
"{. c #B2BBA4",
"}. c #B5B8A8",
"|. c #ABAFA0",
" X c #B09C93",
".X c #EA8A83",
"XX c #F48A83",
"oX c #F48D8A",
"OX c #F98884",
"+X c #EC9589",
"@X c #F5928C",
"#X c #F6978B",
"$X c #E79993",
"%X c #F29B94",
"&X c #F79896",
"*X c #DAA699",
"=X c #CDA797",
"-X c #F4A78A",
";X c #F2B689",
":X c #F4A39A",
">X c #ECB093",
",X c #C8B7AC",
"<X c #D6B7B0",
"1X c #F7A9A5",
"2X c #F6B9A8",
"3X c #F6B8B6",
"4X c #E8B6B1",
"5X c #D69B8E",
"6X c #8FC3A6",
"7X c #B7C3AA",
"8X c #B4CBB4",
"9X c #F8C79B",
"0X c #C5C8B6",
"qX c #CDD5BE",
"wX c #F7C8A6",
"eX c #FBD6AC",
"rX c #F9C3BC",
"tX c #F5C6BB",
"yX c #F8D6B6",
"uX c #EFC2BD",
"iX c #FCE6B8",
"pX c #FDF4BD",
"aX c #F9E3A9",
"sX c #88DDC0",
"dX c #D8D6C8",
"fX c #D3D5CA",
"gX c #F9C9C6",
"hX c #F8D5C9",
"jX c #FBCDD2",
"kX c #FCD4D4",
"lX c #FED6DC",
"zX c #FEDCDB",
"xX c #F8D9D4",
"cX c #E8DDD8",
"vX c #FDF4C9",
"bX c #FEE1DE",
"nX c #FEFBD6",
"mX c #FDECC9",
"MX c #FDDDE2",
"NX c #FEE4E3",
"BX c #FDEBE5",
"VX c #FEECEA",
"CX c #FEE6EA",
"ZX c #FDF4F2",
"AX c #FEFDFC",
"SX c #FCFBF6",
"DX c #FFECF0",
/* pixels */
"r.r 9.I.U.P.7.g.L.P.d.+.i u 4.>.r u y +.p s O.u 0 u @.i u >.1.u r i +.p i >.u 5 u @.s r >.>.u r p #.p s $.d 5 r :.i u r.",
"s X.s.].R._.7.J.7X_.P.4 | X.8 7 #.e > 6 e 8 +.6 6 y e  .X.e 9 O.8 * t e e X.6 e 9 8 X.X.8 r O.8 - 6 8 6 +.6 e r 6 X.o.a ",
"u : 0.(.).].7.g._._.J.: 7  .6 # , 6 e y o.X.O.o. .o.9 6 X.6 # , 8 r r o.o.O.o.=.X.t 4 X.6 # : 8 t y o.=.#.#. .o.y 4 X.;.",
"3.r | >.v.g.8 ;.l.g.<.: # = y  .9 X.#.X.o.O.X.y  .8 ; = $ 9  .6 X.o.X.o.o.X. .p t : = $ y  .9 X.O.+.X.o.X. .y t : $ $ <.",
"6.O.0.X. .,.u.q.j j t.>.>.9  .&.O.y X.#.y ; ; $ : 8 6 a y  .*.o.y X.%.y = ; # : 9 6 a 9  .O.o.y X.o.r : ; # > 9 y y y 3.",
"5.t.Q.c.;.s.[.].d.9.[.Y.Q.8. . . .; 4  .y ; = 8 a  .y = 7 X.X. .: 4 y 8 q v 7.5.#. .$ y X.X.+.; : X.8 ; ; 7 X. .y = y 5.",
"k.}.R.[.u.f.Q.`.i.9.Q.U.).9.* 6 : t : - 6 o.o.O.O.y 6 = # 4 6 : t : * 6 O.a.]._.a.4 = ; , 6 > e ; = 6 O.O.O.O.r 6 = = k ",
"t.d.e.z.7.a.R.).k.n ).Q.].v :  .y  .y 7 y 6 ,  .O.6 y a $ 4  .y  .y t 8 3.U.Q.[.g.8 y # 4 a y =.y 8 y 6 6  .O.6 y i # l ",
"6... .O.O.&.2.v l u 7.3.v 0  .*.#.X.#.O.O.9 : X.X.y 8 ; =  .&.o.X.o.6.5.>.P.U.U.7.1 : # | o.X.X.o.O.#.y :  .X.y 8 : = <.",
"5.y  .y 4 8 y , 9 < , < > > 8 y t X.X.4 y y e  .6 , t : 4 y  .y #.>.v.7Xt.z q.0.l ..u x .. .>. .;.l >.a 6  .6 , t > e <.",
"h 4 X. .6 $ * : , e 4 r X.y 8 t y X. .6 % = , : 6 : y X.r = q 0.T.`.8XH.8X}.6XW.U.E.7.k.R.L.z.<.y.g.}.9.- : 6 : r o.y u ",
"4.X., : =.9 4 8 | 9 $ :  .o.O.o.X.: - ..| 6 8  . .$ 4 o.@.3.{.M.Q ( XXF.sXF.6X].U.(.9.g.].R.J.p.d.t e.7.8 X.X.= 4 o. .k ",
"6.$.e , 6 y +.0.e.:.; w ,.>.| .. .z 7.k 8 y s @.r * $ s b.*X! ! ` ` T [ -.H.g.I.R.[.y.d._.(.x.u.(.h.v.q.8 X.9 # # 4 o.5.",
"<.t 8  .# 6 o.e.U._.u.z.}.c.,.t t.(.k.x n U.E.x.i ..:./.B.T ( ` ` ` { Q x '.v v 0.i.h j k.l.j 6 r.i.l.z * : y  .8 6 #.<.",
"k * : e 7 = ;.6.v.).u.:.U.].z.q./.U.c.s a.[.Y.U.x ;.7X~ T ' ' ' ' { ` ( P G.f.j 8 ,.z.d.q h 9.0.;.: # 8  .6 ; 6  .6 4 ,.",
"5.q : , X.* b ).!.).w.:.c.U.r.4.Q._.).:.i (.T.{.u.[.! Q { ' ` ' ` ` { ) P -.8XU.y.Y.(.[.p.y.[.{.c...- e #.4 @ :  .6 : 4.",
"<.#.8 * < 9 u 0.d.w.s l >. .q 6 3.u.M p >.~.P.Y.7X) ( ' ' ` ` ] ` ' B.Y L -.G.{.J.).(.].i.y._.R.U.:.6 8 X.e 8 y 6 X.o.:.",
"u 4 6 7 y o.o.o. .9 m 7.;.;.v 7.@.:.r.(.0XdXcXBXB.! ] ' ] ` { ` } ] E G H f.x.fXcXfXfX8Xz.p.(.c.P.8. .O.o.O.X. .y 4 s ;.",
"3.r X.O.X.o.O.| @.P.(.R.0.K.{.0X7XfXBXBXNXNXSX+XK ' { B.{ { B.{ / I Z G H K.OX%XbXbXkXzXxX0Xb.&.O.@.o.X.X.y 9 y ; = = 3.",
"r.$.8 X.O.9 ; # u.0X`.R.r.7XcXzXbXNXNXBXVXVXAX:XA G K E E ! E I Z Z A A / &XB.OXzXVXNXNXbXbXBXb.#.O.9 5 ; # : t 9 y i <.",
"5. .: :  .r ; = 3.b._.dXdXBXNXBXVXBXBXBXVXVXVXSXxX.XI Z A V V V A Z E / XXB.XXgXSXAXSXZXNXjX1X0Xk a 8 : : 7 X.y y = y 5.",
":.: 8 : * 8 O.#.t.dXbXbXzXzXNXbXbXbXNXBXVXVXBXVXAXAXSXhX3X:X$X+X$X&X1XrXhXxXZXAXBXhX3X&X.X[ E =Xk * 6 %.#.o.O.y 4 = $ k ",
"4.i  .y t y 1 e r.xXkXzXzXzXkXzXlXlXzXbXzXzXNXNXBXVXZXAXAXAXAXAXAXAXSXSXVXMXgX1XXX[ _ C.V.V.~ =X2.8 y 7 6  .o.6 y i # l ",
"6.#.X.%.O.&.y : >.c.hXhXhXgXrXtXrXhXkXxXzXzXzXzXzXzXBXVXVXVXVXAXBXuX3X1X@X} _ [ M.V.A.~ J ] Z.>X,.+.O.y : +.X.8 6 * = 5.",
"<.i  .X.4 8 y e  .7.1XM.[ :XiXeXaX9X) { :XgX3XgXlXzXxXzXNXVXZXgXoXN.} M.V.M.V.Z.A.A.W C C W Z.5Xx ; 7 y 8 y s l :.z 4 <.",
"u e  .y r $ * : : l =XY U B.vXmXnX#XU ! Y -XyXwX2X3XjXlXzXCXrXN..X.X.XM.J n.A.Z.A.W C F C W S.U.0 4 $ * : : a.(.3.e.s u ",
"3.+., :  .y 6 9 X.4.^.Y Q T ;XvX9X! Q ( Q R eXnXiXwXwX2XgXlX1X[ m.m.A.Y B Y A.-XZ.C C D C W 4Xh X 9 y e 9  .e._.v.$.y ;.",
"r.o.6 6 ,  . .8 =.2.5XK Q T #XnXwXQ Q ( ( T ( iXmXvXvXiXwXeX+X/ Z.;X! C S K ;XS.D S R ) m.] *Xw X = 8  .e y s.Y.!.P.X.5.",
"<.8 6 a $ 7 O.y e s.:XY ! U ] pX2XT Q ( Q ( T #XiXyXiXvXvXvX;XZ.;XZ.D D C J ;X] R oX%X:X%XXX<Xh 5 z 0.o.y 6 ;.y ..7.@.<.",
"k = > 6 7 ; X.o.r d.jXjX3X:X%XyX-XT T W T ! T Q mXvXm.] yXvX9XZ.S.K C D S ! .X.X$X&X@X&X1XOX] J.q.k./.8.o., * 6 y : e :.",
"4.q : <  .* e o.e 9.tXkXVXSXNXjXgXgX1X#XN.} ( U ;XwXU U -XvX9X;X~ B F K / .X.XoX@XoX&X@XR F F }.9. .U.k.X.4 @ 4  .6 : 8.",
"<.O.8 - e 8 r X.t j.iXB.R 2XhXgXkXNXCXVXCXzX3X1X1XB.R U ! vXvXC.S G ^ .X+X@X&X@X@X%XZ.F D ) N.).w k.c.s.s 4 8 7 6 X.o.:.",
"u : e e y o.o.o.+.h.hXV.U U ;XaXeXwXwXhXjXkXzXBXNXkXgX@XR -XvX~ E $X&X&X2X@XXX+XA.A.~ ) %X.XI ^.u q. .X.o.=. .=.y 4 X.,.",
"<.r X.#.X.o.X.X.o.k.hXkXjX&X1XnXwXY W C.wXyXtXrXgXjXNXZXkX2X>XM.&X&X&X@X( J n.A.C.N.oX+X^ ^ I ,Xl a $.X. .0.s 8 : * = <.",
"6.#.9 %.o.8 > ; ; L.3XgXhXbXkXbXkX1XOXT ~ 9XiXeXwX2X3X3XjXCXkX&X.X+XM.D B K +XXX@XXX[ ^ _ [ ] *X:.9 t.U.c.}.z < t a y 3.",
"e.X.: 4 X.8 4 ; r <.8.p.z.^.<XuXjXNXVXzX3X3XtXeXiXeXN.-X2X3XrXV.V.n.F F / #X&XoXXXM.M.M.XX} OX<Xl.2.w.(.P.s.<.y y ; y 5.",
";.: e : = 6 o.o.*.X.q @ + + 2 c K.,XrXjXZXNXjXgXxXtX` ] 9XwX9XC.m.E ) %X1XoXoX.XXXoXOX[ oX,X~.c n l.9.4.O.X.#.t 4 = = k ",
"4.y X.y r y e 6 X.o.= $ +   . @ % w J.4X1XgXNXMXlXzXNXgXrXyX2X.X_ %X:XoXXX.X@X&XoX} [ =XK.j 2 + @ x a u w +.O.6 y a $ k ",
"6.$. .#.O.O.y ; X.X.7 : @ X 4 4 = @ 3 z ~.4X3XgXzXzXkXbXbXlXxX1X@X&XoX.XoX@XB.} _ 5X~.f @ @ o # 5 9 o.8 >  .X.9 6 ; = 5.",
"3.y  .X.6 7 y 8  .e 6 t > 4 8 6 4 4 5 + % n |.<X3XkXzXzXxXzXNX2XN.M.XXOX} XX$X^.~.N N 2 . @ d d t.v.s y 8 y 8 6 t : , <.",
"u 6 X.| e # = : : t 4 r +.y * $ 4  .8 =   g N M ~.,XrXgXkXzXNX3XN.[ [ $X<X~.n c M 2 2 & . & 9.t.d.v.h # : , 6 : 8 O.y u ",
"3...6 :  .y 6 y X.X.$ : o.9 4 y X., > i 4 w j 3 & w p.}.<XrXkX&X] +X~.x c 2 + O f & # : : u 4.K.d.y | 6 9  .X.$ ; +.y l ",
"e.#.6 : e | X.t  .y = # , o.X.O.o.8 6 : y y : : @ O & & c f.,X*X XM 2 + . O 5 % O # e  .=.o.X.d w p +. .t X.9 * $ 4 o.5.",
"<.8 r a $ 6 O.y : t  .6 6 X. .8 p t a $ 7 O.t > : : % O c v & h c f c M g c K.g.0.p , o...t 8 8  .$ r O.t , y | e t O.<.",
"k = : e r ;  .O.8 * 6  .6 : y > * : 7 e > a #.7 ; 6 6 # v l.c c f j b J.9.9.R.Q.Q.:.: , t ; * : 8 7 ; a o.e * 6  .6 4 <.",
"4.4 : 6  .: 8 o.; X = X.9 , 8 | 6 : 6  .; 6 X.: # ; | : u.e.2.N g M l.E.3.X.U.].c. .6 :  .+.4 : , +.> 8 O.: # :  .6 : <.",
"3.#.8 * 6 t t s i.a.w.l $.0.d.t.o.e * 6 9 8  .6 8 y e  .o.8 5 h h j j :.;.| ,.8.2.r X.X.8 y #.8 ; , y 8 d 2.|  .e X.X.:.",
"u 4 e 8 y 6 8 7.}.)._.9.d.{.}.!.u , t y o.O.o.#. .X.9 4 | 4 l.(.Y.J.X. ...o. .|  .9 4 y 6 # : 8 9 y , t L.}.d.5.y 4 X.:.",
"3.p X.O.O.: t e.Q.Y.).n n [.s.v.;. .$.+.o.o. . .y t : = # 6 t./.W.R.,.o.o.X.a y t : = # y  .9 X.O.X., t k.(./.c.0 * = <.",
"r.o.9  .O.e # z Q.).k.;.3.k.| o.$.y X.O.y ; 5 # : t y X.y  .o.>.W.).k , ; > # : t 9 a 9  .&.O.t o.%.8 0 x.).].t.6 9 y 5.",
"6. .; = | 9 6 # z t.y 6 : r | |  .> : t 6 4 ; 8 X. .8 = r X. .+.i.f.k , : 5 8 X. .y $ y =. . .5 : a t 5 7.a.a.0.t = t 5.",
">.z 8 e z >.r.u.x  .:.z 7.0 z a.,.< : v a.$.$.O.O.9 4 5 = : 6 ; : * - 6 #.o.O.O.9 4 ; % : , : 8 : = e o. .| o.r r ; = k ",
"a.].s.L.z.z.R.{.I.z (.b.h.v i.0XR.a.:.Q.(.U.g. .X., i a # 6  . .X.9 9 y 6 6 X.o.e y y # 6  . . .y y y e 6 X.X.8 y y $ k ",
"r./._.[.f.I.(.(.c.2./.Q./.z q.(.(.I.b W./.).z. .o. .t > ; +.$.#.o.O.$.&.a : o.+.y t : ;  .&.#.X.O.$.&.y > o.#.y 8 > ; >.",
"e.L./.Y.4.e./.R.<.7.K.U.(.,.9.Q.U.c.<.d.E.}.x...i i X.u u +.#.+.>.>.u s @.i +.i e i 1 p +.i i >.>.r i X.i ;.i i +.u p 8.",
"w k +. .+.i l >.y i x ;.>.u f.).q. ...#.:.x j q e 4 r #.y $ % 6  . .u ; * , 4 p b b 9.k z z.,. .l x h z k , e 4 y o.p 0 ",
"+. .> :  .y 6 8 >.k.W.3.t Y.7X_.k.: : .. .6 8 X.X.$ 5 X.y 4 i X., : .. .6 t | 4.{.[._.l.z.}.T.i.b Q.).U.2.9 X.# 5 X.| r ",
"1.X.6 4 4 y 8 w U.U.).9.# P.j.e.k.b , : t X.8  .7 $ $ 4 o...O.X.1 : , | +.e y :.R.U.W.i.k.U.R.L.9.U.Q.d.X. .r = $ : o.$.",
"t 8 8 y $ 7 o.+.R.).[.u.* z d.t e k t = r #.t : p  .8 8  . .9 8 7 y # e #.y : s ~.R.Q.p.i.(.!.L.l c.{.P.>. .y  .8 6 +. .",
"k q p s s q #.1.9.f.i.8.i u 9.d q p a s q +.6.i p i #.r i X.p q p X.s q X.5.i w b t.b z z v b b l 0.i.d.8.>.i i #.i i :."
};
