/* XPM */
static char *xpm_[] = {
/* columns rows colors chars-per-pixel */
"60 60 249 2 ",
"   c #2A4A1D",
".  c #355C24",
"X  c #3A5D25",
"o  c #375828",
"O  c #374F2D",
"+  c #366325",
"@  c #3A6326",
"#  c #366528",
"$  c #3C6429",
"%  c #3C6B2B",
"&  c #396A28",
"*  c #3E712C",
"=  c #3E782C",
"-  c #3F7430",
";  c #445B38",
":  c #426D2C",
">  c #40662A",
",  c #43742D",
"<  c #49752E",
"1  c #457A2E",
"2  c #497B2F",
"3  c #426532",
"4  c #446D33",
"5  c #4B6B3C",
"6  c #496739",
"7  c #457431",
"8  c #4B7534",
"9  c #467A31",
"0  c #4B7C32",
"q  c #4D733C",
"w  c #4C7B3A",
"e  c #467339",
"r  c #517D34",
"t  c #527D3B",
"y  c #51733F",
"u  c #4D6742",
"i  c #536A47",
"p  c #547B43",
"a  c #597D44",
"s  c #5A754D",
"d  c #5B7B4B",
"f  c #557446",
"g  c #5C6855",
"h  c #5E7852",
"j  c #627C55",
"k  c #66775A",
"l  c #657457",
"z  c #6C7962",
"x  c #747B6A",
"c  c #7A7D74",
"v  c #4E5B48",
"b  c #FF140C",
"n  c #CB271D",
"m  c #FE241B",
"M  c #FF281A",
"N  c #D53B34",
"B  c #D2342A",
"V  c #FD2E22",
"C  c #FC3324",
"Z  c #F83728",
"A  c #E83934",
"S  c #BA4B38",
"D  c #CF4335",
"F  c #FA4838",
"G  c #F14C3A",
"H  c #915D47",
"J  c #D7554A",
"K  c #FD4B46",
"L  c #FA5648",
"P  c #FC5B53",
"I  c #F85853",
"U  c #E6564D",
"Y  c #F7644C",
"T  c #FD645C",
"R  c #FB6456",
"E  c #EF705A",
"W  c #DE776C",
"Q  c #E86C64",
"!  c #FD6C63",
"~  c #F66C66",
"^  c #FC756C",
"/  c #FD7A6D",
"(  c #F67668",
")  c #EB7C74",
"_  c #E97774",
"`  c #F97B74",
"'  c #EA796D",
"]  c #DA6C5F",
"[  c #4C812F",
"{  c #468133",
"}  c #4D8233",
"|  c #4D8934",
" . c #4E853B",
".. c #528434",
"X. c #548A36",
"o. c #598B36",
"O. c #54833B",
"+. c #59863E",
"@. c #558B3A",
"#. c #598C3B",
"$. c #5A913A",
"%. c #579038",
"&. c #538A2F",
"*. c #628D3E",
"=. c #25A068",
"-. c #558342",
";. c #5A8344",
":. c #5C8B42",
">. c #5E834A",
",. c #5E8C4A",
"<. c #5E9147",
"1. c #5F8450",
"2. c #62844C",
"3. c #628B4B",
"4. c #628C46",
"5. c #629244",
"6. c #64934C",
"7. c #6A994D",
"8. c #69924E",
"9. c #638353",
"0. c #6A8D54",
"q. c #6B855C",
"w. c #6C8C5A",
"e. c #668755",
"r. c #6B9354",
"t. c #6E945B",
"y. c #689751",
"u. c #74955D",
"i. c #759B5B",
"p. c #718C5D",
"a. c #6D8462",
"s. c #798C6C",
"d. c #758869",
"f. c #7A936B",
"g. c #7C9B6C",
"h. c #779663",
"j. c #7B8A72",
"k. c #7D9373",
"l. c #7A9A72",
"z. c #6F9063",
"x. c #7DA266",
"c. c #7CA070",
"v. c #819D6C",
"b. c #819373",
"n. c #829B73",
"m. c #88977B",
"M. c #858B7D",
"N. c #84A56C",
"B. c #8CA37B",
"V. c #89A676",
"C. c #F1875E",
"Z. c #EA896A",
"A. c #EC877A",
"S. c #F9857A",
"D. c #EC9577",
"F. c #F59878",
"G. c #F18E68",
"H. c #ECA479",
"J. c #F1A67B",
"K. c #66B58F",
"L. c #51C39B",
"P. c #6ECAA3",
"I. c #8D9A81",
"U. c #929B85",
"Y. c #939C89",
"T. c #8E9289",
"R. c #8FA282",
"E. c #92A384",
"W. c #95A48A",
"Q. c #9BAB8D",
"!. c #96A886",
"~. c #9CB689",
"^. c #9EAC92",
"/. c #9CA394",
"(. c #9EB192",
"). c #A1AD94",
"_. c #A5AD9A",
"`. c #AAAA9A",
"'. c #B7AA9A",
"]. c #A3B194",
"[. c #A6B29A",
"{. c #AAB59D",
"}. c #AABA9C",
"|. c #AAB695",
" X c #ADB9A1",
".X c #ACB6A2",
"XX c #B2BAA4",
"oX c #B4B9A8",
"OX c #B1AFA0",
"+X c #9AAC99",
"@X c #DA9791",
"#X c #EA8B85",
"$X c #F48A84",
"%X c #F48C8A",
"&X c #F88683",
"*X c #EC9489",
"=X c #F4928D",
"-X c #F6968A",
";X c #ED9792",
":X c #F49D99",
">X c #F79794",
",X c #DCA698",
"<X c #CAA99D",
"1X c #F3A889",
"2X c #F2B78B",
"3X c #E7A69A",
"4X c #F5A49B",
"5X c #F0B391",
"6X c #C9B7AA",
"7X c #D6B9B2",
"8X c #F7A9A6",
"9X c #F6B8A9",
"0X c #F7B9B7",
"qX c #E5B1AC",
"wX c #91CAAA",
"eX c #B1C6AC",
"rX c #F8C79B",
"tX c #CBCAB9",
"yX c #F8C9A5",
"uX c #FBD7AE",
"iX c #F9C3BC",
"pX c #F5C5BA",
"aX c #F8D7B7",
"sX c #FCE6B9",
"dX c #FDF4BE",
"fX c #FCE2A7",
"gX c #D3D3C6",
"hX c #FCCDCC",
"jX c #F8C6C5",
"kX c #F8D5C9",
"lX c #FBCED2",
"zX c #FBD4D4",
"xX c #FED6DB",
"cX c #FEDCDB",
"vX c #F9DAD5",
"bX c #E9DED4",
"nX c #FDF4C9",
"mX c #FEE1DE",
"MX c #F4E7DF",
"NX c #FDFBD6",
"BX c #F8E9CC",
"VX c #FCDDE4",
"CX c #FEE4E2",
"ZX c #FEEAE5",
"AX c #FEECEA",
"SX c #FFE6EA",
"DX c #FEFEFD",
"FX c #FEF6F4",
"GX c #FDF0EE",
/* pixels */
"t.8 q.W.W.W.9.k.E.W.h.+.w 8 #.4.w 8 w O.e O.#.q 3 q :.w q #.5.8 e t 6.>.p :.y > y @.y 7 :.4.w 7 w O.e t #.y 3 8 :.w 8 r.",
"O.} g.}.].}.9.m.oX}.E.% ...., 8 o.7 & , 9 , .., < < , ...., r #.0 e l.eX;.@.t r 2 < ...., < o., # 9 1 , .., 7 < , ..O.w ",
"q % w.[.{.{.9.g. X}.I.% , .., . % 1 7 0 o.....o.| O.2 : } < 5 e.B.|.eXP.V.~.wX7.X.2 : .., . % , 7 0 X.&.o.@.| ..0 : } ;.",
"3.7 { :.n.b.0 ;.b.b.3.% . X 0 } 1 ..@...o.....} 0 1 & > % 7.XXA.~ ~ A.K.P.L.wX4.9 > $ X w } 1 ..o.O.X...| } 0 0 % X $ 3.",
"7.X.w.....>.z.e.i s t.@.:.2 { $.o.0 ..o.0 $ % . % 1 0 :.V.,XP R / ^ P ) =.K.s : 1 , r 0 } #.o.0 ....0 % $ . $ 1 < r 0 :.",
"5.i.`.V.;.g.XX.Xf.q..X!.).r.} } } $ : } 0 $ $ , r O.>.Q.S.I ^ / ( ^ / P h wXz s ..0 X 2 X.} ..$ : .., @ $ < r } 2 $ 0 6.",
"n.oXQ..Xz b.).].f.q.).Q.{.k + , % 1 & + , o.X.o.#.3.{.! P / / / ^ ^ ^ T H L.+XY.w., + @ * , & 9 % + , o.o.o.o.0 , $ # p ",
"u.h.0.B.9.u.).{.b.e.`.)..Xj % } r  .0 8 0 , , O.7.XXT ! / / / ^ / ( ` ~ J =.wX[.k.< r . % ..0 ..0 7 0 , 7 } o., 0 0 o -.",
"7.} | ..#.$.3.s a q 9.3.h 3 { #.X...@.$.7.,.;.c.eXT R / / / ^ ( ! / S.L D =.L.oXl.-.e @ { @.X.} o.X...1 & ....0 1 & # 6.",
",.0 } r : , 2 , 1 , * = # % 0 } O.6.h.~.tXgXbXZXS.R ( ^ ( ^ / / S.^ U A S k.m.gXMXtXXX!.t.,.:.} ;.>.;..., 0 1 , 9 & : ,.",
"f : ..} , X + * * , 4 2 X.+.:.h.}.tXMXAXmXmXFX*XF S.S.S.` ` S./ Q J N A S U.&X;XmXmXvXcXMXgX(.r.z.l.oX9.& % , % 2 o.0 5 ",
":...: % | 0 : 1 2 r $ 4 6.~.gXvXmXZXmXZXZXAXDX3XB A G U R R U J N N B B Q :XS.&XcXAXCXCXCXCXAX.Xg.9 0.w., ....@ % X.w ;.",
"7.@., * , 0 ..0.i.t.a.[.gXZXCXAXAXAXAXAXZXZXAXDXvX#XJ N B n n n B N J Q $XS.%XjXDXDXFXGXmXlX8X7XoXg.v.w.1 | 0 + X : X.6.",
",.7 1 0 X , X.u.}.bXvXcXmXmXmXCXmXmXCXZXZXAXAXAXDXDXFXzX0X;X;X*X*X:X8XjXhXvXFXDXMXhX0X:X#XZ.U ,Xg.s.M.d + % 1 [ 1 , o.,.",
"p @ % 7 8 @ -.6.(.vXzXcXcXcXvXcXxXcXcXcXcXcXmXZXZXGXFXDXDXDXDXDXDXDXDXFXAXcXiX8X%X) ' D.D.Z.C.,X0.% X 0 { , & , } , : >.",
"3.: % , | + j }.}.tXlXzXzXjX0XpXiXkXzXvXVXcXcXvXvXmXZXAXAXZXAXDXZXpX0X8X=X) _ ' A.D.H.( F C.G.1Xk.1 @ , o.> . > } , % 3.",
"3.@., # , 1 w w.f.m.qXS.~ 4XsXuXsXrX! ` 4XpXiXjXxXVXcXcXmXSXFXjX%XS.) A.#XD.D.G.H.J.Y m b L G.,XM.p * 2 .., 1 8 , ....;.",
"q 7 , , 0 o.....} 3.<XL K S.nXdXnXF.K P K 1XaXyX9X0XjXxXcXSXiXS.$XA.#XA.F C.H.G.H.Y M Z M Y 2X{.x >.| o.o...| | 0 : t :.",
"3.7 ..o.......&.O.!.7XK ! P 5XnXrXT T ! T I aXNXsXyXyX9XjXcX8X_ Z.Z.J.F b L H.1XG.m M C m Y 9Xs > w ......w 2 2 & @ @ 3.",
"7.#.0 } o.0 $ . d.tX3XF ! P -XNXyXT T ! ! P ~ sXnXBXnXsXyXuX*XQ D.2XR m m G 2XJ.C C I ~ _ ' ,X6 @ r 0 > & X & 0 1 r w ,.",
"6.} $ % } 8 % $ 3.~.4XP P K ( dXrXI ! ! ! ! I F.sXuXsXnXNXnX2XG.2XG.Z Z m F 2X( U $X:X4X>X$XqXu . 0 9 % $ < ..} 0 X 0 6.",
">.% 9 % + , o.X.@.V.zXhXjX:X4XuX1XP P P P R P T BXBXC.^ uXnXrXG.J.G m C V Y #X#X:X>X%X>X4X&XC.m.> + , ..o.@.o.8 : @ @ p ",
"3.0 } 0 1 0 1 , @.V.kXzXAXFXVXjXjXjX8X-XS.^ ! K 5XyXK K 1XnXrX1XE b Z G Q #X$X$X-X-X>X=XP C G OXt 2 r < * ...., 0 r . p ",
"7.o...@.o.$.0 % @.V.sXC.P 9XkXkXxXVXSXSXZXcXjX8X4XS.I L R BXnXH.Z A Q #X#X=X>X=X%X;XD.Z Z ~ ) `.+.#.o.0 % ..| 1 , @ # 6.",
",.0 ....: < 0 7 } h.kXF.K G 2XfXyXyXuXkXlXlXCXAXZXxXiX>XI 1XnXE U ;X:X:X8X=X$X1XF.H.E ~ ;X*XJ '.a : < 0 , 0 t a ;.a 7 ,.",
"q 4 ..{ 7 X + % * l.kXvXlX8X4XNXyXY Y S.yXaXpXiXjXhXCXFXvX9X3XA.:X>X>X=X~ F C.H.D.$X=X#XW ] U <Xp : X . & % h.{.3.8.t 5 ",
"3.+.% % } } , 2 @.~.0XjXjXcXzXxXvX4X&XT ( rXsXuX9X9XpX0XlXGXzX>XA.*XZ.C b L D.#X=X%X) W W ) _ 3X5 { } , 2 { 8.{.n.4.0 ;.",
"7.@.- * * { .., | -.f z T.'.7XpXlXCXGXmX8X9XpXuXsXuXS.1X9X9X0X*XD.G.Z Z ~ ;X=X=X$X) _ #X&X&X` <X6 # 1 ..7 } g.W.[.E.} 6.",
",.7 , ..X < o.0 : 0 = . O ; 6 s U.6XjXhXFXZXhXhXkXpX^ ^ rXrXrXF.Z.U Q :X8X=X%X$X%X*X%X` =X<XY.i 3 s w.X.2 7 -.0  .9.+.,.",
"p # & , < $ } o., . $ @           ; T.qX8XjXCXcXcXcXCXjXiXaXyXA._ >X8X-XA.#X=X-X=X` ) <XY.l g O 5 f.].r.o.* + * 0 % , ;.",
"5.4 % ,  .+ 7 ..> . $ < > . $ $     O s /.qX9XhXcXcXzXmXCXxXvX8X%X>X%X#X%X=X&X) ' @X/.g i ; l ; i w W.v...> . $ .., % 3.",
",.o.1 + , 1 0 ..< , < < ..[ : < [ $   o O i U.6X0XhXcXcXxXxXZX8XS.) $X&X` &X;X'.Y.x 6 O u i 5 . $ g.B.v..., , 8 7 ....;.",
"u % 9 7 0 o.X.o.X.| | 0 , r : $ { ..< @ $ . X u m.6XjXjXxXcXCX8XS._ ) *X<Xm.u o o O O O k H d.-.< p.&.} ..| | } 0 : O.;.",
"3.0 ..o.......} { 0 0 $ @ # 0 } 9 2 o.;.r > X O 6 g j.`.7XjXvX4X( ;X`.f ; O ; ; O O ; i 5 y -.-.X.O.+.....0.r 8 % # $ 2.",
"7.#.2 ..o.1 & $ . % 1 9 r 0 { $.o.* >.^.E.E.8 6 T.c l ; i T.6X,X`.T.l g O i c M.h 4 3.t. .%.<.h.@.} h.(.B.oXd = 1 ..2 4.",
"6...% > } 0 > > < ..0 0 + 0 ....... d.oX(.{.3.r T.j.j.g u o ; u v z g l i k j t.3.t Q.h. .{ t.(.B.4.w.[.!.g.:.0 2 $ w 6.",
":.$ 7 @ @ , @...@.o.0 : $ @ > , % , a .XE.O.| } t.).E.i j x l v   ; x z 0 0 ..o.w.w.W.[.Q.e.k.,.l.I.j *.O.| o.9 : $ # p ",
"3.w ..0 9 0 , , ..o., 0 r . : { w | 1 2.2.w O.....j k :.a k s u O O d s a h O.| f ;.,.s a.,.-.{ 8 >.t 5 e O.@.* 0 r X -.",
"7.@.| o.#.$.0 & } o.2 1 + + [ $.o...X.X.O.u.[.r.:.7 s.{.Q.0 0 B.m.I.y f.{.).2.} v.).Q.5 , o.X.......o.2 & ..o.[ , $ @ 3.",
",.0 } ..: < r , { , 1 1 % , 0 } < } [ : , u.[.E._.a.B.].).:.{ E._.Q.-.v._.Q.f.q.XX^.oX9.=  .0.6.x.V.t 2 7 0 , 7 9 & , ,.",
"5 , O.} , X # % % , > 0 o.8 + + , ..} 7 o s. X!.!.e.B.].{.n.j }.{.].2.m.{.).s.d.}.7.i.a + 6 z.i.g.V.5 . % : , > < o.w q ",
"3...* & } w , 2 ....X % ..0 : 8 ..: % | 2 d u.+.+.t 3.b.s.a.l k.d.z.r 3.u.u.[ r j.d 0 { 7 w 4.U.f.{ 2 , 1 ....X & ..w -.",
"7.o.7 : : } } 9 ..9 @ . % X...o.o., : % [ { , 0 , & | , h q 7 , 5 d.r.{ = w 3.O.+ * 9 } { %...y 6 4 ..| 2 ..2 + X : X.6.",
",.9 1 r X , $.0 : 0 { 9 1 | [ [ 1 7 ..X 7 #.2 , 0 { 1 % E.B.{ ,.m.u.B.Q.a.j.XXB.h.w , X.} 0 1 1 0 > 7 @.0 % 9 } , 1 @.<.",
"p # & 7 < $ } o., @ , w , % 0 % + % 1 < % [ o., @ , } % s. XB.R.f.N.B.XXw.u._.).].;.% * 1 & + & 7 8 $ } $.: + , .., : ;.",
"+.7 % 7 ..% 7 o.$ . + ..0 : 0 } 4 : , | $ 8 ..: X > } , f.i.t.E.a.m.W.`.0...Q.}.B.} , : ..+., % 7 | & < o.% + 4 | , % :.",
"0.5.t 7 w O.O.>.b.v.h.3.5.h.g.h.<.w -  .O.p :.w O.t t @.<.t q s h h h 1.,.:.e.t.w.p :.:.t +.5.t 4 w t  .>.e. .@.w :.:.3.",
"4 % 7 9 w , 9 9.oX{. Xq.f.oXoX{.q , 7 w X.X.@.@.} X.w 4 } : j.}.E.U. .| } @.| { } 0 4 } 7 . : 7 0 r 7 1 E.oXh.6.t : ..t ",
"+.9 ..o..., 7 0.).W.[.k j  Xc.N.d ..+...X.......0 9 & @ . , i.].(.^.>.X.....0 } 1 & $ . 0 } 2 ..o...* 1 N.[.).B.: # X O.",
"5...9 ....< . d ).[.n.-.3.v.{ X.@.2 | X.7 @ $ . % 7 9 t 0 } X.:.]..Xp , $ $ X % 1 8 r 8 0 $.@.1 ..o.7 3 m.{.[.u., 2 8 O.",
"@.0 % $ [ 2 , . d i.0 , > < 0 1 0 $ & 0 1 > > , ..0 2 @ 8 ..[ O.d.j.p % > $ , ..} 0 + < X.} } % $ r , 3 j u.i.0.0 X 7 :.",
";.d = , h 2.7.z.f w :.d j 4 d h.2.9 % j z.#.#.#.o.2 , > + & , > * + + , o.o.o.o.2 : $ @ % * > 1 % # , o.| ....8 7 $ @ 7 ",
"w.}.g.B.m.b.). XW.d {.N.x.h d.tX^.u.;.).{.Q.n.2 X.* w 2 . : } { | 9 < r , , ....7 0 w . : } 2 | 0 2 } , , ...., 0 r X w ",
"r.].XX.Xs.E.].{.B.j ^.(.(.a e.{.{.W.j ).Q.}.m.} ..0 1 & $ ..%.X...o.$.$.w % | X.9 9 $ @ ..%.o...o.o.#.0 & ..X.0 = $ @ +.",
"@.n.Q.!.+.3.^.Q.O.a I.E.).p d ^.I.v.t u.W..Xb.1 = , 9 % : 2 0 0 } ..: < 0 , 0 , & = # % 1 1 , } } : , 8 - 0 7 , 9 : % -.",
"6 p o.w ..2 -.;.0 0 s t 4.e j._.e.[ { X.;.s u 8 1 > , o.2 X . , ..0 < X + * % 7 2.h q.q d n.2.2 t f 5 d q * , & 7 o.0 % ",
"+.} & % { } , , #.N.].3.9 !.eX}.B.% & { | , 1 ....X > ..2 : 0 .., % | { : 0 [ 6.XXoX}.b.m.oX~.f.j _.}.Q.2.} ..X > X.0 w ",
"<.X., * % 0 1 f ^.Q.}.q.. W.n.y.v.j * = 0 } , | < @ + : o.X.@.o., : % { | 1 2 ;.^.Q.).s.n.Q.[.I.q.Q.).h....., @ . % X.:.",
"0 1 1 0 X , X.+.^.{..Xd.# d g.1 7 p 0 X < o.0 % 0 { 1 , ..{ 1 1 < r X < o.0 * p _.).).d.s._.[.E.p B.oX!.#.[ } { 9 , ..} ",
"t 4 e t r 4 +.<.e.j.s.0.9 e q.f 4 e r t 4 +.5.w e 0 +.w w t 7 e 7 t t 4 +.5.w 6 j z.9.s p j j j a t.s.f.0.:.w w -.0 w ;."
};
