/* XPM */
static char *xpm_[] = {
/* columns rows colors chars-per-pixel */
"60 60 244 2 ",
"   c #0A0B0D",
".  c #12120F",
"X  c #0E0E10",
"o  c #131313",
"O  c #191B16",
"+  c #1D1E1D",
"@  c #161C15",
"#  c #0F1212",
"$  c #211D1F",
"%  c #1C221B",
"&  c #292F1D",
"*  c #1E1D21",
"=  c #221F22",
"-  c #1E2422",
";  c #252523",
":  c #272924",
">  c #282A25",
",  c #272928",
"<  c #2D2D2C",
"1  c #2A2527",
"2  c #3D2D2A",
"3  c #372926",
"4  c #2A3325",
"5  c #37332E",
"6  c #2C2C33",
"7  c #322E32",
"8  c #3B2F39",
"9  c #323133",
"0  c #3A3434",
"q  c #3A363B",
"w  c #3A383B",
"e  c #2F3034",
"r  c #522F1F",
"t  c #432C25",
"y  c #4B2E24",
"u  c #452E2A",
"i  c #4D3125",
"p  c #46332B",
"a  c #4B342A",
"s  c #483628",
"d  c #543325",
"f  c #5A3526",
"g  c #5B3926",
"h  c #53342A",
"j  c #5A3629",
"k  c #5C392A",
"l  c #54392C",
"z  c #4D3B34",
"x  c #463A37",
"c  c #543C32",
"v  c #573E36",
"b  c #522F26",
"n  c #633A2B",
"m  c #6A3D2B",
"M  c #663925",
"N  c #723F2B",
"B  c #693F31",
"V  c #3A4727",
"C  c #355C24",
"Z  c #395E25",
"A  c #385628",
"S  c #344629",
"D  c #356325",
"F  c #3A6226",
"G  c #3C642A",
"H  c #3C6C2B",
"J  c #376728",
"K  c #3E722C",
"L  c #3E7027",
"P  c #3F6F31",
"I  c #464829",
"U  c #455629",
"Y  c #474639",
"T  c #594539",
"R  c #475432",
"E  c #565330",
"W  c #654529",
"Q  c #684527",
"!  c #74432C",
"~  c #79462C",
"^  c #644334",
"/  c #674737",
"(  c #7A4B34",
")  c #744B36",
"_  c #7C543D",
"`  c #75523E",
"'  c #426D2C",
"]  c #44672D",
"[  c #43742D",
"{  c #49752E",
"}  c #45792E",
"|  c #4A7B2E",
" . c #436D32",
".. c #466737",
"X. c #566336",
"o. c #457431",
"O. c #4A7633",
"+. c #457A31",
"@. c #4B7C32",
"#. c #4E7D39",
"$. c #4C723D",
"%. c #507D34",
"&. c #537C3C",
"*. c #52632B",
"=. c #637134",
"-. c #3D3B41",
";. c #413C42",
":. c #4B4444",
">. c #474549",
",. c #574C48",
"<. c #59544C",
"1. c #595657",
"2. c #534E54",
"3. c #695749",
"4. c #745A4B",
"5. c #765747",
"6. c #665D5A",
"7. c #785E51",
"8. c #664E43",
"9. c #587948",
"0. c #586F4B",
"q. c #616A48",
"w. c #7C634D",
"e. c #6C645E",
"r. c #66645A",
"t. c #7B6353",
"y. c #786658",
"u. c #637C56",
"i. c #717854",
"p. c #696662",
"a. c #696764",
"s. c #746B65",
"d. c #776A66",
"f. c #787468",
"g. c #747577",
"h. c #6C6E72",
"j. c #844A2E",
"k. c #884C2D",
"l. c #8E512F",
"z. c #874D32",
"x. c #83553B",
"c. c #895639",
"v. c #975734",
"b. c #94522F",
"n. c #835C45",
"m. c #835E4B",
"M. c #895D44",
"N. c #865F50",
"B. c #84624C",
"V. c #8A644B",
"C. c #8A6449",
"Z. c #94684B",
"A. c #836553",
"S. c #8C6A53",
"D. c #846C5B",
"F. c #886855",
"G. c #916B53",
"H. c #8C725C",
"J. c #87715C",
"K. c #95735C",
"L. c #8D7464",
"P. c #83786E",
"I. c #877668",
"U. c #967C66",
"Y. c #857C76",
"T. c #867C77",
"R. c #866F62",
"E. c #4D8234",
"W. c #4D8339",
"Q. c #4C8634",
"!. c #528434",
"~. c #548936",
"^. c #588A36",
"/. c #52843A",
"(. c #558A3A",
"). c #5A8D3B",
"_. c #5A8639",
"`. c #59913B",
"'. c #4D812F",
"]. c #76952F",
"[. c #5A8443",
"{. c #5B8744",
"}. c #5D8D45",
"|. c #62884B",
" X c #688856",
".X c #6A9256",
"XX c #74985C",
"oX c #6D914C",
"OX c #748A68",
"+X c #799767",
"@X c #7D8872",
"#X c #6C8064",
"$X c #829D34",
"%X c #85A837",
"&X c #89887B",
"*X c #91867C",
"=X c #9D8C7B",
"-X c #978776",
";X c #849877",
":X c #908D6E",
">X c #A48D7A",
",X c #A7947C",
"<X c #B09172",
"1X c #8BA379",
"2X c #8AA373",
"3X c #92AF45",
"4X c #7F7F87",
"5X c #858587",
"6X c #968B83",
"7X c #8C9984",
"8X c #999886",
"9X c #8A8C91",
"0X c #918E93",
"qX c #999797",
"wX c #8D9197",
"eX c #A69686",
"rX c #AC9B8C",
"tX c #8EA281",
"yX c #97A889",
"uX c #9EA993",
"iX c #9EB28E",
"pX c #A2AE95",
"aX c #A8A798",
"sX c #B6A796",
"dX c #A3B294",
"fX c #AAB59D",
"gX c #A9B69C",
"hX c #B2A88F",
"jX c #B6ADA6",
"kX c #ADB7A3",
"lX c #B7B7A5",
"zX c #B6B7B8",
"xX c #A8ADB0",
"cX c #9B9FA2",
"vX c #C3BAB1",
"bX c #B7C1B0",
"nX c #D0C8B9",
"mX c #B7BFC1",
"MX c #B9C3C3",
"NX c #C5C7C7",
"BX c #D5D7D7",
"VX c #CFCCD2",
"CX c #DDDDE0",
"ZX c #E1E1E4",
/* pixels */
"[.[  X7XyX7X9.+X1X7XXXW.O.o.^.).o. .o.W.H H 4 % 9 9 9 5 5 5 w e 5 9 5 4 < S G G ../.+.P /.). .[ o.W.P #./.o.Z o./.o.o.{.",
"{ Q.+XfXiXgX X1XbXgX1XH E./.o.O.).[ J [ A % @ + 9 9 9 9 e e 9 4 9 7 9 e 4 , 4 Z O.o.E.~.{ { ).o.J K [ } !.[ O.O.o.!.!.o.",
"G J .XgXgXkX XOXgXgX7XH o.E.' C L K G & @ . o $ 9 0 9 9 e 9 9 9 7 9 9 7 , , : : S ] ' !.{ C H } } O.~.~.^.^.W.Q.@.' !.O.",
"/.} @.|.2X@XO.{.&X;X}.L C F @.!.} A % @ o o o * 9 9 9 9 9 9 9 9 7 9 7 < , : > , : > S C | !.@.!.).!.~.~.!.E.+.| J F F #.",
").(..XQ.Q.|.OX X0.0..X(.{.O.@.@.4 . o . o . o = 7 9 7 7 9 9 e 7 7 7 9 7 > > > : , , ; S  .`.^.@.!.~.O.H F C H [ O.E.| E.",
"(.XXpX2X[.+XkXkX@X XkXyXdX XA + . o o o o . o * 9 9 9 9 9 9 9 9 7 7 0 6 , : > > , , : ; 4 A @.H ' E.| F H { E.'.O.F | (.",
"+XkXuXkX#X@XdXdX+X#XdXyX;X4 o o o @ . o o . o = 9 9 9 7 e 9 9 9 9 9 9 < , : ; > & : , : > > 4 G G D [ ~.^.).^.O.[ F Z P ",
"|.+X.X1X|.+XuXgX;Xu.uXr.+ o o o o . o o o o o + 9 9 9 7 9 7 9 9 7 9 9 < > : : : ; , : : , , : > A ' E.[ L Q.^.[ @.%.C o.",
"`.Q.!.!.^.`.|.9.9.Z 4 o o o o o o o o o o o o + 9 0 9 9 9 9 7 e 7 9 9 < > > : > : : & : : & : : 1 5 ' } J !.~.+.} J F !.",
"W.+.'.E.' } @.' 4 % o o o o o o o o o o o o o * 9 9 9 9 9 9 9 9 7 9 9 < > : : > : : 1 : : : : : > > 4 S [ W.o.[ +.H ' E.",
"G ' ~.E.{ Z D H o o o o o o o o o o o o o o o + 9 9 9 e 9 7 7 e 9 9 9 6 > : > > : : : : : : : : : , > > G H } H | (.+.G ",
"/.E.K H Q.@.' } O o o o o o o o o o o o o o o $ 9 9 9 9 9 e 9 9 9 9 9 < , , : > : : : : : : : : : , , 4 | !.%.Z ] !.#.o.",
").(.o.' [ +.Q..XO o o o o o o o o o o o o o o + 9 9 9 7 e 9 9 9 9 7 9 < > > ; & : : : : : : : : > : > 4 } !.} F C ' !.(.",
"W.} } @.Z { ~.XX* o o o o o o o o o o o o # o * 9 9 9 9 7 9 9 9 9 7 9 < > > 1 : : : & ; : : : : > > > > J L +.'.[ } (.Q.",
"P D J { { F [.}.+ o o o o o o o o o o o o # o * 8 e 9 9 9 9 e 7 9 9 9 < > > : : ; 1 : : : : : : : : : > E.[ F [ Q.[ ' O.",
"/.' ' [ Q.D u.fX% o o o o o o o o o o o o o o = 9 9 e 9 9 9 9 9 7 9 9 < > : : > ; 1 & : : : : > : > : 4 (.' A H E.[ H /.",
"#.).} D [ } %..XO o o o o o o o o # o o o o o = 9 9 7 7 7 7 9 9 9 9 6 7 > : > , : > > ; : , : > , : > 4 E.[ { | o.!./.O.",
"J H [ } @.~.~.!.O o o . o o o o o o o o o # o % 9 7 6 e e < 4 7 e 9 7 < > , : > : : ; > : : : ; : > , > ^.(.Q.!.@.' E.O.",
"/.O.!.^.~.~.!.!.O o o o o o o o o o o o o . o + 9 0 0 0 9 0 q 0 0 0 0 7 , : > > ; : > > > : > > > ; > 4 !.E.@.+.H F F #.",
"}.^.| !.^.O.F C O o o o o o o o o o o o o X   5 -X=X=X=X=X=X=X=X=X=X=X-X:.: - > > : : : ; > : : > > > > G C H } O.@.@.W.",
"~.'.H H E.O.H F O o o o o o o o o o o .   O 3.eXR.<.<.>.:.8.F.6.6.6.:.t.,XJ.5 $ , ; > : : : , : : : ; > H { !.#.@.F | (.",
"o.H } H D [ ^.^.O o o . o o o o o o X   5 -X,X8.h j k z >./ n.e.,.l f b / -X=X,.- ; ; : : > : : : > > 4 ^.~.^.| [ F Z  .",
"E.E.!.O.| | o.{ O o o o o o o o X X O 6.,XI.:.9 ;.;.= x P.m.n.-X,.1 >.1.>.w y.eXJ.5 - : > > , , , ; > > [ !.(.[ @.@.C [ ",
").~.!.(.).`.O.H O o o . o o o   X x =XU.,.d.eXeXeX=X0 9 I.w.C.>XY >.zXzXxX4X-.0 U.eX<.& % > : > : > > 4 H !.Q.+.K G F /.",
"E.#.E.(.' { @.{ @ o o o o o   O t.rXR.= 4 qXNXzXzXxXx q P.7.G.sX2.;.vXcX0XwX2.* 0 6.,XL.9 - , , : > > > } +.&.[.{.[.P W.",
"G ' !.E.o.Z C H o o o o X X Y -X-X6.;.1 -.qXMXzXbXxX;.:.eXF.K.vXp.7 4XwX9XwX6.7 2.w :.T.>X3.; ; , > > > H H +XpX|.oX#.Z ",
"/.(.H H Q.#.{ | O o . X ; y.,Xe.;.1.d.,.:.cXBXNXNXzX>.3.rXF.K.vXT.2 a z x x u 8.Y.6.>.;.r.,X:X0 % ; > 4 +.'.oXkX1X{.O.o.",
").Q.o.K H E.Q.o.@   o Y >XL.x -.2.s.f.z :.qXVXNXNXzX;.,.=X7.m.eXsXqXqXqX6X6XT.d.6.2.;.q -.Y R.=X6.> - > } W.+XyXpXtXQ.(.",
"W.} } %.Z [ ^.'.. 1 y.>XS.n.m.B.F.S.V.C.V.S.V.S.S.S.V.M.N.m.m.m.F.G.Z.G.G.G.F.V.V.V.V.V.B.B.n.C.<XI.x > }  .[.'.#.|._.W.",
"' F H [ { ] '.^.,.-X>Xw.h s z z p p a a p p a a i u c z a h l p a z p p a p a p p p a z a z p l 4.-X-Xy.~.[ D H E.J o.O.",
"&.' H [ Q.J } !.R ) M.4.z h k t 3 u u u 2 u u 2 t 3 u j ^ A.D./ n b 1 a p p u p a u a 2 u u h z 4.B.) q.E.' C G E.} J /.",
"#.^.+.D [ +.O.!.Z l 5.y.v n M h h n n n n k k n n h y b B 8.3.v.j.b a m B m m m m m m n h d ! c t.B.^ q.%.' } | [ !.!.O.",
"J H +.o.@.~.~.^.' Q C.3.z n k.j 3 t t t t y t t t 3 g N ( t.D.z.b.( 2 t u y y u y y i 2 d ( k.l 4.C.Q U !.~.Q.(.+.[ %.O.",
"/.o.!.(.!.!.!.!.] W Z.D.T d ~ ! M ~ m g ~ m M ! m f j.l.( 5.4.^ j.j.M M ! j m ! g n ! M m l.! c i.Z.Q ] !..XW.+.H Z F #.",
"`.^.| ^.!.| F ] S W c.3.z M j.H.H.M.V.L.x.F.L.M.C.L.M.~ ( t.A.T f 5.L.A.x.L.A.( U.A.c.H.J.! ! z 3.n.) f.1XlXu.K | %.| W.",
"(.Q.G ' !.} H G Z g C.D.v d ~ K.H.x.C.L.c.B.H.x.B.K.M.! ! 7.w./ ~ c.H.B.x.H.N.n.H.B.x.S.K.j.~ c y.S.W f.yX+X).@.O.G @.(.",
"O.G o.J J [ ~.~.*.Q Z.t.x h ! k p h k j k j g k h 2 n z.z.4.4.( j.m b j k j k k j j c h ! b.j.T y.B.Q *.^.!.).O.[ F F  .",
"&.E.~.@.| @.[ [ ] Q Z.7.^ ! m x -.p h c l l c l p 1 1 g l.D.H.c.M i u a a p a a a a h p a m l.! C.Z.~ R $./.~.K | @.C o.",
").~.Q.^.).).| G { U s 3 u z z 1.-.= :.d.s.a.s.2.* w w 2 u p 2 v 3 1 2.4X9Xh.8 = h.9X5X1.1 1 a i r t U ] G Q.!.@.| G D !.",
"W.O.Q.!.' { %.} E.o.S 5 x >.2.1.7 < f.jXaXrXsX&X= >.2.-.9 2 i :.< 2 5XVXzXwX-.-.NXzXzXg.8 e -.7 3 3.&.| } @.{ [ +.H ' W.",
"G ' Q.W.o.Z D L H } V ` t.f.d.d.T 0 g.MXMXMXMX5X= q -.6 -.B c.2.9 Y |.:XoX:Xq.*.0X&X&Xf.X.V q 0 ) w.0.C L H } ' | ~.O.G ",
"&.!.L H !.@.[ O.Q.!.V _ ,XnXlXvXT.;.h.mXMXzXzX5X3 >.e.d.e.8.n.6.q.].%X$X%X$X%X3X$X%XoX].].=.d.,.5.*.| [ +.Q.%.Z G !.@.o.",
"`.(.[ ' ' E.Q.+.!.@.V 8.>XVXBXnXU.v T.BXBXVXNX0X3 6.eXeXR.8._ d.6.X.*.Y *.R Y U U I U I R 6.*X6.5.I /.%.| !.| D Z ' ~.(.",
"E.} } %.Z [ ).| Z s ) ` ) 5.jXnXU.v 4XBXCXZXCXqX3 d.6XR.n ) x.x.m.A.m.N.m.B.m.w.B.N.m.V.Z.G.M.n.x.( l ' @.H +.Q.+.} ~.W.",
" .F H O.{ H E.^.U W N f M z.U.<XB.v 5XCXZXZXCXqX3 5.A.5.! g f y r d d f g g f f f f f h r d r b b N Q U ).[ F K Q.[ ' O.",
"!.' J [ !.J { ^.A g N.J.n.N p 0 2 x s.9X0X0XwXg.u 0 0 h ( A.t.^ M y 3 i a i i d d a a u u h f B D.G.Q U !.H C ' @.} H !.",
"#.).} D K O.o.&.0.v ` 4.) ! d.6X6X=X,X,X6X>X=X>X=X>XT.7.m 5.3.n r T d.L.L.I.L.L.L.L.L.U.e.n v.z.4.n.W A &.{.Q.'.o.!.!.O.",
"G H } @.#.[ +.|.&X) V.L.M.~ -XzXvXrX,XrXhXsXsXsXsXhX,XB.! S.D.) m k p c T / T T T T T a k k.b.n.H.G.W U 1XzX+X}.#.' E.O.",
"W.O.!.).!.[ [ .X@X^ x.t.` ( -XrXjXlXeXeXeXjXvXzXjXsXjXL.M 5.4.) k.v.b.l.k.l.k.z.l.k.j.k.b.v.j.^ 7.M.g U +XkXdX1X] D F #.",
"`.^.@.Q.^.{ C 9.@X/ M.D._ ( >XsXsXsXsXhXrXsXjXjXhXjXjXH.m N.t.( k.v.v.v.v.v.v.l.l.v.v.z.z.N M ^ D.Z.Q A 1XfXgX+X[ %.@.W.",
"(.E.G G '.'.[ C X.^ n.F._ m ,.1.6.p.e.6.6.r.6.6.6.p.,.c ~ w.7.l b f d h d d a d d d k n j f d T B.Z.W I u.+XXX.X+.F } (.",
"#.9.[ o.u.}.oXOX..s ` 7.^ f y.*X*X*X*X6X*X*X6X*X*X6X&X8.j 5.5.a y y b i i i i i i i i y u y u k 4.5.s ] E.!.!.O.O.F F  .",
" XgX+X1X;X;XuXkX7X9.f.U.w.,.6.e.e.e.e.e.p.p.e.e.e.e.e.<.,.R.J.k r g f f k g g j j n g n h g i / U.X.{ [ [ !.!.[ | %.C o.",
".XiXbXkXOXyXdXgX1X|.s.T 3.f.Y.&XT.T.T.T.Y.Y.T.T.T.T.&Xf.s./ c h d a d d d h j g g g d j g g h k ) U `.| J !.!.'.} G F /.",
"Q.;XuX1X{.{.uXyX[.9.i.T y.f.P.P.P.P.P.P.P.f.Y.P.f.Y.P.Y.R.3.s V I U V I I V I V V V V V V I V I s V ' } K W.[ K @.H H @.",
"..&.(.@.!.@.[.[.@.O.0.$.1.a.a.h.a.a.a.a.a.a.p.p.a.a.a.a.r.V Z ' Q.@.{ F D H L O.9.u. XO.9.;X[.'.&.9.0.9.$.H } H } (.O.G ",
"!.E.H J W.E.[ +.}.2XdX|.P iXbXkX1XJ L Q.Q.[ } ~.!.Z ] !.@.{ @.!.H H Q.W.' @.E.oXkXkXfX;X;XbXiX@Xu.pXkXyX{.E./.Z ] !.E.} ",
").~.o.L H @.} $.uXyXfX XD yX+X.X2Xu.L H O.Q.} '.| Z C H ~.Q.~.(.o.[ H E.Q.} | {.uXiXdXOX;XiXiX1X XuXdX+X!.!.O.Z C H !.(.",
"'.o.+.@.Z { ~.[.pXfXkXOXJ 9.+X+.P 9.@.C O.).+.P +.W.} } /.E.E.+.O.@.C { ^.E.L 9.aXpXdXOX@XdXfXtX9.1XbXtX{.Q.@.E.} } !.E.",
"o.P P @.O.H W.(. X#XOX|.o.P  X..H P @.@.] W.).@. .@./.O.o.#.P  . .O.%. .Q.}.K ..u. X9.9.9.0.0.9./..XOXOX{.(.o.o.W.o.o.#."
};
