/* XPM */
static char *xpm_[] = {
/* columns rows colors chars-per-pixel */
"60 60 221 2 ",
"   c #010101",
".  c #050904",
"X  c #080A06",
"o  c #070909",
"O  c #0B0B0A",
"+  c #06050A",
"@  c #100E0F",
"#  c #0D1409",
"$  c #0B1507",
"%  c #111C0C",
"&  c #10140B",
"*  c #141415",
"=  c #1C1B1C",
"-  c #131E10",
";  c #0F0D10",
":  c #201F1D",
">  c #14230D",
",  c #1A280E",
"<  c #162411",
"1  c #182512",
"2  c #1B2B11",
"3  c #1C2419",
"4  c #1C3613",
"5  c #233B17",
"6  c #202B1A",
"7  c #1F1F21",
"8  c #242423",
"9  c #2B2C2C",
"0  c #282925",
"q  c #293B22",
"w  c #30332D",
"e  c #313131",
"r  c #3D3D3C",
"t  c #353A33",
"y  c #312F32",
"u  c #26441A",
"i  c #2A451C",
"p  c #2D4C1F",
"a  c #2A4717",
"s  c #344D26",
"d  c #335321",
"f  c #355C23",
"g  c #395D25",
"h  c #365D28",
"j  c #3E5334",
"k  c #356326",
"l  c #3A6226",
"z  c #366927",
"x  c #366429",
"c  c #3C642A",
"v  c #3C6B2A",
"b  c #396A29",
"n  c #3E712D",
"m  c #3E782E",
"M  c #3E6E31",
"N  c #42423F",
"B  c #426D2C",
"V  c #40652B",
"C  c #43742D",
"Z  c #49762E",
"A  c #45792E",
"S  c #4A7A2E",
"D  c #436634",
"F  c #436D32",
"G  c #4A6D3B",
"H  c #457431",
"J  c #4A7633",
"K  c #457A31",
"L  c #4B7C32",
"P  c #4C733D",
"I  c #4D7D39",
"U  c #517D34",
"Y  c #537C3C",
"T  c #55783C",
"R  c #414141",
"E  c #4E4E4E",
"W  c #484846",
"Q  c #504E4F",
"!  c #4E504F",
"~  c #51514F",
"^  c #4F4F52",
"/  c #514F50",
"(  c #535353",
")  c #5C5C5C",
"_  c #565D51",
"`  c #4F6C42",
"'  c #556E4A",
"]  c #527443",
"[  c #557C43",
"{  c #597B45",
"}  c #5A754D",
"|  c #5C7C4C",
" . c #537449",
".. c #5F7A52",
"X. c #5D7751",
"o. c #637D54",
"O. c #657D58",
"+. c #617D4D",
"@. c #666666",
"#. c #6B6B6B",
"$. c #676767",
"%. c #6A7B62",
"&. c #747474",
"*. c #7D7D7D",
"=. c #797977",
"-. c #6F776C",
";. c #4B812F",
":. c #47802F",
">. c #4D8334",
",. c #4D8834",
"<. c #4D8339",
"1. c #4A8435",
"2. c #528435",
"3. c #548A36",
"4. c #598D36",
"5. c #538439",
"6. c #59873D",
"7. c #558A3A",
"8. c #5A8C3B",
"9. c #56913C",
"0. c #5B923C",
"q. c #558343",
"w. c #5B8444",
"e. c #5C8B42",
"r. c #5E844A",
"t. c #5F8C4A",
"y. c #618C46",
"u. c #62844D",
"i. c #628A4B",
"p. c #67944C",
"a. c #658454",
"s. c #658C52",
"d. c #6B8B55",
"f. c #668259",
"g. c #6A845B",
"h. c #6B8A5C",
"j. c #698356",
"k. c #6B9253",
"l. c #6C9159",
"z. c #679056",
"x. c #739859",
"c. c #70865F",
"v. c #6F8B61",
"b. c #6C8064",
"n. c #728C64",
"m. c #728568",
"M. c #7A8D6B",
"N. c #748869",
"B. c #749363",
"V. c #7A936B",
"C. c #7C9B6B",
"Z. c #779666",
"A. c #7B8D71",
"S. c #798770",
"D. c #7E9871",
"F. c #819274",
"G. c #849B74",
"H. c #86947A",
"J. c #8A9D7D",
"K. c #87977B",
"L. c #819D6D",
"P. c #83A36C",
"I. c #89A375",
"U. c #8CA37B",
"Y. c #89A379",
"T. c #93A87D",
"R. c #7F8180",
"E. c #848484",
"W. c #8A8A8A",
"Q. c #8E9D82",
"!. c #949F89",
"~. c #949394",
"^. c #9B9B9B",
"/. c #979796",
"(. c #8D8E90",
"). c #A09E9F",
"_. c #8EA381",
"`. c #92A284",
"'. c #95AA84",
"]. c #95A58A",
"[. c #9AA68E",
"{. c #9BAB8C",
"}. c #97AA88",
"|. c #9EB08B",
" X c #9EAC92",
".X c #9CA498",
"XX c #9FB292",
"oX c #A2AD94",
"OX c #A5AF9A",
"+X c #A6A89D",
"@X c #A3B294",
"#X c #A5B399",
"$X c #AAB59D",
"%X c #ACB99D",
"&X c #A8B496",
"*X c #A8B596",
"=X c #A4A3A3",
"-X c #ACACAC",
";X c #ADB5A2",
":X c #AEBBA1",
">X c #B3BBA4",
",X c #B5BBAA",
"<X c #AEAEB0",
"1X c #B4B4B4",
"2X c #BEBEBE",
"3X c #B7B9B6",
"4X c #C0BFBE",
"5X c #B8C1A9",
"6X c #BFC1BE",
"7X c #C0C1BE",
"8X c #C6CEB7",
"9X c #BFBFC2",
"0X c #C0BEC1",
"qX c #BFC1C1",
"wX c #C1C1C1",
"eX c #CBCBCB",
"rX c #C8C4C5",
"tX c #D0CECF",
"yX c #D3D3D2",
"uX c #D9D9D9",
"iX c #D9D7D8",
/* pixels */
"w.C f.!._.Q...Z.U.Q.B.>.J H 7.6.H F H <.v I 3.H h F 5.H v L 7.F M H 1.v I 7.H g F <.J H 7.6.J F H <.v L 7.F c F 5.H B w.",
"S 1.C.;X|.%Xf.J.,X%XQ.v 2.,.C L 4.H z C Z Z 2.Z Z J Z <.2.H Z 3.Z b H H Z 5.C J J Z >.<.H J 8.A z C A S 5.C Z J C 5.3.J ",
"c z l.#X#X;Xa.V.%X$XQ.M H 2.B h v C K L 3.3.3.3.1.2.S B U C g B Z H L 4.2.3.3.>.2.L B 2.C f v Z K L 3.2.7.7.>.2.L B 5.J ",
"5.Z L e.I.D.A w.H.D.r.v f g L >.A 2.3.2.3.3.2.L L L v l l L >.A 2.3.2.5.3.2.L 1.L b l g L >.A 3.3.5.7.2.>.2.L K v l h I ",
"8.7.k.2.>.u.n.j.' ' h.8.e.L >.0.4.L 2.7.S v c f v A L U J >.4.4.L 2.3.A b c f v S A L L L 0.7.L 3.5.L v c f B C J L S ,.",
"7.x.OXI.q.C.:X;XV.g.>X'. Xp.;.<.>.v B >.A c c C L >.L l L <.>.<.v B 2.C F X.o.p.9.L l L 2.2.2.c B 2.Z c c Z ;.>.L l S 7.",
"B.>X X;X%.A.@X@XV.h.@X[.;Xg.k C v H v k C 3.3.4.3.L C l g B C v A v l n 7.Z.$X%Xx.B l l n C v A c k C 3.5.4.3.S C l h B ",
"s.Z.k.U.a.B.oX#XD.O.OXoX;XX.v >.L 3.L Z L Z H 2.3.C U S g B >.L 2.S K Z e.[.oX:XF.J L g B U L 2.;.C L C Z 2.3.Z L U f H ",
"7.1.>.2.4.0.r.} { P a.i.} D >.4.3.2.4.3.0.S v >.3.L A b l ;.0.3.2.3.3.2.Y `.|.{.f.C c f ;.4.5.2.3.4.3.S v >.5.A A l l 7.",
"<.L ;.;.B Z S n S A n m z b S L L U 2.C H L H >.H C A b B L >.S >.2.T e.y.{ q.a.[ <.P [ >.>.6.2.q.{ y.2.C 1.C C L b v 1.",
"c B 3.>.Z g k v n H B A 3.L Z L L 2.>.Z g l v v C B J 2.S l f C <.C D.;X XG.r._.}.[.a.G. X`.G.i.B.D.>XO.z v C v S 5.L c ",
"5.2.n v ,.L B A S L g v ;.4.2.2.2.v b 1.A C A >.2.g B 2.L B J 2.F k U.@X[.T.b.'. X#Xg.D.#X XQ.N.B.K s.h.A 2.2.g B 5.L H ",
"8.7.H v C L ,.l.p.y.V D a.e.1.,.>...a.[ C L Y 6.J k f B 4.2.3.3.C v _.;X#X].o. X#X%Xh.V.%X@XJ.n.#XC.D.d.H 2.A l g B 2.7.",
"<.A Z L g C 3.k.{.$Xv.K.,XU.r.K x.#XG.{ O.[.[.Q.L 1.A C 5.>.L A Z L ..F.M.o.] O.n.M.` ] F.F.} B h.V.H.| k v L >.A C 7.>.",
"M k v Z Z l w.p.I.;Xh.w.[.;XG.a.XX[.I.Y Z.>X'.{.] n >.C B J v k v C B f { M.V.a.L r.K.V.D ` O.h.e.v f Z >.C c C <.C v L ",
"5.B v C <.k o.$XOX;Xn.6.U.[.x.y.oX$X$Xq.I OX|.%Xo.k >.Z b 2.2.B v C 1.k v.8X%X|.n.'.#X:XN.n.>X>XY.:.x K 7.B d B >.C v 5.",
"<.7.K k A A T d.V.l.Y | , . . + 1 n.%.v >.Q.F.l.Y S C <.5 . X . $ k n C h.$X X XN.{. X#XN.n.&XoX[.w.C L >.Z Z L H 2.7.J ",
"c v Z A S 3.2.3.>.S | u.%       % Z C u.u.>.U A 1.7.S B 2       . L L n w. X[.C.g.K._.|.n.O.OXI.`.p.>.3.3.3.1.,.L C L J ",
">.L 2.3.3.2.3.2.5.G.t w O 9 ~.*.# 1 5 +XC.2.3.7.L A , > _ ~.=.+ + , , f L Y P L 2.J 5.Z H r.r.3.6.7.3.5.2.U L K c l l I ",
"e.7.S 2.3.L c f N.+X      W uX3X+     K.|.} v l v Z     R.uX3X        h k l f v :.>.>.S >.7.3.Z 2.5.Z v b f B A L L L ,.",
"7.2.c v 2.H v l u.d.+     R eX1X0 = 8 _ @.s 4 i d p 7 3 E.eX<X0 3 ; + 5 5 5 i d p a 5 i d p f c B ;.S B c Z 2.L L l L 7.",
"K v Z b l C 5.4.3.S       r eX4X2XeX&.            o <XrXwXwX2X2XrXe                         # A b l C 5.3.4.4.L B l g M ",
"<.>.<.S L L C B B B &     R eXqX0XeX#.            . <XrXwX0XwXrXeXy                         < H B S L Z C >.7.H L L f H ",
"8.3.2.4.4.4.L u     = (.+X-XwXqXwXrX/.$.$.~.).W.$.#.3XwX7XqX6XqXrX=X^.~.$.#.#.#.#./.=X*.#.W O   . L 4.L v 3.>.A C l l 5.",
"1.K >.5.B Z L p     + <XeXrXqXwXqXrX=XR.*.2XeX3XR.E.3XwX0X0XwXwXwXtXyXwXW.W.E.E.W.qXeX^.W.(       V Z S Z L Y q.q.| B L ",
"V B 2.> & $ $ .     . -XrX7XwXwXqXrX-XW.(.3XwX1X(./.2XwXwX7XwXwXwX.X(.E.) ) &.E.E.6XrX~.E.) 7 8 8 % $ i v b V.#Xs.p.Y l ",
"5.2.v .             + -XrXqXqXwXqXqXqXwXrXwXqXqXrX0X2X0X9X4X2XwXrX9         E W.E.2XrX~.*.E.E.W.7     p L ;.p.%XI.e.L H ",
"8.7.H .             . -XrXqXeXeXeXeXrX2X9XeXeXrX4X4XeXeXeXeXeXwXrX9         R E.R.3XrX~.&.*.*.R.*   * q 5 d C.].OX`.>.,.",
"1.K Z .             o -XeX~.R R R r *.eXqX( R @.rX2XE R N r ( 2XwX~.E.E.R.E./.<X-XqXqX<X-X-X-X<XW.W.( *   % q.;.<.r.6.<.",
"v k v .       + O     -XyX*.        ( yXrX*   9 tX3X        + 3XwXeXtXtXtXyXeXwXrXqXqXrXrXrXrXqXrXyX#.    , k v ;.v F L ",
"5.B v .       * e = = -XtXW.* = * = ) 3X-Xw = R 1X).8 = = * 9 3XrX-X=X-X-X=X3XwXqXqXqXwXwXwXwXwXqXtX@.    > d B >.C c 5.",
"Y 7.A .         e rXwXwXwXqX2X2X2XeX#.  + ).eXW.  o -X0X2X2X2XwXeXe . +   + &.eXwXqXqXrXwXwXwXqXqXtX@.    1 C Z Z 2.2.L ",
"c v C .         e rXwXwX6XwXwXwXrXeX$.    =XyX(.    <XrXwXwXwXwXeX9         #.eXqXqXwX2XwX2XwXwXqXeX@.    9 O $ >.C U J ",
"<.J 2.          e rXwXqXqXwXwXwX2XrX<X/./.3XrX1X/./.qXqXwXwXwXwXwX=X/./././.<XrXqXwX7X9XwXwX2XwXqXrX<X/./.8   . v g l <.",
"0.3.>.g f $     e rXqXqXqX0XwX6X2X2XrXrXrXwXqXrXeXeXqXqXwX2XwX2XwXrXrXeXeXrXrXwXwX7XwXwX7XwXwXwX6XwXwXeXrX7   . J U S <.",
"6.2.c B >.1     e rXqXqX7X6XwX0XqXqXqXwXqXwXwXwX2XwXqXwX2XwXwXwXwXwXwXqXwXqXqXwXwX9X2XwX9XwX2XwX7XwXwXrXwX=   o L l L 7.",
"J v A b k ,     e rXwX0X0XwXwXwXwX9X7X7XwXwXwXwXwXwX7X2XwXwX9X7XrXqXwXwXwXwXwXwX0XwX7X9X7X9X7X0XwXwXwXwXwX=   . n c h F ",
"I ;.<.L Z ,     e rXwX6XwX2XwX2XwX2XwX0XwX2XwXwX7X9XwX0XwXwX7X0XqXqX4XqXwXwXwX2X6X4XqXwX0X7XwX6XwX0XwXwX4X=   . U S f H ",
"8.7.2.3.4.2     e rXwXwXwX0XwX6X6XwXwX0XwXwXwX2XwXwX2XwXqX0X6X7XqXwX2X0XwXwX2XwXwX0X4XwXwX0X0X6X2XwX2XrXqX=   . Z v k 5.",
"5.L >.2.B ,     w rXwX0X6X6XwX0X0X6XwXwX4XqXwXwX2XwXwXwX0X7XwX9XqX9XwX7X2XwXwXwX0X6XqX0X6X6XwX0X7X0XqXwXwX=   . A v v >.",
"c C 2.>.H %     w rXqXqXqXqXqX0XwX2XwX2XwXwXwX2XwX7X0X7X0XwX7X9XwX0X2XwX4XwXwX6XwX6XwXwX2XwXwXwXqX0X0XwXwX7   + Z 3.J c ",
"2.2.v v 1.,     9 eXqXrX9X2X4XqX6X0XwXwX2XwXwXwX2X9X7X9X6X6X0X7X7XwXwX7XwX7X9X0X7X0XwXwXwXwXwXrXwX2X4XwX9X=   . B 3.L H ",
"8.7.A B n ,     y qXqXqX2XwXwXwXwXwXwX2XwX2XwX2XwXwX0X7XwX9X7X0XqX0XwX9XwX9XqXqXwX2XwX2XrX3X<X<X9XqXqXwX9X=   . f B 2.7.",
"<.Z A L l 1     y eXqXqX2XwX7X9X2XwXwXwXwXwXwXwX6X0XqX7X0X7X9X7X7X2X7XwX2XwXqX6XqX0X7X0XeX*.o . ~.eXwXqX2X=   X K Z 7.,.",
"F k v J J %     e yXeX0XwXwXwXwXwXwXwXwX2XwX2XwXwXqX0X6XwX6X0X0XwX7X4XwXqX2XrXtXeXeXeXeXuX*.    ~.rXrXtXeX3     1.n n L ",
"<.B v C ,.2 & > 9 #.$.3XwXwXwXwX2XwX2XwXwXwXwX6X4XwXwX0X0X6X7XqXwX9XwXqX2XrX(.#.#.@.#.@.#.) R r =XeX/.$.#.0 $ % L Z v 2.",
"U 7.A k C K H s       -XeXwXwXwX9X7X9X7XwX0XwX0X9XwX6X0XwX0X9XwX9XwX2XwXwXyXE             9 ~.E.1XtX@.    3 1.L C 2.2.J ",
"c v H L L C A j   . + -XwX2XwXwX7X0X7X0XqX7X6X0X7X7X9X7X6X0X7X4X7X7XwX0X2XeX(             e E.R.<XeX@.+   j B.p.L F >.J ",
"<.J <.4.2.C S u.Q.-.X = = ( eX7XqXqX7XwXwX0X0XwX7XwXwXwXwXwX7X7X0X6XrX=X= 3 E &.#.).=XR.$.W.3X2XR 7 ; u h.!.&XQ.D k l L ",
"e.8.L 7.3.Z f { +X!.      N iXeXeXeXeXeXeXeXeXeXeXeXeXeXeXeXeXeXeXeXyX=X    ^ ~.~.eXyX=XE.=XyXyX9     q J.#X$Xx.C U L 5.",
"3.>.x l >.;.C f +.k.p u $ = ( Q E / / ^ ! E ! / E ^ E ^ ~ ( E ^ ( E ( R     = r t E ~ r e r ( ( * i u g O.x.x.d.K g L 7.",
"<.| m H o.w.k.Z.| ;.r.r.<                                                               +         f H 3.2.5.5.J H c l v ",
"d.;XZ.T.F.K. X>X`.| $XP.3                                                                         v L Z C 2.3.C L U g H ",
"s.XX>X;XA.Q.@X#XU.o. XXX8                                                                         S 0.S v 2.3.S A c l 5.",
"<.G.{.T.6.i.|.].q.[ Q.].w . o O O O o X O @ o X . . . . . . X . . . . X . . . . . .   + . . . . $ l C Z C 1.n C K v M L ",
"c [ 7.L 2.>.q.w.S L } Y e.J A.#Xa.>.:.4.6.} ` F Z B Z 7.A f g B 2.>.H l k v v Z +.o.h.P { G.r.S { ] ` } P v H v S 3.J c ",
"Y >.v v >.<.C K e.P.@Xu.K }.5X:XY.b n 1.,.C A 3.2.f V 3.S C U 2.v v ,.L C L ;.p.>X:X;XF.K.>X|.V.o.OX%X}.r.>.2.f V 2.L Z ",
"9.3.C n n L A P  X{.%Xg.h ].D.k.L.O.B v L 2.A >.Z l f B 3.<.3.7.C C n >.>.Z S w. X{.XXM.K.{.@X_.g.{.oXC.2.2.Z l l B 2.7.",
":.K Z L g J 4.q.oX$X%Xm.k q.C.K M ] S l J 7.L v K 1.C Z 3.1.K K H U f J 4.>.b [ OXoXoXN.M.#X#X_.[ _.,XT.e.1.L 1.m C 2.>.",
"H M M J J c 1.8.a.m.N.i.H M O.G v H J L V <.0.I F I 7.H J I F F F I J F Y 0.K D ..s... .] } X.} Y s.N.n.r.7.J H <.H J 1."
};
