/* XPM */
static char *xpm_[] = {
/* columns rows colors chars-per-pixel */
"60 60 248 2 ",
"   c #010101",
".  c #070907",
"X  c #150B00",
"o  c #180B04",
"O  c #0C1408",
"+  c #121A0B",
"@  c #161614",
"#  c #040C16",
"$  c #261401",
"%  c #381C01",
"&  c #2C1109",
"*  c #15240D",
"=  c #1C2B13",
"-  c #1B2516",
";  c #1F3314",
":  c #21281B",
">  c #233A18",
",  c #2F270E",
"<  c #010924",
"1  c #011834",
"2  c #0E1A27",
"3  c #172531",
"4  c #272725",
"5  c #2D3527",
"6  c #38342B",
"7  c #292D36",
"8  c #3D3D3C",
"9  c #353533",
"0  c #302B25",
"q  c #521401",
"w  c #452301",
"e  c #4C2802",
"r  c #51340C",
"t  c #732D01",
"y  c #752B00",
"u  c #7D3E00",
"i  c #773601",
"p  c #713205",
"a  c #423E33",
"s  c #4A3A21",
"d  c #26421A",
"f  c #29441B",
"g  c #2C4A1E",
"h  c #25491A",
"j  c #32531F",
"k  c #2B4F1D",
"l  c #2E4720",
"z  c #314824",
"x  c #2E5321",
"c  c #335422",
"v  c #355C24",
"b  c #3A5D25",
"n  c #395A29",
"m  c #3D5135",
"M  c #366325",
"N  c #3A6326",
"B  c #376529",
"V  c #3C6529",
"C  c #3C6B2A",
"Z  c #386927",
"A  c #3E712B",
"S  c #3F792D",
"D  c #3F7430",
"F  c #7E4101",
"G  c #704817",
"H  c #474438",
"J  c #445D37",
"K  c #4D4936",
"L  c #735535",
"P  c #426C2B",
"I  c #406829",
"U  c #44742D",
"Y  c #49752E",
"T  c #45792E",
"R  c #4A7C2F",
"E  c #426532",
"W  c #476B36",
"Q  c #457531",
"!  c #4A7434",
"~  c #467A31",
"^  c #4B7C32",
"/  c #4D753A",
"(  c #4C7B39",
")  c #467238",
"_  c #517D34",
"`  c #527C3B",
"'  c #50723F",
"]  c #012954",
"[  c #3E3E41",
"{  c #2A3642",
"}  c #032E66",
"|  c #3A444D",
" . c #3F5876",
".. c #464647",
"X. c #454D56",
"o. c #525752",
"O. c #4E6941",
"+. c #566C4A",
"@. c #5B7B4B",
"#. c #577846",
"$. c #5C7253",
"%. c #776C5A",
"&. c #627C54",
"*. c #647457",
"=. c #6E6A54",
"-. c #6C7963",
";. c #767671",
":. c #635A51",
">. c #813E01",
",. c #843801",
"<. c #D90100",
"1. c #E00001",
"2. c #834201",
"3. c #8B4600",
"4. c #8C4907",
"5. c #944C01",
"6. c #984900",
"7. c #8A5214",
"8. c #A75301",
"9. c #A54F04",
"0. c #B07233",
"q. c #855526",
"w. c #8C745A",
"e. c #EA5A4A",
"r. c #FF6979",
"t. c #4A812E",
"y. c #4D8333",
"u. c #4C8535",
"i. c #528534",
"p. c #548A36",
"a. c #598C37",
"s. c #54843C",
"d. c #59853D",
"f. c #558A3A",
"g. c #5A8C3B",
"h. c #5B913A",
"j. c #569139",
"k. c #538A2F",
"l. c #638E3F",
"z. c #5A8344",
"x. c #5C8C42",
"c. c #5E834B",
"v. c #568542",
"b. c #5D9343",
"n. c #62894A",
"m. c #659449",
"M. c #6B855D",
"N. c #6C8D5A",
"B. c #688755",
"V. c #728D5C",
"C. c #6C9255",
"Z. c #75995B",
"A. c #798C6C",
"S. c #748867",
"D. c #769564",
"F. c #7A9769",
"G. c #7B8B71",
"H. c #7D9A72",
"J. c #6E8964",
"K. c #7DA065",
"L. c #B58758",
"P. c #819B6E",
"I. c #858977",
"U. c #859878",
"Y. c #988D74",
"T. c #A89A7B",
"R. c #89A378",
"E. c #8AA473",
"W. c #D09254",
"Q. c #EC9A4A",
"!. c #FF8D76",
"~. c #C9A176",
"^. c #EFAB67",
"/. c #FFC472",
"(. c #E18F3D",
"). c #003E95",
"_. c #034996",
"`. c #0C5297",
"'. c #1C5A95",
"]. c #175798",
"[. c #104F8D",
"{. c #225A94",
"}. c #2566A8",
"|. c #256098",
" X c #697583",
".X c #7DA5CD",
"XX c #6F96C1",
"oX c #8C9982",
"OX c #929A89",
"+X c #939290",
"@X c #B19C80",
"#X c #93A483",
"$X c #95A48A",
"%X c #99AA8A",
"&X c #9DAC92",
"*X c #9BA591",
"=X c #95A988",
"-X c #B8A88C",
";X c #A2AD94",
":X c #A6AE9A",
">X c #A3B294",
",X c #A6B29A",
"<X c #AAB59C",
"1X c #ABB99B",
"2X c #B4AD8F",
"3X c #ADB7A1",
"4X c #B3BBA6",
"5X c #AFAFAE",
"6X c #919DA9",
"7X c #FA9488",
"8X c #DBB98C",
"9X c #C6AE91",
"0X c #C6B495",
"qX c #CCB293",
"wX c #F8B295",
"eX c #CABEAF",
"rX c #FFB3A6",
"tX c #B6CAAC",
"yX c #E7C699",
"uX c #F2DB93",
"iX c #D2C2A1",
"pX c #D5D1B5",
"aX c #FBD7B3",
"sX c #EECEAA",
"dX c #FEE6BE",
"fX c #FEE9BE",
"gX c #F9E4B6",
"hX c #E8D19E",
"jX c #9EB5CC",
"kX c #CFD1CE",
"lX c #FFE6C1",
"zX c #FEEBC3",
"xX c #FFEECC",
"cX c #FEF1C6",
"vX c #FEF3CA",
"bX c #FDF9CA",
"nX c #FEFDD4",
"mX c #FFFEDB",
"MX c #FFF5D2",
"NX c #F3ECD5",
"BX c #FFFEE3",
"VX c #FEFFEC",
"CX c #FFFEF1",
"ZX c #FFFFFE",
"AX c #F3F3F4",
"SX c #E9E9E9",
"DX c #EFDED1",
"FX c #98C3ED",
/* pixels */
"m.Q J.$X=X$XB.F.#X$XD.f.( ) g.n.! ) ( f.Q ` x./ E ! d.( / x.x./ Q ( s.) ( g.! E ! v.` ) x.m.! ) ( s.) ` g./ E ! s.s.Q n.",
"^ y.F.<X&X1X&.U.tX1XoXA i.f.Y R a.Y C U T Y i.Y Y ^ U i.i.Y ^ a.~ B D ~ T i.U ~ ^ Q i.i.Y T p.Q B Y T Y i.U Q ^ Q i.s.Q ",
"W B N.,X<X,XB.H.3X1XoXC U _ U M C T U ~ k.p.p.p.t.p.~ P i.U v C Y Y ^ p.f.p.p.y.u.^ U i.U v C Y Q ^ p.k.f.f.u.i.^ P s.^ ",
"s.Y y.x.E.U.! z.I.U.n.x = + = * = = ; = : * N _ ^ ~ C V M ^ y.^ i.a.i.i.i.i.y.^ ^ V N v ^ y.~ i.a.i.p.i.i.y.^ ~ N N b v.",
"m.p.C.y.y.c.D.B.+.#.N.n + o % % % & % % $ w = f d g g l g g v c g c j g d d ; f d N _ ^ ^ h.a.^ i.i.^ C V v Z Y ~ ^ ^ f.",
"g.Z.,XE.v.F.3X3XA.M.3X*.4 e 8.5.5.5.5.5.5.8.e   X o o X o o X o X X o o o X o o X > N R p.i.^ C P i.Y V V Y i.i.^ N ^ x.",
"F.3X;X4X-.A.;X>XG.M.&X*.: w 6.>.F u 2.>.u 2.2.2.2.3.3.2.2.2.2.2.2.2.3.2.2.2.2.2.6.w O V C U C T C M U p.a.a.p.^ U N v ! ",
"C.F.C.U.n.D.;X,XH.-.:X%.: w 5.2.>.2.u F >.F 2.2.2.3.2.3.2.3.3.2.2.3.2.2.3.2.2.2.9.w O j P y.^ p.^ Q ^ U Q i.p.P ^ _ v ! ",
"b.y.y.i.f.h.n.@.#./ B.m O w 5.>.u 2.>.F >.F 2.u F F u 2.2.u 2.u F 2.F 2.>.F >.2.5.w O g ~ p.p.i.i.a.f.Y C y.i.^ U V N f.",
"f.^ t.i.U Y ! A ~ T A h O e 8.3.3.4.2.F F u 2.>.F >.F F u 2.2.F F u u u >.F F u 5.w . J ( y.x.u.v.z.n.i.U y.U S ~ C U s.",
"E P i.i.U b M A A Q C c * % 3.i i i u 3.F F ,.u u u u u u u u u u u u u u u u >.6.w O *.#X#XU.n.J.H.4XB.B C U P Y a.Q E ",
"d.i.C C u.^ P U t.^ N N C ;         % 8.F 2.y y t t t t t t t t t t t t t p t u 5.w O $.*X&XU.A.D.S N.B.T y.i.M P i.^ ( ",
"m.p.Y C U ^ i.C.C.z.n E +.c > > > z @ % 3.y L.sX8X8X8X8X8X8X8X8X8X8X8X8X8X8X8Xu 6.w + +.&X>XoXS.,XK.R.B.~ u.Y V b P i.b.",
"u.T T ^ b U p.C.%X1XS.U.:X-.m l m *.9 o 3.q 9XCXmXmXmXBXmXmXBXmXmXnXBXmXBXVXNXp ,.w O m S.I.#.E N.A.I.@.B C ~ y.T U f.f.",
"/ N C U Y V z.m.R.<XJ.z.#X*X-.J -.*.z X 2.7.8XnXlXbXzXgXzXfXdXlXfXlXfXvXvXxXaX0.6.w @ +.E W &.N.x.C v ~ y.U N U y.U C ` ",
"v.U C U y.B &.<X>X3XV.v.R.%Xn.` oXoXo.X u sXnXdXdXdXfXdXdXlXfXfXfXfXlXgXdXfXlXVX0.& @ I.M.J.4X4XR.t.B Q f.P c P y.U C g.",
"s.f.T B U T _ N.F.V._ #.n.i.P P n.J.m X ,.sXnXvXpX  2XnXlXlXfXfXfXzXcX@ I.nXlXmX0.% @ ;.-.S.1X;X%Xz.U ~ i.~ Y ! Y i.i.( ",
"U C U ! ^ f.i.u.y.^ @.B.d.` &.&.! g   X ,.yXnXbXsX  @XmXlXfXlXlXdXzXcX  %.mXfXMX0.&   0 O.-.:XR.$XB.k.p.p.p.i.u.^ P y.` ",
"v.Q i.a.p.p.i.k.s.R.<X&XM.U.,X1XD.* 7 %.i sXmXmXpX  @XnXlXlXfXfXlXcXcX  %.BXvXmX0.G o.  > z.n.i.f.i.p.i.y.y.^ ^ N V v s.",
"m.f.^ i.p.! V v -.pX&X%Xz.P.&X>X=X: w.nXt yXxXlXsX+ 0XnXfXfXzXlXfXzXvX0 Y.zXaXnX2.~.NX  h p.i.~ i.f.Y V I v C ~ ^ ^ ^ f.",
"h.y.V P y.Y C V n.F.R.tXJ.A.4X3XH.- ;.fXt hXrXr.7XbXxXdXlXfXcXlXfXlXdXnXrXr.7XnX7.W.pX. f Y y.V P ^ ^ C V Y i.y.~ N ^ x.",
"( C ~ Z V U i.a.f.i.c.V.+.' &.&.D * -.fXq yXMXsXaXcXfXlXlXlXW.yXMXfXfXvXaXaXaXnXp L.pX  = N V ~ C B Q p.f.a.a.^ U N b Q ",
"d.^ i.^ ~ Y U U u.p.C U ^ v Z #.oX4 ;.BX(.aXbXcXxXlXdXgXxXVXuXzXmXfXlXdXlXvXvXvX^.uXDX  = V ^ y.^ T ^ Y A u.p.U ^ ^ v / ",
"m.p.i.f.a.h.^ C i.p.^ U B N t.x.3X9 | qXL.aXcXzXfXdXlXcXaX^.wX7XwXvXlXlXlXlXlXvX~.T.I.  ; Y i.i.p.g.a.^ C p.y.R U B N v.",
"f.~ y.i.U U ^ Y ^ U U T A C Y f.R.9       iXnXfXlXlXlXnXwX<.<.<.e.BXdXdXdXlXzXnXa   .   ; B Y i.p.P Y ^ U t.` z.v.@.U s.",
"E P i.y.! b M C C Y C Y p.~ c #.D.! ' l   iXnXlXdXfXlXmXwX<.<.<.e.mXdXdXlXdXzXnXa - c > > g P i.^ ! b M Z Z D.:XB.m.( E ",
"d.i.A C u.^ U R y.i.v P i.^ U ^ _ B g h   iXnXlXlXlXlXnXwX<.<.<.e.mXlXlXdXlXlXnXa 4 z g g C y.P C y.y.U ^ i.m.3XP.x.^ ( ",
"b.f.Q A A u.y.U i.^ N v P f.u.p.i.U v d   pXCXmXnXnXnXVXlX!.!.!.sXVXnXnXnXmXBXCXH 0 O.v Z Y y.U U Z T i.Q i.F.$X:X#Xu.x.",
"i.T U i.b U a.^ A ~ u.T T p.y.~ ~ A Y g O Y.iX2X0X-X9X-X2XtXtXtX4X-X-X9X0X-X9XiX6 : E U A A S S Q @.N.a.^ Q #.y.u.c.s.f.",
") M C Y Y I _ f.Y N A y.U C Y V B C Y Y c O .                                   z c m @.H.E.U.#.N.E.>XC.p.A M A y.C Q ` ",
"d.P Z U u.B ~ i.C c C i.Q C i.i.P N U y.v O           L /.^.^.^.^.W.            H J &.J.K.C.>XM.N.u.$XP.i.V c C i.U C v.",
"v.a.T B U R ! i.Y Y ! Y y.i.! ^ h.^ B Z * 4 9 @   4 @ o.Y.L L L w.w.4 7 . . 7 9 + o.` x.K.Z.m.D C H.R.P._ U Y ^ U i.i.( ",
"E C ~ Q ^ a.i.p.p.u.f.~ U i.P N y.i.^ N   a :.7   ..o.4 { 6X X6X .# ..:.@ . o.o.@ 4 W ` #XOXA.` Y N.i.y.i.u.y.u.^ P i.` ",
"s.^ i.f.i.i.p.i._ ^ ~ V b N ^ y.^ y.a./   9 ..4   a [ [ I.AXZXZX5Xa a X.@ . | [ @ = +.*.` ' @.i.i.d.a.i.i.N._ T C V b s.",
"m.a.R i.i.^ Z V v C T ~ ^ ^ u.a.f.C c.I.  7 ..2   [ 4 5XkX  ZX[ X.ZX9 ..@ . [ [ . : n.C.y.j.l.F.f.y.D.>XR.4X&.U Y y.Y f.",
"f.i.C P i.T I V Y i.y.^ M ^ p.i.u.M J.OX  -XmXY.  [ 4 5XZXeXZXkXSXAX9 ..  6 zXgX6 - G.Z.f.y.C.>XR.m.N.>X#XF.x.^ ^ V ^ x.",
"( C T C V U p.p.a.a.^ U V N C U P A @.oX  pXZX;X  [ [ [ *XZXZXZXkXo.a X.  H VXVXH : G.&X%XB.U.z.H.oX&.l.f.u.p.~ A N N ! ",
"d.^ i.^ Y ^ U U i.p.A ^ _ v P ^ ^ u.R O.  iXVX@X  [ 8 o.+X5X5X5X+X:.[ ..  a BXnXa : E +.M.n.s.R ! n.( O.' i.p.U _ R c ( ",
"m.a.u.i.a.g.^ Z i.p.R Q V V t.h.a.i.i.U   iXCXT.  [ 4 5XSX2 9 @ 6XZX9 ..  a nXmXH 5 ;.E S a.p.u.t.i.h.Y B u.p.t.Y C N x.",
"s.~ y.i.U U R Y ^ Q S T C A ^ y.Y y.i.n   iXCXT.  8 ..@ =.ZXZXZX5X@ [ ..  a nXmXa 5 oX&.S y.N.m.K.E.` R Q ^ U Q T Z C s.",
"E P u.^ ! b N C A Q C ! f.R v N U i.^ v   iXCX@X  a 4 +XSX;.oX;.5XkX8 ..  H BXnXa : @.' v W D.Z.K.R.O.M Z A U C Y p.! V ",
"z.y.U A y.^ U ~ i.i.b C i.^ C _ i.A A U   0XCXT.  a 4 +X5Xo @ O ;.eX6 ..  a mXnX6 - V R U _ n.OXA.t.T U R y.i.b P p.( ^ ",
"m.p.U A P y.i.~ u.Y V v A p.i.p.p.U C l 5 pXVXT.  | X.{ 3 X.| | { 3 | X.  a mXnX%.+ j R u.p.i.( ' W s.y.~ p.Y M v P p.x.",
"f.T T _ b U a.^ C ^ t.~ T i.y.~ Q Q g 0 BXvXnXT.  ].{.{.'.].'.'.].{.'.}.< s mXaXVXI.O k.y.R T T t.b ! a.~ C ^ y.T ~ p.s.",
") B C Y Y V y.f.U B U y.U C ^ V M C d 0 BXQ.gX<X  '.'.{.|._._._.[.{.{.}.< K BXQ.bXI.O C ~ C N C Q Y V ^ a.Q N A y.U C s.",
"f.P C A u.C Y p.V x N i.R A T t.U C > 5 ZX^./.L.  '.{.].} < 1 # ] `.{.}.< s uXQ.mXOX. v _ i.P C A u.Z Y p.C v P y.U V d.",
"s.f.Q Z Q ~ U ` A.D.V.z.g.N.D.Z.a.Q k : T.w.q.e   '.{.].]   + . 1 _.{.{.1 o q.L T.K > V P T f.Y N Q ~ Y ` @.u.^ U i.i.` ",
"W C ~ Y ^ U Q n.4X<X1XM.A.4X4X:X) S U c     . . # {.{.`.} . ..5 1 _.{.}.3   . .   = f v C M C U ^ ^ S T #X4XD.m.^ P y.` ",
"v.T i.a.i.P Y C.;X$X<XM.&.3XF.E.z.y.d.P j j j ; . ].{.[.}   J 0 1 _.{.}.1 + z g g > > g U y.^ i.a.i.U ~ P.<X>XR.E N N s.",
"m.a.^ u.p.Y v @.:X:XU.s.n.P.u.p.j.^ y.R v f > *   _._._.}   v = 1 )._._.1 + > > g g c I R f.p.^ i.i.Y E U.<X3XZ.U R ^ f.",
"g.^ V V t.^ U v @.Z.^ A C Q y.t.^ C P U N j g > # jXjX.X .  j = 7 XXjXFX| O l b n v l U i.y.s.C P i.T P &.Z.D.B.Y M ^ x.",
"v.@.S Y &.d.C.D.#.y.x.n.&.E @.D.c.S C &.V.i.! > % 9XeX9X:.  c - 6 @X9XyXL O c Y U Z V b C Q N ~ C N U i.y.i.p.! ! V N Q ",
"V.1XF.R.U.H.;X4X$X@.<XP.K.$.S.pX&XZ.@.;X,X%X5 % 9.i y ,.e   j = $ u i t 6.p   U Q ^ ^ v U t.t.y.^ T ^ U Y i.i.U ^ ^ v / ",
"C.>X4X4XG.#X>X,XR.&.&X>X>X#.M.,X>X$X&.>X;X4 e 8.3.3.6.5.r   I ; % 5.3.3.4.6.2.  b U V V t.h.a.i.p.a.h.^ Z i.i.t.~ N V g.",
"f.U.%X#Xx.n.%X$Xs.z.oX#X&X#.@.&X#XH.s.V.*X@ o % $ $ o $ $ > v N = $ $ $ $ $ $   h D B C ~ T Q y.i.P U Y D t.Q S T P C #.",
"W #.i.^ i.^ z.z.~ ~ +.v.x.Q A.:XB.^ t.p.v.z - * * + * * = > d b c + + + + * + * J @.M.' @.P.c.y.#.#.O.@./ C Y C ~ p.~ C ",
"s.u.C C y.u.U Q x.P.>Xn.~ =XtX<XR.C Z y.i.C v v j > > j g f b Y v h x l g g l n I.*X:XI.U.tX%XA.&.;X1X$Xn.^ i.n V i.y.( ",
"b.p.Y A A ^ U / &X%X1XM.B $XH.C.P.&.A A ^ ^ v j g > > f j N Y y.C x g x x l x n -.I.&XA.U.&X&XR.M.&X>XF.u.i.Y N b C p.g.",
"~ T T ^ M U a.s.&X<X3XD.M #.F.~ S #.^ b Y i.C c M B v b P A ~ Q Q P g v P V x J I.OX;XA.A.,X,X#X@.R.tXR.g.y.y.y.~ U i.y.",
"#.Q ) ` ` W s.h.M.A.G.B.( ( M.' ) ) ^ ` W i.n.Q E ! s.Q ) ( W Q ! ( / E ` x.Q E &.M.B.@.#.$.&.&.z.V.A.A.B.x.^ ( f.( ( z."
};
