/* XPM */
static char *xpm_[] = {
/* columns rows colors chars-per-pixel */
"60 60 245 2 ",
"   c #010101",
".  c #080A07",
"X  c #150A00",
"o  c #180901",
"O  c #0E1B0A",
"+  c #0C1509",
"@  c #121C0B",
"#  c #181207",
"$  c #161814",
"%  c #080E15",
"&  c #231301",
"*  c #2B1801",
"=  c #371B01",
"-  c #2B1109",
";  c #15220C",
":  c #172B0F",
">  c #1B2813",
",  c #1E3314",
"<  c #233A17",
"1  c #2E2910",
"2  c #010825",
"3  c #011834",
"4  c #0D1A27",
"5  c #172531",
"6  c #262726",
"7  c #38352C",
"8  c #282D35",
"9  c #3D3D3C",
"0  c #343434",
"q  c #2E3025",
"w  c #531401",
"e  c #452301",
"r  c #4B2702",
"t  c #513009",
"y  c #732D01",
"u  c #772B02",
"i  c #7D3D00",
"p  c #773501",
"a  c #713305",
"s  c #423E33",
"d  c #493B21",
"f  c #25431A",
"g  c #2D4C1D",
"h  c #28451B",
"j  c #2E511E",
"k  c #33541F",
"l  c #314C1F",
"z  c #2E4822",
"x  c #344A29",
"c  c #335422",
"v  c #355C24",
"b  c #3A5E25",
"n  c #3A5B29",
"m  c #3B4C34",
"M  c #366325",
"N  c #3A6326",
"B  c #3C6529",
"V  c #3C6B2A",
"C  c #386827",
"Z  c #3E722C",
"A  c #3E782E",
"S  c #3F7430",
"D  c #7E4101",
"F  c #734919",
"G  c #454539",
"H  c #445738",
"J  c #45402D",
"K  c #735535",
"L  c #426C2C",
"P  c #40672A",
"I  c #43742D",
"U  c #48752E",
"Y  c #45792E",
"T  c #4A7B2F",
"R  c #426531",
"E  c #436B33",
"W  c #4A693A",
"Q  c #447431",
"!  c #4A7535",
"~  c #467A31",
"^  c #4B7C32",
"/  c #4D743A",
"(  c #4C7A3A",
")  c #477238",
"_  c #517D35",
"`  c #527C3B",
"'  c #51733D",
"]  c #01285A",
"[  c #343941",
"{  c #033469",
"}  c #3B454F",
"|  c #3C5977",
" . c #434343",
".. c #4A4B48",
"X. c #4C5745",
"o. c #515554",
"O. c #536C45",
"+. c #5B7A4B",
"@. c #577A46",
"#. c #5D6656",
"$. c #567149",
"%. c #607D4C",
"&. c #627C55",
"*. c #647957",
"=. c #736C57",
"-. c #72766A",
";. c #645B51",
":. c #823D01",
">. c #D90100",
",. c #E00001",
"<. c #834200",
"1. c #8C4600",
"2. c #8B4A08",
"3. c #944B01",
"4. c #984900",
"5. c #8B5016",
"6. c #A65301",
"7. c #AF7233",
"8. c #865325",
"9. c #8B755A",
"0. c #EA5A4A",
"q. c #FF6879",
"w. c #4D8333",
"e. c #4C8436",
"r. c #528534",
"t. c #558A36",
"y. c #598B37",
"u. c #54843C",
"i. c #59863E",
"p. c #558B3A",
"a. c #5A8C3C",
"s. c #5A903A",
"d. c #549138",
"f. c #4D832E",
"g. c #618E3F",
"h. c #558342",
"j. c #5A8444",
"k. c #5C8C42",
"l. c #5E834A",
"z. c #598A45",
"x. c #5D9343",
"c. c #62884B",
"v. c #659449",
"b. c #6B855C",
"n. c #6C8D5A",
"m. c #678755",
"M. c #718B5C",
"N. c #6C9454",
"B. c #6C9258",
"V. c #74985B",
"C. c #6F8962",
"Z. c #7A8C6C",
"A. c #738966",
"S. c #799667",
"D. c #7C8A71",
"F. c #7E9A71",
"G. c #7CA164",
"H. c #B48858",
"J. c #819D6C",
"K. c #859779",
"L. c #8C8972",
"P. c #AA9A7A",
"I. c #BC9F7D",
"U. c #89A378",
"Y. c #92A57D",
"T. c #84A36B",
"R. c #D09353",
"E. c #FF8D76",
"W. c #CAA273",
"Q. c #EEAB67",
"!. c #DE9B59",
"~. c #FFC476",
"^. c #E08E3C",
"/. c #013D93",
"(. c #034995",
"). c #1D5994",
"_. c #195798",
"`. c #0F5090",
"'. c #255B94",
"]. c #2566A8",
"[. c #0051A0",
"{. c #697583",
"}. c #7BA1C8",
"|. c #6D97BF",
" X c #8D9A82",
".X c #919A87",
"XX c #919090",
"oX c #A69982",
"OX c #8EA281",
"+X c #94A48A",
"@X c #9CAB8C",
"#X c #94A785",
"$X c #9CB08B",
"%X c #9EAB92",
"&X c #9DB090",
"*X c #B7A88C",
"=X c #A2AD95",
"-X c #A7AD98",
";X c #A2B194",
":X c #A5B29A",
">X c #AAB59D",
",X c #ABB99B",
"<X c #B6AD90",
"1X c #ADB7A1",
"2X c #B4BBA8",
"3X c #AFAFAE",
"4X c #919DA9",
"5X c #FA9488",
"6X c #DBB98D",
"7X c #C7AF91",
"8X c #C6B495",
"9X c #CBB292",
"0X c #F8B295",
"qX c #CABFAE",
"wX c #FEB9AE",
"eX c #B8CCAF",
"rX c #E7C79A",
"tX c #F6DC96",
"yX c #D4C3A3",
"uX c #D5D2B6",
"iX c #E5D7B3",
"pX c #F4D0AC",
"aX c #FEE6BE",
"sX c #FEE9BE",
"dX c #F7E2B8",
"fX c #FDE9AE",
"gX c #89ADD1",
"hX c #BEBEC0",
"jX c #D1D3D0",
"kX c #FFE6C1",
"lX c #FEEBC3",
"zX c #FFEECB",
"xX c #FEF1C6",
"cX c #FEF3CB",
"vX c #FDFACA",
"bX c #FEFDD4",
"nX c #FFFEDB",
"mX c #FFF5D2",
"MX c #E7ECD6",
"NX c #FEFFE3",
"BX c #FEFFED",
"VX c #FFFFFE",
"CX c #FBFBF2",
"ZX c #E9E9E9",
"AX c #97C4EB",
/* pixels */
"v.) C.+X#X+Xm.F.OX+XS.i.( ^ c.g.( ! ( u.) u.a.) R / i.( / k.c.^ ! ~ h.) u.a./ R / i.( ! k.v.! Q ( u.Q ` a./ R / i.( ! v.",
"T w.S.1X&X,X*.K.eX,XK.E f.u.Q ~ y.Y C I Q ~ r.U Y U U r.w.Y T t.I N Q Q Q w.U Y U I r.t.Y ~ i.U M I Y I r.U Y U Q r.r.Q ",
"E C n.:X>X:Xm.F.,X,X XV U r.U v V Y Q ^ t.t.t.t.w.r.~ L _ I v L Y U T t.t.t.t.f.t.^ L r.I v V Q ~ ^ t.t.t.p.e.r.~ L r.( ",
"i.Y ^ k.U.K.Y j.D.K.l.Z v v ^ w.~ r.y.e.r.p.r.w.^ ~ L B M ^ r.Y w.L ; < , > > , : ; @ > n w.T r.t.u.t.r.r.r.^ ~ V N v i.",
"v.t.B.w.w.c.A.m.$.O.C.x.j.U V l c l c c z f < < < g g c z j v c v 1 = = = * * = * e # + j s.p.^ r.t.^ P B v P Y ~ _ T i.",
"p.V.:XU.h.S.1X>XS.b.1X#X=XN.< # X X X X X X o X X o o X X X X X   r 6.3.3.3.4.3.4.6.r O c f.r.M P ^ ^ C C U _ w.~ N ~ k.",
"S.2X%X1X*.L.;X;XS.b.;X%X>X$ r 4.<.<.<.<.<.<.<.<.<.<.<.<.<.<.<.1.<.<.:.<.<.:.<.D <.4.e . < B V Y V M I t.y.y.y.^ U N b Q ",
"N.S.B.U.m.V.=X>XK.*.:X=X1X# r 4.1.<.1.<.<.1.<.1.<.1.<.<.1.1.<.<.<.<.D i D <.<.D D 4.e . < L ^ r.^ Y ^ I Q w.t.U ^ _ v ( ",
"s.e.w.r.y.s.c.+.+./ m.c.+.+ e 4.<.i D :.<.D D <.<.<.i <.i i <.D <.i :.<.D D D <.D 4.e . < ^ w.w.t.y.y.T C e.r.^ Y M N p.",
"p.^ w.r.I U T V Y Y Z A C + e 4.D D D D i :.i D D D <.D <.D <.:.D <.<.i <.<.1.2.1.6.r + < V i.w.h.+.c.w.I w.I I Y V S i.",
"R L r.w.I b M Z V Y V ~ r.+ r 4.<.i i i i i i i i i i i i D i i p :.<.:.<.i p p p <.= $ X.D.F.c.n.F.2Xm.C V Q V T t.^ R ",
"i.r.S V e.~ L I ^ f.b C w.@ e 4.D y y y y y y y y y y y y y y y y p <.:.6.=         6 X.-.K.K.D.S.A m.b.Y r.r.b L r.^ / ",
"v.r.U L Z ^ u.N.N.j.R R m.O e 1.<.6X6X6X6X6X6X6X6X6X6X6X6X6X6X6XpXH.y 1.= < x G X. .m X.D. XK.A.>XG.J.b.~ r.Y N v L t.k.",
"u.Y Y ^ b U t.B.@X,XA.K.2X$ w :.a zXBXBXnXNXnXnXNXnXnXnXnXnXnXnXVXI.w :.X 6 q m H H z x #.A.$.L B.Z.K.+.M V ^ e.Y I u.p.",
") N V Y Q B j.v.U.>XC.j.@X6 e 4.7.dXlXcXcXsXsXaXsXaXsXkXaXlXvXlXbX6X5.1.X q X.H k H #.#.H W *.n.z.V v Q w.U M Q w.I V ` ",
"p.L V I w.M &.>X:X>XM.j.#X> - 7.BXlXaXaXdXlXaXsXaXlXsXaXaXkXdXkXaXnXiXp X ..D.L.+.D.Y.;Xb.M.2X2XU.~ C ~ p.P v P w.I V a.",
"i.p.Y M I Y _ n.S.M./ +.g.# - 7.nXlXnX9.$ cXlXsXsXaXsXkXbX<X  iXmXbXpXi o  .Z.+XA.+X%X-XA.C.,X&X+Xz.I ~ r.Q Y ^ I r.r.` ",
"E V Y U ^ y.r.r.f.T %.W <   - 7.mXsXNX-.  xXxXaXaXlXsXkXnXoX  pXvXmXrXi X . X.Z.m.K.Y.@Xb.-.-XU.#Xm.w.t.t.p.r.r.~ I ^ ( ",
"i.~ u.y.t.p.t.w.u.OX:X#.  o.F 7.mXmXNX=.  xXxXkXaXkXkXsXnXoX  iXnXbXrXu =.0 @ ~ r.Q r.! ) j.c.r.y.i.t.r.r.T ^ ~ B N M h.",
"v.p.~ r.r.^ B v *.uX@X#.  MXW.5.nXdXmX9.q cXlXsXkXlXsXsXnX<X$ rXaXzXrXy nX-.+ N ^ e.w.Y f.s.r.~ w.y.U V P v V ! ~ _ ^ p.",
"a.w.V V w.U V N c.G.Y.*.  jXR.5.mX5Xq.wXvXaXkXaXsXsXsXlXaXxXmX5Xq.wXiXy sX9.@ L ~ ~ v ^ r.w.r.B L r.Q V M ^ r.w.^ M U a.",
"( V Q C M U t.y.u.e.c.G   iXH.2.nXpXpXaXcXaXkXmXrXR.sXlXaXlXcXpXpXcXrXw sX-.@ L U I B N V U V Y V M Q t.y.y.y.~ I B B ) ",
"i.w.r.^ ~ T Y I w.t.V h   jXtX!.zXcXcXlXaXaXaXnXxXrXnXxXaXkXkXxXxXmXfX^.BX-.@ P M ^ ^ v L r.^ e.^ T ( U I e.t.I ^ ^ v ! ",
"x.p.r.y.y.s.^ V f.u.^ h   L.W.W.zXkXlXaXaXaXcX0X5X0X5XpXlXlXaXaXkXcXpXH.9XG @ P Q I M N w.s.t.r.t.y.s.T C t.r.Y I N N z.",
"u.~ w.t.L I ^ I ^ Q Z g   .   7 bXlXkXaXaXaXnX0.>.>.>.0XbXsXaXkXaXbXqX      ; H Q ( ! V ~ f.~ r.r.U U ^ U f.( @.j.+.E u.",
"E L w.^ ^ b M V V Y V I L l # s bXlXaXkXaXaXnX0.>.>.>.0XbXsXsXsXsXbXyX  X.o.x *.K.c.i.T b M L w.^ U b M V C S.:Xc.v.` P ",
"i.r.Z V e.^ U Y r.r.b B L l ; s bXlXkXaXkXkXnX0.>.>.>.0XbXlXaXkXkXbXyX  X.H l ' -XU.i.T U ^ t.Z V w.w.I ~ r.v.1XU.a.~ ( ",
"v.t.Q Z V e.r.Y r.U M v M C : G CXnXnXbXnXnXNXpXE.E.E.xXBXnXbXnXnXBXuX  x W P *. X-XC.w.r.p.e.Q V V Y w.Q r.S.+X-X#Xe.k.",
"u.Y I r.M U y.~ L w.e.I I T h 7 yX8X<X8X8X<X*X1XeXeXeX<X*X7X<X<X<XyXP.+ l O.O./ ~ h.h.w.Y I Z S Q &.n.t.^ Q @.w.( l.p.p.",
"^ M V I U P _ y.I N S w.I V U <                 .     .               < v Y Q C.V.u.@.+.U.J.K.@.n.T.;XB.t.I M Z w.V Q ` ",
"i.P V I u.C Q r.B c P r.Z V _ l             H.Q.Q.Q.Q.Q.K           + < g I @.2X#XN.A.Z.G.v.:Xm.n.e.+XJ.w.P c V w.I V z.",
"h.t.Y M I ~ ~ r.U I ^ Y r.r.c @ 8 0 . . 8 q 9.9.K K 8.9.;.5 q   $ 0 6 O l I ( N.T.#Xv.x.G.S.v.Z V F.Y.J._ I U T I r.r.( ",
"E V Q Q ^ y.r.y.t.w.u.T L r., $ o.;.% $ o...% | 4X{.4X8 6 o...  q #. .  P r.f.A e.N./ ` Y..XZ.( ^ n.w.r.r.e.w.e.^ L r._ ",
"i.^ r.t.r.r.r.r.w.^ T C B b < . [  .. # ..9  .3XCXVXVXD.[ 9  .  6  .0   B f.M.M.@./ &.&.@.' %.r.r.u.y.r.r.B.` Y V B b u.",
"v.y.^ r.r.^ C P v V Y ~ _ ^ < % [  .. $ ..0 VXo. .VX  jX3X6  .  6  .8   H A.2XeXV.h.N.V.w.d.c.V.t.f.S.&XU.2X%.I ~ _ ~ i.",
"a.r.V V w.T P C Q r.w.^ M _ < 7 dXkX7    .[ ZXZXjXVXhXVX3X6 9   L.nX<X  G A.S.S.N.u.+XS.p.w.N.;XY.c.B.;X#XS.z.^ ^ N ^ a.",
"( V Q V N Y t.t.s.t.~ I P B , J NXBXG   ..9 o.jXVXVXVXXX .[ [   *XVXuX  g L e.t.n.n.+X-X@Xm.F.l.F.K.&.g.p.e.y.^ I N b ) ",
"i.^ w.^ Y ^ I I r.r.I ^ _ k , s nXnXs   ..[ ;.XX3X3X3XXX..9  .  P.BXyX  x ' u.e.O.j.c.+.b.c.h.~ / l.` O./ e.p.V ^ T v ( ",
"v.y.e.t.y.s.^ C r.t.^ Y V M < J nXnXs    .9 VX4X% 0 $ VX3X6 9   P.CXyX  ;.K.@.e.T.=X#X) A y.t.r.r.r.y.Y M r.r.f.Y N N p.",
"u.~ f.r.L U _ I w.Q A Q V Q , s nXnXs   ..9 % 3XVXVXVX#.6  .9   P.CXyX  #. XZ.C.2X$X3Xm.Y w.B.v.G.U.` T Q w.U A ~ V L i.",
"E L e.e.^ v M V Z I L Y t.T > s bXnXs    .0 jX3X-.XX-.ZXXX6 [   oXBX6X  #.K.Z.C.>XN.V.@.M W A.V.S.U.O.v C Z I L U t.^ V ",
"i.r.L V w.^ I ^ r.r.n L r.T < 7 nXnXs   G s qX-.  - o *XXXq s   oXBXqX  H +.T _ Z.+.^ w.I ^ v.OXS.w.f.Z T w.r.b L r.( ( ",
"v.e.U V L w.u.Y r.T b v Z ^ , =.bXnXs   o.} 5 [ } } ..] [ ..}   P.BXuXq < R v.` C Z ~ e.f.p.r.' W W u.r.Q r.Y M v L r.k.",
"p.~ Y _ b I y.^ V ~ e.A I O L.BXaXnXd 2 ]._._._._._._._._.]._.  P.nXzXnXq  .-XY.V.( I t.e.~ Y ~ f.b Q y.w.V ^ w.I Y t.p.",
"! M V Q Y P w.t.Q M U _ I + L.vX!.nXJ 2 ].).'.`.[.(.(.).'.'.).  <XfX!.nXq m =X=X;Xj.V V Y V M V Q U V ^ y.I M I w.I V u.",
"i.I V Z e.C U t.V j N f.^ + .XNX^.tXt 3 ].'.`.] 2 3 2 { _.'.).  H.~.Q.VXq <  X1XU.^ I V r.u.L V Z e.N Y t.V v L r.I B i.",
"u.y.Y M S ^ I @.Z.S.M.i.t.H X.P.K 5.o 3 ].).(.3 . ;   ] [.'._.  r 8.9.P.> z @.l.c.! r.r.U ~ y.I N I ^ ~ ` +.e.Y U r.r.` ",
"E L Q ~ ^ I Y l.2X>X,Xb.Z.-X..    .   5 ].).`.3 ; j   { _.'.'.  . +     f v V I w.T I ^ U v V Y ^ ^ I Y OX2XS.v.~ L w.` ",
"h.~ r.y.r.L ~ n.-X#X>X*.&.-X%.X.c l + 5 ].).(.3 @ g   { `.'.'.. G #.x j c c V ~ Y B N N ^ r.^ r.y.r.I ~ J.:X;XY.P N N u.",
"v.y.^ r.t.U k +.-X:XK.u.c.S.L M n z + ] [.(.(.2 O c   ] (.(./.% ..#.x z f z j V T ^ _ ~ ^ s.y.~ r.t.Q R K.1X>XV.Y ^ ^ h.",
"a.^ B B f.^ I M +.V.! S V Q ! C v g O } AXgX|.8 ; b . | }.gXgX% 7 X.n j j v U ^ w.~ N ~ r.e.w.P P r.Y L &.V.V.m.Q N ^ a.",
"h.+.A Y &.a.V.M.+.w.j.c.m.R +.C.$.v . K rX9XI.7 > B   K 7X6X9X1 O g v V r.u.y.y.^ L B b Z I V Y V N U r.r.r.t.! ! B v ! ",
"n.1XS.#XK.K.&X1X+X+.,XT.G.+.A.uXK.  a 4.y :.:.- ; v   t :.u u 6.e ; U ^ U Z w.t.I ^ ^ v I e.r.w.^ T ^ Y I r.t.I ^ _ v ( ",
"N.;X,X1XD. X;X:XK.m.=X@X%X$.m.D.. <.3.1.:.1.3.* ; M   t 4.1.1.1.6.r @ y.^ V r.r.^ Y V N w.y.y.r.y.y.s.T C r.t.Y Q M N a.",
"z.K.@XY.k.c.&X+Xh.@. X#X-X$.+.-.  * * & & & & @ h v c # & & & & * o . I ^ I w.Q V Z C V Y Y ~ w.r.L Z I S ^ Q I Y L V u.",
"W ` t._ r.T j.j.~ ~ +.h.z.) Z..Xq , > ; > $ $ < l c C < @ + O @ > ; , v v V V ^ +.&.n.) +.K.j.T @.@.O.+./ V Y V Y p.~ E ",
"i.w.Z C w.w.I A k.T.;Xc.A @XeX>XZ.g f g g h h c v l v P g h g c < < k M L ~ ^ v.2X1X>XK.K.2X$XZ.&.=X>X#Xl.e.r.b P t.^ ( ",
"x.e.I I Z ^ Y O.@X@X>Xb.M +XF.c.n.H f f j c g c b c c v n v v c g g z M T Y w.j.%X@X=XZ.K.&X;XOXb.@X;XS.r.r.Y b v V r.x.",
"~ Q Y T b U t.u.%X,X1XC.M +.F.~ B R M g b L N v I ~ Y I U M M n v P g B r.w.V @.-X=X=XZ.D.;X:XOXh.OX2X#Xa.f.^ w.Q I r.w.",
"@.Q ! ` ` E p.x.b.D.Z.m.~ ! C./ E E ! ` R ` k./ S ^ i.! / ( E R E ! ! E u.v.^ W &.n.&.+.@.&.&.&.j.B.Z.Z.m.k.( ( p.! ( z."
};
