/* XPM */
static char *result[] = {
/* columns rows colors chars-per-pixel */
"60 60 233 2 ",
"   c #557700",
".  c #5C7E00",
"X  c #627D01",
"o  c #5C8201",
"O  c #5E8C01",
"+  c #588805",
"@  c #5D9200",
"#  c #648401",
"$  c #698402",
"%  c #648A01",
"&  c #6B8D01",
"*  c #6A850F",
"=  c #6A8C0F",
"-  c #708E01",
";  c #728E0B",
":  c #659301",
">  c #6B9301",
",  c #6A9606",
"<  c #6D9901",
"1  c #729302",
"2  c #799703",
"3  c #749C02",
"4  c #7B9C02",
"5  c #72950D",
"6  c #74990D",
"7  c #7C9C0D",
"8  c #6A8712",
"9  c #6B8A13",
"0  c #6E8919",
"q  c #718D19",
"w  c #6E9610",
"e  c #779516",
"r  c #749A11",
"t  c #7C9C11",
"y  c #73931A",
"u  c #7E9D1D",
"i  c #6DA200",
"p  c #6DAB00",
"a  c #75A201",
"s  c #7BA402",
"d  c #76AA00",
"f  c #7CAA01",
"g  c #7CA30D",
"h  c #7AA70D",
"j  c #7EB200",
"k  c #7CA411",
"l  c #7EA718",
"z  c #6C8426",
"x  c #748B23",
"c  c #778B2C",
"v  c #6F9021",
"b  c #799327",
"n  c #7C9B21",
"m  c #7D9A2B",
"M  c #798B35",
"N  c #7E9434",
"B  c #7E933A",
"V  c #7F9839",
"C  c #7A894B",
"Z  c #7C9042",
"A  c #819F06",
"S  c #839D1A",
"D  c #82A503",
"F  c #89A703",
"G  c #84AB02",
"H  c #8BAD03",
"J  c #83A30E",
"K  c #88A70B",
"L  c #85AA0F",
"P  c #8BAB0C",
"I  c #90AD03",
"U  c #84B301",
"Y  c #8CB302",
"T  c #86BA01",
"R  c #8CBA01",
"E  c #86B30F",
"W  c #8CB40E",
"Q  c #8DBA0C",
"!  c #93B502",
"~  c #94BA01",
"^  c #9ABD02",
"/  c #94B50B",
"(  c #95BC0D",
")  c #9BBD0D",
"_  c #83A412",
"`  c #89A513",
"'  c #84AD13",
"]  c #8BAC13",
"[  c #84A31A",
"{  c #89A41D",
"}  c #86AC1B",
"|  c #8CAB1B",
" . c #91AE12",
".. c #91AD1D",
"X. c #8CB212",
"o. c #8BB614",
"O. c #94B412",
"+. c #94BB11",
"@. c #9BBB13",
"#. c #95B31C",
"$. c #9BB81A",
"%. c #A0BF03",
"&. c #A1BD17",
"*. c #839B26",
"=. c #859C2C",
"-. c #849D34",
";. c #82943C",
":. c #869939",
">. c #849A3B",
",. c #84A323",
"<. c #8CA426",
"1. c #8EA922",
"2. c #8CA42B",
"3. c #89A929",
"4. c #93AD24",
"5. c #93AA2D",
"6. c #8BB225",
"7. c #96B321",
"8. c #99B625",
"9. c #99B32B",
"0. c #9CBB2A",
"q. c #8BA535",
"w. c #8CA33B",
"e. c #95A936",
"r. c #93AA3B",
"t. c #9AAE3B",
"y. c #9CB433",
"u. c #98B635",
"i. c #9BB33C",
"p. c #A4BE26",
"a. c #A2BD2B",
"s. c #A3BB34",
"d. c #A4BB3B",
"f. c #96C100",
"g. c #9CC202",
"h. c #9EC801",
"j. c #9CC20C",
"k. c #9FC513",
"l. c #A2C402",
"z. c #A5C708",
"x. c #A1C410",
"c. c #A7C618",
"v. c #A8C427",
"b. c #B1CC20",
"n. c #ABC639",
"m. c #B4C739",
"M. c #828D44",
"N. c #869442",
"B. c #8B9C45",
"V. c #879749",
"C. c #8B9C4C",
"Z. c #919D4A",
"A. c #818F51",
"S. c #889752",
"D. c #919D55",
"F. c #929E5B",
"G. c #8DA143",
"H. c #8DA14A",
"J. c #93A547",
"K. c #9AAC44",
"L. c #95A84A",
"P. c #9BAC4B",
"I. c #9DB545",
"U. c #94A454",
"Y. c #99A756",
"T. c #9CAB54",
"R. c #95A25A",
"E. c #9DAA5D",
"W. c #9DB05A",
"Q. c #A2B746",
"!. c #AABD43",
"~. c #AABC4B",
"^. c #A1AC5E",
"/. c #A5B756",
"(. c #ADBD52",
"). c #A5B35C",
"_. c #ADBC5C",
"`. c #B0BD5C",
"'. c #8F9561",
"]. c #979C66",
"[. c #9CA463",
"{. c #9CA567",
"}. c #9CA276",
"|. c #A2AE66",
" X c #A4AD69",
".X c #A9B667",
"XX c #AAB46B",
"oX c #AEBA6B",
"OX c #B1BE64",
"+X c #B2BC6B",
"@X c #B3B96C",
"#X c #A5AB72",
"$X c #ABAD7B",
"%X c #ACB474",
"&X c #ADB47B",
"*X c #B3BB74",
"=X c #B3B778",
"-X c #B5BB7B",
";X c #B9BE7B",
":X c #AAC148",
">X c #B5C74A",
",X c #B4C458",
"<X c #B6C267",
"1X c #BBC36C",
"2X c #B7C072",
"3X c #BCC474",
"4X c #BCC37C",
"5X c #C1CA69",
"6X c #C3C97A",
"7X c #B3B685",
"8X c #B6BA83",
"9X c #BABD83",
"0X c #BCBD8B",
"qX c #B6B595",
"wX c #BDBD93",
"eX c #BEB9A5",
"rX c #C2BE9A",
"tX c #C8BFA3",
"yX c #BDC183",
"uX c #BEC18B",
"iX c #C2C584",
"pX c #C4C984",
"aX c #C9CD87",
"sX c #C3C48C",
"dX c #C6C98C",
"fX c #CACC8C",
"gX c #C3C393",
"hX c #CACB94",
"jX c #C4C29B",
"kX c #C9C79A",
"lX c #D1D195",
"zX c #CAC5A7",
"xX c #D9D4AC",
/* pixels */
"$.7 G.&X=X%XV W.%X%XQ.X._ 6 @.k.t 6 k E w L @.t * A +.k r @.&.A r k E w ' @.t * 7 O.h r @.x.t r k E w L ) t 8 A +.k 6 $.",
"F R ~.gX4XdXV .XlXfXXX, ~ ~ s F g.s O a s f ! 4 s K 4 ~ ~ s F g.s % a s f ! 4 s F 3 R ^ s F g.s O a s D ! s 4 K 3 ~ ~ s ",
"= : e.uXuXsX3.).fXaX#X, s ! 2 o , s s F g.^ ^ ~ U R F 4 ! 3 o , s s F ^ ~ ^ ^ T R D 4 ! 4 o , s s G g.~ g.~ U R F 2 Y _ ",
"X.f U @.,XE.D #.{.[.4.: . # G Y D ~ g.! ~ ^ ~ ! G f : $ # F Y f ~ ^ ~ ~ ~ ~ ! F f & $ # D Y f ~ ^ / ^ ^ ~ Y H f > $ # E ",
"z.~ y.! R <.J.w.c c u.+.$.F U l.g.G ^ ^ D > - X , s f I F U h.g.G ~ %.D & & . > G s ! F U h.^ F ~ ^ s 1 - # > s D Y H W ",
"+.n.uX`.| /.gXgXY.G.gX2X9X0.U R Y & 1 Y D & - 4 ! Y f $ D ~ R Y & 1 ! f 5 M >.p.l.j # F ~ R Y & 1 ! D & & 4 / Y f % F +.",
"I.jX8XrXA.F.pX6XT.G.iX-XuXB.% 3 , s : % a ^ ^ g.%.F 3 & $ , 4 , d : O 3 %.!.dXdXQ.a $ # > s > d : % a ^ ^ g.%.D 2 & & 6 ",
"y.!.0._.5.Q.;XrXE.N.0XyXjXM : H Y R F s K s a R g.3 H I X 3 Y H R D D f 4.2XyXhX[.D Y X 1 Y H R D D G s 3 ~ g.3 H H X t ",
"k.R R ~ l.z...N *.e q.5.M 0 R h.^ ~ ^ l.z.D : ~ ~ G a & & R g.g.! ^ g.~ P $X4X-Xq.i & % U h.~ ! g.g.^ D : ! ~ G s & % ( ",
"W G Y ! 2 D F < j a < p : : f G F Y ! 4 F H 3 U a a f > 1 U U D R ! A 8.#.m X.2.u l r n L U X.~ | <.#.Y 3 U a a d , 3 E ",
"= 2 ~ U s $ # : < s > F ! F s F H Y U 4 # # < : a 1 F ~ D # # 4 ~ a T.jXyX).q.oX4X7Xw.W.4XoX).7.K.W.rXB.@ < s 1 F ~ D 8 ",
" .! 3 : R G 3 d U Y $ > Y h.~ ^ ~ < @ T H a D Y ! $ 1 ~ G 4 F ! 3 o oXiX;XXXV.*X2XyXB.T.dX9X.XF.I.p 9.r.D ! ! # 1 ~ H 7 ",
"x.f.s 1 < U / y.v...* 0 2.( U R Y m w.l a s ] ( D # # , ~ ! f.f.s > XXdXpXoX>.4XuXhXG.Y.dXaX.XS.uX:X/.e.s ~ D # # 3 ^ ( ",
"E d f I $ 4 f.y.;XsXC. XkXoX6.i i.uX(.m N.-X7X#Xh U d s ^ U f d s H ;.[.Y.;.x C.L.T.x v [.{.c ; u.R.].m O 3 j U a s ~ Q ",
"r % : 4 D $ X.c._.rXr.| 2XjX|.w.9X-X,X[ T.hX1X4Xn < Y a , D , % : D 4 o m U.U.:.R 1. XY.0 z N.r.#.> # D G 4 % 4 R 3 3 ` ",
"O.2 > a R O V gX0XrXt. .oX*Xb.$.0XsXsX| h 9X4XfX;.# ! s > ! ! 2 : a R O H.xXdX3XK.*XpXfXH.H.hXkX_.j : f ^ 1 X 1 Y a : O.",
"X.~ s O a f J t.T.t._ *.@.! 3 s &.L.C < G $X^.J.L f s ! ~ 4 H ) a O 3 d e.gX3X-X'.-XyXsXU.J.pX8X-X,.d D ! 4 f K 3 ~ ~ J ",
"9 < s D F ^ ^ ~ Y G 2.2.{ { B ;.Y D 4 2.3.Y Y G T R G 2 Y 4 o : s D L a | 8X$XW.w. XoX5XZ.A.0X`.@Xy.R ^ ^ ~ R R F 2 Y _ ",
"X.D ~ %.~ ~ ~ ! P <XgX9XG.#XsXsXQ.R >XlX!.~ g.g.H f & $ # G R D ~ l.! 3 G ` x U R 6 ~ J e ..1.! ^ O.~ ^ ~ H G f : $ # E ",
"c.h.F ~ ^ f & o D.zX;X*X/ ~.;XiX+X] (.6X3X*.& & > s D Y F U l.l.F ~ g.s & # . 3 U R ! D U h.^ f ~ ^ D & & # > s D ! F W ",
"( ! & 1 ! f - & 4.m.,XkXC.Y.hXsXE.;.;X;XwX*.  4 ^ Y f # D ~ R R & 1 ! D 1 - D ! G s # s ~ R R & 1 Y f - - D ! U f % D +.",
"g : s : O a ^ ^ f.~ 1.J.M z ;.N.0 d ,.Z b ~ $.:Xz.~ s & % > 2 : d : O 3 ^ ^ g.l.F 3 & # > 3 & d : % 3 ^ ^ h.%.F 2 & # r ",
"] Y R F D G s 3 ~ ^ < 4 F X : [ .XQ.I.g f OX3XwXs.R ~ F X 3 Y H R F F G s 3 R ^ a G H X 3 Y H R F f H s 3 ! ^ s F F X g ",
"k.f.~ ^ l.z.F : ! ~ G d & % U #.sXzX4Xg.l.5XuX4X,X/ f & % Y h.~ ~ ~ g.^ f : ~ ~ f a & & Y z.g.~ ^ l.z.F : ~ ~ d i % & +.",
"X.D Y ! 2 A H 3 G a a d > 1 d Q +X3X6X2.3 7.4Xu.-.w d : 3 s U 7.U ! <...$.r G u r ' 6 , f U D Y ! 4 D H a U [ u } m 3 E ",
"= 4 ~ G D $ o < , s > D g.D . c K.! 0.{ . = V.9 < & F g.s 8 8X_.+.8.t.=XuX#Xn <X*X7.) s # # 4 ! Y 4 $ o : : I.sX9.p.J = ",
"O.~ 3 : T H s F ~ ! $ 1 ~ Y 4 H H > : T H 3 a ~ ~ $ - ~ D <.:Xp.9XU.p 0.3Xs.Y v.kX_./ F 4 H ! 3 : T H 4 F Y v.sX(.@.F 7 ",
"k.f.a 3 < G R f ! F # # 1 ~ R f.f.s 3 > U ~ D ~ F # # 1 f.R U j.6XE.q.n.p.t. .!.*X8XL.R R f.~ d 3 : d ~ s F ~.*X0X+XR ( ",
"E d s H $ A g.F , f T d s ~ U f d s H $ A g.G , f U d s ~ U d [ H.` N.5.f.9.N [ d l } R d d i d F ;.i.^ G 3 } j h 3.@.Q ",
"e # : s D & Y g.3 % 3 Y a < D & % : 4 D & H l.4 % a Y 3 < f > o o 3 2 # U g.3 H.i.W y -.~..X{.b e.>XyXa.f.a % < U : 6 L ",
"O.1 > a Y : s ^ 1 X - ! s : ! ! 1 : a R : s ^ 1 . ; Y s > ! ! D f 3 U % s Y u tX+Xv.T.Y.m.c.iXB.r.T =X~.R ; . - ! s : O.",
" .g.s @ a s s ! 4 s F s ! ! s H z.D O 3 s s Y 3 s F 2 ! ! D F ^ ^ U s s f H g 9.,X2Xk.k.:Xn.c.a O W.OX/.H 4 s D 4 ! ~ _ ",
"9 < s s F g.^ ^ f.R R D 4 Y 2 % Y ~ H D ~ ~ ^ ~ j j f D U > o < G ^ R ! ~ ^ R i T y.u ` @X$XF.t s t.! ! ~ R T R F 4 ! _ ",
"X.f ! %.! ~ ~ ~ Y G f > $ % G W s Y l.&.( ~ Y K y.G.3.d m K.#.' d t.v.~ ! R s.t.[ x M Z S S =.! ~ / ) ! ~ y.L f : $ # X.",
"c.g.F ~ ^ D & ; X > f D ! G U l.^ 3 2.9X*X3X` n rXwX9Xo.7.n.z.R r.jX;X<X:./.zXzXI.} v.s.U h.z.Q.^ Y Q.6X_.eXN i D Y F W ",
"( ! > 1 R D - & D ! H f % D ~ R ~ O C.kX4XuX9./ yX;X9X{.s.~ g.O.C.sX3X9XK.).!.m.a.' *X!.R R p.0X+X7.e.6X<X~.$.G f # f j.",
"g > d & O 3 ^ ^ g.l.f 2 & # 1 3 : a ,.qX*X! R R d.wXyX=.T.yX*XY.d e.qX/.! ! ~ ^ e.r.;XuX;Xw.E.6.W.}.q.&.~ ~ g.F 2 & % 6 ",
"] Y R F D G s 3 ! ^ 3 H I X 2 Y G R f 2.5.g ' R ~ q.Z @.1.Z.Z.:.3 6 e.:.*.-.W R b ..$.M Z.4.X.U r <._ e q W g.3 H H X 7 ",
"x.g.~ ~ l.l.G : ! ~ G d & & Y h.g.! ~ g.! y.qXa.+.6 U.dX-XG U oX&X%XS T.wX7X#.E /.9X-Xq a h.~ ~ ! ~ l.G : ! ~ U a > $ +.",
"X.G R ! 2 F H s U s a f : , U U F ! ! 4 4 d.sXoX0XC..XyX9X#.T OXsX;X] (.9X4XP.H.hX4XrX-.d U 0.8.>X(.] F 3 U 3 a f : 3 X.",
"9 4 ! Y 4 $ # : , s 1 D ~ D # # 2 ~ U D . F.sX*X5X:.XXyXdX).-.uXpX4X2.{.sXiXY.C.dXv.n.n o 0 P.v.n.,Xc o < < s 1 D ^ D = ",
"O.! < : R G 3 F ~ ! # 1 ~ H 2 F ! 3 : T D 2.!.O.W K 8.).R.S.M.[.U.L.E #.d.y.R K ].*.G U 4 H 8.$XU.j F 3 D ~ ! # 1 ^ G t ",
"x.^ s , < R ! f ! F # # 3 ~ R g.^ a , 3 U Y 3 U s 1 R a M y h s z U.u.j a t c.P O < h R R h.~ e q w P R f ~ D # # 1 ~ j.",
"E d s ! $ 4 h.G < f U d a ~ U j d D I $ A h.D 3 f j d , oX,Xj 6.E.d.OX-XV.{.gXOXi.h d ^ U f d f Y $ A h.D < f T d s ~ Q ",
"r % : D D & H l.3 % 3 Y 3 < D : % : D D ; H l.3 % s Y : U.hXOXXX[.~.,XkXt.K.yX9XyX| < , D > % : f A & Y l.4 % a R 3 3 _ ",
"O.2 : 3 R : s ^ :   & ! U 3 D I 2 > a U % s ~ 1 X - R 3 L.n.a.#XS.|.%XqX9.~ ;XjX_.H s > ! ! 2 > 3 R % D ~ : # 2 Y a : O.",
" .^ f % a D f _ U.P.y.| +.y.!.s.~ d O a f f ! s s F 4 R Q s ; z b M x *.' Y 3.9.5.6 ~ ~ s H ^ s O a D s [ 2.j j a ! ~ ` ",
"9 : s f F 4 f q.jXdXfXB.Y.hXjXqXy 3 f H ^ ~ ^ f.T R F 1 Y > ].sXoXXXP R R ^ R j U F 2 H 4 o : s f F s f .XzXd.8.F 2 ! _ ",
"X.D ~ l.! 2 d y.9X@XsXV.N.jX~.,X} R %.! ~ ^ ! H G D > & # s n.6X4X8X3.g.~ ~ H G f & & # f Y f ! l.! 3 f >X0X6X@X* & # ' ",
"c.h.F ! ^ D o =.0XrX).' 7.:XU f.g.F ~ g.D : - # , s f I H U f.x.pXuXn a & - X > f f I K U z.z.D ~ ^ s 0  XwXrXd.a H F Q ",
"( U & : G Y 4 # =.s.D i 1 2 R U G & 1 G a 1 & D ! Y f # D ~ R  .F.'.l < 1 ; D ! Y f # D ~ R ! & ; Y f 1 :.d.n.4.s % D +.",
"} m a 3 V | b.K.m R #.2.-.0 *.P.-.d : V Q.%.) g.l.D 4 & # > 3 % < % % a ^ ^ h.%.D 4 & # > 3 > d > % 3 ^ R ! ! K 7 > $ 6 ",
"r.gX!.<X{.{.4XkX$Xm dX>Xm.N F.xX4XI.,.0XsX-X).H ~ a F H . 2 Y Y R G D H s 3 ~ ^ 3 F H X 3 Y H R G F F s 3 ! ^ 3 G H # t ",
"0.iXwXgXR.%XyXpXOX>.-XyXyXm w.dXpX$X;.9X;XsX|.Y ~ G d & % R g.g.~ ^ l.l.F : ~ ~ U a > & Y h.g.! g.l.l.G : ! ~ U a & & / ",
"o.).4X<X$.7.9X&X' { #XoX7Xm m 8X%X/._ s.=XwXE.f a a f , 3 G U D R ! 2 D H 3 U 3 : i @ < s d s R ! 3 4 f 3 U a a f < > ' ",
"0 *.! G ! Y  ...f F N ` $.7 F.wXe.G R ~ O.M z w a 1 F g.s # $ 4 ! H D $ o < < s =.V G.y =.^.1.H { b x N y : s 1 D ^ F = ",
"/ ~ < @ j Y s s @.>XyX5.f 1XzXdX`.: : T R s s ~ ~ X 1 ~ H 4 H ~ 3 : T G 4 G Y &.lXgXgX[. XhX3XT.B 9XsX-X1.Y ~ X 1 ~ H J ",
"k.~ a 3 3 G s v -X3XsXG.+ &X:X0.~.;.< < D ! D R F # $ 1 f.R f.~ a 3 3 U ! D U | 7X4X4XY.^.4XyXXXB.4X9X!.~ ! D # # 1 ~ ( ",
"f d f F # A g.W yXaXhXH.+ m I.f < u H # D g.D 3 f T d s ! U f d f H $ 4 h.U : u 0X8X0XR.Y.uXrXXX{ .XkX2XO.R U U i s ~ R ",
"u 5 6 L ` ; W k.w.'.F.5.h r C.y w 6 L ` 5 W x.k w g X.g g L r 5 5 _ K y X.x.g 0 N.t.-.N b N ;.V ,.i.U.Y.9.( g g o.g g | "
};
