/* XPM */
static char *result[] = {
/* columns rows colors chars-per-pixel */
"60 60 189 2 ",
"   c #331D0D",
".  c #3B210F",
"X  c #3E2514",
"o  c #3F2319",
"O  c #4F1201",
"+  c #521401",
"@  c #591700",
"#  c #551800",
"$  c #5C1C02",
"%  c #561A0A",
"&  c #5B1E0B",
"*  c #571B11",
"=  c #5C1F10",
"-  c #611E03",
";  c #5F2005",
":  c #5E210C",
">  c #452916",
",  c #462A18",
"<  c #5F2210",
"1  c #4E3017",
"2  c #4E301A",
"3  c #54321C",
"4  c #5A351C",
"5  c #54381E",
"6  c #5D391E",
"7  c #632205",
"8  c #692505",
"9  c #6D2904",
"0  c #64240B",
"q  c #69270A",
"w  c #66280D",
"e  c #6C2A0C",
"r  c #722B05",
"t  c #722E0C",
"y  c #773107",
"u  c #7C3305",
"i  c #74320D",
"p  c #7B350D",
"a  c #7F390C",
"s  c #642512",
"d  c #692611",
"f  c #652913",
"g  c #6B2C13",
"h  c #662819",
"j  c #6B2D19",
"k  c #712E13",
"l  c #712E19",
"z  c #6E311A",
"x  c #613A1E",
"c  c #743214",
"v  c #7A3614",
"b  c #7D3915",
"n  c #753319",
"m  c #7A3619",
"M  c #773918",
"N  c #7D3A1B",
"B  c #5C3522",
"V  c #5D3921",
"C  c #5D3729",
"Z  c #5E3928",
"A  c #643D24",
"S  c #693E23",
"D  c #633E29",
"F  c #683E28",
"G  c #7B3722",
"H  c #7D3922",
"J  c #674124",
"K  c #6B4125",
"L  c #654129",
"P  c #6F4429",
"I  c #734326",
"U  c #794827",
"Y  c #73452A",
"T  c #78472A",
"R  c #76482A",
"E  c #7B4A2A",
"W  c #843B0D",
"Q  c #8A3E0E",
"!  c #803617",
"~  c #833C14",
"^  c #883E15",
"/  c #833D1B",
"(  c #893F1B",
")  c #823E22",
"_  c #92450F",
"`  c #864116",
"'  c #8B4214",
"]  c #86411B",
"[  c #8C431B",
"{  c #8F481C",
"}  c #924614",
"|  c #954916",
" . c #9B4C15",
".. c #91461D",
"X. c #944A1C",
"o. c #9A4D1C",
"O. c #9F5016",
"+. c #97501E",
"@. c #9D511C",
"#. c #A04F17",
"$. c #A14F1A",
"%. c #A15116",
"&. c #AB5E17",
"*. c #A3541D",
"=. c #AA561D",
"-. c #A6581E",
";. c #AB5A1E",
":. c #B25C1E",
">. c #AF601E",
",. c #B3631E",
"<. c #854022",
"1. c #8C4522",
"2. c #8E4822",
"3. c #86402A",
"4. c #894429",
"5. c #824E2E",
"6. c #924721",
"7. c #944B22",
"8. c #9A4D22",
"9. c #994F29",
"0. c #84522E",
"q. c #8B552F",
"w. c #9D5123",
"e. c #9B532B",
"r. c #855332",
"t. c #8B5633",
"y. c #8E5934",
"u. c #945C36",
"i. c #9F5931",
"p. c #985E3A",
"a. c #A35522",
"s. c #A95721",
"d. c #A65824",
"f. c #AC5B23",
"g. c #A2562A",
"h. c #A45A2A",
"j. c #AB5D29",
"k. c #B15E24",
"l. c #B15F29",
"z. c #A45C33",
"x. c #AD5F30",
"c. c #AE6022",
"v. c #AE612B",
"b. c #B46225",
"n. c #BA6525",
"m. c #B66827",
"M. c #BC6B26",
"N. c #B4642B",
"B. c #BA662A",
"V. c #B5692E",
"C. c #BB6B2C",
"Z. c #BF702B",
"A. c #AD6233",
"S. c #AC653A",
"D. c #A9663D",
"F. c #B36532",
"G. c #B86732",
"H. c #B66932",
"J. c #BC6D32",
"K. c #B26939",
"L. c #BD6F38",
"P. c #BF7133",
"I. c #BB723D",
"U. c #C06727",
"Y. c #C06823",
"T. c #C16C2B",
"R. c #C47327",
"E. c #C4732D",
"W. c #CA762E",
"Q. c #C77829",
"!. c #C97A2F",
"~. c #C06E33",
"^. c #C47333",
"/. c #CA7733",
"(. c #CB7A32",
"). c #C47439",
"_. c #C6783E",
"`. c #CC7D3B",
"'. c #D17E32",
"]. c #B67242",
"[. c #CA7D42",
"{. c #CD803D",
"}. c #D48336",
"|. c #D2833A",
" X c #D8873B",
".X c #D6893E",
"XX c #DA8A3D",
"oX c #D48740",
"OX c #D78B42",
/* pixels */
"5 E R A P Y I D F S I Y A R x 6 I 6 S S A K D S I E J J E V B Y A R L 3 I 6 0.y.u.y.r.u.Y A I 6 I 6 3 E 3 P t.t.t.t.0.r.",
"B b.N.v.H.P.^.e.h.m.).L.N.C.g.7.{.H.v.[.S.C.^.H.B.K.e.f.k.{ g.Z.b.OXD.w.^.N m ` ` ^ ^ ' j z.|.J.P.v.e.|.H w a i p y t o ",
"S ^.j.b.b.*.' q / } X.o.} | / n ,.c.v.M.[ N.<.X.>.c.N.R.Q.f./ X.Q *.e.^ X.c m c e w q b b N ..~ ` ~ c b h ' ] b d m <.3 ",
"4 e e 7 $ 7 g ~ m c q 0 0 i N c - 0 d ; - 0 f 9 8 q 0 e v p z c e 7 0 g f ` M.k.f.X.o.B.M.~ g g w s k ; X.B.b.k...f.C.P ",
"J 0 ^ n n f.8.f.b.s.c.[ ' k.*.s.X.' ( N f.X.*.j.a.X.f N [ ( *.;.k...2.f.X.;.j.s.s.X.a.k.f.s.-.b.8.o.b.*.k.f.f.s.[ o.a.4 ",
"p.^.'.g.b :.^ o.*. .s.[ v.~.N.L.P.Z.N.6.b.| e.f.s.k.[ *.B.b.:.j.k.X.6.b.X.w.;.*.s.( X.f.@.s.@.;.8.X.f.l.a.+.k.*.X.N.H.r.",
"R s.d.N 9.(.2.N.V.V./.<.8.b.:.b.V.b.e...E.{ S.^.j.C.X...;. .w.j.*.j.N.s.e.N.*.a.j.7.j.N.f.G.v.m.a.h.T.k.o.o.k.*.b w.@.J ",
". 9 e : <.m.2.b.c.b.Z.N : 8 $ 7 8 7 0 ] E.o.I.R.:.B.9.N./.B.A.^.E.j.H.B.e.}.N.^.E./ j.b.,.B.B.B.7.] M.C.E.U.H.)./ w w   ",
"2 d.-.;.- + & $ $ - @ p s.8.b N X.o.o.g 0 q k 7 7 q g s.@. .{ ' ~ 7 s b 7 W / a r 0 k 9 7 8 7 q f 7 8 t ^ ^ [ a.[ s.g.V ",
"A n.f.b.@.( 7.) / 7.7.@.n.B.w.8.:.b.b.X.m ] c / ` { ( - e : : c ~ ..] N b g N c b X.{ X.g j X...X.o.) ] & w q $ ] b.v.Y ",
"D :.s.a.l.k.b.a.s.k.f.s.s.k.X.2.f.*.f.s.$.B.2.a.b.b.f.@.l.{ ] ,.b.k.f.-.f.6.s.$.j.f.s.n.] 4.T.k.b.a.$.T./ w.=.w.f.o.d.Y ",
"6 k.f.| s.=.*.X.o.| a.a.| f...[ =.| $.o.8.$.7.o.;.N.a.*.b...{ ;.o. .@.| *.[ C.T.^.J.B.W.g.6.;.| *.( ~ k.~ j.(./.^.Z.V.r.",
"6 k.N.d.N.^.!.w.j.M._.).N.T.a.7.`.V.b.[.S.C.).C.N.H.9.;.k...a.T.B.C.C.m.C.~ N } ..' ^ } n h.}.C.T.N.e.}.] s ~ i v a v 1 ",
"K ^.v.M.b.d.| e / X.o.*. . ./ n M.b.N.C...m.4.o.,.b.V.E.W.f.) +.| O.O.@.8.n c t t 0 0 c c / +.` ' ^ b ] h ( ~ c 0 c / 2 ",
"3 p g 8 ; 0 e b n k 8 7 7 k / i $ 8 w $ $ 0 s 8 8 q e t W a k k 0 0 - e g ^ b.k.;...o.b.b.~ e e 0 0 e $ ] n.k.:...s.N.R ",
"S q ..n k -.w.f.k.f.a.N { k.s.s.X.X.] N w.o.-.f.w.X.f m ( b f.*.s.8.6.a.X.f.j.f.s.7.o.b.k.;.j.j.7.7.f.@.f.j.;.f.[ *.j.A ",
"0.*.b.7.( b.[ a.k.*.l.H | k.o.s.f.*.o.8.B.-.s.j.b.b.{ a.U.f.s.f.k.X.6.k.8.s.s.s.s.2.w.k.s.s.@.k.a.X.b.s.s.d.f.s.7.*.a.6 ",
"u.^.!.e.! s.~ X.$.| f.1.j.C.B.~.).C.j.[ *.} %.X.$.=.] X.N.$.o.k.f.X.7.s...o.$.o.%./ X.=.| d.X.%.8.X.*.f.w.o.k.*.{ P.H.t.",
"3 W ^ s e.(.8.C.C.C.}.9.v } } | | } N ..W.C.J.C.C.T.8.X.f.*.a.N.B.C.^.b.z._.N.C.^.6.l.T.C.P.I.E.8.a.(.T.j.s.N.=.M v b 1 ",
"> b b v j } n | ..} X.m c k 0 0 e k g m w.%.%.%. .o.<.B.E.E.E.b.b.6.e.j.[ Q.j.B.b.k 7.o.O.*.@.@.N t @.;.n.M.F.E.( M M X ",
"4 n.k.b.v $ d < ; e s ^ n.k...6.;.k.k.v w 0 - 0 8 g g ~ ~ i t e 8 7 s 0 $ 8 w 7 $ c m e ; 0 q e l v q - $ q c v ( M.j.I ",
"V b.=.k.f.o.b.7.X.f.j.;.k.N.X.X.f.k.f.;.X.w.1.8.@.;.o.i ( g f X.8.=.*.X.X.n [ [ X.*.=.k.] [ s.s.k.s.9.a.g H ( e X.f.j.S ",
"L :.s.s.k.d.f.8.a.f.=.s.s.b.X.6.s.*.s.s.8.k.8.a.f.f.s.f.U.8.{ b.k.j.f.;.s.7.s. .j.d.o.k.[ 7.b.s.k.8.X.M.( $.=.s.f.| d.S ",
"A :.f.X.s.j.X.X.o.| @.a.X.;.[ ] ;.o.*.+.X.=.^ X.f.B.a.$.B...( =.| d.e.^ $.[ n.B.).~.C.E.g.( =.} $.( ^ =.m v.Q.^.L.C.H.t.",
"3 ;.k.o.*.[.S.o.j.C.).L.N.^.g.8./.j.f.).S.m.g.d.k.v.7.%.f.[ a.^.N..XD.w././ 1.*.*.-.%.%.m 7.|.J.^.N.e. X] h [ ' ` } ^ 3 ",
"K ).F.E.U.^.g.t w.b.N.N.:.,.8./ Q.B.b.W.w.Y.X.a.E.P.N.T.E.f.7.N.-.R.S.%.B.n w q q $ 7 e d ` m.s.s.*.2.f.h g w 0 & e n > ",
"x X.v ^ e 7 e d d 8 - 7 $ q c q - q k 8 $ 8 7 7 t W ^ ' | } d q ; - q 8 0 b ;.a.*.( { s.k.p $ $ $ % $ O v M.;.;.[ 8.j.Y ",
"4 # b f f { 8.;.@.8.| n N w.%.+.~ ] M z ] [ o.X.] b % w e q | ..../ N 7.[ *.k.k.;.7.o.N.b.@.w.@.N [ @.' ;.f.f.f.[ d.N.J ",
"E } ;.[ ] b.X.s.b.j.b.N o.n.*.j.f.;.a.8.M.f.f.N.B.b./ w.N.f.;.f.k.8.8.f.8.f.f.s.s.1.+.k.f.s.k.n.w.o.b.;.f.f.f.d.[ o.a.V ",
"y.C.E.e.~ k.[ o.s.@.j.) a.B.s.F.N.j.d.[ f.| s.s.*.s.[ X.b.k.s.f.k.2.6.b.X.a.s.*.s.[ w.f.@.f.X.s.w.X.f.k.s.@.k.*.7.N.F.E ",
"0.b.C.4.6.B.( d.s.s.C.9.a.n.n.C.T.M.g...k.@.*.@.s.k.{ X.l.%.d.f.$.a.d.$.7.*.o.o.*.{ s.f.o.j.s.=.8.w.k.s.| o.k.*.[ v.c.U ",
". 8 7 % 7.(.e.T.E.C.}.2.% r r y t r = [ (.E.E.E.T.^.e.a.B.b.z._.E.N.^.N.z.|.N.^.^.1.N.E.E.~.^.(.8.8.(.T.J.H.G.B.n w ;   ",
", X...| < q w y t y e n { ( g g b ] ] n ~ W W ` W b b n.b.b.d.c.%.i G X.i =.8.o._ 0 / W W ~ W ~ l $ W ' s.c.g.J...[ 2.3 ",
"A M.b.b.' d b j g b n | M.B.o.8.:.B.b.` g c d g e b n 8 8 $ ; 7 0 i k g 0 s g w 0 / / b w w c v ( ] n e + $ 0 7 ^ M.N.R ",
"D :.s.j.f.s.k.a.a.j.k.s.f.k.8.X.s.f.f.=.8.s.7.a.;.f.*.N w.m n a.f.b.-.*.*./ @.X.a.j.;.b.[ 8.b.j.b.s.w.b.n ] ' b 8.a.d.D ",
"D :.f.@.k.k.f.X.a.s.*.s.a.N.X.6.f.*.s.a.X.k.<.o.f.b.s.k.B.X.{ n.f.d.d.@.s.7.s.$.j.f.*.k...6.k.*.f.X.7.n./ d.b.V.N.%.j.R ",
"4 k.f.o.s.s.$.X.o.} *.a.} =...( =.o.$.o.7.*.8.o.;.B.w.%.N...( =. .o. .} %.[ N.Z.).T.M.E.a./ =.} %.` ~ =.b j.^.~.H.Y.V.t.",
"4 ;.k.*.j.J.`.a.f.Z._.).C.~.d.9.`.B.b.[.S.C.^.V.k.x.7.%.=.' a.^.J.^.P.P.~./ ! } | } Q | k 8.oXJ.^.N.e.XX[ s W u W u a , ",
"Y _.H.Q.M.b.-.t 7.d.c.b.;.:.6.N Q.B.B.W.w.Q.e.a.E.^.H.E./.j.X.b.&.:.,.;.k.l d e w : 0 g g ^ &.@.*.X.] +.h v c i < g M , ",
"x | b a 9 $ 7 e g q ; ; $ 8 n 0 - 8 d 7 @ q & $ 9 p ^ ' | ..f q $ $ $ - s b b.s.*.[ ..j.k.c - - $ & - + m b.k.;.] s.v.R ",
"3 O c s s { 6.=.o.X.X.m N 8.o.o.v N M g [ / ' 7./ M % s e 0 X...[ / N [ / *.k.f.f.7.o.N.k.$.9.o./ / @.` f.k.f.f.{ @.v.Z ",
"E X.:...] n.6.*.b.f.B.7.o.k.*.l.f.=.o.8.B.*.s.N.b.b./ o.b.a.;.b.n.7.9.n.8.f.f.s.s.[ 8.k.s.s.f.b.g.$.B.f.f.s.f.s.2.s.a.6 ",
"u./.(.e.b =.! | $.} *.( v.C.b.~.).C.j.] =.W z.=.o.=.( o.B.*.w.N.;.X.7.f...o.*.o.*./ X.=.X.d.X.#.X...=.f.8.o.k.*...J.Z.t.",
"3 ` ( s w.|.e.^.^.Z.}.<.v | _ o.| | / ..'.9.].`.B.E.w.X.f.$.e.J.b.H.^.f.i.^.f.N.~.7.B.~.B.~.J.E.w.j./.C.j.s.b.f.v v b 1 ",
". b v c j +.N +.o.o.@.v M c 7 0 t i k N v...h.;.| a.1.B.E.T.C.B.:...e.s.{ R.f.b.;.n e.@.%.a.@.s.) c %.*.b.M.F.Q.( c m X ",
"x M.b.,.c # w & : w 7 ^ b.k.....;.j.k.v ; e q 7 7 e g ^ W i t q 9 7 s 0 $ 7 s 7 $ i c e ; 7 8 e c c w 8 7 9 k v ] U.v.P ",
"A k.;.k.;.@.f.7.X.f.f.s.k.b.o.X.;.k.f.-.7.@.[ 7.@.-.@.t ] k f ..8.s.*.X...m [ [ X.s.s.b.N N d.d.f.s.9.a.g N ~ q X.s.j.J ",
"A :.s.a.f.b.b.8.d.d.s.s.s.k.7.6.f.*.f.a.7.b.1.@.f.b.f.d.U.7.6.M.k.f.d.;.f.7.f.%.N.d.*.b.( 3.C.-.k.o.X.B./ d.k.l.j.o.j.R ",
"4 k.k.| *.s.*.X.+.| s.d.} f...( =.| o.o.8.$.9.o.=.N.w.*.k...[ f.X.f.e.' *.[ C.T.).T.C.W.h.6.k.| *.[ ` :./ d.E.~.J.T.m.r.",
"V k.N.j.C.~.W.a.d.B.).^.M.T.h.8.`.V.N.`.S.T.^.B.C.H.e.k.k...d.E.b.OXS.+.W.N N ' ' ^ ^ ' n h.}.C.E.N.e.}./ s b p p p i , ",
"K ^.j.b.b.*.^ e / | X.o._ } / c ,.j.v.M.[ N.) X.>.f.N.C.W.k./ | Q -.e.^ X.l m c i w d v b H ..W ^ ~ k b f ' ~ b e M / 3 ",
"4 t e 7 $ 0 k ~ m k 9 : 0 k / c - q w - - w f 9 9 q 0 e p i n g q 0 8 e g ' M.f.;.7.o.b.b.~ g t 0 f k 7 ..M.k.k...d.G.R ",
"J q X.m n ;.w.k.k.f.s.m ..b.s.s.X.o.] / s.w.;.j.s.X.f N [ / *.-.;.7.6.s.X.:.f.s.s.{ 8.k.j.;.k.k.8.o.k.*.k.j.f.s.{ o.j.A ",
"y.v.B.8./ ,.[ a.f.*.N.H @.k.@.l.j.=.a.7.b.%.s.f.k.b.{ a.U.b.=.;.k.7.1.b.8.a.f.s.s.1.8.k.*.s.%.j.8.X.k.f.s.8.f.s.6.f.j.J ",
"u.C.E.7.( :.~ X.%.o.l.2.j.T.M.^.).R.j.[ ;. .*.o.*.s.] o.k.*.;.k.*.o.8.=...o.o.| $.[ @.f.o.f.o.%.8.8.=.:. .a.z.$.[ V.b.0.",
"> r k * 8.`.w.~.E.P. X7.w Q W ^ ' ' k ..!.C.B.B.B.^.w.8.N.k.d.I.^.B.^.N.z.`.b.~.^.7.N.T.B.J.^.R.8.a./.~.j.[.z.o.b e e X ",
"> [ ] ` s b g ^ ~ W ( n ( ~ w w y b v n { ' } ' Q [ ] B.M.M.f.g.m.~ 3.a.~ M.h.j.o.d 2.' ' ..' ..n q ' o.s.!.K.f.X.( <., ",
"S M.k.M.~ 0 M d w c d ' U.b.7.X.f.b.b.~ f e w d e c c i e 8 7 8 7 t d w ; 0 g 7 - b b v & < t c N ~ g q # 7 c q ] M.N.R ",
"C k.s.s.f.f.b.8.a.j.j.d.f.N.7.6.d.s.f.d.7.s.[ +.d.d.a.N 7.n z *.a.v.s.X.w.N } ' w.j.a.b.v G V.s.k.a.8.b.n c r n X.| w.B ",
"5 E U A R 5.U x K K R R J E A B R S Y P S E D J E 0.Y U q.x A 0.P E Y x R L E U r.E Y 0.F C 5.S T A Z 5.3 r.u.y.t.E r.0."
};
