/* XPM */
static char *xpm_[] = {
/* columns rows colors chars-per-pixel */
"60 60 244 2 ",
"   c #1B140D",
".  c #14140A",
"X  c #1C1410",
"o  c #1C1815",
"O  c #090B0E",
"+  c #281B15",
"@  c #321F19",
"#  c #3A1819",
"$  c #340B18",
"%  c #1C2A11",
"&  c #1D3014",
"*  c #2E2218",
"=  c #33211A",
"-  c #322116",
";  c #243716",
":  c #3E1E28",
">  c #36373B",
",  c #352C30",
"<  c #0B0C28",
"1  c #461919",
"2  c #561D18",
"3  c #420F0E",
"4  c #50221D",
"5  c #67261E",
"6  c #461E24",
"7  c #4D2224",
"8  c #4C2A24",
"9  c #48272A",
"0  c #522524",
"q  c #542A26",
"w  c #5A2B25",
"e  c #562C2A",
"r  c #5A2E2B",
"t  c #552627",
"y  c #5D322C",
"u  c #56302A",
"i  c #5D3331",
"p  c #583837",
"a  c #472D32",
"s  c #632C29",
"d  c #62352E",
"f  c #65382E",
"g  c #693A2D",
"h  c #643531",
"j  c #693632",
"k  c #663A32",
"l  c #6B3D33",
"z  c #683E3B",
"x  c #733E35",
"c  c #763A2E",
"v  c #2C481C",
"b  c #134E3B",
"n  c #355C24",
"m  c #395E25",
"M  c #315522",
"N  c #2D5032",
"B  c #3A6226",
"V  c #3C652A",
"C  c #3C6B2A",
"Z  c #356526",
"A  c #3E712C",
"S  c #2B733F",
"D  c #4F503D",
"F  c #6D4239",
"G  c #724236",
"H  c #74433A",
"J  c #7B493C",
"K  c #78463A",
"L  c #416C2C",
"P  c #446727",
"I  c #44742D",
"U  c #49762F",
"Y  c #477A2E",
"T  c #446533",
"R  c #476B35",
"E  c #447432",
"W  c #4B7435",
"Q  c #467B31",
"!  c #4B7C32",
"~  c #4C743A",
"^  c #4C7A39",
"/  c #467439",
"(  c #527D3A",
")  c #507F35",
"_  c #57673A",
"`  c #133F41",
"'  c #303E42",
"]  c #1C5447",
"[  c #184A48",
"{  c #264948",
"}  c #364945",
"|  c #2B5D4C",
" . c #27574A",
".. c #2F5149",
"X. c #2C644A",
"o. c #2B6946",
"O. c #316D49",
"+. c #346649",
"@. c #337445",
"#. c #357B46",
"$. c #32744A",
"%. c #367949",
"&. c #397B4A",
"*. c #346C51",
"=. c #5C4547",
"-. c #495157",
";. c #764D44",
":. c #675956",
">. c #775857",
",. c #6F544B",
"<. c #576B45",
"1. c #547B43",
"2. c #5A784A",
"3. c #5A7A55",
"4. c #4A6E53",
"5. c #776459",
"6. c #637D55",
"7. c #647659",
"8. c #75765C",
"9. c #676E55",
"0. c #577965",
"q. c #526C66",
"w. c #676464",
"e. c #776966",
"r. c #777A68",
"t. c #767578",
"y. c #6E746F",
"u. c #5F5666",
"i. c #82493B",
"p. c #81503F",
"a. c #864F41",
"s. c #895746",
"d. c #935D48",
"f. c #9B634C",
"g. c #96634B",
"h. c #976956",
"j. c #8E6C57",
"k. c #A46B52",
"l. c #A86B54",
"z. c #AC7256",
"x. c #AE7459",
"c. c #A2735E",
"v. c #B27559",
"b. c #B57A5C",
"n. c #BB7D5D",
"m. c #B27557",
"M. c #B16F59",
"N. c #977464",
"B. c #86726A",
"V. c #BB7E62",
"C. c #A67B69",
"Z. c #4D8333",
"A. c #4C8238",
"S. c #528534",
"D. c #548A35",
"F. c #54853C",
"G. c #558A3B",
"H. c #5A8B3C",
"J. c #59883B",
"K. c #578D36",
"L. c #608F3F",
"P. c #3B844B",
"I. c #3A8847",
"U. c #3E9446",
"Y. c #378549",
"T. c #5B8C42",
"R. c #5A8645",
"E. c #43924D",
"W. c #499A4D",
"Q. c #5D9142",
"!. c #58875A",
"~. c #479A51",
"^. c #4B9C52",
"/. c #479552",
"(. c #569959",
"). c #468751",
"_. c #628A4B",
"`. c #649345",
"'. c #6B855D",
"]. c #678856",
"[. c #6A9456",
"{. c #738D58",
"}. c #4AA44C",
"|. c #4CA353",
" X c #4FA954",
".X c #52A554",
"XX c #54AB54",
"oX c #58AA59",
"OX c #59B158",
"+X c #62A95F",
"@X c #64B55D",
"#X c #5C8867",
"$X c #688B61",
"%X c #788869",
"&X c #679763",
"*X c #789768",
"=X c #7A9071",
"-X c #5DA561",
";X c #68A866",
":X c #74A568",
">X c #6AB962",
",X c #72B869",
"<X c #71A972",
"1X c #75C469",
"2X c #6EC264",
"3X c #BE805E",
"4X c #84966B",
"5X c #858776",
"6X c #849576",
"7X c #8F8B71",
"8X c #BA8163",
"9X c #AF8F7A",
"0X c #89A476",
"qX c #80A06F",
"wX c #C38362",
"eX c #C88966",
"rX c #D39E78",
"tX c #C99471",
"yX c #DAA27B",
"uX c #E0AB7F",
"iX c #83CD74",
"pX c #7E7D83",
"aX c #827D83",
"sX c #7D8086",
"dX c #8C8F8B",
"fX c #96A788",
"gX c #9EAC92",
"hX c #96A988",
"jX c #A2AD94",
"kX c #A5AB9A",
"lX c #A3B194",
"zX c #A9B69C",
"xX c #B8A786",
"cX c #ADB6A2",
"vX c #B1BCA5",
"bX c #D5A683",
"nX c #E8B288",
"mX c #B9C0AA",
"MX c #B4C291",
"NX c #F7C699",
"BX c #FFD5A4",
"VX c #F5CFA5",
"CX c #FEE3AD",
"ZX c #C7C094",
/* pixels */
"`.W $XfXfXfX6.=XhXfX*XF.^ W L.L.W W ^ G./ ( J.~ T W J.( ~ T.`.W W W F./ ^ T.W T ~ J.( W T.`.W W ^ F.W F.J.~ T W J.^ / _.",
"U A.*XcXjXzX].6XmXzX6XI Z.D.I U H.I Z I Q E S.U U ! L L ;   X ; B B A Q Q S.I Y U E S.S.U ! G.I Z I I I S.I U U I D.D.E ",
"R C [.zXzXzX].=XzXvXdXC E ! I n L U Q Q G.D.D.D.Z.C ;   8 H x t   ; m D.D.J.S.Z.S.! I ) L m C U E ! D.D.D.G.Z.D.Q L F.! ",
"F.Y Q T.0X6XU T.=X6XT.C Z Z ! Z.Y S.D.F.S.D.S.B ; + 8 j f l j j j 8 + v L S.! ! Q V B m Q S.Y S.D.F.D.D.S.Z.! Q V B m F.",
"`.G.{.Z.Z._.$X].<.<.[.T.R.Q Z.K.D.! S.F.U M % + y j j y r g k y u j j y + % v A Q Q Z.Y Z.K.K.Q S.D.! C V n C Y W S.Y F.",
"T.[.zX0XR.*XcXcX4X].vXhXlX[.Z.Z.S.V L B ; + e d K h e y y k j i y e h K h r * ; P ! n W D.S.Z.C L S.U V B U ) Z.Q B ! T.",
"*XvXjXvX8.5XlXlX=X'.lXfXzX'.V A C M ; + q G h y G d y r y l k y r r h l r h K q + ; v Z A I C I V B I D.K.H.K.! I B m W ",
"[.*X[.0XR.{.jXzX=X7.cXkXcX2.B n ; - 8 k f G y e F d e y y k k d r r h l r r G h k 8 = % v ! ! D.! I ! I I S.D.L ! ! n ^ ",
"Q.Z.Z.D.K.L.T.2.2.~ ].].2.N ; @ 7 H K e y l d e g d y r y k j y r e f l r d l y r H x 6 = ; V W D.K.D.! C S.S.A.I V Z G.",
"G.Y Z.Z.L U Y I Q I A M & + q l j d k e y x y r l d e y d k k d y r d l r w G y e k h h x r + ; T 2.T.! A Z.I A Y C L G.",
"T I S.Z.U m Z C A M & * 8 j H x e d j y y l y e l d y e y k k y r e f l y y F d 0 s s 2 g c t 2 = > 5X'.Z C I P U D.Q T ",
"F.Z.A C S.! L n & + 8 K l r f k e f g y y l y y l d e y y k k d r r d l w y g w i B.B.>.5.>.e.>.K 9 @ ; n Z.S.m P D.! ^ ",
"`.D.E L A C % = u k f x h e k g r f k y d l y e l d r e d j k y e r f l e d l w :.u.} u.u.-.-.pXH d j u * % B n m L S.Q.",
"F.Y U ) v + 9 f K y r l i e f k e i l e y l y w l f r y y f k d y r d l r r l w >., O < < O O u.H q i K f 8 * B I I F.G.",
"/ B C I X l j d G y e g h q j l e f k u y l d r l f e y y k k d r r h l r y l w >.-.< o o O , t.H t r x d j x o S.A A F.",
"J.L C I   G y y l y w F d e f l e d k y y x r e l d e y y l k y r e h l r r l w =.pXpXpXpXpXpXy.f r y l e r x X Z.I C J.",
"F.H.I Z X k y y l y y l f e k k e d k y y l y e l d r y d l k y y e f l e y l w =.pXpXpXpXaXpXu.j w y l y r G X I S.S.( ",
"C C Y Q   x r i l y r l y e f g r d k e d l y y l d e r r j l y e e d l e i j w ,.dXaXaXpXpXaXw.g w y l y y x X ! L ! ( ",
"R.Q S.K.  j i y x y r l k e f k e f k y y l d e l d e y y k k y y e y g y d l r a w.t.t.t.y.y.:.j r d l d r l o V B m F.",
"`.D.! S.  l y y l y e l d e k k r f k u y l y y l f y r y k l y y e f F e y G d 7 p u.pXsXdXdXw.g w r l i r l   Q ) Q G.",
"H.S.V C   l y y l y w G d e k g e h k u i l y e l h r r y k k h e y d l w y l y y d w p :.t.y.u.j e y l r r x o ! B E H.",
"^ C U C . l i y l y e l d e f k e d k r y l d e l h r r y k k r y e d l y y F d e l l 4 0 a :.w.j y y G h r x X I B B / ",
"J.! S.!   j y y l y y l d e k g r f k u d l y e l h r r r k k h y w f g u y l y r j d e f s i p F w u l d r l   Q ! n W ",
"`.D.Z.D.  x r d l y e l d e k k r d k u y l y y l h r r h k k d e y y G r e l y e k h e k l 0 s g e y l i r G   I V B T.",
"F.A.D.G.> 7X5X].,.d u g y e k g e k g y y G d r l d e y d l l d e y d l e y F y e j f r k h e k F w y F y y l X R.1.L F.",
"R ].:X[.!.:X;XW.'.5.y G f e k k e f k e y l r e l h e y e e e t y e d l y y G y r k f e k k e d F e y F y w l + [._.( T ",
"J.[.<XoXoX}..X/.P.'.8.5.;.w j l e d l e y l y r G j q t 8 t t t t 0 h l e y l y r k d e k k e k l u y l i r x + 0XJ.! ^ ",
":X:X:XW.}.}.+X;XW.XX,X:X'.p k j e k k r y G y e k 9 7 q r f f y e 7 q h e d G s e k h e z h e y g y y l h r l o jXfXZ.T.",
"<X;XoX}.XX^.OX,X2X1X2X}.#X5.f l r f k e h l y 7 8 e y d i d y y y y e 7 8 e l i r l h e k k e h G e y l i r x o A.!.J.G.",
"}.}.XXOX.X/.W.W.XX1X@XI.#X,.k k r j l r e e 7 e d d y e K d.d.J r d d y e 7 e e r l j q k k e d l e y G r r j + Z.C L ) ",
"+X}.OXoX.XW.P.@.).XXU.2.5.e k l e h k 8 7 0 h y y y K k.z.wXeXz.l.K y y y h e 7 0 d k r l f e d F e r l h r l X S.I V J.",
"oX}.^.^.|.XX^.%./.-X~.(.B.e l j e 0 0 t k f e d x k.b.f.k.l.l.l.f.b.h.x h e g d q 7 7 e k l e y F w r l i r l X I Z.S.( ",
"^.I.E.~. XoXOX^.(.(.OX1X0X>.h e 7 e e l r d l d.n.wXf.# g.x l f.# d.wX8Xs.G d r l y q 7 r h i k l >.B.4X$X,.G X ! I S.( ",
"-X#.&.~.|.^. XXXoX.X2X2X>X7.8 q r k d r J f.x.l.b.m.z.G k l k l F l.b.b.l.z.f.K w d p r e e %Xr.4X*X>XXXW.).B.N C P m F.",
"<XU.Y.I.~.P.P.|.OX1X2X|.$X:.h h i y F f.b.3Xl.k.b.z.b.z.y e d r l.V.v.v.k.k.wXb.f.K y y F j e.(.^..X.XOX(.).E.#X:X:XF.F.",
";XU.#.&.P.#.$.Y.oX,XoXY.3.H l l H l.3XeXn.3Xz.h.m.x.v.l.l.f d k.z.m.x.b.k.z.n.n.eX8Xl.j.*X4X:X^. X.X XOX1X,X>X,X>X.X;X[.",
";XY.@.O.o.o.X.$./.oXE.@.#X>.1 f ;.k.d.i.i.a.g.z.b.x.x.k.v.J K m.k.v.v.x.z.f.a.i.i.f.k.{.^..X.XXXOX|./.(..XOX2X1XXXY.&X3.",
"!.@.O.$.X. . .%.W. X^.(.&X5.j.N.j.7 k h.N.;.1 f.b.z.v.z.z.n.V.x.l.v.z.n.d.# ;.N.h.j 7 7X:X|.XXOX X|.~.P.$.P.oX X#.!.1.W ",
" .X.o.$.$. .X.P..XXXoX;X:X9XBXBXnXu d.NXNXNX;.j V.m.wXd.j ;.K j d.n.b.3Xx F NXVXBXg.u ZX;X|.W.^.~. XOX.X&.).;XoXE.;X].G.",
"] X.$.#.%.$.$.P. XXXOX^.&XxXyXtXtXk ;.rXtXnXc.G wXn.g.7 x d.s.x 9 f.n.3Xx h.nXeXrXs.y xX;XE.&.E.|. XoXXX.X(.(. X2XiX;X:X",
"o.$.%.$.$.%.$.%.U.^.}.U.).9.=.1 1 j d 1 7 8 1 J wXg.8 G i.w d i.J 6 g.eXa.# 0 7 6 e k =.&XW.4.I.|.|.I./. X.X>X,X2X@X-X$X",
"o.#.$.X. .o.$.*.&.I.|.~.#.4.9Xh.j.d K j.h.c.;.i.wXr K G F N.c.K x K r n.J ;.c.h.j.K h j.0X^.I.Y.P.I.P.%.I.XX,X1X|.I.&X^ ",
"] o.*. .[ X. .{ | O.).I.S q.VXVXNXd h.BXNXCX9Xx V.f G J bXNXNXbXa.G h n.l 9XCXNXBXh.y nXMX^.#.S O.$.o.X.$./.oXoXP.$.&X[.",
"[ ] |  .X.| ' ' } ..O.o. .t.nXbXtXy s.bXnXtXs K wXy 1 C.nXrXuXnXC.1 r wXx w tXuXnXs.k bX=X&.O.@.O.X. . .%.E.|.|./.;X;X:X",
" .]  .o.*..., : ' } | b 4.=.y y y 1 7 i h 0 $ s.wXd 6 f.uXyXyXuXf.7 y 3Xd.$ 8 f i 9 =.-. . .o.$.%.O.X.X.P. XXXoX+X;X;X[.",
"X.o.$.$.| ' 6 9 ' } N  .y.,.r i y l j d h y K x.b.h q J g.g.s.p.G 8 y b.x.K e d h l w... .X.$.#.%.%.$.$.&.~. X X.X/.(.*X",
"o.@.O.X.' , : 9 6 > S O.%X8Xn.n.z.m.n.b.b.8Xx.k.b.k y y 6 6 y d.g.j r b.k.x.V.b.b.n.9Xw.$.$.#.#.X.X.$.$.$.Y.U.^.}.I.P.#X",
"X.b [ ` a a a 9 s a ] ] 1.7Xv.v.f.x.m.v.x.b.k.k.b.y y y y k J g.i.r r b.k.k.b.M.v.b.xX4.o.X.O.o.{  .X.X. .| @.P./.P.o.+.",
"#X[ ` 4.y.,.u s i.=.{ [ 4.dXv.x.f.z.v.v.z.b.l.k.b.d y y e l h 6 7 e h v.l.l.v.x.m.m.9Xq.[ { |  . .X.| ' ' ' ' ..%.o.| $X",
"*X0.0.[.{.8.0 s s.N.e.q.5X8Xb.V.l.v.b.b.b.V.z.z.8Xh y d y l l y h y h 3Xl.z.n.b.b.n.V.t. . .| X.$.$.{ , : ' ' } | ] 0.[.",
"T.!.3.C A.%X6 2 a.C.N.C.V.v.v.x.k.l.m.v.m.v.l.l.b.k w r r h h r r e h v.l.l.b.M.m.m.m.r.+.O.o.$.$..., : 6 , ' } X.*.$XT.",
"R.1.A I 6.%Xa 3 >.=.@ @ # = @ @ @ @ @ @ @ @ @ @ = $ 8 e t e e t r t + @ @ @ * @ @ - @ -.| o.X.] [ > 9 9 9 q a ..X.$.).1.",
"{.zX*X0XdXfX9 2 N.<.=X6.3.D <.fX%X<.T %X5X%X3.m B . . X . .         . m M M B P M B B 4.q. .` [ -.:.=.a t c H { [ ] %.$X",
"[.lXvXcX=XfX7 2 N.'.jXgXlX2.$XzXkXgX7.jXgXzX6X! S.Z.A C B Z.D.D.S.K.K.K.Z.C S.D.! Y V B ].#X| #X:X*Xj.e s i.j.7.| q.#X[.",
"T.6XhXhX4X:.2 2 x 7XfXfXjX1.2.jXfX=X( [.fXcX6XW E A Q C P ! Z.Q ! S.L I Z.A Z.I A A C L Q ).].R.S.U 7.9 1 J %X].R.1./ F.",
"R 1.F.( 9.a p p 4 >.%X( T.R =XzX].Z.! Z.R.2.<.E E P Q D.Q m m I S.! I B B C C E 2.3.'.~ 2.6XR.Q J._ 8.a 3 s.'.L U D.W T ",
"J.Z.C C 1._ _ T <.5XzX_.Q hXmXcX0XZ C A.S.I I D.S.m P S.! I U S.I C S.A.E Q Z.`.vXcXzX6X6XmXhX*X7.lXkX9 2 ;.[.m P S.! ! ",
"`.D.E L C ! U 1.jXfXzX'.n fXqX[.4X].A A Q S.Y Z.Y B B C D.S.G.D.I C A Z.S.Q Y R.jXgXlX%X6XgXlXfX$XzXB.6 2 K {.P m C D.T.",
"Z.U U ! m U D.F.lXzXvX'.Z 2.*X! E 1.Q B U K.! C Q A.I Q Z.A.Q Q U ) m I K.! C 1.kXgXjX%X=XkXkXfX].e.t e y 4 x 4XQ U S.Z.",
"( E / ^ ( R G.T.'.%X%X].^ ~ $X~ E / ^ ( R F.`.~ E ^ G.^ ^ A.W R E ^ ( R F.`.^ R 6.{.].2.1.6.6.3.2.7.e.r.9.<.<.].Q.~ ! R."
};
