/* XPM */
static char *xpm_[] = {
/* columns rows colors chars-per-pixel */
"60 60 240 2 ",
"   c #0D0D0B",
".  c #2B1D15",
"X  c #2A1A15",
"o  c #341E1A",
"O  c #1B2912",
"+  c #18270E",
"@  c #2C2016",
"#  c #272918",
"$  c #35241C",
"%  c #3B211C",
"&  c #273817",
"*  c #383526",
"=  c #35302B",
"-  c #16143C",
";  c #641A29",
":  c #472D23",
">  c #4C3326",
",  c #56382B",
"<  c #58312D",
"1  c #7A2D37",
"2  c #643E33",
"3  c #693730",
"4  c #461E20",
"5  c #2C4B1E",
"6  c #2A451B",
"7  c #2E531F",
"8  c #344926",
"9  c #335623",
"0  c #355B24",
"q  c #395E25",
"w  c #385F29",
"e  c #2F5221",
"r  c #366425",
"t  c #3A6226",
"y  c #3B642A",
"u  c #3C6B2A",
"i  c #386827",
"p  c #3E712C",
"a  c #3F792D",
"s  c #3E6E31",
"d  c #465039",
"f  c #654032",
"g  c #684435",
"h  c #426D2C",
"j  c #456B2A",
"k  c #43742D",
"l  c #49762F",
"z  c #44792E",
"x  c #497B2F",
"c  c #436D32",
"v  c #446536",
"b  c #447431",
"n  c #4A7633",
"m  c #457931",
"M  c #4B7C32",
"N  c #4D793B",
"B  c #517D34",
"V  c #537E3C",
"C  c #7D3C41",
"Z  c #536D46",
"A  c #5B7C4C",
"S  c #577747",
"D  c #5E7551",
"F  c #627C55",
"G  c #627E4E",
"H  c #5C6464",
"J  c #17184E",
"K  c #85363A",
"L  c #963E3A",
"P  c #802C3B",
"I  c #8D463D",
"U  c #8A3C42",
"Y  c #8C4344",
"T  c #8D4549",
"R  c #8C4A48",
"E  c #91464A",
"W  c #944B4C",
"Q  c #994E4E",
"!  c #944544",
"~  c #8C5148",
"^  c #9C534E",
"/  c #97564D",
"(  c #9A4E51",
")  c #964C50",
"_  c #9E5552",
"`  c #9E5952",
"'  c #8B5652",
"]  c #A3534C",
"[  c #A75649",
"{  c #A15653",
"}  c #A35C54",
"|  c #A95E54",
" . c #A55E59",
".. c #A95E59",
"X. c #A14F41",
"o. c #9C6052",
"O. c #A66156",
"+. c #A96456",
"@. c #A66159",
"#. c #AA635A",
"$. c #AD695D",
"%. c #B26D5E",
"&. c #B6675C",
"*. c #B2715E",
"=. c #A96752",
"-. c #9B6B6D",
";. c #AE6B61",
":. c #A76865",
">. c #B26661",
",. c #B26C61",
"<. c #B86A66",
"1. c #AD7263",
"2. c #B47262",
"3. c #B97665",
"4. c #BA7966",
"5. c #B67369",
"6. c #BA7569",
"7. c #BC7A6A",
"8. c #B77866",
"9. c #B07C76",
"0. c #C17C6B",
"q. c #C07A70",
"w. c #C3735C",
"e. c #4D8333",
"r. c #4D8239",
"t. c #4C8634",
"y. c #528434",
"u. c #548936",
"i. c #538439",
"p. c #558A3A",
"a. c #5A8C3B",
"s. c #598A38",
"d. c #5A913B",
"f. c #4D812F",
"g. c #5B8542",
"h. c #5C8A42",
"j. c #5C8448",
"k. c #5D9240",
"l. c #62894B",
"z. c #6A855B",
"x. c #668755",
"c. c #6B9157",
"v. c #73955D",
"b. c #6D964E",
"n. c #758969",
"m. c #799668",
"M. c #7A8971",
"N. c #768B6A",
"B. c #838A7A",
"V. c #849777",
"C. c #819D6D",
"Z. c #BD8876",
"A. c #8AA378",
"S. c #8BA474",
"D. c #C2826F",
"F. c #C78A6F",
"G. c #C48472",
"H. c #CB8C74",
"J. c #C58A77",
"K. c #C99176",
"L. c #CC937A",
"P. c #CB947B",
"I. c #D3947B",
"U. c #7C889B",
"Y. c #8E9D82",
"T. c #92988E",
"R. c #AD8E90",
"E. c #9CAC8C",
"W. c #93A586",
"Q. c #9EAB93",
"!. c #96AB87",
"~. c #A2AD94",
"^. c #A5AF9B",
"/. c #A2B295",
"(. c #AAB59D",
"). c #A8B69B",
"_. c #A0B18D",
"`. c #9495AF",
"'. c #B89DA4",
"]. c #A9A6A4",
"[. c #ADB6A2",
"{. c #AEB7A5",
"}. c #B3BAA6",
"|. c #BDB5B8",
" X c #ABADB9",
".X c #C79484",
"XX c #D39D84",
"oX c #DA9D88",
"OX c #C79F9F",
"+X c #DBA68A",
"@X c #DEAA8C",
"#X c #D7A386",
"$X c #D9AD94",
"%X c #DAB39C",
"&X c #DDB193",
"*X c #CFB197",
"=X c #E1AC8D",
"-X c #E0A68E",
";X c #E1AD91",
":X c #E3B494",
">X c #E6B997",
",X c #E6BB9A",
"<X c #E9BD9C",
"1X c #E5B699",
"2X c #E1B18D",
"3X c #DDB9A3",
"4X c #C9ABAC",
"5X c #EBBFA1",
"6X c #E1BCA3",
"7X c #B8C1A9",
"8X c #EBC19E",
"9X c #DFC1AB",
"0X c #ECC4A3",
"qX c #EEC9A6",
"wX c #E3C2AB",
"eX c #EECCAA",
"rX c #EBC6A8",
"tX c #F0CAA6",
"yX c #F1CCAA",
"uX c #F0C7A9",
"iX c #F2D1AC",
"pX c #F3D7B7",
"aX c #EFD2B8",
"sX c #BCBDC3",
"dX c #C8BCC0",
"fX c #BBC3C5",
"gX c #C7C5C9",
"hX c #CCCBD1",
"jX c #C6CDD3",
"kX c #D1CCD4",
"lX c #D6D3D9",
"zX c #F7DEC1",
"xX c #F9E6CB",
"cX c #FAE9CE",
"vX c #F8E2C6",
"bX c #F9ECD6",
"nX c #FCF2DC",
"mX c #FEF6E4",
"MX c #FFFAE8",
"NX c #D4D6E2",
/* pixels */
"g.k z.W.Y.Y.A m.A.Y.m.t.n c p.p.n c n r.h N p.c y j i.b h M y.j c n r.u N s.j y b i.n s i.a.n c b r.u M i.n w c i.n s h.",
"l t.m.[._.).x.Y.7X}.A.u t.y.k M p.b r z n z y.k b M j l & o % & t i a b z y.z b n b t.y.k M a.z r z z z y.k n M z i.y.b ",
"y i c.(.).[.x.N.).).Y.u n y.k 0 h z b M s.u.u.u.e.u & % / q.q./ % & t d.u.s.p.t.t.M k B k 0 p b b M u.u.p.u.e.y.M j M M ",
"i.z M h.S.M.m g.B.V.l.i 0 0 M e.z y.u.y.u.y.t.t & : ~ <.,.5.4.,.&.R > & h f.M e.M y t w M e.l y.p.i.i.u.y.B M m i t y r.",
"a.u.c.t.t.l.N.x.Z Z n.a.h.l e.d.s.M y.u.n 9 # > +.2.>. ...*.2.O.} $.,.$.> O 6 y l z B l e.d.d.l y.y.M u t 0 j z n B x r.",
"p.v.^.A.g.m.[.[.m.z.[.!.~.c.e.t.y.y u r & : ` #.G.$.} } O.2.,.#.} } ,.G.#.` , 8 h M r M u.e.e.y h y.l y u l y.M m t l s.",
"v.}.Q.[.n.M./._.m.z.~.E.(.z.y p u 0 & : ` D.%.} 4.$. .} | 2.3.@.O.` #.3...>.D.` > & 6 r k k u z u r z y.u.a.u.l k t w h ",
"l.m.c.A.j.m.Q.).V.F [.~.[.D i 0 & , / >.>.7.| } 3.$.} } @.*.2.@.} ` $.3.} O.7.>.>./ 2 + 5 M M y.x l M k k y.u.k M B 0 b ",
"d.t.t.u.s.d.j.A S n x.l.Z 8 & , Y 7.q.} @.3.| } 3.$.} } ..2.2.@.} ` $.8.} | 4.@.` G.7.Y , 6 q B u.d.u.x u y.u.M z y t y.",
"r.m M y.j l e.p x k u 0 # : o.7.;.$.2.` O.7.} } 4.$.} } @.2.2.@.} } ;.3.} @.3.#.} %.$.&.6.} : * v S h.e.z M z p m i c e.",
"y c i.t.z q w p u 9 & > / >.G.4./ %.2.} @.3.@.} 4.$.} } #.2.2.#.} ` #.3.`  .8.#.^ [ | L &.w.{ U 2 8 B.F r u k u l p.M y ",
"i.e.p u t.M p 0 & < ~ J.3. .$.*.{ %.2.} @.4.| } 3.$.} | ..,.2.@.} } $.4.} O.8.} 1.4X4XOX*X4X4X'.G.R , * 0 e.y.q h y.M b ",
"a.p.k h h h O , / ;.>.7.$./ *.2.` $.,.} #.4.| } 8.$.} } #.,.2.@. .` $.8.| O.2.] '. XU.`.`.`.U.sXq...,.o., + r t 0 h y.p.",
"t.z z M 5 : ~ ,.J.@.{ 3.$.^ ,.2.{ %.2.} @.6.O.} 8.;.} } ..2.3.@.} } $.8.} ..3.[ 4XH   - J     sXZ.] @.G.$./ > y z z p.e.",
"c r y k . 2.<.#.8.O.} 3.$.{ %.2.{ %.*.} @.4.| } 4.$.} } ..2.2.@.} ` $.3.} | 3.X.'.`.= = = = H dX7.]  .3.$.>.6.$ e.k u M ",
"i.h h z X 0...@.4.| } 3.$.{ ,.*.{ %.2.` @.7.} } 4.$.} } ..2.2.@.} } #.3.} O.3.{ 9.jXjXsXgXgXjX4X,.} } 6.| } 7.% e.z u V ",
"V s.z i . 2...#.3.| { 6.$._ *.*._ $.2.} @.8.O.} 4.$.} } ..2.2.O.} } #.4.} ..4.X.R.kXhXhXgXkXjX].%.{ @.5.@.} 6.$ k t.u.n ",
"i u z l . 3.@.@.8...} 3.#.` 2.2.{ %.2.` #.6.O.} 4.$.} } #.,.2.#.} ` $.8.} @.4.X.R.lXkXhXhXkXkX}.%.{ O.3.@...7.$ M k e.n ",
"i.M y.s.@ 3.#.@.8.O.} 3.$.{ *.2.{ %.2.} #.8.| } 3.$.} | ..2.2.@.} } $.4.} @.8.[ -. XsXdXsXsXfXR.*.}  .3.#. .5.$ j w r N ",
"d.s.M y.. 3.@.@.4.O.} 4.#.{ %.2.{ $.2.` @.5.O.} 3.$.} } #.2.2.@.| { $.4.} } 8.$.L -.].jXkXNXNX|.%.] ..4...} 7.$ M M M r.",
"i.e.i u @ 4...@.4.O.} 3.#.{ ,.*._ %.2.} @.4.| } 8.$.} } | 2.2.@. .} $.8.} O.3.#.} | ] 9.].sXsX].%.} | 3.O. .5.$ m t M p.",
"n u z u . 2.@.@.4...} 3.$._ ,.3.} $.2.` @.4.| } 3.$.| } ..2.2.@.} ` #.8.`  .3.@.} *.,.L ! ' ].{.*.} O.3...| 6.$ h t w c ",
"e.e.y.M . 3.O.@.3.| } 3.$._ *.2.{ $.,.} #.4.| } 8.$.} } ..2.2.@.} } #.3.} @.4...` 2.>.} %.| :.:.3.} O.8...| 3.$ M M 0 k ",
"a.s.e.y.. 3.@.+.3.| } 3.$.` %.*.` %.2.} @.6.@.} 3.$.} } ..2.2.@.} ` $.3.} O.4.#.{ *.$.{ *.8.! [ 3.} O.4.#.} 5.$ z t y y.",
"r.M e.y.. 3...@.3.O.} 3.$.{ %.3.} $.2.} @.5.| } 3.$.} } #.8.3.$.} } $.3.` O.3.@.{ 2.%.^ 2.;.` >.3.} @.4...} 5.$ g.A u M ",
"y h e.e.. 4...@.8.O.} 3.$.] *.2.} $.2.} #.3.O.} 3.;.} .._ _ } ^ } } $.3.} O.4.#.{ 2.$.` 2.%.` $.3.} } 4... .7.$ l.b.V y ",
"i.u.u u . 4.#.O.8.O.} 3.$._ ,.2._ $.2.` O.8.@.} 8.;.Q ) W W W W Q ^ $.8.| O.8.#.{ 2.%.` 2.,.^ $.3.} O.4...| 7.% S.h.M b ",
"a.i.z p . 2.#.@.8.} } 3.$.` %.2.` %.2.} +.7.#.} %.^ E / ..%.%.#._ E Q %./ #.7.O.` 2.,./ 2.,._ $.3.} O.4.....6.= /.W.e.i.",
"M z z N . 3...@.8.O.} 3.$._ %.*._ %.2.} >.8.} E ! ` #.$.@.=.=.#.#.+.` E T } 3.>.{ 2.$.{ 2.%._ ;.8.} O.6.O. .5.$ r.l.i.i.",
"c r u z . 4.@.@.8...} 3.$.` *.2.{ ,.7.} ^ ` E ^ #.$.#.` G.+X+XJ.` #.$.#._ Y ` /  .4.*.^ 2.,./ $.3.} O.3. . .6.$ e.i c n ",
"V j i z . 2...#.4.| } 2.$._ 2.2.} %.$.E T Q $.+.#.@.H.:X0XiXpX8X>XJ.#.#.#.$.^ T E $.,.{ ,.2.` $.3.} O.8. . .6.$ e.k u i.",
"e.a.m i @ 3.O.@.4...} 4.$.{ 3.2._ E W Q $.*.` $.7.:X0X:X:X,X:X:X;X0X:X7.$.` 2.$.) W E _ 2.2._ $.3.} O.6.@. .8.% k y.y.n ",
"y u m b . 3.@.O.3.O.} 8.%.{ #.` E ) +.5.} $.8.+XyXiX=X1 @Xq.4.;X1 @XiXeX#X7.$.O.2.O.^ T ` #.{ ;.8.| O.3.@.} 5.$ M j y.n ",
"i.n y.a.. 3...@.8.O.@.4.@.E U ^ } 2.$.} F.@X<X<XqX0X%X7.2.5.2.2.7.<X0XqX,X8X2XF.} #.%.O.^ U E | 8.@.O.7.@.} 6.$ u w t r.",
"d.s.M y.. 3...#.7.#.Q ] T / $.$.=.O.D.2XrXiX>X:X0X8XyX8X@.} @. .,XeX8X0X:X:XiXuX&XF.} $.;.#.) T _ ( $.4.$.} 6.$ n y.l r.",
"i.y.y h o 7.#.#.%.Q E W :.2.6.8.q.,XqXpXeXeX8X:X0X0X8X<X,X*.#.:X<X0X8X0X:X5XtXtXpXeX>X7.7.8.3.#.W E ~ ,.#.| 7.$ l t M p.",
"n u b i . 6...! W Q @.2.6.| 1 &.H.>X=XH.H.I.=X<XrX8X0X>X0XG.G.0X>X0X8X0X<X2XL.H.F.@X1XF.&.K } 7.2.+.W ( E } 0.% p y y h ",
"r.M u.x   C ..Q ` *.#.$.Q _ %XwX%XE ;.3XwX.X1 =XqX8X0X<X0XqXqX5X,X0X8XqX;X1 .X9X3X5.Y 3XwX3X_ W $.#.1.` ( ..K   B M 0 b ",
"a.u.y.u.6   4 U 4.O.K.+X) eXMXmXbX{ $XmXmXmXG.4.eX8XyX+X;.H.H.2.+XyX0XyX6.7.mXmXmX&X` nXmXMXeXQ +XH...3.Y 4   & z i i i.",
"i.M y.r.j 6 + X J.XX<XeX5.pXvXzXpX$..XvXpXcXwX0.yXiX;XW 7.#XXX7.E ;XeXeX6.6XcXpXvXXX$.pXpXxXpX5.rX5XI.J.o + 6 u z u h M ",
"s j y.t.h e 6 + K.=X<XtX$.1 U U Y 2.O.U Y Y 1 .XiX@XE q.F.| | H.G.Y +XpXP.1 ! Y U | 2.Y L Y 1 ..qX8X=XP.# 7 q t z u.M y ",
"V y.u u M 9 9 # K.@X,X0X>.*X6X6X%X$.G.%X%XwXJ.H.iX..G.0.7.wX6XZ.4.H.} eXK.J.wX%X6XZ.$.*X3X3X*X>.<X8X@XP.# t w 9 y u.M b ",
"s.u.b h i w q # H.@X<X<X4.nXmXmXmX@.%XmXmXMXpX0.yX,.2.K.cXmXnXcX.X0.>.qX4.aXMXnXmX3X| nXmXMXnX7.>X<X=XL.# t q q w h i.s.",
"t.m n B 0 9 h # K.@X<X0XE .XxXcXpX#.XXcXcXzX:.q.iX..3 rXbXvXvXnXrXP  .yXG._ vXcXcX+X#.zXcXcXXXT 8X>X-XL.# 9 0 m z z u.i.",
"b r u z h 5 t # H.-X,XqX&.; O.$.#.K T #.$.W ; XXiX#.U &XcXxXxXxX>XI | qXXX; Q $.@.T K +.;.} ; $.tX<X-XL.# 9 6 u e.k u M ",
"V h i p M 5 9 # K.=X1XtX0X5.{ $.@.3.,.$.$. .G.<X0X;.W K.+X#X#XL.7./ #.rX0XG.` $.$.2.2...#.} 3.<XqX,X=XL.& 5 6 y y.k y i.",
"r.s.l i u 0 9 # K.=X1X0X0XtXtXqX:X0XyXtXqXeX0X,XqX$.@...U Y #.@X@X1.} 0X,X<XyX0X0XyX0X,XqXeXrX0X0X,X-XI.$ v w z z y.y.n ",
"y u k M l 9 9 # K.@X<XqX8X<X0X0X:X<X0X8X0X0X,X>X0X$.} @. .*.J.$XL.} ..0X,X,XqX0X8X0X<X:X0X8X8X0X0X:X=XH.= Y.Z j.M j t.n ",
"r.M y.a.M 9 9 # L.@X,X0X0X8X0X5X:X<X0X8X8X0X,X>X0X$.| #. .2.%.U Y / ..0X,X>XrX8X0X8X5X:X8X0X8X<X0X<X=XL.* F B.V.v r q M ",
"k.s.M y.u.h 5 # #XoX+XuXuXrXtXuX:X0XqX0XqXtX,X0XyX>.O.#.O.8.8.#.$.#.>.uX,X<XtX0XqXqX0X:X0XuXqXuXqX+X#X@X* B.Q.n.z M M e.",
"u.e.i y m e.h # :.@XoX<X0X0X<X<X1X,X8X8X5X0X>X,X0X,.^ @.} $.$.} } { >.uX>X1X0X0X<X0X<X:X5X<X8X8X<XoX-X1.* v.v.c.M t n p.",
"N A a b x.h.b.z.& g g 2 2 2 f 2 2 2 2 f 2 2 3 2 2 < W { ( ( ( ( } E < 3 2 2 2 2 f f f 2 2 2 g 2 f g f & f.y.y.l b t t u ",
"c.).m.A.V.V.Q.}.Y.v B.G x.d D T.n.D v M.B.n.D w t + X . X X . X X X + 9 q 9 t j 9 w w 6 9 y t i w 0 t p k y.u.k M B q b ",
"l./.}.}.N.W.^./.A.F Q.Q./.S z.^.^.T.F ~.~.).V.B u.x u r 0 e.d.u.y.s.u.d.N i y.u.e.m t t y.u.p.y.u.d.d.x u y.t.M z i t i.",
"i.V.E.A.h.l.Q.!.i.j.Y.W.~.S j.Q.Y.C.i.c.W.[.V.n p k M u p x t.n M y.j l M b f.p u p r u z z b e.f.j h k a M b z m h u M ",
"c S i.M y.B i.j.x l D V g.b N.).z.M e.y.g.D Z c a j z s.l 0 0 k y.M k t t u u m A F z.N A C.j.M V S Z D N u z y l p.m y ",
"i.e.u i M e.z b h.C./.l.a !.7X{.A.u u t.t.z z y.y.q j y.M j B u.p u t.e.b M f.l.7X[.[.V.V.}._.m.F ~.).E.j.e.y.q t y.M b ",
"a.u.b p k M z N Q.E.(.z.w W.m.v.C.G u h M y.k e.l t 0 u u.t.s.i.z h u e.e.z x g.E.E._.N.V.E./.Y.z.E./.m.u.y.l t t h u.p.",
"e.m z M w k u.g.Q.(.[.n.r A m.m p S M t l s.M p n t.z z r.t.t.m l x 0 n s.f.i S /.Q.~.N.M./.(.Y.S A.}.!.h.e.e.e.z z y.e.",
"b u s n n u r.a.x.n.n.l.m s z.v u s M N c r.a.n c n i.n n N s c b N N c i.d.z v F x.F S N D D S V c.n.n.j.i.b b r.b m N "
};
