/* XPM */
static char *xpm_[] = {
/* columns rows colors chars-per-pixel */
"60 60 256 2 ",
"   c #010101",
".  c #0A0604",
"X  c #170A04",
"o  c #161809",
"O  c #1B1512",
"+  c #08110C",
"@  c #2D0101",
"#  c #220001",
"$  c #340101",
"%  c #3A0404",
"&  c #271B04",
"*  c #2C1D16",
"=  c #281615",
"-  c #351D1B",
";  c #331F03",
":  c #15240C",
">  c #1A2913",
",  c #193011",
"<  c #2B2102",
"1  c #332304",
"2  c #282717",
"3  c #35241C",
"4  c #39231D",
"5  c #263919",
"6  c #382A24",
"7  c #33322B",
"8  c #16143B",
"9  c #560001",
"0  c #49140A",
"q  c #780001",
"w  c #670502",
"e  c #533905",
"r  c #4A310A",
"t  c #472A25",
"y  c #56362B",
"u  c #5A3933",
"i  c #50312C",
"p  c #633C33",
"a  c #683A35",
"s  c #723334",
"d  c #5D241B",
"f  c #2A461C",
"g  c #2E501E",
"h  c #2D4A21",
"j  c #324A24",
"k  c #335423",
"l  c #355B25",
"z  c #395D26",
"x  c #325327",
"c  c #3A6226",
"v  c #3B642A",
"b  c #3C6B2B",
"n  c #366626",
"m  c #3F722C",
"M  c #3E6B31",
"N  c #744D01",
"B  c #4B4834",
"V  c #684336",
"C  c #75443D",
"Z  c #426D2C",
"A  c #406828",
"S  c #44742D",
"D  c #4A7B2F",
"F  c #46782F",
"G  c #456835",
"H  c #457432",
"J  c #4A7633",
"K  c #457931",
"L  c #4B7C32",
"P  c #4D793B",
"I  c #527E37",
"U  c #6C5D08",
"Y  c #122948",
"T  c #7D3C41",
"R  c #545348",
"E  c #6D5246",
"W  c #587948",
"Q  c #576D4B",
"!  c #627C55",
"~  c #706954",
"^  c #767C6B",
"/  c #555861",
"(  c #375B7F",
")  c #850102",
"_  c #920B08",
"`  c #A60001",
"'  c #B90101",
"]  c #853539",
"[  c #912C00",
"{  c #C70001",
"}  c #D30001",
"|  c #DC0101",
" . c #DB0D0F",
".. c #DB0E11",
"X. c #D3120F",
"o. c #E30001",
"O. c #EA0001",
"+. c #F40001",
"@. c #FE0001",
"#. c #F11312",
"$. c #E33330",
"%. c #894700",
"&. c #965101",
"*. c #A6540A",
"=. c #9D6128",
"-. c #FE5905",
";. c #F7591C",
":. c #8B3E46",
">. c #8A4A47",
",. c #94494A",
"<. c #885349",
"1. c #98574E",
"2. c #984D51",
"3. c #9E5552",
"4. c #985B51",
"5. c #A4554B",
"6. c #A15652",
"7. c #A45C54",
"8. c #A65E59",
"9. c #A95E59",
"0. c #A95E56",
"q. c #A84F47",
"w. c #9B6254",
"e. c #886B57",
"r. c #A56256",
"t. c #A66159",
"y. c #AA635B",
"u. c #AC695C",
"i. c #A86456",
"p. c #B26D5E",
"a. c #B4665C",
"s. c #B2715E",
"d. c #AB6E5A",
"f. c #A96A64",
"g. c #B46A62",
"h. c #B57363",
"j. c #B97665",
"k. c #B97966",
"l. c #BA7569",
"z. c #BC7A6B",
"x. c #B67568",
"c. c #AB7665",
"v. c #8C7B68",
"b. c #E94F4D",
"n. c #F27377",
"m. c #C17867",
"M. c #4D8234",
"N. c #4D8239",
"B. c #4B8433",
"V. c #528434",
"C. c #548935",
"Z. c #538439",
"A. c #548A3A",
"S. c #598C3B",
"D. c #598A39",
"F. c #5A923C",
"G. c #4D812F",
"H. c #5B8744",
"J. c #5D9240",
"K. c #61894B",
"L. c #678756",
"P. c #6E9457",
"I. c #758A68",
"U. c #799669",
"Y. c #78876E",
"T. c #BB980B",
"R. c #B1960C",
"E. c #BCA20B",
"W. c #FF9D01",
"Q. c #CCB00F",
"!. c #FEB908",
"~. c #F3AE07",
"^. c #E5893C",
"/. c #FECB01",
"(. c #FECE0E",
"). c #F7C70D",
"_. c #FED20F",
"`. c #FEDA0D",
"'. c #FFCE11",
"]. c #FED311",
"[. c #FED912",
"{. c #FEE50B",
"}. c #FEE612",
"|. c #FEEA12",
" X c #FFF813",
".X c #FFD63E",
"XX c #84897A",
"oX c #849877",
"OX c #928C6D",
"+X c #8AA377",
"@X c #B08A69",
"#X c #F79B5A",
"$X c #C88974",
"%X c #CB9378",
"&X c #CC8D74",
"*X c #F0B573",
"=X c #F29863",
"-X c #FFD95B",
";X c #FFD66B",
":X c #FFE564",
">X c #426487",
",X c #FF7C84",
"<X c #7D8D9E",
"1X c #67CCFE",
"2X c #6AD5FF",
"3X c #7FBAF4",
"4X c #8D9D83",
"5X c #8F938D",
"6X c #98A989",
"7X c #9EAB93",
"8X c #93A884",
"9X c #A2AD96",
"0X c #A7B499",
"qX c #B0A98D",
"wX c #ADB6A2",
"eX c #B3BBA5",
"rX c #B2AFB1",
"tX c #A19BA2",
"yX c #D29C88",
"uX c #F2918F",
"iX c #DEAA8C",
"pX c #D7A588",
"aX c #DBB39A",
"sX c #CEAA90",
"dX c #E9BD9C",
"fX c #E5B998",
"gX c #EBAF90",
"hX c #D2B1A8",
"jX c #F0B4A7",
"kX c #C19DA7",
"lX c #EBC19E",
"zX c #FFD186",
"xX c #EDC4A3",
"cX c #EBC8A8",
"vX c #F7D9BA",
"bX c #F4CCAC",
"nX c #FFE9B3",
"mX c #E6D7A3",
"MX c #82B9F3",
"NX c #BCBEC1",
"BX c #C5BCC3",
"VX c #A3DEF2",
"CX c #CAC7CB",
"ZX c #CCCDD3",
"AX c #D4D0D4",
"SX c #F8D8C7",
"DX c #FBE7C8",
"FX c #FEF7C9",
"GX c #FDECD8",
"HX c #FEFCDA",
"JX c #D0F8F9",
"KX c #FEFAE4",
"LX c #FEFCF8",
"PX c #FAE7E5",
"IX c #D1E6DF",
"UX c #BAC2AD",
/* pixels */
"H.Z L.6X4X4XH.U.+X4XU.N.K M A.S.J Z J P b L A.H z G V.J b I V.Z Z K L M K A.J z H I J Z A.S.J G K N.m L A.H z H Z.K Z H.",
"D B.U.wX7X0X! 4XeXeX+Xm M.Z.S D A.S n K F F V.K F L b Z 5 - - 5 b c K K S Z.S K J H Z.V.S L A.S b S F F Z.S H J S V.Z.K ",
"v b P.0X0XwXL.U.0X0X4Xb S V.S l b S S L C.C.C.C.M.Z 5 t <.z.m.4.4 5 c C.C.C.C.M.B.J S M.S l b K S L C.V.C.A.B.V.L Z M.L ",
"Z.F K H.+XY.K H.XXoXK.b z c L B.F V.S.V.V.C.M.v 5 t 1.a.g.l.l.g.a.>.i 5 A V.M.L L b c z L L D V.A.Z.C.V.V.L L J b c z P ",
"S.A.P.B.V.K.I.L.Q Q P.H.H.J B.k 5 n V.f 5 f > i u.g.a.>.u h.E t a a.p.y.i , f n D F I D G.S.S.L C.V.L b A z A F K I D M.",
"A.P.0X+XH.U.wXwXU.! wX8X7XP.K .   f v     * 3.y.$Xp.6.a   g.t   = 6.u.$Xu.4.y 7 b L c D C.M.M.A A V.J v v S V.M.L c D A.",
"U.wX7XwX^ U.9X0XU.I.7X7XwXQ X ` } 0 . ' { 0 a 7.s.u.a 0 ' - _ q = 1.u.s.0.p.$X1.t 5 f l S S b S b n S C.C.D.C.D S c c M ",
"K.U.L.+XH.U.7X0XoX! 0X7XwXj . +.@.` w @.@.w = 3.j.u.t 9 @.  } ` O >.y.j.7.8.k.p.g.4.p , f B.L V.L S L S S V.C.S L L l H ",
"F.B.V.C.D.F.H.W W P L.H.Q 5 X ` O.@.@.O.} % i 2.h.r.t q ` # } ) O s y.k.7.8.k.y.3.$Xm.>.y f v L C.D.C.D b M.C.B.S v c C.",
"N.K M.G.Z S D S G.S b l , t <.. ` @.O.O.X i a ,.g.O ' {   O.@.q X E 8.k.7.8.j.i.6.s.d.a.j.r.t 7 G W K.B.S B.S m K b b M.",
"v Z A.M.F c z b b l 5 y 1.y.c.C + ` O.  t V a E d.O   9 O.O.@.) X s 7.j.7.r.h.y.2.5.5.:.a.m.6.:.u j XXL.n b S b F A.L v ",
"I B.m b V.D m l , i >.$Xl.3.w.<.u % 9 t a E C >.h.=   % @.@.) * p C 4.j.6.t.k.7.c.hXhXkXhXsXkXkX$X>.y 7 l V.G.l A V.L J ",
"F.A.S Z Z Z > u w.g.a.z.u.2.u.w.s i - p t i i p C +     9 q X = i t a E y C x.q.kXrX<XtXtX<X<XBXm.0.g.4.y , c c z Z V.S.",
"N.K S L g t <.g.$Xy.7.h.u.3.g.s.1.E C i < < < < 1 ; < < : + & < < < ; & 1 1 w.q.kX/   8 8 8 + NX$X6.t.$Xp.<.i c K S A.M.",
"b c b S * h.g.y.x.r.7.j.a.3.p.s.6.4.V   ~.|.`.].].`._.].].].`.].].].`.].|.Q.. :.kX5X7 7 7 7 / CXz.5.8.x.a.a.l.3 M.S Z J ",
"Z.Z b K * z.9.y.j.r.7.j.u.3.s.h.7.C ; Q.[.[.].`.[.].[.].[.`.].`.`.[.[.[.[.[.Q.= / ZXZXZXCXCXZXhXg.3.8.x.8.7.m.4 B.S b Z.",
"I S.F c * j.y.t.j.t.7.k.u.6.p.h.a e Q.|._.'.'.'.'.(.(.'.'.'.(.'.'.(.'.'.(._.|.E.r 5XZXZXZXZXZXtXp.7.8.j.y.8.l.3 K M.A.J ",
"b b F D * j.8.y.k.r.7.h.u.6.g.d.= U  X'.].].(.(.'.'.'.'.(.(.'.(.(.].'.(.'.(.]. XU j ZXZXZXAXZXrXp.6.8.x.8.8.l.3 L Z M.J ",
"N.J V.D.2 s.9.t.j.y.7.h.u.3.c.h.> &. X'._.].'.(.(.'.(.'.(.(.'.'.(.'.'.(.'.(.'.|.&.8 NXBXNXNXNX9Xp.5.8.j.r.8.l.3 v c c L ",
"F.D.L V.* j.r.t.j.0.6.j.u.6.u.X R.}.].].W.!.].'.(.'.].(.'.'.(.'.'.'.(.(.'.'.'.'.|.R.+ ^ AXAXAXrXs.6.8.j.y.7.l.3 L L M.N.",
"A.I n b * h.t.y.k.9.7.j.u.6.i.  E. X'.'.W.!.].].'.!.!.].'.(.'.(.'.'.'.'.(.(.(.(. XE.  u tXCXNXwXs.6.t.k.0.8.l.3 K c J A.",
"K b S b * j.t.t.j.8.7.j.u.6.i.. R.|.].'.W.!.]._.'.W.!.].'.'.'._.(.(.'.(.'.'.(.'.|.T.  t ,.<.tXrXs.6.t.j.r.8.l.3 S c c Z ",
"M.B.V.D * j.8.t.j.t.6.j.u.6.t.. E. X[.(.W.).[./.(.W.!.].(.(.'.'.(.'.(.'.'.(.(.'.|.T.. t 1.5.f.f.h.7.t.k.t.8.l.3 L L l H ",
"S.C.V.C.* j.r.y.j.r.7.j.f.4.i.. T.|.'.'.W.).[.(.`.W.!.].'.(.'.'.(.'.(.(.'.(.'.'.|.T.  4 4.c.,.q.j.7.r.j.t.8.l.3 S c c Z.",
"Z.K B.Z.* j.9.t.k.9.7.j.u.6.p.w.& . B nXnXB B FXnXDX-X/.(.(.'.(.'.'.'.(.'.(.(.'.|.T.. - 4.u.3.p.j.7.r.l.y.8.j.3 H.W b P ",
"v S V.B.* j.t.t.k.0.7.x.y.3.p.w.a & 7 KXLX6 7 LXGXPX;X/.(._.(.(.'.'.'.(.'.'.(.(.|.T.  - <.u.6.f.j.7.r.l.8.8.z.4 P.K.I c ",
"Z.Z.b b * j.y.0.k.r.7.j.u.6.p.d.C 6 7 FXHX3 7 KXFXGX-X/.(.'.'.'.'.(.'.'.'.(.'.].|.T.  6 4.d.3.y.j.7.r.j.9.7.l.6 oXJ.L J ",
"S.V.S m 2 h.y.t.j.8.7.j.u.6.g.d.,.- R FXKXB V GXvXGX-X/.'.].'.'.(.'.'.].(.'.'.'.|.T.  3 4.d.3.u.j.7.r.k.9.8.z.4 9X8XM.A.",
"N.S S I * j.0.r.j.8.7.j.u.3.p.h.= ^ KXnXDXFXbX,X,XSX:X/.(.(.'.(.'.(.'.'.(.'.(._.|.E.  6 e.u.3.u.x.7.t.j.t.8.l.4 N.K.D.N.",
"b c b S * j.0.y.j.y.7.j.u.3.s.h.= e.LXKXKXHXnXbXvXGX-X/.'.(.(.'.'.(.'.'.'.'.(.(. XQ.  - <.d.3.u.j.7.t.j.8.8.l.3 L b Z J ",
"Z.H b S * h.9.t.j.8.7.j.a.3.s.h.= ^ FXb.b.jXHXDXDXLX;X/.].'.(.(.(.(._.'._.'.'. XQ.r t y 4.d.3.u.j.7.t.j.t.8.l.3 B.S v Z.",
"I D.K n 2 j.t.t.j.8.7.l.u.6.h.h.= 4XnX .} =XHXGXDXnX.X/.(.'.(.'.(.(.'.(.].`.[.Q.r - i a 4.u.6.u.j.7.t.j.t.6.l.3 K M.V.L ",
"v b K F * j.8.r.j.y.7.k.p.3.y.1.= Y.vXO.| uXHXnXnX[.(.].].].].(._.].'._.).).).< t u a s T 8.2.c.k.7.t.x.y.7.l.4 K Z Z.J ",
"P L V.A.* j.0.y.j.8.t.k.t.,.:.3.4.t B KXHXKXzX{. X|.}.}.|.|.}.}.}.}.|. XR.  . B p V E <.>.:.,.8.k.8.r.k.t.7.l.3 b c c L ",
"F.D.L V.2 l.9.y.k.y.2.3.,.2.y.u.e.C i R R R y e e 1 o & < < & 1 e e e e y e.E e.e.E <.4.u.y.2.,.3.3.u.k.u.7.l.3 D I D N.",
"A.V.v Z * k.y.y.p.,.,.,.y.x.k.k.c.%Xe.  .         7 E R B R E 2 +     . o ~ v.v.@XsXiXz.z.h.h.9.,.>.,.g.y.8.z.4 L c L A.",
"J v S n * z.9.,.2.2.y.g.z.8.] a.$XpXE $ $ . . $ # =X*X=X#X#XzX5.. @   X $ % E 4.d.yXfX&Xp.] 0.k.g.i.2.,.,.8.l.4 m c z Z ",
"Z.D C.D X T 9.2.3.d.y.f.,.1.hXcXaXt $ @.@.$ $ @.O.} | o.o.o.| o.@.+.  ) @.}   OXsXh.>.aXcXhX2.,.u.i.c.7.2.y.] X L L l K ",
"S.C.C.Z.f . t ,.j.i.%XpX,.cXKXKXGXi $ @.@.@ $ @.o.} uXLXLXLX$.} +.O.  ) @.{   hXKXaX3.GXKXKXbX2.iX&Xt.x.>.t . 5 F v c Z.",
"N.L Z.M.A f o = $XyXdXcXx.vXDXvXvXy $ +.@.@ $ @.o.bXuX$.b.b.SX,Xo.o.  ) @.{   5XvXyXw.vXSXDXvXx.cXxX%X$X- o f b D b b M.",
"v Z M.N.Z g f : %XiXlXcXu.s :.] >.u % +.@.@ $ @.o.uXuXb.b.b.jXn.o.o.  ) @.{   d s 4.x.>.:.,.s 9.lXlXiX%X2 k z v D C.L c ",
"I Z.S b B.l k 2 %XiXfXlXp.aXjXdXaXy @ +.@.@ $ @.o.} uXLXLXLXb.| O.o.  q @.{   ~ qX$Xy.aXaXdXsXg.lXlXiX%X2 b c k A V.L H ",
"F.C.K A b l v 2 %XiXfXdXc.PXKXKXGXy $ +.@.@ $ @.| LXuX| | } PXjXo.o.  ) @.{   XXAXaXr.HXKXKXPXz.fXdXiX%X2 n z l l Z A.A.",
"M.K K I l k b 2 &XiXlXxX,.yXDXDXSXy $ +.@.@ $ @.o.$.uXLXPXLX,X..O.o.  q @.{   v.cX%Xy.vXDXDXyX,.lXfXgX%X2 k l K K K C.N.",
"H c b S Z g l 2 &XiXfXbXf.d 9.g.r.t $ @.@.@ % @.| | b.jXuXjX..| O.o.  q @.{   u <.,.s i.f.8.d y.bXdXiX%X2 k f b M.S S L ",
"I Z b m L g k 2 &XiXdXxXdXx.6.f.i.u @ O.@.@ % @.O.O.O.| o.o.O.O.+.O.  q @.{   u 1.g.l.t.9.7.h.jXcXfXiX%X2 g f b L S b I ",
"L F.S n b l k 2 %XiXfXxXxXcXxXbXfX~ 0 #.#.$ @ #... . ... . . .X.#...  ) #.X.+ ~ sXcXxXfXcXbXcXxXlXdXgX%X2 G l S S Z.V.J ",
"b b S L S k l 2 %XiXdXxXlXxXxXdXi ~ HXFXHXt Y VXMX3XMXMXMX3XMX3XMXMX  OXKXFXDX6 ~ dXdXgXxXlXxXxXlXfXiX%X7 5XQ H.L Z M.J ",
"N.L V.D.L k k 2 %XiXdXxXdXdXlXxX6 Y.HX*XLXB Y 2X1X1X2XVXVX2X2X1X1X1X  qXHX*XHX7 E fXlXaXlXlXlXlXcXdXiX%X6 ^ Y.oXb z c L ",
"J.A.L V.C.Z h 2 yXpXpXbXcXbXbXxX6 XXHX#XnX1 Y JXJXIX<X( <X>XrXIXJXJX  c.zX#XLX7 E aXlXaXcXcXcXlXcXpXpXiX7 oX9XP.S I L Z.",
"V.N.b b L L b 5 d.iXyXdXxXxXdXdXE R mX=.=.X B nXdX#Xe . +   =.*XcXdXX r =.@XUX5 E sXaXgXlXdXlXlXdX%XgXs.7 P.U.K.K c L A.",
"P W m K ! D.P.L.5 V V V p a V p y =     .   9 @.| ' 9 = i   w } O.o.X   X     4 6 y p u V V V p V a V 5 G.V.V.L H v z Z ",
"P.0XU.+XoXoX9XwX4XG XX! K.R Q 5X^ x > B R O U {.`./.N . X   *./.`./.o o 5 > 5 5 5 g z f k c c c c l c S F V.C.S L V.l S ",
"H.0XeXeXY.6X0X0X+X! 7X7X0XW L.0X7XY.R ~ Q 7 0 -.-.-.0 X f . &.-.-.-.X 5 f f g g l n c v B.F.A.V.C.S.D.D A Z.V.L S v c Z.",
"N.oX7X+XK.K.7X6XZ.H.4X8X7XW K.7X5XI.M G R > w } { ` $ + g . 9 ` { ' ; o f g g k l b n b K K S M.V.Z b F m B.S S D b M L ",
"Z W Z.D V.L Z.H.K K Q W H.H Y.0XL.B.K n . N *.N N N < o z   e N N N *.r + l c A W ! L.P W oXH.L I W Q W P b F b F A.L c ",
"Z.B.b b B.Z.S S H.+X9XK.K 6XUXwX+XM g   %.&.%.%.%.&.1 o c   e &.&.&.%.*.e . D K.eX0XeXoXoXeX7XU.! 9X0X6XH.L V.l A V.B.H ",
"S.C.S b Z L S P 7X6X0XL.l 6XU.P.U.L.g   & X X X X X o f c n o X X X X & X . L H.7X6X9XI.oX7X0X+XL.7X0XU.V.V.J c z Z Z.C.",
"B.K K L z H C.H.7X0XeXI.n W U.K m W H > , 5 > o : : , g v b 5 o : > o : > 5 n W 0X9X9XU.Y.0X0X4XH.+XeX8XH.B.K B.K S V.B.",
"H b M L J b N.A.L.I.I.K.m H L.G b m J b j g x h 5 h x g v M x h f h j 5 h z x z ! L.W W W Q W W W L.I.I.K.A.K S N.K J L "
};
