/* XPM */
static char *xpm_[] = {
/* columns rows colors chars-per-pixel */
"60 60 252 2 ",
"   c #010101",
".  c #0B0403",
"X  c #080907",
"o  c #1B0D00",
"O  c #170908",
"+  c #1B140D",
"@  c #16180A",
"#  c #1B1712",
"$  c #0C1509",
"%  c #2E0102",
"&  c #220001",
"*  c #330101",
"=  c #390302",
"-  c #251906",
";  c #241411",
":  c #2A1A15",
">  c #341C1A",
",  c #361B18",
"<  c #33150D",
"1  c #16250E",
"2  c #1B2712",
"3  c #1E3517",
"4  c #0A2104",
"5  c #2B2102",
"6  c #372805",
"7  c #292418",
"8  c #38221B",
"9  c #253918",
"0  c #3E3306",
"q  c #111122",
"w  c #2B2B26",
"e  c #35342A",
"r  c #261F22",
"t  c #550000",
"y  c #441A1B",
"u  c #490D01",
"i  c #780101",
"p  c #680401",
"a  c #533904",
"s  c #44241D",
"d  c #502A0C",
"f  c #451E22",
"g  c #4D2424",
"h  c #492824",
"j  c #542B26",
"k  c #552C29",
"l  c #5B2E2A",
"z  c #552726",
"x  c #4E3629",
"c  c #5D322C",
"v  c #56342A",
"b  c #5D3533",
"n  c #413535",
"m  c #62342E",
"M  c #67382D",
"N  c #633531",
"B  c #663A32",
"V  c #6B3D34",
"C  c #6A3833",
"Z  c #69352F",
"A  c #6D3307",
"S  c #2A471C",
"D  c #31511E",
"F  c #2D4B21",
"G  c #314C22",
"H  c #2E5522",
"J  c #335422",
"K  c #345C24",
"L  c #395D25",
"P  c #3B4834",
"I  c #3A6226",
"U  c #3C642A",
"Y  c #3C6C2B",
"T  c #366526",
"R  c #3E722C",
"E  c #3E6C31",
"W  c #754901",
"Q  c #6F5103",
"!  c #4D4933",
"~  c #6B4234",
"^  c #78483B",
"/  c #7F503D",
"(  c #426D2C",
")  c #406F27",
"_  c #43742D",
"`  c #497A2E",
"'  c #46782E",
"]  c #446933",
"[  c #457432",
"{  c #457A31",
"}  c #4B7C32",
"|  c #4C7837",
" . c #517E34",
".. c #547B3C",
"X. c #6F6308",
"o. c #112E47",
"O. c #51514D",
"+. c #645B58",
"@. c #725950",
"#. c #587947",
"$. c #586F4C",
"%. c #627D55",
"&. c #6F6D59",
"*. c #78767B",
"=. c #72706C",
"-. c #5E5A68",
";. c #850101",
":. c #A60101",
">. c #B90102",
",. c #912C00",
"<. c #C60101",
"1. c #CB0102",
"2. c #D40001",
"3. c #DC0101",
"4. c #DC0D0F",
"5. c #D81011",
"6. c #E20001",
"7. c #EA0000",
"8. c #F40001",
"9. c #FE0001",
"0. c #F11313",
"q. c #E33330",
"w. c #894700",
"e. c #965000",
"r. c #A7540A",
"t. c #804E3D",
"y. c #A46D22",
"u. c #FE5805",
"i. c #F7581D",
"p. c #885745",
"a. c #965E4A",
"s. c #885748",
"d. c #98634D",
"f. c #966956",
"g. c #8E6A54",
"h. c #A66D53",
"j. c #AB7256",
"k. c #AE7359",
"l. c #A77155",
"z. c #B27559",
"x. c #B97B5C",
"c. c #B37759",
"v. c #A1634A",
"b. c #906D64",
"n. c #B67C62",
"m. c #E94F4D",
"M. c #F27476",
"N. c #4D8234",
"B. c #4D8239",
"V. c #478032",
"C. c #528434",
"Z. c #548936",
"A. c #538439",
"S. c #548A3A",
"D. c #598C3B",
"F. c #598939",
"G. c #5B913C",
"H. c #4C802E",
"J. c #5B8644",
"K. c #61894B",
"L. c #678756",
"P. c #6C9256",
"I. c #719856",
"U. c #758968",
"Y. c #799668",
"T. c #798771",
"R. c #BC990D",
"E. c #B1960D",
"W. c #BEA60C",
"Q. c #FF9E01",
"!. c #CFB20F",
"~. c #FFA400",
"^. c #FEBA07",
"/. c #E2BB0F",
"(. c #E38A3A",
"). c #FECB02",
"_. c #FECE0F",
"`. c #F9C50C",
"'. c #FED20E",
"]. c #FFDA0D",
"[. c #FFCE11",
"{. c #F7CB10",
"}. c #FFD412",
"|. c #FED913",
" X c #FFE509",
".X c #FFE512",
"XX c #FEEA12",
"oX c #FFE518",
"OX c #FFF813",
"+X c #FFD63E",
"@X c #849877",
"#X c #868B72",
"$X c #8AA377",
"%X c #8AA474",
"&X c #B88E63",
"*X c #F89B5A",
"=X c #CB9673",
"-X c #C18D6C",
";X c #DAA47C",
":X c #F1B574",
">X c #F29863",
",X c #FFD95B",
"<X c #FFD66B",
"1X c #FFE564",
"2X c #375E82",
"3X c #7F7E83",
"4X c #466989",
"5X c #837D85",
"6X c #FF7C84",
"7X c #7E8187",
"8X c #7F97A1",
"9X c #7FBAF4",
"0X c #66CAFF",
"qX c #77E2FF",
"wX c #5FC8FF",
"eX c #8D9D82",
"rX c #8C908D",
"tX c #98A989",
"yX c #9EAB92",
"uX c #93A884",
"iX c #A3AD96",
"pX c #A7B499",
"aX c #A3A98C",
"sX c #ACB7A1",
"dX c #B2BBA4",
"fX c #A0AFB4",
"gX c #F2918F",
"hX c #EEB48F",
"jX c #F5ACAA",
"kX c #DBBA91",
"lX c #F6C79A",
"zX c #FED198",
"xX c #FED7A7",
"cX c #FBCFAF",
"vX c #FFE8BC",
"bX c #FEEBAB",
"nX c #EBE19C",
"mX c #81BAF3",
"MX c #91EFFE",
"NX c #A6DEFE",
"BX c #FFF8C9",
"VX c #FEEAD7",
"CX c #FFFDD8",
"ZX c #FEE9C7",
"AX c #CEF9F8",
"SX c #FFFEE1",
"DX c #FFFEEB",
"FX c #FEFEFD",
"GX c #FEF9F3",
"HX c #FAE7E5",
"JX c #ECDAD2",
"KX c #BAC2AD",
/* pixels */
"J.( L.tXeXeXK.Y.$XeXU.B.{ E S.D.[ E { B.( | S.[ L ] A.| Y } A.( Y | V.Y | S.[ ] ( A.| ( S.D.[ ] { B.Y } S.[ L [ S.{ ( J.",
"` N.Y.sXiXpX%.eXKXsX$XR N.S._ } F.[ T _ { ' C._ ' } ( ) 9 + ; 9 U L [ { ' C.[ ' ' [ N.C.[ } F.' T _ ' ' A._ [ ` _ C.A.{ ",
"Y T P.pXpXsXL.Y.sXpXeX] _ C._ K Y { [ } Z.C.Z.Z.B.) 9 + k V V z + 9 I Z.S.C.Z.N.C.} _  .( L R [ { } Z.Z.Z.S.} C.} ( C.[ ",
"A.' } J.%XT.[ J.@X#XJ.Y L K } C.{ C.F.A.Z.Z.C.U 9 : g C C V V Z C h : 9 Y C. .` { U I L } N.` C.S.A.S.C.C.N.} | U I I B.",
"D.S.P.N.B.K.U.L.$.$.P.D.D.` V.H 9 I C.S 9 S 2 : b C N z > C h ; 8 Z C m : 2 S ( { { C.` } G.Z.} C.Z.` Y Y L ) ' [  .` B.",
"S.I.iX$XJ.Y.sXsXY.%.sXuXiXP.{ X   S U     + k N ^ N l ,   N ;   . l N ^ m k 7 9 ) H.I | Z.N.C.Y ( C.[ U U _ C.} } I ` S.",
"U.dXyXsXU.Y.pXyXY.U.iXtXsX$.O :.2.u X >.<.= , l V N , u >.# ;.i O k c V l N ^ k : 9 F T R _ Y ' Y I { Z.Z.F.Z.` _ I I E ",
"K.Y.P.eXJ.Y.yXpX@X%.pXiXiXP . 8.9.:.p 9.9.p ; k V m : t 9.  2.:.X j c C l m V C N j : 2 S }  .B.} _ } _ [ C.F.) }  .K [ ",
"G.N.N.Z.F.G.K.$.#.| L.K.$.9 O :.6.9.9.7.1.= : k V c < i :.% 2.;.X h l V l c V m l ^ V f 8 9 L  .Z.F.Z.` Y C.C.V.{ U I C.",
"B.V.H.N.) ' ` _ N._ Y K 2 : h X :.9.7.6.. : s g V . :.1.  7.9.i . , c V k c ~ c k C C N V c : 7 ] #.K. .R N.' R { Y [ V.",
"U _ Z.N.[ L T R Y K 3 7 j N m h . :.8.  : s , h M O   t 6.6.9.;.. h l V l c ~ c z m l z M Z l z 8 P #X%.T Y _ ( } S.} I ",
" .N.R Y N.{ R K 3 : g ^ V l v j : * t ; , s s g B O   = 9.9.;.; , s c ~ l c V l b g.b.@.@.g.-.@.^ h 7 w D N.C.L ( C.} [ ",
"G.S._ ( _ U 2 8 j B m V N k m v h : + , : : : , g .   . t i o O : ; , s , y V z +.4XO.-.-.O.O.3X^ l Z k 7 2 I I K ( C.S.",
"N.{ '  .D : h N ^ m l V m k B B h h h : - 5 5 5 5 5 5 5 4 4 - < 5 5 6 - 5 5 m l @.w   q q   q -.^ z c t.N j 7 I { _ Z.N.",
"[ I T ' + V N N ~ c l V N k C M k j ,   /.XX}.}.}.}.}.}.}.}.].'.'.|.}.}.XX/.  y +.O.q r q + w *.V z l V N N V ; N._ Y | ",
"A.] Y _ + V m l V c l V N k B V l h - /.].|.}.].|.}.].'.|.|.'.|.|.}.|.|.].'./.; e 3X3X3X3X3X3X=.C l c V c l V ; C._ Y A.",
"} Z.[ T + V c c V c v M m k B V , d !.OX}._._._.[._._.[.[.[._.[.[._.[._._.'.XXW.0 -.3X3X3X3X3X-.M l l V m c V # [ C.C.{ ",
"Y Y { ` + V c m V m l V m k B B O X.OX{.[.}.[._.[.[.[._._._.[._._.}.[._.[.[.}.OXX.w 5X3X5X5XrX-.M l c V l c V ; } _ N.| ",
"A.{ C.Z.+ M b c V c c V m k M V + X.XX[._.[.[.[._._._.[._._.[.[.[.[.[._.[._.[.XXX.q =.=.3X-.*.$.M l m V N l V # U I I | ",
"G.F.} C.+ V c c V c l V m j B . E..X[.}.~.^.'.[._.}.}.[.[.[._.[.[._._._.[.[.{.[..XE.  O.3XrXrX-.Z l l V b l ~ ; }  .} B.",
"S.N.U Y + V c c V c l V m j N   W.OX[.[.Q.^.|.[.|.~.^.}.[._.[._.[.}.[.[._._._._.OX!.  r +.*.*.+.Z l c V c l V # { I } A.",
"{ Y ' Y + M c c V c l V m l b   R..X}.[.~.^.|.[.[.Q.^.}.[.[.[._._.[._._.[.[._._..XE.  < y h +.+.Z l c V N l V ; ) U I ( ",
"B.N.C.} + C c c V c l V m k b   R.OX|.).~.`.|.).}.Q.^.}._.[.[.}.`.[._.[.[._._.[..XR.  ; c l b N M l c V c l V + } } L [ ",
"D.Z.C.C.+ V c c V c l ~ m l c . R.XX'.[.~.^.|.}._.~.^.}.[._._.[.[.[._._.[._.}.[.XXR.  + v C z z ~ l c V m l ~ # _ I U B.",
"B.} B.C.+ V b c V m j M M l B v - . ! vXBX! ! BXbXZX,X)._._.[._.[.[._._.[._.[.[.XXR.  O j N k B ~ l c ~ c l V ; J.#._ B.",
"U ) A.} @ V c l V l l ~ m j C v , $ e CXDXe e GXVXGX<X)._._._._.}.[.[.[.[.[._._.XXR.  ; v c k N V k c ~ c l V : P.K.} I ",
"A.C.Y Y + C m l V m l ~ m j C m y : w BXCX8 e SXZXVX,X)._.[.[.[.[._.[.[._._.[.[.oXR.  + k B k N ~ l c B b l V : %XJ.| [ ",
"D.S._ R + V l N V c l V m l C M g ; O.BXCXO.! VXcXVX1X).[.}.[.[._.[.{.[._.[.[.[.XXR.  + v c j m V l c ~ b v V : iXuXN.S.",
"| ' { } + V c c V m l M m k B B O b.DXvXZXBXcXM.6XVX1X)._._.[._.[._.[.[._.[.[.}.XXR.  # j B z m ~ l c V c l V ; B.K.S.B.",
"[ T Y [ + M c c V c l V m k M M O &.GXCXSXCXvXcXcXVX,X).[._._.[.[._.[.[.[.[._.{.OX!.  + v b k b V l c V c l V # ` Y ( | ",
"..( Y _ + V c c V c l V N l C V O U.BXm.m.jXCXBXZXGX<X).[.[._._._.[._.[._.[.{.OX!.d ; > v b k m V k c V N l C ; C._ Y A.",
"N.D.{ T + V c c ~ c l V m k V C O @XZX5.2.>XCXVXVXxX+X)._.[._.[.[._.[.[.}. X.X/.0 O : , j B l b V c l C c N C # _ N.C.| ",
"U ( ' ' + V c c V c k V N l N z O U.vX7.6.gXBXbXvX|.'.}.'.}.'.'._.}.}.}.{.{.{.5 ; 8 , , s b k M V l b V N l ~ ; } _  .| ",
"B.[ C.S.+ V c c V c c V b g f z j ; n SXBXDXnX XXXXX.XoX.X.X.X.X.X.X.XOXE.  X 8 , 8 h s z y g c ~ c l V c l V # Y I I } ",
"G.Z.} C.+ C l N ~ m z l g z C b c s 7 O.O.O.x a a 5 - 5 5 5 - 6 a a a Q 0 b x ~ b x s v N N z g l z m ~ N l V ; } } } B.",
"S.C.Y ( + V N N N j g g N C V ~ ~ p.~   X   X   X x O.O.O.! @.r         o ! ~ / p.d.d.^ V V V c g g g C b l V ; } I } S.",
"| Y [ Y @ V c g z z c B V l y N ^ d.h * * . . % o >X:X*X*X*XlXy.. %   . = * h c V s.h.^ C f l V C c z g z c V + _ I I ( ",
"} } C.}   f c z k N c N z k b.l.f.; = 9.9.* = 9.7.2.2.3.6.6.6.7.9.8.  ;.9.2.  O.g.B f f.l.b.k g m c B k z m f . } } K [ ",
"J.Z.C.S.F . ; g V b ^ d.z k.xXxXhX: * 8.9.* * 9.6.4.gXFXFXFXq.6.8.7.  ;.9.1.  =XlXf.z hXzXlXn.z a.t.Z Z g ;   9 ' U I A.",
"C.V.N.C.( S @ O ^ s.l.n.V -X;X=X-X, * 8.9.% * 9.6.jXgXq.m.m.JXM.6.6.  ;.9.<.  s.=Xs.m -X=XkX-XV z.h.p.@.O @ S Y { Y Y N.",
"U _ C.N.( G S @ / v.z.x.Z y g f g , * 8.9.% * 9.6.gXgXm.m.m.jXM.7.3.  ;.9.<.  : y c m g y z y c x.j.v.p.@ H L ) ` Z.} U ",
" .C.( Y } K J 2 @.a.h.z.m s.f.f.g.> % 8.9.* * 9.6.2.gXFXFXGXm.3.7.6.  ;.9.<.  x @.^ m g.f.f.g.N j.j.a.t.2 U L J ( C.} [ ",
"D.S.' ) Y T I 1 t.a.h.j.V kXxXxXlX< * 8.9.% * 9.3.FXgX2.3.2.HXjX6.6.  i 9.<.  g.kXf.c lXlXlXhX~ h.h.d.t.# U L K K ) C.S.",
"N.{ [  .J J ( # ^ a.j.c.g t.hX;X=X: * 8.9.% = 9.3.0.jXFXHXGX6X4.7.6.  ;.9.<.  @.-Xa.c =XkXhXs.h z.j.a.t.2 D K { { [ Z.B.",
"[ I Y ' ) F I 2 / a.l.x.M < l N c ; * 8.9.% * 9.3.3.m.jXgXjX0.2.7.6.  i 9.<.  , j g y c c l < m x.j.a.t.7 J S Y N._ Y } ",
"A.] Y _ V.F J 2 / a.h.x.k.V l N c 8 % 8.9.% = 9.6.7.6.3.7.6.3.7.8.7.  ;.9.>.  , j N V c m l Z k.x.h.a.t.1 D S I C._ U A.",
"N.D.[ T Y L K # / a.h.k.z.x.n.x.h.x y 0.0.= * 0.4.5.5.5.4.4.4.4.0.6.  ;.0.5.$ v f.x.x.h.x.x.n.z.c.h.a.@.2 ] K ' _ C.C.| ",
"U Y [ [ { H H : / a.h.z.k.z.z.z.8 &.CXZXBXx o.NXmXmXmXmXmXmXmXmXmXmX. #XSXBXBXe v z.k.v.k.z.k.z.z.h.a./ > rX$.J.| ( N.} ",
"A.} C.D. .J J 2 p.a.h.z.k.z.k.j.: =.CX:XGX! o.qXwXwXqXMXMXMX0X0X0X0X  aXCX;XCXe x j.j.v.k.z.j.j.x.h.d.t.7 *.U.@X] I L N.",
"J.C.} C.Z.) S # p.a.s.x.x.z.x.x.7 #XCX(.bX6 o.AXAXAXrX2X4X2XfXAXAXAX  &XzX*XDXe x l.z.h.x.x.x.x.x.p.p.a.w #XiXP.' ` } B.",
"S.V.Y U ` } _ 2 b d.s.j.z.z.z.k.h +.nXv.y.O ! cXhX*XA . .   r.:XcXhXX d y.&XnXw v a.h.v.k.j.z.z.j.p.a.B e I.I.L.} I [ S.",
"B.J.R [ %.J.I.P.9 8 > > , , > > > O     X   t 9.6.>.= O >   p 1.6.3.& . .     X ; : 7 > > > > > 8 8 8 9 N.C.C.| [ U I R ",
"L.pXY.$X@X@XiXdX@X] T.%.J.O.%.rXU.P 3 P O.# Q XX'.).W   $ X r.).]._.@ 1 9 2 3 9 3 F L S J U I Y I K I R [ B.Z._ `  .L [ ",
"K.pXdXdXU.uXiXiX$X%.iXiXiX$.L.iXyXT.P +.+.w d u.u.u.u @ S $ ,.u.u.u.o 9 F 9 D D K T U I C.G.C.C.Z.F.D.` Y C.C.} ' U I C.",
"S.@XyX$XD.K.yXtXJ.J.eXuXyX#.K.yXeXY.( $.O.2 p 2.>.:.* $ D   t :.1.>.u 4 S F J J K Y T Y _ ' [ } C.) Y _ R } { _ { Y E V.",
"] #.S.} C.` J.J.{ { $.J.J.[ U.sXL.} ` T X W e.Q w.Q 5 @ L   a Q W W r.d $ K T Y #.%.L.| #.@XJ.} ..#.$.%.| R _ Y { D.} U ",
"C.N.Y Y } N.' [ J.%XyXK.R yXKXsX$XY H   w.e.w.w.w.e.5 @ I   a e.e.w.w.r.a X ` K.dXpXdX@X@XdXyXY.%.iXpXtXJ.B.C.L ) C.} [ ",
"D.C._ R _ } { | yXyXpXL.K tXY.P.@XJ.H   o & o o o o @ S U I o o o o o - O X ` J.yXyXyXU.@XyXpX$XL.yXyX@XC.C.[ I L ) Z.S.",
"V.{ { } L _ S.A.yXpXdXU.T J.Y.{ E ..( 2 3 3 2 1 1 1 3 S U Y 3 1 1 2 @ 1 2 9 T $.iXiXpXY.Y.iXpXuX#.$XdX$XJ.N.} N.R _ C.N.",
"{ Y E } | Y ..D.L.U.U.K.E [ L.] Y R | ( G G J F 3 F H H U ] H F S F F 9 J K H U %.L.#.#.#.$.$.$.#.P.U.Y.J.S.[ ' B.[ { .."
};
