/* XPM */
static char *_d453a5584074e1baf4e62c09458af9b8Mbsn8YJcUDIZZcC[] = {
/* columns rows colors chars-per-pixel */
"60 60 222 2 ",
"   c #5E2200",
".  c #592705",
"X  c #662A03",
"o  c #6C2D01",
"O  c #662F0B",
"+  c #662A05",
"@  c #702E00",
"#  c #663001",
"$  c #6D3304",
"%  c #63330E",
"&  c #6B330B",
"*  c #6E390B",
"=  c #723405",
"-  c #743B05",
";  c #74360B",
":  c #743A0C",
">  c #7A3D0C",
",  c #7F3905",
"<  c #673410",
"1  c #6C3612",
"2  c #6E3B14",
"3  c #723D15",
"4  c #7B3E12",
"5  c #743E19",
"6  c #793F1A",
"7  c #7A410E",
"8  c #7B4109",
"9  c #764214",
"0  c #7C4214",
"q  c #7B4816",
"w  c #75421D",
"e  c #7C441A",
"r  c #7D4A1D",
"t  c #7C4423",
"y  c #7D4A24",
"u  c #7D4C2B",
"i  c #754525",
"p  c #823D0A",
"a  c #853E12",
"s  c #86450E",
"d  c #824414",
"f  c #8A4615",
"g  c #834A14",
"h  c #8B4B16",
"j  c #83461A",
"k  c #854A1C",
"l  c #8B4C1D",
"z  c #934E1B",
"x  c #974C18",
"c  c #85521E",
"v  c #8C521D",
"b  c #92521D",
"n  c #9A501F",
"m  c #834C23",
"M  c #8B4E22",
"N  c #854F28",
"B  c #8C4D29",
"V  c #874522",
"C  c #934F21",
"Z  c #855126",
"A  c #8D5223",
"S  c #8E5824",
"D  c #86552C",
"F  c #8C542B",
"G  c #8E592B",
"H  c #925424",
"J  c #995624",
"K  c #945A25",
"L  c #9B5B25",
"P  c #93552A",
"I  c #9A562A",
"U  c #945B2C",
"Y  c #9A5C2C",
"T  c #845433",
"R  c #8C5533",
"E  c #8D5A34",
"W  c #8E5C39",
"Q  c #8B5838",
"!  c #955632",
"~  c #945C33",
"^  c #9B5E32",
"/  c #955E39",
"(  c #9A5E39",
")  c #A45B25",
"_  c #A95C26",
"`  c #A25E2C",
"'  c #A95D2C",
"]  c #A05F39",
"[  c #9C622D",
"{  c #9D6234",
"}  c #9E6934",
"|  c #97623A",
" . c #9D643A",
".. c #9E693D",
"X. c #966234",
"o. c #A2632E",
"O. c #AB622E",
"+. c #AA692F",
"@. c #A36434",
"#. c #AA6434",
"$. c #A56A36",
"%. c #AB6B36",
"&. c #A3663A",
"*. c #A96639",
"=. c #A46A3C",
"-. c #AA6C3C",
";. c #B36B35",
":. c #B26D3B",
">. c #B96D3E",
",. c #B26635",
"<. c #A6723C",
"1. c #AD713D",
"2. c #B57236",
"3. c #B3733D",
"4. c #BB713C",
"5. c #B77A3D",
"6. c #BB7B3E",
"7. c #9B6642",
"8. c #9D6942",
"9. c #9D694A",
"0. c #976240",
"q. c #A46641",
"w. c #A46B43",
"e. c #AB6D42",
"r. c #A36D4A",
"t. c #AB6F4A",
"y. c #B36F41",
"u. c #B56F49",
"i. c #A67143",
"p. c #AC7244",
"a. c #AD7944",
"s. c #A7714C",
"d. c #AB754A",
"f. c #AE794D",
"g. c #B37443",
"h. c #BB7543",
"j. c #B57A45",
"k. c #B97A45",
"l. c #B3764A",
"z. c #BB754B",
"x. c #B47B4B",
"c. c #BB7D4C",
"v. c #AE7B51",
"b. c #AF7752",
"n. c #B47C53",
"m. c #BB7E52",
"M. c #B27C59",
"N. c #BB7D5A",
"B. c #B27755",
"V. c #C47B45",
"C. c #C27D4A",
"Z. c #CA7E4A",
"A. c #C47844",
"S. c #C37E52",
"D. c #B68145",
"F. c #BE8246",
"G. c #B7824D",
"H. c #BC824C",
"J. c #B8884A",
"K. c #B68153",
"L. c #BD8353",
"P. c #BD8A53",
"I. c #B6835A",
"U. c #BC845B",
"Y. c #BF8B59",
"T. c #BE8961",
"R. c #C3824D",
"E. c #CB834C",
"W. c #C58A4E",
"Q. c #CC8B4F",
"!. c #C38454",
"~. c #CB8453",
"^. c #C48A55",
"/. c #CB8A54",
"(. c #C48559",
"). c #CB8659",
"_. c #C58B5B",
"`. c #CA8C5B",
"'. c #D18452",
"]. c #D38B54",
"[. c #D28759",
"{. c #D38C5B",
"}. c #DA8B5C",
"|. c #C69155",
" X c #CB9157",
".X c #C6925C",
"XX c #CB925C",
"oX c #CF995B",
"OX c #D39256",
"+X c #D3925D",
"@X c #DA935C",
"#X c #D19A5D",
"$X c #C48C62",
"%X c #CC8E62",
"&X c #DB8E62",
"*X c #CD9363",
"=X c #CC956A",
"-X c #CC9666",
";X c #D29463",
":X c #DA9662",
">X c #D39A64",
",X c #DA9B65",
"<X c #D3956A",
"1X c #D59A6A",
"2X c #DA9C6A",
"3X c #DB9F75",
"4X c #D59E75",
"5X c #E59766",
"6X c #E19E71",
"7X c #D5A163",
"8X c #DAA264",
"9X c #DCA36D",
"0X c #D7A068",
"qX c #DDA372",
"wX c #DEA87D",
"eX c #E2A56E",
"rX c #E2A473",
"tX c #E2A578",
"yX c #EBAC7D",
"uX c #E6AA75",
"iX c #F1B579",
"pX c #F3B989",
/* pixels */
"m N w =XwXpXt.U j &.).S.S.z.I I R w O ~ ~ e j g.).c.!.g.R.H.K !.c.!.H -.!.-.Y Y g.d 7 -.-.-.{ g.g.3.J o.@X`.`.R.~.+X+X;.",
"N r F ..&.e.U m.;Xm.).).~.{.~.c. .y w 6 m M o (.c.j.c.R./.1.g Y g.@.o > I Y j.`.2X1X-.l H @.P %.3.%.h %./.R.C.{.{.~.@XA.",
"x.@.m.e.e.P 4 Y !.C #.[.[.~.~.!.$Xw.5 e U F 0 I )./.!.!.k.-.$.-.j.g.{ @.p.g.;X1X`.2X*Xc.1.Y > J J h @ %.+X+Xh.E./.3.C.;.",
"` Y !.R.:Xg.z p :.O.#.O._ V.@X{.=X8.F d.x.(.`.@.> l -.-.$.g.c.c.c.!.!.$.{ -.>X`.`.c.`.;Xp.Y [ j.c.%.h +././.h.R.R.C.{.C.",
"z ;.A.~.:XV.;.x '.'.A.;.O._ ;.A.{ m $X*Xc.>X`.!.J p Y b l -.1.!.c.c.c.$.@.g.2X1X).c.c.$.@.!.2X>X2X,Xk.b Y o.:./.:X,X+X%.",
"V.5XE.].].V.A.) ;.Z.A.E.Z._ f p $ U *X_.L.k.j./.R.J k.c.-.@.0 H @.l A I Y Y 1.p.@.g.@.d x.rX2X`.XX;X`.o.%.L J o.3.3.%.f ",
"Z.E.4.V.].Z.E.4.x V.Z.;.;.Z.A.p X { H.^.XXk.`./.h.J #.$.P l j @.g.{ A l d A Y -.{ =.I = @._.`.*X2X,X2X;X,Xg.f f h > #.3.",
";.O.4.h.].V.~.@X;.O.;.~.C.h.~.%.> g XX!.k.c.k.g.` %.h.@.H H e.%Xg.!.x.Y d ^ =.g.g.g.g.0 0 -.>X*X2X`./.eX,Xk.b C.R.f 3./.",
":Xh.h.C.h.~.,X{.:.J %.c.c.R.!.c.H $ g K s h J l s l 1.I H M e.*Xm.x.-.=.d A I k H I l = $ d ^ `.;X+X2X;Xg.c.3./.g.g.!.#.",
":.h.!.`.`.).!.c.-.Y ^ g.@.c.c.L.g g 1.D.1.R.;X+Xk.Y l > j { m.%XL.x.-.=.M @.-.^ = : l j 0 = : A !.;X!.k k.%.).c.!.` C.`.",
"c.!.g.@.@.P k l A Y Y p.P =.Y H - [ 0X0X^.;X2X+X2X!.$.A H $X1X%X*X_.n.w.A { p.=.M k p.=.{ M S H @.g.f = j.`.g.g.!.%.o.+X",
"j 4 4 M ^ ^ k 4 P c.m.`.g.x.{ A 0 <.1XXXj.^.`.`.H.*X`.{ j _.3X=XY.L.L.&.k { d.x.U k x.=.=.&.m.p.@.[ 1.- c.^.%.!.1.H.@ f ",
"M ; k l.(.!.g.I -.1X2X>X>XXX`.H.U <.-X>X_.^.L.H.c.>X*X{ : i.=X4X_.L.L.{ U e.m.Y.p.A x.l.p.{ p.{ g.1.g.: J ).c.c.^.`.H l ",
"e.j M -.@.{ ` l @.,X>X`.,X+X:X`.a.} G..X_.^.H.x.L.L.p.k & m ~ d.x.} { 0 P l.x.x.p.; P p.l.U &.p.@.-.f Y v c.`.R.c.b g.-.",
"^ H I -.g.j.g.@.J :X/./.@X].~./.L.c c S S =.x.L.U X.A # * 3 1 9 M : 4   k p.d.p.L.0 0 S A 0 0 k v Y $.1.j.d `.XX[ h g.$.",
"@.@.I J g.c.:.` z +X3.R.R./.R./.x.9 0 Z 7 k l 0 k =.p.0 ~ w.....=.{ &.: S p.e.p.{ : : k H -.p.1.-.@.I P $.H Y H j j.@.I ",
"L o.:./.%.g.3.H $.k.j.H x.!.c.x.=.* U &.&.^ Y @.{ l.M { p.x.n.d.x.x.x.A : H { U d { x.(.`.!.c.k.j.p.p.l { L.M 4 l.=.U ^ ",
"Y :.C.R.b > Y k.x.!.*X_.Y H { &.q k x.x.l.&.@.m.Y l.@.&.e.p.x.L.d.d.=.&.p.{ o   P L.`.j.g.H.c.3.g.(.e.0 A U j e.l.t.U ^ ",
"J !.rX2XR.P -.`.).!.(.`.&.k =.d.} q p.m.e.e.e.^ &.e.Y H g.x.d.d.I K =.L.*Xx.j ; @.!.*X!.R.R.c.j.c.@.A P &.e.@.P ~  .F &.",
"-.c.L._.XXH A 1.!.!.x.x.*XI c._.p.e &.L.g.-.g.l.!.e.P : ^ { U A k : p.-X_.`.m.P g.(.%X_.!.!.R.!.@.K %.`.(.m._.&.j F k p.",
"_.x.g.(.;Xk l c.g.L.c.p.x.l p.x.x.=.A U c.g.C &.^ P M X = : M [ g.v 1.XX_.-Xx.0 ^ !.%X!.(.).j.I J k.k.!.(.x.(.L.j F P $X",
"L.%X_.d.^ 4 M &._._.c.L.M @.`.L.p.$Xx.S ; > M l.-.-.=.H j U _.1XXX1.{ $.x.p.k 4 j ^ &.-.l.g.^ l R.R.3.3.j.c.(.&.e A G _.",
"$X=Xn.U : k U e &.{ A P X -._.c._.L.L.=.o Y ;X%X_.m.-.=.k ^ *X_.L.j.[ g l A k U { H k M P A H @./.k.H.^.g.c.L.U e M m F ",
"F 2 $ ~  .d.} $ 4 A A d 0 p.c.H.L.L.L.L.H -.%X%X_.m.e.x.A &.qX_.XX^.H.K k =.x.p.-.p.e.&.^ P j d o.+.o.$.H.j.P e U } ~ m ",
"n.e * } w.~ j U x.L.^ { A &.c.x.m.x.l.L.M l.%X_._.c.m.m.j c.-X^.XX_.K.{ { L.x.-.p.e.p.=.&.w.^ M L [ $.o.g.j.L. .d.f.n.v.",
"d.Z A p.p.} M w.L.(.`.c.p.A =.x.L.Y.L.g.P &.S.(.<X%Xl.H : p._.-X-XL.x.{ { x.j.x.=.x.e.^ p.&.M ^ g.j.k.1.1.=.i.i.d.d.d.d.",
"} { x._._.x.k { l.c.1X1X1X=.Y p.l._.m.{ P P ` c.&.&.l 4 P x.x.-X$X-X_.U U x.G.p.p.L.=.^ e.^ B =.p.j.x.x.p.=.m | | 8.r.d.",
"d.p.c.g.x.x.M &.c.;X*X(._.;XA > S { k A -.^ = 4 4 d = o { L.x.x.d.L.x.U ~ L._.x.x.=.U P M A e.n.x.a.x.x.K.n.e D 8.w.r.8.",
"@.g.j.=.-.x.H $.^.2X_.p.x.1XY 0 ^ { A k -.M d @.(.!.g.A { _._.x.f...U X.=.=.&.$.U v > 0 3 0 { =.x.f.f.d.v.n.5 w b.M.s.E ",
"J k./.R.g.g.I I *Xc.`.*X1X-.{ c._.x.L.A =.j c.6X1X(.!.x.{ ^ F ~  .~ m G { U A 0 A x.-.p.x.F j A f.v.I.K.n.s.w 5 5 y y w ",
"%.{./.!.%.%.$.J 2X_.*X1X(.k { *X*Xd.l.U &.e.%Xm._.c.m.3X(.&.q ^ r F m R p.K.x.S k ^.L.c.x.k $ * m r D D D w < < w t R 7.",
"$.~.C.`.c.l.-.d m.tX(.U $ ^ _.(._.L.x.e.$ e.<X%X_.>X!.;X`.;X{ =.{  .{ x.-X>XoXa.[ x.g.p.A 0 {  .W 2 % 2 y 2 E 0.r.| 7.M.",
"P -.m._.N.n.F m m w.~ &.0 ^ -.{ L.m.!.A 4 !.rX_.>X).;Xc.g.!.>Xg.j A g.>X#X|.^.J.g v S - $.1.H.x.I.W w W | Z | 8.r.9.Q T ",
"0 k P d.I.U.F w / b.I.U.e.=.-.{ (.=.^ 4 ; @.c.l.).!.%X;X;X`.+X`.H &.XX#XJ.W.|.D.$.$.$.=.P.D.j.G.I.7.2 Z r 3 | w.r.9.u 1 ",
"^ P q 0 m ~ Z | U.$X=X_.(.-.A j j 4 j d 4 l &.;X;X;X).%X>X`.!.>X{ { _..XD.|.XXXXY =.d.(.L.H.j._.n.W 2 F Z A e : m 6 6 / ",
"=.x.p.U : * : i.1X$X%XL.1XXX@.P Y g.(.S.*.a d -.(.%X!.`.).>X).`.e ~ *X_.H.>XD.K U p.x.L.m.L.H.n./ i D n.L.=XM > U P e.tX",
"1.;X1XP.U 7 : a.-X*X_.(.>X2X%.Y y.{.&X{.).:.I H -.e.m.*Xp.p.@.A O & =.*X.Xa.A S x.n.N.l.N.x.p.U 3 5 F $X_.*X[ v I @.y.`.",
"XX9X>XXXG.} k a.L.XX*XXX(.H.Y b [.5X&X~.).C.*.C I M -.L.P q j 0 m 1 : U X.7 A *XL.n.(.U.n.w.e.&.F 8. .wXuX1X`.1.!.y.:.!.",
">X0XXX>X9XP.k X.L.(.;X;X_.g.c.j.[.5X&X}.{.~.~.c.I l H Y U ~ p.n.d.T.r . # 7 } x.m.m.N.n.&.g.m.(.F F { -X9X>X+X/.`.@.*.6X",
">X>XL._.1XL.A { 1X_.%X_._.&.%X).'.}.'.}.{.C.S.c.*.Y k = ~ p.L.n.U.$Xq q X.g v $.x.p.M j ; l.x.@.^ e m.c.j.R.%.,X`.&.&.1X",
"L.d.x.p.l.&.k -.;X_._._._.^ &.m.}.'.5X}.>.#.>.` H H j =.^ ..n.d.K.d.k <.D.j.$.g v 0 : 0 0 A { @.0 M !.!.3.%.R.2X%XU.~ r.",
"x.} =.d.x.P : { %X_.$X<X(.j M %X{.].Z.,.>.#.I d l 4 $ e.d. .w...x.{ A P.>X7X|.<.g I =.U U =.$.> : j _.2X X$.Y &.Y.s.t u ",
"~ | &. . .P j P ^ ^ e.m. .j k ^ L >.) ' #.%.h J l.l.k { } } L.d.d.S U XX#X8XoX^.j.j._.H.L.H.D.v { { _.XXH.v 7 A m 2 . i ",
"w F ~ B j j P ^ c.=.m.(.P e.-.j h z f J #.` I c.1XtX&.P m 0 } ^ { k @.1X#X8X7X0XqXL.XXL._.K._.{ { &._._.1.> $ q m 2 % i ",
"/  .q.d.^ P !.2X;X!.R.H.g.9XuXuX1X-.g.o.c.-.;X>X>XqXl.x.e.$ : 0 4 X P ;X#X9X9X9X-XL.-XK.*XY.K.k 9 R x.p.K - c { =.F m W ",
"/ w.w.n.Y I >X2X+X2Xk.f $.1X!.`.2XXX^.c.K j.;X_._.1X(._.;X^ A ^ m 6 k g.g.^.XX_.x.p.f.f.U.i.U * y T | Z $ : D.*X1X_.N.N.",
"8.d.p.x.Y @.yX2X,XuX+Xb 5.iXeX9X*XqX-X_.g H.*X_.c.>X*Xc.%X&.P e.q.u.] =.H Y p.d.&.~ F F | Z r y Q T W m : c >X;X_._.!.g.",
"n.w.^ m.{ J uXuX,XF. XL v j.2XuX1XK.x.9 7 k l.&.m.%XqX*X;Xj   P B N.l.e.d - H I U p.~ 9 m X. .8.9.u y r 9 U qX;X1X2X_.-.",
"B.N.d.m.g.H !.c.$.l.1X(.j.-.8 H v 0 q A w.~ ! ~ d.~ n.{ j d x.=.t R ( M l k.#XR.|.|..Xa.q =. .x._.*Xx.$.g Y 2XXXrXXX1X^ ",
"B.q.&.} H > H H ; l.3X;XtX_.H $.c.=.S e w.d.t./ t 1 m U ^ x._.} m Q m M c.,XOX#X#XJ..XP.k U X.p.!.>X!.3.[ K k.^.*X1XqXp.",
"( ~  .0 k g._.L.e.^ &.(.yXg.Y !.=.x.x.A ~ w.w.F & m l.%Xm.c.!.m.$Xm + p.pX8XF.8X|.P.x.c q x.x.j.j.oX^.j.1.K o.;XrX9X_.{ ",
"l.L.p.> [ XX>X(.%XP e j U l c.j.p.d.{ 0 A { { k 0 d ^ m.).L.c.(.d.3 $ @.`.:X,X>X.XP.} 0 G =.p.tX_.>X1X^.-.g f c.$.H : j ",
"U.L.U A `.^.L._.m.P B B M d !.c.l.p.{ e k k -.!.x.I H P !.~.!.e.P ~ &.$.$.R.>XXXL.U 9 r =.x.c.`.*X_.qX>X$.g v 1.g.Y 0 l ",
"&.{ 0 v XXXXXX>X-.&.( e.m.M Y -.l.F e U L.!.^.+X,X+X/.` h.h.u.f @.*X;X^.{.C.@.U M ~ n.d.e U ^.XX_.H._.L.H H c./.2X;Xc.I ",
"x.[ { { j.x.p.&.P e.q.( q.Y l 4 m e A p.1X`./.+X/.Q.E.O.' #.#.a H ^. XH.+X{.P o w.n.I.T.F k Y j.L.L.l.&.g Y ;X X;X2XyXL.",
"*Xk ^.9XoXL.&.U  .^ t.N.&.H I @.P m m U !.R.W./.].OX@XV.n J z.{.%.[ 5. XR.#.Y P O B.~ m A U - g U e.{ Y H %.rXXX9X;XqX&.",
"k > H.9XXX.Xp.=Xw.m ! ! P ^ C.g.&.w.d -.c.j.W.OX@XQ.2.) ' ' >.}. X5.s 8 ` 3.(.%X .+ 5 d.x.p.o.K 4 k M : : !.rX5.c.9XtXU ",
"x.{ L.9XXX_.x.=X .e 6 M z.z.C.z.@.e.A Y c.;X,XQ.2.+.) ;.'.E.h.h./.F.[ L h.R.).(.%XF N t.p.g.c.H.L.@.0 : d J o.%.H.`.`.K ",
"g.I $.>XXXK.d.x.( q.! ! (.c.:.h.e.e.&.k -./.R.;.L 2.V.E.Z.;.>.{.W.W.2.6.OX{./.(.<X .~ w.=.-.R.!.!.z.H l g.c.g.!.v k k $ ",
"{ v A >X0XP.K.p.&  .&.V e.g.:.4.S.&.l.j H J b J R.E.E.V.A.;.:.].W./.5.6.].]./.!._. .F &.&.@.5.3.-.S.&.H ~.,X`.^.;Xg.U 0 "
};
