/* XPM */
static char *_fc56ca90dd549f6f1df58f5c1f2cdf70Ynbech6e60Nxc8t[] = {
/* columns rows colors chars-per-pixel */
"60 60 244 2 ",
"   c #5C7C02",
".  c #5A7806",
"X  c #627D01",
"o  c #627E0E",
"O  c #5E8301",
"+  c #5C8C01",
"@  c #568201",
"#  c #5F9000",
"$  c #648402",
"%  c #6A8502",
"&  c #648B02",
"*  c #6B8C02",
"=  c #6D8C0A",
"-  c #66860C",
";  c #728D02",
":  c #708E08",
">  c #659201",
",  c #6C9402",
"<  c #6D9A02",
"1  c #6A930A",
"2  c #6E9C0A",
"3  c #659901",
"4  c #739402",
"5  c #799503",
"6  c #739C02",
"7  c #7B9C02",
"8  c #749B0A",
"9  c #7A9B0C",
"0  c #73940C",
"q  c #6C8D12",
"w  c #688818",
"e  c #738D16",
"r  c #6F9118",
"t  c #739412",
"y  c #749A11",
"u  c #7B9C12",
"i  c #77971B",
"p  c #6EA102",
"a  c #6EA108",
"s  c #75A202",
"d  c #7CA302",
"f  c #75A901",
"g  c #7DAA01",
"h  c #7CA30B",
"j  c #7DAB0A",
"k  c #75A30B",
"l  c #7DB201",
"z  c #75B000",
"x  c #76A313",
"c  c #7CA312",
"v  c #7FA618",
"b  c #758A29",
"n  c #7A942C",
"m  c #7A9726",
"M  c #7B8B32",
"N  c #7A8C3A",
"B  c #7C9234",
"V  c #7E9935",
"C  c #6F8F20",
"Z  c #7FA323",
"A  c #7EA532",
"S  c #7B8A44",
"D  c #7F924A",
"F  c #819F02",
"G  c #809D0F",
"H  c #829D1A",
"J  c #839C16",
"K  c #82A502",
"L  c #84AB02",
"P  c #8BAD03",
"I  c #82A40B",
"U  c #85AA0B",
"Y  c #8AAD0B",
"T  c #8AA605",
"R  c #90AC05",
"E  c #84B301",
"W  c #8CB302",
"Q  c #86B901",
"!  c #8CBA01",
"~  c #83B20A",
"^  c #8CB30B",
"/  c #8FBC09",
"(  c #92B502",
")  c #99B603",
"_  c #94BB02",
"`  c #9ABD02",
"'  c #93B50B",
"]  c #94BA0B",
"[  c #9ABC0C",
"{  c #99B70A",
"}  c #84A413",
"|  c #89A413",
" . c #82AB13",
".. c #8BAC12",
"X. c #8BA51E",
"o. c #8CAC1C",
"O. c #84A51A",
"+. c #91AD16",
"@. c #83B212",
"#. c #8DB214",
"$. c #82B51C",
"%. c #93B412",
"&. c #95BB13",
"*. c #9BBB14",
"=. c #94B31B",
"-. c #9BBC1B",
";. c #98B717",
":. c #A0BF02",
">. c #A2BF17",
",. c #829A27",
"<. c #829A33",
"1. c #899C33",
"2. c #859A3B",
"3. c #85A323",
"4. c #8BA424",
"5. c #86AA22",
"6. c #8CAB23",
"7. c #8AA42D",
"8. c #89A72A",
"9. c #92AC23",
"0. c #94AC2C",
"q. c #91A52D",
"w. c #8DB326",
"e. c #9AB525",
"r. c #9CBC22",
"t. c #9AB52B",
"y. c #9EBA2A",
"u. c #94B326",
"i. c #8DA333",
"p. c #8CA23B",
"a. c #8BA833",
"s. c #94AB33",
"d. c #94AB3B",
"f. c #94A638",
"g. c #9BB436",
"h. c #9CB33D",
"j. c #99B636",
"k. c #A1BA29",
"l. c #A3B63D",
"z. c #A6BC3A",
"x. c #8EC100",
"c. c #95C101",
"v. c #9CC201",
"b. c #9CC20A",
"n. c #97C00E",
"m. c #9EC412",
"M. c #9CC21B",
"N. c #A2C302",
"B. c #A5C803",
"V. c #A2C60C",
"C. c #A3C413",
"Z. c #A3C11B",
"A. c #A9C817",
"S. c #A7C529",
"D. c #AEC43C",
"F. c #A8C335",
"G. c #8B9D43",
"H. c #889746",
"J. c #929E47",
"K. c #8C9852",
"L. c #959D59",
"P. c #858F48",
"I. c #8EA545",
"U. c #94A645",
"Y. c #92AB44",
"T. c #9BAC45",
"R. c #92A44B",
"E. c #9BAB4B",
"W. c #98A74A",
"Q. c #9AB149",
"!. c #95A554",
"~. c #9BAB53",
"^. c #9AA65A",
"/. c #9EAC5A",
"(. c #95A856",
"). c #9DB358",
"_. c #A9BC42",
"`. c #A2B34A",
"'. c #AABC4D",
"]. c #A4B947",
"[. c #A1AE59",
"{. c #ABBC53",
"}. c #A4B35A",
"|. c #A9B959",
" X c #B1BC58",
".X c #979B71",
"XX c #9BA463",
"oX c #9EAA64",
"OX c #9DA569",
"+X c #9FB060",
"@X c #A3AD63",
"#X c #A5AC6D",
"$X c #A5AA69",
"%X c #A5B264",
"&X c #A9B464",
"*X c #ACBA62",
"=X c #ABB46B",
"-X c #A8B36B",
";X c #B2BC6D",
":X c #B1BB64",
">X c #ACB473",
",X c #AEB678",
"<X c #B3BB74",
"1X c #B1B57A",
"2X c #B5BB7B",
"3X c #BABE7E",
"4X c #B3B972",
"5X c #A6AB75",
"6X c #ADC346",
"7X c #B4C34C",
"8X c #B3C354",
"9X c #B5C25D",
"0X c #B8C25B",
"qX c #AFC056",
"wX c #B9C46A",
"eX c #BBC474",
"rX c #BBC27C",
"tX c #B6C175",
"yX c #C3CE69",
"uX c #C3C879",
"iX c #CBD275",
"pX c #AFB285",
"aX c #B4B584",
"sX c #BBBD83",
"dX c #BCBD8B",
"fX c #B5B886",
"gX c #BEBF95",
"hX c #ADAF88",
"jX c #C3BF93",
"kX c #C1BDA0",
"lX c #BDC184",
"zX c #BEC28B",
"xX c #BEC094",
"cX c #C2C585",
"vX c #C3C48D",
"bX c #C9CC8B",
"nX c #C5C987",
"mX c #C4C394",
"MX c #CBCC93",
"NX c #C4C29C",
"BX c #CAC899",
"VX c #D3D496",
"CX c #CAC5A5",
"ZX c #D9D7A7",
/* pixels */
"-...9 <.oX,X2X2X1X!.2.(.%X>X,X-X`.=.P  .y u ;.C.[ | 9 y k j @.x t I &.*.| e - t U %...x y ..C.C.%.u y y h @.j t u #.[ %.",
"{ ^ U a.%XdX3XrXlX(.2.~.4XcXzX2X}.5.g ~ U U Y ' { { U 8 2 k j k 8 h ' ' I 0 4 9 I U ^ Y U Y ' ' { Y h 8 2 h j 8 9 U ] Y ",
"K L ! g.;XmXcXnXMX/.<./.lXVXVXvX-Xm 6 ! ` ( K 7 K ` _ s > > s g g d P ( K s d L K 7 L _ ) P 7 7 ( ` L 3 > < d g g L ( P ",
"1 > < 6.;XNXmXmXBX}.i.~.rXVXVXvX5Xm , L _ ( d * $ 6 d s 8 6 d W _ ( _ ` _ ! Q ! W L d P _ P 4 $ > d s 6 < 7 L _ _ _ _ _ ",
"y 1 , c j.:XrXzXfXT.| 0.&XzXlX<X~.i & * 6 d d 4 & > s L Y W Y _ N.N.v.v.v._ ! Q E 7 4 4 7 d 7 * & < g W W Y ( v.N.N.v.v.",
"#.Y d L W -.D.:X@X4.K ' d..XOXE.6.k & O   * L ! W d L _ ` ` ( _ _ _ _ _ W Y P L s > * $ $ 8 E W P L W ` :.) ) _ ` _ _ ( ",
"m.` ( #.^ ! [ r.f.7.4.X.,.S N 1.9.~ g d 4 6 L _ N.` ( ( ` N.` ! L d 7 7 ; * 6 s d 7 K T 7 d Q v.v._ W _ N.N._ W d 7 7 , ",
"V.v.m._.].&.! W 9.E.#X[.G.M b 2.{.F.S.F.e.Y W _ N.N.W d L _ ` W 6 * $ % $ & 6 d L L L T T W ! v.B.v.K d P ` _ K 1 $ - o ",
"] *.z.<XsX{.=.o.`.tXBXmX>XR.<./.mXeX;XrX{.=.Q ! _ _ K * * K _ W 7 * % * 4 K R W E g , * K ! _ _ _ W 4 & 4 P ( g 4 e M N ",
"j.{.lXgXNXvX!.2.^.2XBXMX<X~.p.+XbXcXsXmX=X7.8 s d 7 6 , * * 6 7 d T P P ( ` ` ( L 7 & $ 4 d L g d 6 < , & , 6 s L ..s.[.",
"`.;XNX2X3XmXXXD L.4XnXcX4X~.G./.cXsXsXmX#XB & 3 7 , 6 g 6 & & , L _ ` c.v.B.N.Y d 7 4 * $ $ 6 7 6 , g g 3 & & 6 W C.D.eX",
"h.].8Xz.'.<XE.i.E.4XmXNXfX^.H.XXjXjXmXNX$Xb & 6 Y L E Q L d 7 d K d s g W v.` K 9 P ( F $ $ 6 L L L Q Q g s 7 f U t.9XlX",
"r.-.*.&.;.y.-.>.Z.z.&X#X^.I.n G.=X*X&X5XP.q 7 Q v.` _ _ _ ( _ ` ] d , , P ` ` L d L K 5 $ > L _ v.` _ _ _ ( ( Q L s.1XdX",
"b._ Q Q ! _ ` N.B.[ X.n m H 9 i 7.6.Z M w = P v.v.v._ ( _ ` N.B.N.W , , W ` ( W g f , & $ s _ v.v.` _ _ ` N.v._ W 9.OX,X",
"&.^ L E ! ( T K P W L 2 k L d 6 a k 2 - O , g W Q Y W W ) ( K T ( W d s E W d s g g 3 & , d ! _ ( W W _ ) P P ' ' +.<.7.",
"c 7 K W _ ( F ; 4 4 6 3 < f f 6 < s f s 6 7 s d g K L W ( P 5 ; 4 7 6 6 f s 6 2 s g g d s 7 7 8 6 d W ( P J f.].7Xl.p.3.",
"q : 7 ( _ W K 5 $ X & 3 3 < s 7 , 7 P _ W L d d L P P W Q P K ; X $ > 3 3 6 s 4 4 K ( _ L 4 $ $ * d ! W 7 i.,XmXmXsX&XI.",
"G T T K 6 6 E E 7 4 , 6 f g L 7 * ; d ! ` ` ( ( ) _ P s 3 p E L 7 4 6 d g W P ; * 7 ( v.Y 4 * 4 T P L 3 & I.sXvXvX2X;X!.",
"*.[ ( d > > f Q Q L d U ^ ) ( 7 X $ 4 U _ v._ ` v.` L 1 - 2 ~ Q L d d L _ ` R ; X ; K W W L K ( ` _ d + + Y.cXnXcXrX<X^.",
"m.b._ L 8 < < s E ! %.0.k.Z.;.u o o r 3.;._ ! ! ! !  .V <.,.v s s s I Y [ ( K * O $ * d _ _ _ v.v._ g 3 , Y.lXbXbXcX2X!.",
"n./ E g K K * * K ! b.t.{.0XwX~.B H.XX2X Xy.@.f g ~ Q.-X}.d.,.m <.E.}./.[.q.d g s , > g ` c.! ! ! Q g d K i.OXaX3X=X^.V ",
" .h 6 6 L P 5 % 4 W b.-.'.sXBX2XR.(.2XCXmX=Xd.x x j.tXvXwXl.,.B ^.sXzXaXhXR.h l l g d g W ! g s p < s d P J N K.J.J.2.n ",
"9 1 & > 6 K F 5 * 9 &.C.F.;XmX1XI.3.g.eXmXdX#XG.p.=XlX2XwXz.X.1.%XvXnXtXlX~.i 2 g Q g 6 6 d d , & & > 6 K 7 : - r <.G.R.",
"| 9 & & , s W K O q d.8XwXsXNXfXT...u.;XxXzX9Xk.h.dXNXsXnX8Xo.O.Q.zXnXuXVX=XM - 6 _ L 3 & s W K 4 * & , d P s @ w R.2XlX",
"%.R 7 , 3 6 Q l # w J.fXmXdXgX4Xs.+.t.|.;X{.S.b.k.;XdXdXmX*X#.f 5.2XdXrXbX=Xn - 4 W L 6 , K ) ) P 7 4 , 7 Q l > r %XZXZX",
"%.[ ) L , & < g s 8 ,.E.@X@X%Xd.| O.9.r.Z.%.L d P k.'.@X.XD < f o.,XaX$X%XY.} 7 6 d W _ ! L K P ) ) L , > < f s v /.vXBX",
"u I E g 2 3 < g ! W Y %.9.6.o.| G ,.X.' ( K 0 q 9 ( { 4.b w 2 h o.T.T.q.3. .E Q L d L ( ` P 4 4 d Q g 2 > 8 s d O.T.fXmX",
"q 1 < s d K K W v.v.` _ ! E E ..i.i.7.3.X.7.2.P.1.Y W L s } 7.i.6.^ W W L E Q ! ! L 7 7 P L 4 O $ , s d L Y K s h s.4XfX",
"} h s P ) ) ( ! v.v.v.c.! W y.|.1X<X}.p.J.OX>XaX>Xh.^ Q -.7XrX*Xt._ c.v.v._ ! ! d 4 % $ * 7 L s 7 7 Y ) ) { L 6 g %.0.J.",
"*.] W ( ` N.v.) ( W L K I s.eXBXNXmX*Xf.E.1XvXBXvX;Xt.( F.iXMXuX_.%.W W ( P d d 6 4 4 : * 7 Q c._ W ( ` B.N.W s s d 7 = ",
"V.B.` L L _ v._ L 6 & O w XXNXCX2XrX'.%.y.:XrXlXrXtXh...l.wXeXiX Xi.0 * * * , s d d P P L L ! v.B.v.P L _ :._ K 4 * * $ ",
"C.V._ 7 4 d ( _ L 4 O   e E.wXyXwXMX2Xf.d.;XbXVXbX2XW.1.&XuXnXBXfX2.- . $ 7 L P L L 7 7 T ! _ v.v.) 7 1 d ( _ L 4 $ $ * ",
"^ ^ L 4 & * s L d 7 7 4 I ;.Z.S.7XcXpXK.P.^.fXvX1X!.V V [.4X>XpX#X4.* $ 9 ' N.` ! g & $ 7 P ! W L L 4 & * 7 L K d 7 7 K ",
"c 8 , 6 6 > & & 6 W ` ` ` _ _ %.0.E.L.N b M H.K.H.b 1 f  .p.D S H ! W +.z.S.N.v.W d * $ % , 6 7 2 , s 6 > & > 6 W ` ` v.",
"} 9 6 L L 7 1 , s L W ! _ _ _ Y 8 u H J q . w r m <.3.#.w.7.C q h y.6X8XrXqX*._ ( P K 4 X $ , s d 7 L L 7 , , s P ( W _ ",
"%.' ! _ ! W W P W K 6 < d _ v.W 6 < d T ; O & 6 6.&X;X{.*Xh.L g =.9XcXvXkX2Xz.' ! _ ( 5 X * d ! ! ! ! ! W L P W L 6 3 d ",
"m.b.` _ _ _ N.B.B.( s 3 s ` v._ g f 6 4 $ * g Q t.eXCXNXdX_.v.c.A.yXcXxXvXuX8XM.! L 6 * $ 7 _ v.v._ _ _ _ ` v.v.W 6 > s ",
"m.[ ( ! ( ) ) ) ` ) L < d ] W L g g s & & 4 E ! M.wXCXCXBX0X*.( [ D.uXzXwX|.Q.9.j f 3 & * d ! x._ ' ! ( ) ) ] ) ( d > s ",
"^ L d W ( ( K 4 7 K L s d L d 6 < d d < , 4 7 l &.{.tXwXiX9Xi.0 6 |  XeXh.3.m i 6 g s , 8 s g ~ =.9.Y W ' X.4.9.e.e.O.h ",
"t 0 7 W _ ( K ; % % > 3 2 < 6 6 4 s W ! L 4 $ - <.~.l.k.D._.q.=   = G.^.n 1 1 1 6 L ! W d & r /.<X].=.W ;.0.E.=X2X<XoX2.",
"t 9 K L L g L h 4 $ & < s s L 7 * 4 P v.) 7 $ - ,.q...L j  .#.7 % * C n t 7 d , ; F ` ` K * n 1XrX'._.l.j.w.s.*XvXmX4Xp.",
"' ' ( s 3 3 l ! Y d 7 L W ) ` F X % F ( ( L 7 K T ( K , + 3 Q ! L 7 6 d ! v.( ; X 4 P _ L h q.'.F.k.tXaX(.x z -.9XwX_.%.",
"C.V._ d , 3 s l Q Q L L W ` ( 7 X X * 7 W _ W ( _ ` W < > 3 f E Q W d g _ ` P *   $ 4 L ! ( ' ;.n.C.yXdXXXA $.S.D._.l.=.",
"m.b.! L s d * , L _ _ g L Y L s , & & , P v._ x.c._ Q d d 6 * 7 ! ` ! d L L d 8 * & & s _ v.! l E &.8X;XW.G.Y.z.M.-.g.q.",
"^ ~ g g L P ; $ 7 _ v.W 7 6 d E E f s s W _ ! l l g g d W F % : P v._ d 6 s g Q l s 6 L _ _ E l j 5.R.U.X.1.H.f.&.c.t.p.",
"x 2 > , d K 7 ; 4 P v.` L , 3 s E E g s d L L s 3 > , 6 L K ; ; 7 _ v.( s , < g E E d s K L g < 1 q w t F J b e I _ [ o.",
"u = $ & < 7 L d * 6 ( N.( 8 $ $ 6 W W k 1 , K 7 * & & > 6 K K 4 * L ` N.K & $ > K ( L , > 7 K 6 & $ @ & 7 s 4 $ 4 ! c.L ",
"#.I * & , f Q L & 1 L ` P * X X 4 P ! s > , W ( T 4 & > < L ! < & s ( _ 7 $ . % K _ L < & d ( ( K 5 6 < 7 E g & , L ! K ",
";.{ P 7 , , g g < 8 K ( L , * ; 7 K Y L K K P ( ) ( K < 3 6 g s , 7 P ! 7 * * 5 F L L L d K P ( ) ( ( P d g g < < K W K ",
"..' _ E 3 + 3 d g g L ( P s d L P d d ! ` ( K d P N.v.L > > s g g d W ! K d d L K 6 L _ ) T 7 d W v.N.) P d f g L L W P ",
"t 8 s d 6 8 7 L _ _ _ ` _ ! Q Q _ P K K ( ( 7 * 4 W v.( K s f W _ ! _ ` _ Q l l g d K P ! g > O > d L ( _ Q E Q ( _ ` ! ",
"t 1 , K W ^ Y W v.N.v.v.v._ ! ! ! g 6 * 5 d s 4 , d ! ) ` ( P _ _ _ _ ) _ ! ~ @.@.j d s I O.i q 1 8 s L [ *.` _ _ v._ _ ",
"#.U K W ` ` ) ( _ ` ` _ ( W P L g 8 * % $ * g Q W K K W v.V.-.;.] ' W P L o.d.Y.Y.8.d a m U.`.e.#. .f } g.z.Z.` _ ! ! -.",
"C.b._ W _ v.N.) Y d 7 7 4 * , 7 d 6 7 T 7 7 L _ v.) L f Y k.{.{.{.'.e.I 9 U.sXaX1X%Xw.~ 5.h.z.A.b.^  .Q.2XtX0X6X0.3.u.*X",
"V.B.` L d P ` _ K , $ % % $ > s L L L P P W Q c.B.B.L > m [.vXzXsXmX'.| G }.CXCXjXdX}.u.r.r.Z.B.v.( a.>XCXmXuXlX^.G.[.2X",
"[ [ ( 8 & 4 P _ L 4 * * 4 K Y ( W L 6 * 6 W _ _ _ v.d O M #XBXvXlXmX*X=.P z.zX3XrX3X5X^.h.&.c.c._ #.1.$XmXuXeXlX@XU.}.|.",
"U I 7 6 > & > 6 s K P T W ) N.) P d , $ * 6 d L d d 3 & i oXCXNX;X'.e.' ! r.:XlXmXcXXXK.~.'.6X6X].d.Z a.*XsXdX<Xl.;.r.-.",
"c 9 , d d , & & 7 W v.` v.N.B.( d 7 7 4 % $ 1 6 6 1 < f k d.pXaX`.P L Q Q ] y.;XfX<Xd.3.U.>XdX2X#XR.k f 5.#XpX[.=.! W W ",
"..U L Q E d 7 7 g d d d L _ v.W 7 K R P ; X * d P L L Q L } f.W.q.I d P Q _ ] f.K.H.6.' 4.J.L.L.L.<.2 , 6 q.E.2.,.H ,.O.",
"*.[ _ _ _ ( _ ) ` P 6 > s _ v.( d d L K * $ 7 ! v.` _ _ ! W ' %.%.X.Y.).-.c.! d m P.`.8X`.a.,.4.f.~.U.p.i.4.4.G.!.oXXXf."
};
