/* XPM */
static char *xpm_[] = {
/* columns rows colors chars-per-pixel */
"60 60 232 2 ",
"   c #050406",
".  c #160D0D",
"X  c #16120B",
"o  c #1B140D",
"O  c #121D0D",
"+  c #1C1410",
"@  c #1E1A12",
"#  c #191A18",
"$  c #0B1414",
"%  c #251B14",
"&  c #281915",
"*  c #321F19",
"=  c #381718",
"-  c #2F0D15",
";  c #1A230F",
":  c #1C2612",
">  c #1E3316",
",  c #282418",
"<  c #34211A",
"1  c #322016",
"2  c #223414",
"3  c #263918",
"4  c #3F1C20",
"5  c #2A2926",
"6  c #2F3729",
"7  c #0B0C28",
"8  c #43191B",
"9  c #451A1C",
"0  c #511F1E",
"q  c #4D221D",
"w  c #4B1D20",
"e  c #451F21",
"r  c #4D2324",
"t  c #4B2A25",
"y  c #4A2725",
"u  c #522525",
"i  c #542A26",
"p  c #5A2B25",
"a  c #522629",
"s  c #562B2A",
"d  c #5A2E2B",
"f  c #5A2725",
"g  c #56302A",
"h  c #5D322C",
"j  c #5E3331",
"k  c #5A3935",
"l  c #622E2A",
"z  c #62352E",
"x  c #65382E",
"c  c #6A3B2E",
"v  c #67362A",
"b  c #643531",
"n  c #693632",
"m  c #663A32",
"M  c #6B3D33",
"N  c #6E3E38",
"B  c #713E34",
"V  c #793F3B",
"C  c #743C2D",
"Z  c #2C4A1C",
"A  c #2A451B",
"S  c #33561F",
"D  c #2F511E",
"F  c #335523",
"G  c #355C24",
"H  c #395E25",
"J  c #345F29",
"K  c #304E25",
"L  c #346325",
"P  c #3A6226",
"I  c #3C6429",
"U  c #3C6B2A",
"Y  c #376828",
"T  c #3E712C",
"R  c #3E782C",
"E  c #6D4135",
"W  c #6E413A",
"Q  c #724236",
"!  c #75433A",
"~  c #79453B",
"^  c #7C4B3C",
"/  c #75483B",
"(  c #7F503D",
")  c #426D2C",
"_  c #446727",
"`  c #43742D",
"'  c #48762F",
"]  c #44792E",
"[  c #4A7B2F",
"{  c #436532",
"}  c #436B34",
"|  c #486639",
" . c #447432",
".. c #4A7435",
"X. c #467A31",
"o. c #4B7C32",
"O. c #4C743A",
"+. c #4C7A39",
"@. c #467438",
"#. c #517D3A",
"$. c #517B37",
"%. c #455A3B",
"&. c #5C4445",
"*. c #454A56",
"=. c #585D59",
"-. c #774D43",
";. c #635858",
":. c #79595A",
">. c #75514C",
",. c #4E6F42",
"<. c #536D46",
"1. c #557A44",
"2. c #597849",
"3. c #5D7452",
"4. c #637D55",
"5. c #617859",
"6. c #6B7452",
"7. c #676464",
"8. c #757479",
"9. c #73716F",
"0. c #5F5A68",
"q. c #824A3C",
"w. c #81503F",
"e. c #834F41",
"r. c #894E40",
"t. c #8D5645",
"y. c #885746",
"u. c #925B47",
"i. c #945D4A",
"p. c #995F4C",
"a. c #955B47",
"s. c #8F5F50",
"d. c #95624C",
"f. c #9B634D",
"g. c #976147",
"h. c #976956",
"j. c #99735C",
"k. c #8B6452",
"l. c #A46C52",
"z. c #A96D54",
"x. c #A66954",
"c. c #AC7256",
"v. c #AD7459",
"b. c #A57258",
"n. c #B17357",
"m. c #B27559",
"M. c #B57A5B",
"N. c #BA7D5D",
"B. c #B27A57",
"V. c #A1634A",
"C. c #9C7561",
"Z. c #826366",
"A. c #BC7D61",
"S. c #AB7B64",
"D. c #4C812F",
"F. c #4D8333",
"G. c #4E8439",
"H. c #528434",
"J. c #548935",
"K. c #54853D",
"L. c #59853E",
"P. c #568A3B",
"I. c #5A8B3C",
"U. c #598C36",
"Y. c #5A9138",
"T. c #538A2F",
"R. c #608F3F",
"E. c #5B8444",
"W. c #5B8C41",
"Q. c #598544",
"!. c #5D9242",
"~. c #62894B",
"^. c #629443",
"/. c #65924A",
"(. c #6D8C5A",
"). c #688658",
"_. c #6C9256",
"`. c #749959",
"'. c #798C6C",
"]. c #748768",
"[. c #7A9768",
"{. c #7C9471",
"}. c #7D8871",
"|. c #7FA069",
" X c #BE805E",
".X c #818877",
"XX c #819374",
"oX c #859978",
"OX c #869C73",
"+X c #BD8061",
"@X c #B0866E",
"#X c #B78E72",
"$X c #8AA377",
"%X c #93A87F",
"&X c #C38362",
"*X c #C68A68",
"=X c #CC9672",
"-X c #D39D78",
";X c #C4916F",
":X c #DBA47B",
">X c #E0AB7F",
",X c #7E7D83",
"<X c #827D83",
"1X c #7D8086",
"2X c #848589",
"3X c #8D9C81",
"4X c #8E9190",
"5X c #8EA282",
"6X c #95A48A",
"7X c #9DAD8D",
"8X c #95A686",
"9X c #9EAB92",
"0X c #9FA694",
"qX c #9EB18C",
"wX c #A2AD95",
"eX c #A7AE9B",
"rX c #A3B294",
"tX c #AAB59D",
"yX c #AAB79C",
"uX c #ADB6A2",
"iX c #B1BCA4",
"pX c #B2BAA5",
"aX c #D6A783",
"sX c #E5AB81",
"dX c #EAB88D",
"fX c #ECBB92",
"gX c #B8C1AA",
"hX c #F8C799",
"jX c #FFD19F",
"kX c #FDCEA0",
"lX c #FFD7A7",
"zX c #FEE3AD",
/* pixels */
"/. .(.6X6X6X).{.5X8X[.K.+...E.R.o.@.+.K.@.#.W.O.{ ..L.#.O.W.^.O...o.K.@.+.E...{ O.L.#...~.^.....+.K.@.#.I.O.{ ..L.+.../.",
"[ F.[.uXqXyX).oXgXuX%XU F.H.` [ I.' Y R  .X.H.' ` o._ ` 2 o + 2 P P  .X.[ H. .` [  .H.H.` ' U.` L ' ] ` H.'  .' ` H.J. .",
"} Y (.eXtXuX).[.yXyX3XU ..F.` G ) ` ' X.U.H.J.J.F.U 3 o t ! V i o 2 P H.J.U.J.F.J.o.` o.` H T '  .X.U.T.U.U.F.J.X.` $.$.",
"Q.' D.W.$X{. .Q.XXXX~.U G L [ H.] H.U.K.J.J.F.I 3 % y n z M n b n t % A U H.o.o.X.I P H X.F.] H.U.K.J.H.F.H.X.X.I P P K.",
"^.J._.T.F.E.].).<.<.(.W.Q.X.F.Y.U.o.H.J.[ D : & h n n h z c m h s n c z , ; A T X.X.D.[ o.Y.J.o.H.J.o.U I H U X.X.o.[ K.",
"L.`.eX$XQ.[.iXyX{.).iX8XrX_.F.F.H.I ) P 2 & i z ~ m s d h x M h h s z ~ z g 1 6 _ X.L ..H.H.H.I ) H.' I I ` H.o.X.P o.^.",
"[.pXwXuX5.'.rXqX{.).wX7XtX).I T U F > % s ! b h M x h d h M m h d d z M p b Q s & > A L T T U ] I P ' J.J.I.U.o.` I H @.",
"_.[._.$X).[.wXtXXX4.eXwXuX3.Y G 3 1 t n m E h d E z d d h m m h h s z M d h Q b m s < > Z H.o.H.X.' X.`  .H.U.) o.o.G O.",
"Y.H.F.P.U.Y.E.3.1.O.).).3.K 2 1 q ! ! s h E z d M h d d h m m h p s z M d h E h d Q B y < 3 I G.J.U.J.X.I H.H.o.X.I P L.",
"P.X.F.F.) ' [ ` D.R Y S > % s M n z m d h M p d E z d h h m m z h d z E p h E h s x v v E g & , | 1.E.H.R F.` R X.Y ` K.",
"{ ` H.F...H L T T F > , t n ! E i m n h z M h d M z d d h M m h d d z M h d E z f v l q v C d r < K .X).Y U ` ) [ J.X.{ ",
"L.F.T U F.X.` G 2 & t ^ M d x m s m x h h M h d M z h d h m m z h d z M g h M p k :.Z.:.Z.:.:.:.V t < 5 S F.H.H _ J.o.+.",
"^.J.' U T ) : < g m z Q b s m c s x m h h M h d M z d d h m n h d d z M d h M f :.0.*.0.0.*.*.,X-.l b h , : P P H ) H.!.",
"K.] ' $.Z % y n ~ h d m b d m n s j m d h M h d M b d h h m m z d d z M d h M l :.5   7 7     7.V u h ~ x y % P X.` U.P.",
"@.P U ` + M n z E h d M z p m m s x m g h M h d M z d d h m m h d d z M d d M p 7.*.# # # # 5 8.N f j B z n M % F.T ) #.",
"L.) U ` o E h h M h p M h s m n s b m h z M h d M z d h h m m z d d b M d h M f &.,X,X,X8.,X<X9.m s d N h d Q o F.` Y W.",
"K.I.` Y o M h h M h d M h s x m d z m h h E h d M z d h h m m h h s z E s h M f &.1X1X,X,X<X,X0.n d h M b d B +  .H.H.#.",
"} U ] X.o N d j M h d M m s m c s z m g h M h d M z d d h m m j d d z M d h M f >.2X2X<X,X,X<X7.v d h M j h M o X.` o.$.",
"K.X.H.U.o n j d E h d M z s x m s z m g h E h d M z h d h m n h d s h E d h M h g 0.8.8.8.9.8.;.n p h M d d M % I P P K.",
"^.J.[ H.o M j h M h d M z s m c d m m d h M h s M z d h h m m z h s x m h h E h q k 0.,X2X4X2X7.c p h M b d M o [ $.X.K.",
"I.H.I U o m h h M h p E z s m m d z m g h M h h M b d d h m m b h s z E d h M d g h p &.;.8.8.=.n d h M j d M o X.P [ W.",
"$.U ..U X M b h M h d M z s m x d x m d h M h d M b d j z m m d h s z M d h E z s W n q u t =.7.c d h M b d N % ` I H @.",
"Q.X.F.[ o M h h M h d M z s x c s z m h h M h d M z d d b m m b h p z c d h M h d n x s z l j j M d g M h d M o o.o.G o.",
"^.U.H.J.o M l h M z d M z s m x s b m g h E h h M z d d d m m h p g z E d h M z s m m s m E u p M d h M z d W + ` L H W.",
"K.[ F.K.o M z h Q h d c z d m M d z x h h E h p M b d h h M m b d s z M d h M h d m b s m m s m E s h E g h M % Q.2. .K.",
"I ` F.F.o M d h c h d M z s m x s x m d h M h d M z d h s d s s h d z M g h M z d m b d b m s z E s h E h d M % ~./.$.{ ",
"Q.H.U U o M h h M h d M z s m m d z M s h M h d M n i a y u u a a u b M d h M z s m b d m m s b c d h c j s M % $XP.X.+.",
"^.J.' U o M d h M h d M z s m c s m m d z W h d m i r i j x z j s r i b d h M z d m b s m m s z E g h E j j M % eX8XF.!.",
"Q.X.] o.X M h h M h d M j s x c s z M d b n h r y p h z l z h h z d s r r d M b d M b s m m s j E d h E j d N % +.~.P.P.",
"@.P Y  .o c h h E h d M z i m c d n E d s d r s z z h s ~ i.u.^ s z z z i r s s d M m p m m s b m s h M d d n + F.U } +.",
"Q.) Y ` + M h h M h d M h s m M d b z y r y b h h h ~ l.c.*X*Xc.l.^ h j h b p e u z b d m m s m E d h M b d B + H.` Y W.",
"K.U.X.L + M h h M h h M z d m M s r u i m m p z E l.M.f.l.l.x.l.f.M.h.Q j d x b a y y i m M s h E s h M d d n % ` H.H.+.",
"} ) ' ' o M h h E h s M b s z s r i d m h h M u.N.&Xf.= i.Q N f.= p.&XA.u.B z d M z i r s b s m M d j M b d M % X.) H.$.",
"K.X.H.U.o M h h m h z M z r e f h m b d ^ f.c.z.M.M.c.B m M m M Q z.M.M.l.c.f./ h h x h s e r d E d h M h d M o I I H K.",
"^.U.o.H.+ M l h E z a d r i b m h h Q f.M.+Xz.l.M.c.N.c.h d h d c.A.c.M.l.l.&XM.d.~ d h b b i r s a h E z d M o [ $.o.K.",
"W.H.U U o M j z m a r y b m M M Q x.&X*XN. Xc.h.n.v.v.z.l.m j x.x.B.v.m.l.c.A.N.*XN.c.E M M n b u y y m b d N % X.P o.W.",
"+.Y  .) X B d r a a h m M j 8 z -.l.p.^ q.r.f.z.M.v.B.l.m.~ ~ B.l.v.c.v.c.f.q.q.^ p.x.^ c 8 d N b h i a u h B o ` P P ..",
"K.$.H.X.  = b u s b h b a i j.C.k.r m h.C.>.8 p.A.c.n.c.c.N.A.c.c.m.c.N.f.= >.C.h.m r k.C.j.i u z z m d a l e   o.[ G +.",
"^.U.H.K.Z   - q M z ^ p.u S.lXjXdXp k.kXjXfX-.M A.n.&Xi.n ^ ^ n i.A.m.&XB N hXhXlXd.d dXkXkXS.s i.q.d B r +   3 ' Y P L.",
"P.X.F.H.) A ; . ~ y.x.N.M ;X-X=X;Xb e.-X;XsXb.M A.+Xd.y N u.t.Q y f.A.A.M j.sX;X-Xy.h ;X=X:X;XN M.b.t.^ + O A U X.U ) K.",
"{ ` F.H.) Z A O ( V.v.N.z = w w r M h e q r 8 e.*Xf.y Q q.z h ^ ~ r f.&Xe.= 0 r e d c r 0 y = h M.v.f.r.O D H _  .U...I ",
"L.H.T U F.G G ; ^ d.z.B.m k.j.h.k.z / h.h.C.-.^ &Xd ~ ~ W j.j.W B ~ d  X-.-.j.h.j./ z h.h.h.k.n c.x.d.w.: U H F U U.o.o.",
"^.H.' U I P P @ ^ p.c.z.m fXlXkXhXd d.lXhXzX#XB N.z c -.aXhXhXaX>.Q b N.B @XzXhXlXh.d fXkXlXfXW c.c.i.w.@ I G G H ) J.W.",
"K.X. .H.F F U @ -.f.c.n.y e.sX:X=Xb y.aXsX-Xd ! &Xz = b.dX:X:XfXv.8 d &X! d -X>XsXs.z =XaXsXe.y c.z.f.( : D G X.]  .J.K.",
"O.P U  .} Z Y : ^ p.z.A.m - b b h 9 r h b u - y.&Xz 9 f.sX:X:XsXl.r h  Xt.- i b h r e h b h - b N.c.i.( , G A U F.T ) G.",
"L.) U R X.Z S : ^ i.l.N.v.m d j h M n z b h ~ c.M.b i ^ d.u.t.r.Q y h M.v.~ d z z n n d z d M v.N.l.i.e.: Z A I F.' I L.",
"Q.U.` Y U G S ; ^ f.b.B.B.M.N.M.l.B.A.N.M.+Xv.b.M.b h h e q h s.a.b d M.l.c.A.M.N.N.M.z.M.N.A.M.B.l.f.w.: %.J ' ' H.J.#.",
"} U  .X.` F G , ^ p.x.m.v.m.m.B.l.c.n.v.n.M.l.x.M.j h h h x / d.w.h d M.l.l.M.m.B.B.m.f.B.B.v.z.M.z.f.w., 2X<.Q.o.) $.$.",
"K.] H.U.$.D F , -.p.z.M.c.n.m.c.V.c.M.n.c.M.x.l.M.j h h h M b r r s b M.l.l.B.v.c.n.v.l.z.m.v.n.M.l.p.-., 8.'.OX{ P P K.",
"^.U.X.H.U.T A @ t.a.u.N.A.M.M.M.x.m.M.M.M.A.z.c.+Xb h h j M M z z z h A.c.c.N.M.M.N.M.x.B.A.M.A.A.u.u.u.5 .XwX_.] [ [ P.",
"W.F.Y I [ F.T > m p.t.z.m.m.m.n.x.c.n.m.m.m.z.z.N.n p d d j b d d i n M.x.x.n.m.m.n.z.x.n.m.v.m.z.t.f.m 6 (.`.). .P X.I.",
"Q.2.R  .4.L._.(.3 < < < * * * * * & < < * * * * < - y f a p i a d a - < < * * * < * < * * = * * * < < 3 $.H.J.o...I P ..",
"].tX[.%XoXoX9XpXoX%..X4.2.,.=.6X}.<.%.}..X9.5.P P O . o X X o X o . O F F F P _ F P H A S P P I P G I ) ' H.J.` X.o.H +.",
"_.rXuXuX'.5XrXrX$X).eXqXwX2.(.rXrX0X5.9XwXtXoXD.U.X.` Y P F.Y.U.H.T.Y.Y.F.U H.J.[ ] Y I F.Y.U.H.J.I.U.X.U J.J.X.` I P W.",
"P.OX7X5XE.~.9X6XQ.1.3X5X0X1.2.9X5XOX#.`.6XuXXXF. .R X.U U X.X.o.$.H.` ` o.R F.` T T Y T ] ] ` D.H.) ` X.T F. .` ] ) U Q.",
"} 1.J.H.H.D.E.E.X.X.2.Q.E.@.'.eX).D.o.H.K.2.<.T ` ) ..J.[ H P ) H.$.` P H U T  .2.4.(.O.3.{.~.X.#.1.,.2.,.U ` ) ' P.X.I ",
"K.F.T Y F.F.` ] W.OXqX~.X.qXgXyX$XY U F.H.` ] H.H.G ) H.[ ` o.H.` U F.F.` X.D./.iXuXtXXXoXiXqX'.5.wXtX6XE.H.H.H _ H.o.+.",
"!.J.` ` ) o.] ,.9X7XyX).J 6X|._.[.).T T X.F.] H.[ P G ) J.G.I.J.` U T F.H.' D.E.9X9XrX'.XX7XrX5X(.7XwXOXH.F. .P J U J.W.",
"X.] ` o.P ` U.K.9XyXiX].L 2.[.X.) 1.X.G ..U.X.U X.F.] ' H.F.X.] ' $.G ` Y.X.U 1.wXwXeX].{.eXrX5X1.%XiX%XL.D.F.F.X.` H.F.",
"1. .@.#.$.} K.!.).'.]._.+.O.(.,. .@.K.#...K.^.O.@.o.K.+.+.#. .@.@.$.#...K.^.+.| 4.(.).2.2.4.5.5.1._.'.'._.W.o.+.P.+.+.Q."
};
