/* XPM */
static char *result[] = {
/* columns rows colors chars-per-pixel */
"60 60 256 2 ",
"   c #485C07",
".  c #496503",
"X  c #546C07",
"o  c #587702",
"O  c #576918",
"+  c #5E721A",
"@  c #627D02",
"#  c #63760F",
"$  c #657911",
"%  c #5E7124",
"&  c #68792F",
"*  c #73774C",
"=  c #697956",
"-  c #FF140C",
";  c #CC271D",
":  c #FE241A",
">  c #FF291E",
",  c #D2352A",
"<  c #D73B33",
"1  c #FC3223",
"2  c #F93128",
"3  c #F93628",
"4  c #B84B3A",
"5  c #D04337",
"6  c #F14C3B",
"7  c #FA4938",
"8  c #9B6450",
"9  c #DC544A",
"0  c #FD4A44",
"q  c #E7584F",
"w  c #FB5649",
"e  c #F85953",
"r  c #FC5C53",
"t  c #F7654B",
"y  c #FA6558",
"u  c #FD645C",
"i  c #EF735B",
"p  c #DC6E64",
"a  c #EA6D65",
"s  c #F46C66",
"d  c #FC6C63",
"f  c #E7766C",
"g  c #F57769",
"h  c #FB756B",
"j  c #FE796E",
"k  c #EB7A74",
"l  c #F47C76",
"z  c #FE7C72",
"x  c #5C8201",
"c  c #598605",
"v  c #5E8C01",
"b  c #5D9300",
"n  c #648401",
"m  c #698402",
"M  c #648B01",
"N  c #6B8C02",
"B  c #6A870D",
"V  c #718E02",
"C  c #659301",
"Z  c #6B9402",
"A  c #6A9606",
"S  c #6C9901",
"D  c #739302",
"F  c #749C02",
"G  c #7B9C02",
"H  c #769809",
"J  c #6C8816",
"K  c #738D1D",
"L  c #6B9410",
"P  c #73931D",
"I  c #779A1A",
"U  c #7B9C1E",
"Y  c #6CA200",
"T  c #75A202",
"R  c #7BA402",
"E  c #76A902",
"W  c #7CAA01",
"Q  c #7CA50C",
"!  c #7CB101",
"~  c #7CA31B",
"^  c #6E8528",
"/  c #738926",
"(  c #7C9728",
")  c #788936",
"_  c #7E9536",
"`  c #7CA223",
"'  c #25A06A",
"]  c #7A8A48",
"[  c #769473",
"{  c #829E15",
"}  c #82A503",
"|  c #84AB02",
" . c #8BAD03",
".. c #87A80A",
"X. c #90AD03",
"o. c #84B301",
"O. c #8CB302",
"+. c #86B901",
"@. c #8CBA02",
"#. c #8BB20A",
"$. c #92B602",
"%. c #95BA02",
"&. c #9ABE02",
"*. c #98BA0B",
"=. c #88A815",
"-. c #85A41E",
";. c #84A91D",
":. c #8BAB1E",
">. c #91AC1C",
",. c #8CB518",
"<. c #8EB51F",
"1. c #98B716",
"2. c #94B41D",
"3. c #93BA1D",
"4. c #9ABC1E",
"5. c #A1BE0F",
"6. c #839B29",
"7. c #83993A",
"8. c #8AA726",
"9. c #91AC27",
"0. c #8AB021",
"q. c #95B321",
"w. c #9AB825",
"e. c #8BA437",
"r. c #94AA39",
"t. c #9CB333",
"y. c #9AB538",
"u. c #A2BE20",
"i. c #A3BB39",
"p. c #9CC202",
"a. c #9BC501",
"s. c #9CC11D",
"d. c #A2C402",
"f. c #A8C806",
"g. c #A5C61E",
"h. c #97C224",
"j. c #A8C623",
"k. c #AFC633",
"l. c #889A45",
"z. c #889752",
"x. c #8A9556",
"c. c #8DA146",
"v. c #97A949",
"b. c #9DB646",
"n. c #99A756",
"m. c #9DAB5C",
"M. c #9CB359",
"N. c #A7BA46",
"B. c #A1AC5E",
"V. c #A8B957",
"C. c #B1BE5B",
"Z. c #8F946A",
"A. c #9CA666",
"S. c #9CA375",
"D. c #A2AD68",
"F. c #A9B36A",
"G. c #ADBA6B",
"H. c #B2BC69",
"J. c #A9AD76",
"K. c #ACB678",
"L. c #B3BB74",
"P. c #B5BC7B",
"I. c #B7BD7C",
"U. c #F3865F",
"Y. c #DE8171",
"T. c #EA8868",
"R. c #F58969",
"E. c #EE9368",
"W. c #EB8778",
"Q. c #F9847A",
"!. c #EC9678",
"~. c #F59679",
"^. c #ECA47A",
"/. c #F1A47A",
"(. c #ADC74E",
"). c #B5CA49",
"_. c #B5C857",
"`. c #AFC269",
"'. c #B9C469",
"]. c #BBC573",
"[. c #BCC37C",
"{. c #C2CB77",
"}. c #5DB48A",
"|. c #5AC49A",
" X c #AEAC88",
".X c #B6B785",
"XX c #BABD84",
"oX c #BCBD8B",
"OX c #A9AB94",
"+X c #BCBA93",
"@X c #D4988A",
"#X c #EB8A85",
"$X c #F38A84",
"%X c #F68B87",
"&X c #EC958B",
"*X c #F5928D",
"=X c #F79889",
"-X c #E79C95",
";X c #F69995",
":X c #F49A94",
">X c #CFB093",
",X c #E8AA87",
"<X c #F4A889",
"1X c #F5A49A",
"2X c #F2B494",
"3X c #D2B8A7",
"4X c #E5AFA6",
"5X c #F7A9A5",
"6X c #F6B8A9",
"7X c #F7B9B6",
"8X c #BDC183",
"9X c #BFC18A",
"0X c #B4D094",
"qX c #8FCEA8",
"wX c #A9CFAB",
"eX c #C2C584",
"rX c #C3C58D",
"tX c #C8CB8A",
"yX c #C3C393",
"uX c #CACB94",
"iX c #C7C59B",
"pX c #CFD592",
"aX c #F9C799",
"sX c #DCE29F",
"dX c #D7CDAC",
"fX c #F8C9A5",
"gX c #FCD9AC",
"hX c #F6C5BB",
"jX c #EBD0B7",
"kX c #F8D4B4",
"lX c #FBE7B8",
"zX c #F8EEB8",
"xX c #D1D3C2",
"cX c #F9C5C1",
"vX c #F9C8C6",
"bX c #FBCDCB",
"nX c #F9D5CA",
"mX c #FBCCD1",
"MX c #FCD3D3",
"NX c #FBD6D7",
"BX c #FCDAD6",
"VX c #FEDCDB",
"CX c #EFE5CB",
"ZX c #FEF6C7",
"AX c #FCF3CB",
"SX c #F4E6DC",
"DX c #FEE1DE",
"FX c #FDFBD7",
"GX c #FCDDE2",
"HX c #FEE5E3",
"JX c #FEEAE6",
"KX c #FDE6EA",
"LX c #FEECEA",
"PX c #FDF0EF",
"IX c #FEF6F4",
"UX c #FFFEFD",
/* pixels */
"k.U n..XP..Xc.M.P..XV.2.;.~ u.g.-.~ 8.<.U <.g.8.K -.4.8.U j.g.-.~ 8.<.( ,.s.-.K -.u.8.~ g.g.-.` 8.<.U :.g.8.K -.w.;.~ i.",
"..@.N.yX[.tX_ F.pXtXG.S $.%.R ..&.Q v E R R $.G R } R %.%.R ..&.R C T R W $.F Q } G $.%.} ..&.R b T Q | $.G R } R %.%.} ",
"P C y.8X9XrXe.M.tXtXJ.Z R $.G x F G T | &.&.&.%.o.@.| F $.G o S T R } p.&.&.%.+.@.} G #.G o S R R | &.%.p.%.O.@.} F  .:.",
"2.R | 1._.m.} ,.Z.m.9.S o M |  .R %.&.$.%.%.%.O.| Q N m n | o.} $.p.$.%.%.$.O.| W N m n | o.R %.&.$.%.%.$. .| W N m n ,.",
"g.p.t.O.O.8.c.e.^ ) y.,.1.| o.d.&.| %.&.} D D @ Z R }  .} o.d.p.} %.&.} N N o Z W R X.} | d.p.} %.&.} V N n Z R }  . .3.",
"s.i.9X`.:.V.yXyXn.e.uX`.XXt.o.@.@.N D O.R N N G $.O.W N } %.@.O.N D $.R H 7.7.u.d.o.M } %.$.O.N D $.R N V G $.o.W N ..4.",
"V.9XP.yX] n.eX{.n.c.8XP.rXl.M T Z R Z M T &.&.d.&.| F m M D F Z E Z M F *.i.rXtXi.F N M S F Z R Z v T &.&.d.&...F N M U ",
"N.N.w.G.r.b.8X>Xm.l.oX8X>X_ Z O. .@.} Q | R F $.&.F  .X.@ F O. .@.| } R 9.].8XuXA.R X.@ F O. .@.} }  .T F %.&.F ..X.n -.",
"s.@.@.%.d.f.>._ 6.I 6.9._ J o.a.&.$.%.d.f.} C $.&.| T N N O.a.a.$.&.a.%.=.J.[.P.e.Y N n o.a.%.@.&.d.&.} C $.&.| T N M 3.",
"3.| o.$.G } | S W E S E M Z R | | $.$.G }  .F o.T T R Z F W o.| O.$...2.2.6.=.9.` Q I ` ..O.,.$.:.8.2. .T o.T T W Z F 2.",
"/ G $.o.G m v S S T D } %.| R }  .O.O.} M n S S T D } &...m n G $.T B.yXXXB.e.H.P..Xe.B.[.G.V.q.v.M.yXl.v S R D } %...K ",
"2.$.F S @.} F R O.O.m Z O.a.&.%.%.S b o.o.F } O.$.m D &. .D  .$.F v G.eXI.G.l.L.].8Xl.M.rX8XD.n.b.E t.r.} $.$.@ D %.o.-.",
"g.p.T F S o.@.t.j.>.B J e.*.+.@.O.7.e.~ F R =.1.} M n F $.%.p.p.T S G.rXeXL.7.[.9XtXc.n.rXtXF.z.9Xb.V.r.E $.| M m F %.s.",
"<.E }  .@ } a.t.I.rXc.A.iXH.8.E y.9XN.( l.P.K.J.Q ! E T %.o.E E R O.z.K.m.7./ l.v.n./ ( n.A.) A t.M.A.( v F W o.E R &.3.",
"U v C G } N =.g.C.9Xv.;.].yXD.e.XXP._.-.n.uX{.I.( S @.T S } Z M H =.V.wXc.n.F.c.o.q.A.v.K ^ ] r.,.D M } | F N T o.F F :.",
"w.G Z F O.v 7.yXoX>Xb.,.G.L.j.u.oXyXtX=....X].tX7.M O.R Z *.1.r.G.].0X|.`.CXwXtXv.L.eXpXv.c.pX>XV.! M } p.D @ V $.G A w.",
"q.p.T M T W { t.n.r.~ 8.*.$.F R u.v.] S | J.B.v.| R F $.s.9.tX~.d u W.}.qX}.wX9XZ.P.8X9Xc.n.eXoX.X~ E } $.T Q | F $.%.-.",
"/ Z R } | &.&.%.O.o.6.8.8.:._ 7. .| G 8.9.#.O.| +.@.W =._.,Xy u h d u k ' |.+Xm.e.D.`.].c.z.oXC.'.t.%.&.&.p.O.@.| G #.:.",
"3.} %.&.$.&.%.$.#.'.>X[.c.D.9X9XN.$.).uXN.%.%.p.#...U P.Q.w h j h j j r [ qX^ A o.H %.} I :.0.%.%.*.&.%.%. .| W Z m M q.",
"j.p.| %.&.R N x z.dXI.L.*.V.8X[.H.=.C.{.].6.Z M Z 0.tXd r h j j h j j d 8 }.) o R O.$.} o.d.%.} $.&.} N N @ Z R } X.| <.",
"s.O.Z Z $.R D N 9.k._.iXl.n.uX>Xn.7.[.8X9X` o Q g.pXy u j j h j j h z d 4 ' qX8.| W n } %.O.#.N D O.R D V } $. .W m | s.",
"8.Z T Z v F &.&.p.@.9.v.) ^ 7.l.J E ` ] 7.h.k.{.sXd u z j z h g h z Q.0 < ' |._.w.-.L N D F A E Z v T &.p.a.&. .F N m U ",
"q. .O.| } | T F %.&.D F  .@ b -.L.V.`.].sXCXSXKXQ.r h z h h j j z j q < 4 [ S.xXCXdXpXM.9.3.#.+.| } ..T F $.p.F  . .m 8.",
"j.p.%.&.f.f.| Z $.%.| E N L 3.(.CXSXJXJXGXHXIX&X7 Q.z Q.z z Q.z a 9 < < 4 S.%X:XKXVXDXBXBXsX).p.&.d.f. .C %.$.W S M M 3.",
"<.} O.$.G } ..F ! T Q ! ` `.jXSXVXHXHXJXLXLXUX-X, , 9 q t e q 9 < < < ; a ;XQ.$XBXLXHXHXHXHXFX_.*.G }  .F o.~ -.:.` F <.",
"( G $.o.G m M S Y 0.c.8XzXPXHXLXLXJXLXLXJXLXLXUXnX#X9 < , ; ; ; , 5 9 a %X%X#XvXUXUXUXIXVXMX5XdX2.} m M Z C v.eXt.u.=.K ",
"2.@.Z C +.| G | k.jXBXVXSXHXHXVXVXDXHXLXJXLXLXLXUXUXIXnX7X1X&X#X*X:X5XcXbXBXIXUXHXnX7X;X#Xk 9 >X( +.o.F | $.g.yXV.*.| -.",
"g.a.R F F o.$.} j.BXMXVXVXVXNXVXVXVXVXVXVXVXHXHXJXLXIXUXUXUXUXUXUXUXUXIXLXVXhX5X%Xk k W.!.!.i >X( C W @.R  .N.L.9XL.@.s.",
"<.E R X.m G p.| I (.MXbXnXcX7XhXhXnXnXVXHXVXVXNXVXVXKXKXLXLXPXUXHXcX7X5X*Xl k T.W.!.^.i 7 U.E.^.6.) i.a.| F ;.o.Q 8.1.3.",
"U M Z F } N O.d.G ( 4X$Xs 1XlXgXlX2Xd z ;XcXcXvXNXVXVXVXHXKXIXvX$XQ.k W.!.W.W.!.!.^.t > - t E.,Xl.N.XXw.&.F v S o.Z H 0.",
"q.G Z T @.M R %.D ^ >Xw w Q.ZXZXZX=X0 r 0 <XkXfX6X7XvXNXVXHXhXW.$X#X#XE.3 R./.E.^.t > 1 : t ,XOX& Q K.N.$.D @ V $.T Z 2.",
"q.&.E v T Q } $.T =.>X0 d r 2XZXaXd u d d r kXFXlXfXfX6XcXVX5Xk Y.T.^.7 - w ^.^.R.: : 1 : t 6X)   v.H.V.X.F R } T $.&.:.",
"/ S T R | p.&.&.p.h.,X7 d e =XFXkXr d d d r d lXAXAXAXlXfXkX&Xi E.2Xi : 1 6 2X/.1 1 y a l f 4X& X e.$.$.%.$.+.@.} G #.-.",
"3.Q %.&.$.&.%.%. .(.1Xw y 0 h zX2Xr u d d d e ~.lXgXlXAXFXZX2XE.,XE.1 1 : 7 2Xg e $X:X;X:X%X4X( } X.*.$.$.t.=.W Z N M 2.",
"j.&. .%.&.} N V n M.mXbX7X1X1XkX<Xe r r y u r u CXAXg j gXZXaXE.^.6 : 1 > t #X#X:X:X*X;X1X$Xg  X>.X.b.{._.3X_ Y } O. .<.",
"g.$.N V O.} V V } (.nXnXLXIXGXmXvXcX5X*XQ.z d 0 2XaX0 0 =XZXaX,XU.- 1 6 a #X$X*X*X*X:X*Xe 2 6 3XF.q.r.{.H.N.,.o.W m | s.",
";.Z R Z c R %.&.f.).lXR.u 5XnXnXBXHXHXKXHXNXcX5X1XQ.e 0 u AXAX=X1 3 a #X#X&X;X*X*X1XW.2 3 s W.+Xn.S.7.5.%.$.d.| F N m U ",
"q. .@.| } | R T a.).nX~.0 0 /.gXfXfXkXnXmXNXDXJXHXVXcX;Xr <XzXi q &X;X;X5X*XW.=X!.^.i s :X#Xq .X( 6.=.I P #.p.F  .X.n -.",
"j.p.@.%.d.d.} C *.(.bXMXMX1X6XFXfXt t R.fXkXhXhXcXmXHXIXNX7X1XW.;X;X:X;Xs 7 U.^.!.~.*X#Xf p 9 >X-.O.d.} C $.%. .T N M w.",
"3.} O.$.G } X.G #.`.hXhXbXBXnXDXMX5X%Xu g aXlXkX6X6XhX7XmXPXNX;X%X-XT.1 - w !.#X%X$X#Xp p k g 4Xv.V.=. .T | T T W Z F <.",
"/ G @.O.G m M S Y ` 6.x.J.>X3X7XvXKXLXVX7X5XkXkXzXgXQ.<X6X7XhX!.!.U.3 2 a ;X;X%X$Xk k #XQ.%Xl 3Xc.V.K x S S F D } &.} P ",
"q.$.F C @.| F } %.$.o X # + % ] J.dXcXbXIXKXmXvXMXhXh h aXaXaX!.p a f ;X5X%X%X%X$X*X$Xz %X>X XZ.] T | F } $.$.m D %. .-.",
"g.&.F F S o.$.} $.Q o . . @ o o $ % J.4X5XbXHXVXVXNXHXvXhXkX6X#Xk *X1X*X$X$X%X;X*Xl W.>XA.^ #   O B #.$.W %.| M n F *.s.",
"<.E } $.@ } p.| S W ! S N G Z x o X + &  X4X7XbXVXVXNXDXDXVXNX5X%X:X#X$X%X*X%Xl k @XS.^ X X . X V # } a.} S W o.E T &.3.",
"` M Z } } N O.d.F M F o.F Z F M o o n X O ) J.3X7XMXVXVXNXNXHX6XQ.W.#X%Xl $X-X3XOX& .   X   . o D G D  .d.F M T O.F F :.",
"w.D Z T @.M R &.Z o N $.o.F |  .D M Z S   X $ % Z.3XcXcXmXVXJX5XQ.k l -X>XD.Z.= * X . . N } N M F @.C R %.Z n D O.T Z 4.",
"q.p.T M T W R =.n.v.t.:.*.t.i.i.*.E v F D M m X X % z.+XdXcXmX;Xs &X X& % X O + O . N G D } &.R b T } R =.6.! o.T $.%.8.",
"P S R R  .R R e.iXrXtXl.n.iXiX+XP T R | %.$. .R N x X O & Z.3X4X+XZ.% X X @ o o N V V | G x Z R }  .T } G.iXN.4...G X.:.",
"q.Q %.d.$.F W t.8XK.9Xl.] yXV.(.:.$.&.%.%.&.$.| G N X     X ) x.= = O @ m D D G T N m n } O.W $.d.$.F } ).>X].`.B M M 0.",
"g.p.} $.&.R o 6.9X>XM.,.q.(.o.p.&.| %.&.} N V @ Z T F G m n m @ = 8 + x n m o Z W } #.| o.d.d.} %.&.R J D.+XrXy.T $. .2.",
"s.o.N Z  .O.R n 6.k...S D } | !  .Z D | T D N } $. .R n G  .F B * * K C V V } $.O.W M } %.@.$.N D O.W D 7.N.k.t.Q M | s.",
"9.( E H _ >.j.b.( o.2.8.7.J 8.v.e.Y C 7.b.d.*.p.d.| F N m Z F n A c n R &.&.d.&.} G m M S F Z E Z n T &.O.@.$...H N m U ",
"b.>Xy.'.A.A.8XuXJ.( rX).)._ n.dX[.b.8.oXrXP.B.o.p.F |  .@ G $.o.$.| }  .R F $.p.T  . .@ F $. .@.} }  .T F $.p.F | $.@ -.",
"i.eXyXyXn.J.9XeXC.7.8X8X8X( e.9XeXK._ 8XI.tXD.$.$.o.E N M O.a.p.$.&.d.d. .Z $.%.| E N N O.a.p.$.p.f.f.| C %.%.o.T N N 3.",
"<.M.I.'.1.2.I.K.,.-.F.L..X( 8..XK.V...y.L.+Xm.} T T W Z F W o.} O.$.G }  .T o.T C Y b Z W E R O.$.F F R F o.F T W Z Z <.",
"( ` $. .$.O.>.q.} | _ =.1.H Z.9Xr.| O.%.1.) ^ L R D } &.} n n G $.o.} @ v Z S R 7.7.e.P 6.B.9.o.=.( / _ I S T D ..&.} K ",
"q.@.S b o.o.T W *.).eX9.| ].iXrXC.Z C o.@.T R &.$.@ D &.o.G  .$.F C @.| F | O.5.uXiXyXm.D.uX{.n.] oXrXP.9.O.%.@ D %. .-.",
"j.%.T F F | R / XX].rXl.c K.(.t.N.7.S S } @.} $.} M n D *.@.p.%.T F F o.$.Q O.:.XX[.[.n.m.[.8XF.7.{.XXN.%.$.} n n D %.s.",
"! E }  .m } p.,.8XtXuXl.c ` V.E H U  .m } p.o.S W +.E R $.+.! E R  .m } a.O.S ` +X.XoXn.n.9X+XL.:.F.iX'.1.o.o.! E E *.@.",
"e.U U :.9.P 1.g.v.Z.A.i.~ ` c.6.I ~ :.9.U q.j.;.( ;.3.-.;.:.U ~ U :.:.( 3.g.;./ l.N.l.7.7.l.l.l.8.N.A.B.i.s.;.8.3.;.~ t."
};
