/* XPM */
static char *xpm_[] = {
/* columns rows colors chars-per-pixel */
"60 60 253 2 ",
"   c #010101",
".  c #0B0B0B",
"X  c #090605",
"o  c #180903",
"O  c #16160B",
"+  c #0E0E10",
"@  c #0E1211",
"#  c #131313",
"$  c #191B16",
"%  c #1C1C1B",
"&  c #161916",
"*  c #0D140A",
"=  c #2D0101",
"-  c #220001",
";  c #330101",
":  c #3B0101",
">  c #261A06",
",  c #281C17",
"<  c #351C12",
"1  c #1C2516",
"2  c #15280E",
"3  c #2C2102",
"4  c #352606",
"5  c #29261B",
"6  c #372219",
"7  c #26361A",
"8  c #323B1E",
"9  c #1E1E21",
"0  c #231E22",
"q  c #252424",
"w  c #262924",
"e  c #292A25",
"r  c #2C2C2B",
"t  c #282828",
"y  c #332C28",
"u  c #2B3227",
"i  c #35342D",
"p  c #322E32",
"a  c #3A2F37",
"s  c #333133",
"d  c #3A3737",
"f  c #2F2F31",
"g  c #162430",
"h  c #580100",
"j  c #501501",
"k  c #790100",
"l  c #6B0700",
"z  c #523905",
"x  c #452A1D",
"c  c #4C2E0F",
"v  c #472C24",
"b  c #4A3428",
"n  c #573628",
"m  c #483A36",
"M  c #543D32",
"N  c #653A29",
"B  c #733F2A",
"V  c #6A3407",
"C  c #29441C",
"Z  c #2D4721",
"A  c #374826",
"S  c #355C24",
"D  c #395927",
"F  c #325727",
"G  c #356325",
"H  c #3A6226",
"J  c #3C652A",
"K  c #3C6B2B",
"L  c #376728",
"P  c #3E722C",
"I  c #3E6B31",
"U  c #4F4C12",
"Y  c #754900",
"T  c #745302",
"R  c #494528",
"E  c #45572A",
"W  c #494539",
"Q  c #584538",
"!  c #524E2E",
"~  c #664529",
"^  c #76442C",
"/  c #684736",
"(  c #754C36",
")  c #7A543E",
"_  c #6B523E",
"`  c #426D2C",
"'  c #44662D",
"]  c #43742D",
"[  c #49752E",
"{  c #45792E",
"}  c #4A7B2E",
"|  c #436D31",
" . c #476738",
".. c #457431",
"X. c #4A7633",
"o. c #467A31",
"O. c #4B7C32",
"+. c #4D7A3A",
"@. c #527D39",
"#. c #576238",
"$. c #737318",
"%. c #343C43",
"&. c #012549",
"*. c #564D45",
"=. c #53514D",
"-. c #68574A",
";. c #775949",
":. c #665E55",
">. c #775F51",
",. c #587948",
"<. c #566E4A",
"1. c #776656",
"2. c #637C56",
"3. c #6B6754",
"4. c #6B6864",
"5. c #7A7668",
"6. c #746C69",
"7. c #36597F",
"8. c #850202",
"9. c #A50001",
"0. c #B80100",
"q. c #902E00",
"w. c #C50001",
"e. c #CB0102",
"r. c #D30001",
"t. c #DC0101",
"y. c #DB0D0F",
"u. c #DB0E11",
"i. c #D31110",
"p. c #E30101",
"a. c #EA0001",
"s. c #F30001",
"d. c #FE0001",
"f. c #F11312",
"g. c #E33330",
"h. c #894700",
"j. c #975000",
"k. c #A6540A",
"l. c #844B2D",
"z. c #864D31",
"x. c #965533",
"c. c #895438",
"v. c #A36D22",
"b. c #FE5906",
"n. c #F7581D",
"m. c #845C46",
"M. c #8B6349",
"N. c #95684B",
"B. c #856A57",
"V. c #907159",
"C. c #877767",
"Z. c #867B73",
"A. c #977C66",
"S. c #E94F4D",
"D. c #F27376",
"F. c #4D8234",
"G. c #4D8339",
"H. c #4C8634",
"J. c #528434",
"K. c #548936",
"L. c #52843A",
"P. c #558A3A",
"I. c #598D3A",
"U. c #588A37",
"Y. c #59913B",
"T. c #47802F",
"R. c #728F2F",
"E. c #5B8643",
"W. c #5D8D45",
"Q. c #62884B",
"!. c #688856",
"~. c #699255",
"^. c #6E9452",
"/. c #748969",
"(. c #799668",
"). c #7D8874",
"_. c #6C8064",
"`. c #BB990C",
"'. c #B3960F",
"]. c #A9A418",
"[. c #FF9E01",
"{. c #D2B310",
"}. c #FEB907",
"|. c #F5AC05",
" X c #E28937",
".X c #FECB02",
"XX c #FECE0E",
"oX c #F8C70D",
"OX c #FED20E",
"+X c #FFD90D",
"@X c #FFCE11",
"#X c #FFD312",
"$X c #FFDA14",
"%X c #FEE60B",
"&X c #FFE512",
"*X c #FFEB12",
"=X c #FFE518",
"-X c #FFF813",
";X c #FFD63E",
":X c #888B7B",
">X c #9A8876",
",X c #849878",
"<X c #93876B",
"1X c #A89079",
"2X c #8BA379",
"3X c #8AA373",
"4X c #B28453",
"5X c #F79A59",
"6X c #F0B575",
"7X c #F29864",
"8X c #FFD95B",
"9X c #FFD66B",
"0X c #FFE564",
"qX c #416485",
"wX c #FF7C84",
"eX c #7FBAF4",
"rX c #5EC6FF",
"tX c #6BD0FF",
"yX c #72E4FE",
"uX c #8A9486",
"iX c #97A889",
"pX c #99AA8C",
"aX c #A2AD95",
"sX c #AAB59E",
"dX c #A5B497",
"fX c #A8A790",
"gX c #ADB7A2",
"hX c #B3BBA6",
"jX c #B7B5B4",
"kX c #97A0A1",
"lX c #F2918F",
"zX c #FCB595",
"xX c #C3BAB1",
"cX c #F5ACAA",
"vX c #B7C2AA",
"bX c #FCD0AE",
"nX c #FFE7BC",
"mX c #FFEBAD",
"MX c #E5D4A3",
"NX c #81BAF3",
"BX c #90EFFF",
"VX c #A6DEFD",
"CX c #FEF7C9",
"ZX c #FEEAD7",
"AX c #FFFFDC",
"SX c #FEFCD3",
"DX c #FFEAC7",
"FX c #CEF8F8",
"GX c #FEFFE5",
"HX c #FEFEFD",
"JX c #FEF8F3",
"KX c #FAE7E5",
"LX c #E2D6D1",
/* pixels */
"E.] !.uXiXiX,.(.2XuX(.G.o.| U.I...| X.G.| ' Z 9 s s s s s s d i s s d s r A I D | L.X.I P.I.| ....G.P +.P...S ..P...| E.",
"} F.(.gXpXsX!.,XvXsX2X] J.H.[ X.I...L P F 1 + 9 s s f s s s f s p s s r w e u F O...H.P.] [ I...G { o.] F.[ X.X.[ J.J...",
"J L ~.sXsXgX!.(.sXdXuXI [ F.] S K [ K u & @ # 9 s a s s f s s f s s s f e w w u A ' ` J...S K [ [ X.U.K.K.U.G.H.X.` J.o.",
"G.[ O.W.3X)...E.,X,XW.K S S O.J.P F 1 # # # # 0 s p s p s s f s p p s r e w w t w t A S O.J.o.J.P.J.U.J.J.F.O.o.K J S +.",
"I.J.~.G.H.Q./.!.<.<.~.E.W.{ } C * # # X . . # 9 s s p r 1 s q # 9 p p f e w w w t t w Z  .P.I.o.J.K.O.H K S K } o.@.} F.",
"P.(.aX3XE.(.gXgX(.!.hXiXaX~.A     . #     . # % s s p q   f #   . p p p e w e w w w w w u D F.J ` H.[ K H ] J.} O.H } I.",
"~.hXaXgX_.).dXdX).!.dXpX:X5 X 9.r.: X 0.w.j X 9 s p 9 : 0.+ 8.k X f s f e w w w w e w t t e u L H G ] K.J.I.U.O.] H J K ",
"~.(.~.2XQ.(.pXdX(.!.kX:.1 . o s.d.9.l d.d.h   9 s s # h d.  r.9.. r f f r w t w w w w w e e u w A ] O.[ ] H.K.] X.O.S ..",
"P.H.J.J.U.Y.Q.,.,.E u # # . o 9.p.d.d.a.e.; . % p p O k 9.= r.8.. q p p e t w w w w w w w w w w e i ..{ L J.J.o.o.J H H.",
"G.o.T.J.] [ } P C $ @ @ # # +   9.d.a.p.o . . % p . 0.w.  a.d.k   q r r e w e t w w w w e w w w e e u A { O.o.] o.K ` F.",
"' ] J.F.[ D G K & # # # # # # .   9.a.    . . & r .   h p.a.d.8.  t p f t t 5 w w w e w w w w w w w e r J P [ K { U.o.J ",
"+.H.P K H.O.` { & # # # # # + @ . = h . . . # $ p .   : d.d.8.o % t r f e t e e e w 5 e w w w w t w t u { J.J.D ' J.+...",
"Y.J.[ K ] O.P.~.& # # # # # @ @ . X X . X X . # 0 X   X h l o X , & % , $ % w w w w e 5 e e w w w 5 w u { J.} G G ` J.P.",
"G.o.[ O.D ] P.^.% # # # # # # # @ + . . > 4 3 > 3 3 3 3 * 2 > 3 3 > > > 4 > 1 w e w e e 5 w w e e t w e G P o.T.{ { P.F.",
"I G K [ [ J E.W.9 # # # # & # # # # .   {.*X#X$X#X#X+X#X#X#X#X#X#X#X#X#X&X{.X 5 w w w e w w w w w w t u H.] J ] F.] ` X.",
"L.] K ] H.G 2.sX% # # # # # @ # O . 3 {.$X+X+X#X#X#X#X#X#X+X+X+X$X$X+X+X+X+X{.O $ w e w w w w w w e w u U.K S ' F.] K L.",
"+.P.{ L { { X.~.$ # # # # # # # . 4 {.%XOXXX@XXX@XXXXXXX@X@XXXXX@X@XXX@XXXOX*X`.4 $ 5 u w t w w e 5 w u J.] } o...J.J.O.",
"K K ] [ O.U.K.J.& # # # # # # # X $.-XoX@XXX@X@X@X@X@X@XXX@X@XXXXX#X@XXX@X@XOX-X$.* t t e w t w e e t e U.P.H.H.o.` J.o.",
"F.} J.U.J.U.J.J.$ # # # # # # # X $.-X@XXXXXXX@XXX@XXX@XXXXX@X@X@XXX@XXX@X@X@X*X$.X w w t w t w e w t u J.F.O.o.' H G +.",
"Y.I.O.H.U.} K S $ # # # # # #   '.&X#X@X|.}.#X@XXX#X#XXXXX@X@X@X@XXX@XXXXX@X@X@X%X'.  & e w w w w e e e J S J } } +.O.G.",
"P.@.J K F.o.J H $ # # # # # +   `.-X@X@X[.}.#X@X#X|.}.@X@X@XXX@X@X@X@X@XXXXXXXXX*X{.  & w w e w w t w u L [ J.F.} G [ P.",
"..K [ K G [ U.U.& # # # # # #   `.%X#X@X[.}.#X#X@X[.}.#X@X@X@XXXXXXXXXXX@X@XXX@X%X`.  # 5 w w t w t t 7 P.U.I.} ] J H ` ",
"@.F.H.O.} } [ ] $ # # # # # #   `.-X+X.X[.oX+X.XOX[.}.$XXXXX@X#XXX@XXX@XXXXX@X@X%X`.  . q t w w t w t e ` J.U.{ O.O.S ..",
"I.K.H.U.I.I.{ K & # # # # # #   `.*XOX#X[.oX+X@XOX[.}.#X@XXXXX@X@X@XXXXX@XXX@X@X*X'.  @ & t t w w w t u K J.H.o.P J H L.",
"F.O.F.J.` } O.[ $ # # # # # . & > X ! nXnXR ! CXmXDX8X.XXXXX@XXX@X@XXXXX@XXXOX@X=X`.  y y 1 t t w w e u P o.,.E.E.,...O.",
"J ] H.G.[ D G K $ # # # + @ W C.-.* u GXJXy i JXZXJX9X.XXXOXXXXX@X@X@X@X@X@XXXXX*X`.  y C.=.q t t t e e P K (.aXQ.^.+.J ",
"@.L.K K H.O.] } & * @ @ 5 5.1X:.p 9 y CXAXe i GXDXZX8X.XXX@X@X@X@XXX@X@XXXXX@X@X*X`.  & *.>XA.m 1 w e e O.F.W.gX,XI.o...",
"Y.P...P P G.F.[ & . # Q >XC.m a =.q *.SXAXQ Q ZXbXZX0X.X@X@X@X@X@X@XXX@XXX@X@X@X*X`.  9 p W V.uX:.t 1 r [ H.(.iXaXiXJ.P.",
"F.{ { O.S [ U.} @ q 5.1XB.m.;.M., 5.GXnXDXSXbXD.wXZX0X.XXXXXXXXX@XXX#X@XXXXXOXOX*X`.  5 -.c.;.M.1XC.W u } ..E.T.G.Q.L.L.",
"| H K ] [ ' F.U.=.A.>X;.n b M m . 1.JXAXGXAXnXbXbXZX8X.X@X#XXX@X@XXX@X@X@X#X@X@X-X{.  $ v m v b ;.>X<X1.J.P G K T.K | o.",
"L.` K ] G.L [ J.! _ m.:.m n n v . 5.CXS.S.zXSXCXDXJX9X.X@X@XXXXXXXXXOX@XXX@X#X-X{.j O , 6 y n m >.m.( -.F.' S J F.[ J L.",
"+.U.{ G { } o.J.E n m.1.M N N n O ,XnXy.r.7XAXZXZXbX;X.XXX@XXX@X@XXX@XXX#X+X*X{.4 , 6 x v n ^ M 3.M.~ <.@.] [ o...J.J.O.",
"L K ..o.} J.U.U.` ~ c.>.m N z.n + /.bXp.p.lXCXmXnX$X.X#XOX#XOXOXOXOX#X#XoXoX#X3 O , < , v l.l.M -.M.~ E J.J.H.J.o.` J.X.",
"L...J.P.J.U.J.H.' ~ N.5.Q n ^ ^ n > *.GXSXGXmX%X*X*X&X&X&X&X&X&X&X&X*X-X'.  X 5 < x v c N z.B M 5.N.~ ' H.^.L.{ K H H +.",
"Y.U.} U.U.{ H K Z ~ c.-.m N l.V.B.~ y =.=.*.R z U 3 > 3 > 3 > 4 U z z U 4 Q 6 v Q Q / B.B.l.^ m -.M.~ 5.3XhX,.] o.J.} G.",
"P.F.K ' H.{ ' H E ~ M.1.M n ^ V.B.( b             d -.*.#.*.-.t         . b M b -./ ) V.V.z.B M 1.N.~ 5.iX(.Q.F.O.H X.P.",
"X.K ..L L [ J.U.' ~ M.1.M n B N b b < ; ; X X = - 7X6X5X5X5XzXv.X ;   o ; = , v v n n n ^ x.z.M >.M.~ #.U.J.P.O.] H S | ",
"@.O.J.O.{ O.] [ ' ^ N.>.Q ^ N m d , ; d.d.; : d.a.r.t.t.p.p.p.a.d.s.  8.d.r.  6 v n v v b N c.( B.N.( E  .L.U.P @.O.S ..",
"I.P.H.U.I.I.O.K X.E v v v m m :.%.# ; d.d.; ; d.p.y.lXHXHXHXg.a.s.a.  8.d.e.  0 6.uXuX7.f 6 n v x v E ' K H.K.T.[ L H J.",
"G.O.H.J.` [ O.[ O...A a %.=.=.=.p # = s.d.= ; d.t.cXlXg.S.S.LXD.p.p.  8.d.w.  t jXjXjX6.%.a %.p v -.@.} ] F.[ P { K P F.",
"' ` H.H.} D H K K [ A ( 1.Z.6.6.*.$ ; s.d.; ; d.p.lXlXS.S.S.cXD.a.p.  k d.w.  8 :X:XZ.6.#.R d m ( 1.<.S K K [ ' } U.X.L ",
"@.J.P K H.X.] o.J.J.A ( 1XxXxXxXZ.q ; s.d.= ; d.t.t.lXHXHXHXg.t.a.p.  8.d.w.  ' $.<X^.R.R.@.6.*.( #.{ ] T.J.J.D K J.O...",
"U.K.] ` ` F.J.o.J.X.A -.uXLXLXxXA., ; s.d.; ; d.t.HXlXr.t.t.ZXcXp.p.  k d.w.  5 D R E E W :.Z.1.) E G.F.{ J.} G S ` J.I.",
"H.{ { @.S [ Y.O.S R ( ) ( m.hXxXA.5 ; s.d.; ; d.t.f.cXHXKXJXlXu.a.p.  8.d.w.  b -.m.;.M.N.V.M.m.c.( M | O.K } H.{ o.J.L.",
"..S K X.[ J F.U.E / B n N l.A.1Xm.0 : s.d.= ; d.t.t.S.cXlXcXu.r.a.p.  8.d.w.  < v n n n n n v v n ^ ~ E I.] D { H.] K O.",
"J.` L { H.J [ K.A n m.V.m.B b b m , = s.d.= : d.a.p.a.t.p.p.a.a.s.a.  k d.w.  , v b b v v n N N B.N.N E J.K G ` @.] K J.",
"G.U...G { o.] ,.<.Q ;.;.;.B 6.uXuXW j f.f.; ; f.u.u.u.u.y.y.y.y.u.u.  8.f.i.+ m >.V.C.A.:.N x.z.;.;.~ E @.E.H.T...J.J.X.",
"J ` { o.O.] { Q.:X( m.B.m.z.A.jXd 3.GXDXSXb &.VXNXeXNXeXeXNXeXeXNXNX  <XGXCXDXy y M Q M M z.x.m.V.B.~ E 2XjX(.W.+.` F.X.",
"G.X.J.I.J.] [ ~.)./ ;.>.( z.A.fXv Z.AX6XHXW &.yXrXrXyXBXBXBXtXrXtXtX  fXSX6XSXu x l.l.l.x.x.z./ >.m.n E 3XdXdX2X' H G G.",
"Y.I.o.F.U.[ S ,.)./ m.B.) ( uXfXr Z.SX XmX4 %.FXFXFXuX7.qX7.jXFXFXFX  A.zX5XGXA 6 z.x.z.l.B N / B.N.~ A ,XsXdX(.] J.X.G.",
"L.F.K J } T.] S #.~ m.B.c.N *.=.r :.MXN.v.o m bXzX5XV X .   k.6XbXzX. c v.4XMXq > v N N n n n N B.N.N E Q.(.(.~.o.D o.P.",
"+.,.{ ] 2.W.^./. .b _ ;./ n 6.>XZ.m     X X h d.p.w.: # 6   l r.p.t.o   .     $ 6 6 v b b b x n ;.;.b ` J.J.J.[ X.H H ` ",
"!.sX(.2X,X,XaXgXiX<.5.A.4.=.:.4.:.*.i s m # U %XOX.XY # i X k..X+XXX> O 6 < , 6 6 x n n n n v / A.#.[ ] ` J.J.{ o.@.S ..",
"W.dXhXhX/.iXdXdX2X2.4./ -.5.Z.5.5.6.=.=.=.% V b.b.b.j $ W X h.b.b.b.o O 6 6 < 6 v c n N n N n n / E Y.} L J.K.o.{ J H J.",
"P.,XpX2XI.Q.pXpXL.E.6.Q B.Z.5.:X5.6.:.=.W 2 l e.w.9.; $ -.  h 9.w.0.j 2 5 7 u 7 8 i A A A R R E b A ` [ P G.[ P o.` K O.",
"| ,.P.O.J.F.,.E.O.o.<. .=.4.4.6.4.4.:.*.X V j.T Y T 3 # *.  z h.Y T j.j * S S ' ,.2.!.+.,.,XQ.O.L.,.<.,.+.K ..K } P.o.J ",
"@.F.K K G.F.] ..W.3XdXQ.P pXvXvX,XL F   h.j.h.h.h.h.4 O H   z j.j.h.h.k.z X F.Q.hXsXgX,X,XvXpX(.2.aXgXiXQ.O.J.D ` J.O.[ ",
"Y.H.{ P P O.{ +.pXpXsX!.F iX(.~.,X!.F   o o o o O > O C H H o O o > o - o   } I.pXaXdX/.,XpXdX2X!.aXdX(.H.J.[ H S ` K.P.",
"o.o.[ O.D [ K.E.aXsXgX/.L E.(.T...@.` 2 7 7 2 & 2 2 7 C K K 7 2 2 2 2 2 1 7 G ,.aXaXaX/.).dXsXuX@.iXhXiXE.G.T.H.] { H.F.",
"X.K | o.X.K G.P.Q.5./.Q.P P _. .K P o.' Z A F Z C C Z F H P Z C C Z Z 7 F S S E 2.~.,.,.<.,.,.,.,.Q././.W.P...P G...o.+."
};
