/* XPM */
static char *_fbe8b6c51fc4f41a2cbef6ee913e76dkhBsJEKZtSWeWZPC[] = {
/* columns rows colors chars-per-pixel */
"60 60 127 2 ",
"   c #6D7D2E",
".  c #717E2E",
"X  c #6E7E33",
"o  c #727F32",
"O  c #6F812E",
"+  c #75842D",
"@  c #78862F",
"#  c #7B8A2D",
"$  c #6F8031",
"%  c #758435",
"&  c #798636",
"*  c #778935",
"=  c #7C8B35",
"-  c #75863B",
";  c #7A863A",
":  c #778838",
">  c #7C8B3B",
",  c #7D9037",
"<  c #7E913B",
"1  c #7C8C41",
"2  c #7F9040",
"3  c #808E37",
"4  c #818F37",
"5  c #808E36",
"6  c #808F34",
"7  c #808F36",
"8  c #818F38",
"9  c #808E39",
"0  c #808D3B",
"q  c #818F3A",
"w  c #808D3D",
"e  c #808D3E",
"r  c #818E3E",
"t  c #818E3F",
"y  c #828F3F",
"u  c #818E3D",
"i  c #819035",
"p  c #829136",
"a  c #839237",
"s  c #849336",
"d  c #829136",
"f  c #829038",
"g  c #829039",
"h  c #83913A",
"j  c #82903B",
"k  c #849338",
"l  c #84923A",
"z  c #84923B",
"x  c #85933B",
"c  c #86953A",
"v  c #83913C",
"b  c #81933D",
"n  c #80923E",
"m  c #85933C",
"M  c #84923D",
"N  c #84913F",
"B  c #85933E",
"V  c #86943D",
"C  c #87953D",
"Z  c #86943F",
"A  c #84923C",
"S  c #88973C",
"D  c #88963E",
"F  c #85983F",
"G  c #89983B",
"H  c #828F40",
"J  c #828E42",
"K  c #828E41",
"L  c #809141",
"P  c #839040",
"I  c #839041",
"U  c #809240",
"Y  c #819341",
"T  c #819242",
"R  c #829343",
"E  c #849141",
"W  c #859240",
"Q  c #869341",
"!  c #849142",
"~  c #859242",
"^  c #859243",
"/  c #869343",
"(  c #829440",
")  c #839541",
"_  c #829442",
"`  c #839543",
"'  c #879540",
"]  c #879442",
"[  c #859743",
"{  c #809045",
"}  c #829345",
"|  c #819146",
" . c #809047",
".. c #869344",
"X. c #839444",
"o. c #839446",
"O. c #849545",
"+. c #879444",
"@. c #879445",
"#. c #849644",
"$. c #859646",
"%. c #869747",
"&. c #849242",
"*. c #889641",
"=. c #889545",
"-. c #8A9745",
";. c #889546",
":. c #899646",
">. c #8A9747",
",. c #899544",
"<. c #8A9840",
"1. c #899A41",
"2. c #819148",
"3. c #829249",
"4. c #849449",
"5. c #84944B",
"6. c #859648",
"7. c #8A9748",
"8. c #8A9748",
"9. c #879848",
"0. c #889949",
"q. c #8B9849",
"w. c #899A4A",
"e. c #8D9A4B",
"r. c #8E9B4C",
"t. c #8C9D4D",
"y. c #8C9A4A",
/* pixels */
"= < b < * * * > - % % - U _ > O : : : > > > > > : - * > > * * : < : % * < U > * > > : : : > : : b > * : 2 1 - % X % - - ",
"% * > > > > U #.1 - - - > U < > % * * : : : : * > - * : > : > #._ > : > U _ < : > > > : : : : : _ > %   % - - - X % - - ",
"X % - - - 1 | 4.| 1 - : : < _ [ : : > > > > > > U : * : : : > #._ < > > < < > * > 2 2 > * % - > < * % % - - - - % - - - ",
"- - - - - - 1 1 1 1 1 : * : < [ > > > 2 U U 2 2 #.> : > : % * : < > : * : : * % > 2 | > * % * > % * > U X.| - X - - - - ",
"1 1 - - - - - - - - - : * * * > * : : : : : > : | 1 2 X.U : * : < > : : : * * % : 2 _ > * % - > % * > U | 1 - - ; - 1 | ",
"- - - - 1 1 1 - - - - - : : % % : : : > > > > > > : 2 w.w.| 1 U < > > > > > : : : > > > * * : > < > * % % - - - - 1 J | ",
": * * : < _ U > 1 - - - > < * % : : > > > 2 > > : : > X.#.2 1 U > > > > : : : > : : : : : - > > _ < : % $ % - - - 1 1 1 ",
"> * * * < b < > 4.1 - - U _ < * % * : : : : : : > : * : : * * : * * * * * * * : > : * : : > > > < b U > - - % - - - 1 - ",
"e > > & & & > ^ e & % & U ;.;.e e e > & + + + + = = = 5 = : & & 1 % $ * > : %   o % ; > ; > > H : > > * * : > > e e e H ",
"> > > > > > > > ;.e > e U ^ e & : & & @ @ = = = s k k V M e e > : %   * > : % % % % & ; > > > > * : : : > X.U : & & > > ",
"% & > e e > & % ;.^ U ^ ^ ^ > % > & + @ = 5 5 = = = 5 5 0 0 > > : % % : 2 > : : ; * % & > H e > * * * : #.r.#.* > > e H ",
"% * & > > > & % ^ ^ ^ ^ ;.^ e & b > % & 0 k = # & = = = = = * & 1 : : > U 2 > > e & % & U ;.U > : : : : U w.#.- e e ^ ^ ",
"e > & ; > > > : ^ ^ ^ #.;.^ > : b > & = k V 5 # & = = > 0 5 5 = 2 : : > 2 : : : ^ > & > ^ ;.^ 0 > U > : * > | U > > e e ",
"e.^ > : e ^ ..^ #.;.#.^ ^ e > & > & & = V <.V i * & & = 5 5 = 6 > * * : : % % * M 0 = 0 M *.M 0 1 | 2 * % : U X.e e U ^ ",
"r.^ > > H #.#.^ U U U e e e > e ; > 0 b V V V c % % & = = = 5 6 : * * > : * * : 5 5 5 5 0 f f f > > : % * > U > e e ^ ^ ",
";.e & ; e ^ U > & > > > e e ^ ;.e ^ [ [ M f 5 i > > e M V S G G : * : 2 2 : > U = = 5 = = = = 0 : * % % > #.X.: % & : > ",
"f f f f 0 > = * & > > > > > > > ^ e > > ^ ^ U e = 5 0 0 f b M M 3.3.3.1 ; - 1 1 8.w.^ & % & > : > > ; % & 0 f = = i i i ",
"> 0 0 0 0 = * = > > e e > > > > ;.^ > > > > > % = = = 0 0 f f M J J 1 - - - ; 1 > > > % % : e > > > : * & 0 f = = = = = ",
"= = = 0 = = = * > e U e e > e e ^ e > & & & * % = = = = > 0 0 f 1 1 1 > - - ; - * : : & ; H ^ e > H > & = 0 = @ # = = = ",
"= = 0 0 0 0 > = > e ^ ^ e e e e > > & & : > > > = = = 0 0 f b b > > w > ; ; ; > > U ^ H ^ 8.;.H > H e > > f = @ = = = = ",
"= > 0 f M M b b > e ^ ^ b e e U > > > > > > > e 0 0 0 f M M V V > w H H > > e H H ^ ^ ^ ;.r.e.U > H e > > b = @ * = = > ",
"= > 0 b M V V V e e ^ ^ e e e e ^ ^ ^ e > & & > 0 f b M M V [ *.> e H ^ ^ H ^ ] ; > > > ..r.e.U H H e > > M 0 = & & = = ",
"= = 0 f M V V V > e ^ U e > e e ^ ^ ^ e : & & > 0 0 f b M M V [ 3 0 ] ] ] ] ] <.> > & & e ;...> H H > ; = M k = : > > > ",
"& = = 0 b M M M > e U U e > > e > e e e > & > U > > 0 0 f M M M & 0 y ] ] ] ] *...H > & > ^ > % H H > & = M S f e e e b ",
"F = + = F <.< + < < < < > > : : > > > > 2 2 2 2 w.#.> > 2 2 > : > % . > ^ e & & > > & ; ; > ; ; & & = = i V ^ ^ < b b b ",
", = * = < b = * = = = > > : : : > > > > > > > < X.U > : > : : : ^ & % e ^ e > > e > ; ; > > ; - & & = = 5 5 0 > * * = < ",
"* * = = = = = = * * * * * : : : : : : - > > > > > > > : * * : > ;.e : e ^ b e e M e > > > 1 ; - > > 5 i 5 = > > * * = > ",
"* > > > > > > = * * * * * : > - : : : : : : > > * : > : * * : 2 w.^ > > e e e e e 0 w e H J 1 1 ^ [ S c s 5 > > > > > > ",
"< > : > b _ < * = = = * > > > 1 : : : : : : : : : > 2 > : * > U ;.^ e > > e e e > > > e ....J 1 ^ *.<.S i = > e > > : : ",
"U > : > _ X.> : < , = * > > > 1 : : : : : : : > > > > > : > > U e ^ e > > e e > > = > e ....J 1 > e V i = @ = > : : : : ",
"> > > 1 1 1 > - f < = * * : - > : : : : : > > > U > - - > > > > & e ^ > > ^ ^ > 0 0 e H H J > ; & > k i = @ = e > > - - ",
"% > U 1 : * : 1 f , = * * * - : : : : : > > > > X.> : : > 2 > : & e ^ e e ^ ^ e M e e H H 1 ; o & > k k = = 0 ..4.X.2 > ",
"; ..8.U e ^ *.V 2 > > : : > > > U - % % * : > 2 4.U : : > U U U $ > U 1 2 X.> * e #.^ > > e > % > e H > ; > H ;.> > > > ",
"X - e : & = 0 = > > > > > > : : > : * : : > > > > : : : : > : : * > > : : > > : : H e > > e e & > w > & % % % & H w > ; ",
"  % ; & & = @ + : : > 2 2 > : * * % * : > > > : : : : : > > : * > 1 > % % : > : & > > > > U ^ e H > & % % % o . > > > ; ",
"% & > > = = = @ : > > > > > : : % % $ % : : : : : > > U U 2 : : > > : * * * : : & : > > > e ^ ^ ^ > & & : > > & & & ; > ",
"> = > b k 5 = = 2 > : : * : > > : * % % * > 2 U > > U X.X.2 > > : : - > > : * * > > > > > > e U 8.U > > e U e > > > e M ",
"e * & 5 f = # = U > : % % * : > | > : * : 2 #.9.: > > > > : > > * * : U | : * * b > > > > : > ^ w.#.e > > > : ; M M [ *.",
"M = @ = = # # # > > : * * * : > U > : : > U U U > > > : % * > U * * : #.#.> * : e & & > > > > #.^ ^ e > & * & > 5 f M S ",
"*.= + = = # # i : : : : : : : : : : : : > > > : U U > * % * 2 w.: * : X.#.> : > e & & > e > e ;.; > > > & & > ..+ @ = k ",
"e.;.^ e > > > > k *.M & * > > % % * : > > : % % e > ; * & > e ^ r.U & > ^ ;.U : e U e > > > e ^   * > U > - : > % & 0 <.",
"> e ^ ^ ^ e & % k S M * & > H ; : : : - > > > > e > > : > > H ^ ;.e & & > H > & e ^ ^ ^ > > > e * > U U : * * : e 0 0 0 ",
"% & > e U > & % 5 f > & & > > > : : : : : > U | e e > > e e H ^ ^ e ; & ; : ; & e ^ ^ ^ e > > > : > U > : * * - ;.M > & ",
"> > & & & > > > & = % % % & ; ; * * * * : : > > > > > > e e e e U e > ; & & & ; e ^ ^ e > & & > * : : : * : > U V e : ; ",
"U e > > * : > > = @ + % % % ; > * : : > > : : * > > > > > > > e ^ H > > > : > > U e > & % % & > - - : * * * > 2 > > > > ",
"> e ^ ;.^ > & . 0 = & = > ; > H : > U U U > : * > > > > : > > e ..e > > > e e e e e > & % % & > 1 > : : * * * : = * > e ",
"> e ^ ;.^ e & % V = = e e > > ..> > > 2 2 > > > e > > ; : > e U ..> * & e ..^ > > e e e > & & & U 1 > > : : : : : * * > ",
"^ e > > > > > > V = * 0 > & ; H : : * : : > > U ^ e > ; : > ^ #...: % % H ;.^ > % > ^ ;.^ e & & > > > 1 U U U U : * * = ",
"<.V < = , < , = % H e.8.> % > U & > e ; & > e > ^ & % e e & > ;.e e e e e e > > e ^ ^ ^ e e ^ ;.; ; ; > 0 f k k > > > > ",
"b < = = < < < = e e e > > > > e % > e > & > > > e > > ^ ^ e e ^ > > > > > > > : U ^ ^ U > > > > ; ; > > > 0 0 5 > > > > ",
"* * * > f b < = ;.> % % > H > & & ^ ;.U e ^ ^ e > ^ #.^ ^ ;.^ > e e e e e e e e e e e e : & & * > > > > > = = = < < > > ",
"* * > > b < = % ..; o % > ^ > % & U ;.^ e ^ ^ e > ;.;.e e ;.;.> ^ ^ ^ ^ ^ ^ ^ ^ & > > > > > > e > > > > = * & & > > > > ",
": : > < b > * O > & * ; > e : % % > e > > e e > > ;.^ & & ^ ^ > > > > > > e e e > > e e > > e U e e 0 > > & & & : : : : ",
"> > > 2 < > *   % & ; > e > : & > ^ ^ e e ^ ^ ^ e U e & * > e > > > > e e e ^ ^ ^ ^ ^ ^ > > > > k b 0 0 > > ; ; - - - - ",
"> > > 1 2 1 : % > & & > > e > : ^ ;.;.e > ^ ;.;.e > > > > & & > e e e e ^ ^ ^ ^ ^ ^ ^ ^ > > > > k M b e e > > > - - - - ",
"> - - 1 2 2 > : ^ > % % > U H > > e > % % : e b e & > #.^ & % > & & & > > > e e > e e e > > e ^ c k k b e H 1 1 1 1 1 1 ",
"1 - - 1 1 - : 2 > > > > U #.#.U > : * : > 2 > : = & f [ e e H o > : : > > * : > X.U U 2 U U U X.= f = = M > % b * * > > ",
"1 - - > 1 - : 1 2 > : : : : * % > : * : > > > : M = > b & > H ; > : : > > : : > > > : : : : > > = f = = V > % e * * > > ",
"1 - - - - - - 1 > - : * * * %   > : * : > > > * <.= > > % ; ..H > : : > > : : > : : * - * * : : = f = = V > % e * * : > ",
"1 - - - - - - - : - * : > > > : > : * : > > > - *.= 0 > % & ..H > : * > > : : > > > - : : : > > = f = = [ = % 0 * * : > "
};
