/* XPM */
static char *fb7ced929f754f158810d0c7faddece8WMIc3TPO4tsI28ba[] = {
/* columns rows colors chars-per-pixel */
"60 60 250 2 ",
"   c #1D1108",
".  c #2C0C00",
"X  c #380C01",
"o  c #3F1809",
"O  c #31170B",
"+  c #38230E",
"@  c #411508",
"#  c #4D110B",
"$  c #6B1911",
"%  c #46240E",
"&  c #462918",
"*  c #562B17",
"=  c #49341A",
"-  c #563619",
";  c #512C09",
":  c #66361A",
">  c #743818",
",  c #712A0F",
"<  c #522E22",
"1  c #4C3827",
"2  c #523423",
"3  c #543B23",
"4  c #593A28",
"5  c #5A3834",
"6  c #653A28",
"7  c #733924",
"8  c #6D3128",
"9  c #6A441C",
"0  c #5C432A",
"q  c #5B4537",
"w  c #4F4733",
"e  c #64472C",
"r  c #7A4928",
"t  c #684838",
"y  c #774837",
"u  c #6E5537",
"i  c #79563B",
"p  c #795427",
"a  c #5A4746",
"s  c #5D584D",
"d  c #6B4F42",
"f  c #6A5547",
"g  c #76594A",
"h  c #6B5A52",
"j  c #77554D",
"k  c #7E6349",
"l  c #7B6658",
"z  c #68664C",
"x  c #746D64",
"c  c #7D7666",
"v  c #6A6869",
"b  c #921F1A",
"n  c #89390B",
"m  c #873524",
"M  c #922E31",
"N  c #92471E",
"B  c #8A491D",
"V  c #A35317",
"C  c #964926",
"Z  c #875526",
"A  c #895637",
"S  c #9C5A35",
"D  c #8F4F30",
"F  c #A74A27",
"G  c #AD5930",
"H  c #926235",
"J  c #B5642C",
"K  c #A56437",
"L  c #B76636",
"P  c #B9723B",
"I  c #AC7237",
"U  c #D56D39",
"Y  c #C9743A",
"T  c #D9793A",
"R  c #C66733",
"E  c #EF793C",
"W  c #975B46",
"Q  c #8A5045",
"!  c #B2584A",
"~  c #846944",
"^  c #866556",
"/  c #926A57",
"(  c #897559",
")  c #98735E",
"_  c #937049",
"`  c #A96545",
"'  c #B26643",
"]  c #B97646",
"[  c #A2655B",
"{  c #B0725C",
"}  c #AF5E64",
"|  c #826C64",
" . c #87766A",
".. c #997A69",
"X. c #877A73",
"o. c #967C76",
"O. c #936D64",
"+. c #A57B66",
"@. c #AE7C6E",
"#. c #CA784B",
"$. c #D67B48",
"%. c #D1684C",
"&. c #F17875",
"*. c #D86258",
"=. c #E68D3A",
"-. c #988A59",
";. c #B1884E",
":. c #BFA158",
">. c #8D8579",
",. c #988476",
"<. c #9A8666",
"1. c #AA836C",
"2. c #B48D6A",
"3. c #A78877",
"4. c #B58C79",
"5. c #A99879",
"6. c #B7957D",
"7. c #B19766",
"8. c #D8854A",
"9. c #CC845A",
"0. c #DA9656",
"q. c #D48B4D",
"w. c #EA984A",
"e. c #FA984B",
"r. c #EA9756",
"t. c #F59E5B",
"y. c #F89857",
"u. c #EA864D",
"i. c #E7A15B",
"p. c #F4A35B",
"a. c #FAA65B",
"s. c #F5A94F",
"d. c #C88868",
"f. c #D79667",
"g. c #C59974",
"h. c #E69D69",
"j. c #EE9470",
"k. c #DAB775",
"l. c #CFAA6F",
"z. c #E6A669",
"x. c #FCA664",
"c. c #FAAA68",
"v. c #FBB56B",
"b. c #F5A873",
"n. c #FDB673",
"m. c #F9B975",
"M. c #E8B476",
"N. c #DCC17C",
"B. c #FFC37A",
"V. c #FDCA7B",
"C. c #F5C575",
"Z. c #998984",
"A. c #9C9588",
"S. c #8A8687",
"D. c #A68E89",
"F. c #AA9585",
"G. c #B89986",
"H. c #AB9291",
"J. c #B9A788",
"K. c #ABA699",
"L. c #B6A799",
"P. c #AAA48C",
"I. c #989BA0",
"U. c #BAADA6",
"Y. c #ADB3A9",
"T. c #BBB3A8",
"R. c #AFA5A3",
"E. c #C08C88",
"W. c #C79E8A",
"Q. c #D29A8E",
"!. c #FD8784",
"~. c #CDAD96",
"^. c #C6A896",
"/. c #CAB29B",
"(. c #D5B49B",
"). c #D0AF8E",
"_. c #EDB684",
"`. c #E6B69A",
"'. c #F5B28F",
"]. c #C6ACA5",
"[. c #C9B8A8",
"{. c #D5B4A3",
"}. c #D9B9A8",
"|. c #C7BCB4",
" X c #D4BBB6",
".X c #E5BDA8",
"XX c #BED1BB",
"oX c #F9C685",
"OX c #EDC39E",
"+X c #EECB96",
"@X c #D5C3AB",
"#X c #CBC5BC",
"$X c #D8C9B8",
"%X c #CBCBAB",
"&X c #E6C4AB",
"*X c #F8D6AB",
"=X c #E7C8B7",
"-X c #F3CDBB",
";X c #E9D3BA",
":X c #F7D4B9",
">X c #F1C9A8",
",X c #FDE1B6",
"<X c #C9C8C4",
"1X c #D5CCC6",
"2X c #D8CCC8",
"3X c #DDD5CB",
"4X c #D6D7C8",
"5X c #DAD8D6",
"6X c #CDD5C6",
"7X c #E2CEC2",
"8X c #EBCFC4",
"9X c #E8D8C8",
"0X c #F5DBC9",
"qX c #E4DBD3",
"wX c #E7D7D5",
"eX c #F2D7D5",
"rX c #D9E9DF",
"tX c #FDE3CB",
"yX c #F8E7C9",
"uX c #FFF7CE",
"iX c #E9E7DA",
"pX c #FDECD3",
"aX c #F4ECDD",
"sX c #F9E7D7",
"dX c #FDF3DC",
"fX c #F5F4D9",
"gX c #EDE9D0",
"hX c #DAE2E5",
"jX c #E9E7E6",
"kX c #F6EAE5",
"lX c #EBF3E8",
"zX c #FEF4E4",
"xX c #F4F4ED",
"cX c #FDF5EB",
"vX c #F5FDEC",
"bX c #FDFDEC",
"nX c #F9F9E4",
"mX c #EBEEF9",
"MX c #F8EEF1",
"NX c #EDFDF3",
"BX c #EFFDFD",
"VX c #EDF4F8",
"CX c #F3F4F5",
"ZX c #FBF5F3",
"AX c #F4FDF5",
"SX c #FDFCF4",
"DX c #F5F6FB",
"FX c #FBF6FC",
"GX c #F5FCFD",
"HX c #FEFFFE",
/* pixels */
"HXHXHXHXHXHXHXHXHXHXFXHXHXHXHXHXvXHXGXHXSXHXHXHXHXHXHXHXHXHXHXHXHXHXHXHXHXHXHXHXHXHXHXHXHXHXHXHXHXHXHXHXHXHXHXHXHXHXHXHX",
"HXHXHXHXHXHXHXHXFXHXHXHXHXHXHXHXHXHXHXFXHXHXHXFXHXHXHXHXHXHXHXHXHXHXHXHXHXHXHXHXHXHXHXHXHXHXHXHXHXHXHXHXHXHXHXHXHXHXHXHX",
"HXHXHXHXHXHXHXHXHXHXHXHXHXHXHXHXHXHXHXHXHXHXHXHXHXHXHXHXHXHXHXHXHXHXHXHXHXHXHXHXHXHXHXHXHXHXHXHXHXHXHXHXHXHXHXHXHXHXHXHX",
"HXHXHXHXHXHXHXHXHXHXHXHXHXHXHXHXSXbXbXSXHXHXHXHXHXHXHXHXHXHXHXHXHXHXHXHXHXHXHXHXHXHXHXHXHXHXHXHXHXHXHXHXHXHXHXHXHXHXHXHX",
"HXHXHXHXHXHXHXHXHXHXHXHXHXHXFXFXGXGXSXxXDXHXHXHXHXHXHXHXHXHXHXHXHXHXHXHXHXHXHXHXHXHXHXHXHXHXHXHXHXHXHXHXHXHXHXHXHXHXHXHX",
"HXHXHXHXHXHXHXHXHXHXHXHXHXFXHXHXGXmXHXDXHXHXHXSXHXHXHXHXHXHXHXHXHXHXHXHXHXHXHXHXHXHXHXHXHXHXHXHXHXHXHXHXHXHXHXHXHXHXHXHX",
"HXHXHXHXHXHXHXHXHXHXHXFXGXHXHXDXMX1X$X1XFXHXGXAXHXHXHXHXHXHXHXHXHXHXHXHXHXHXHXHXHXHXHXHXHXHXHXHXHXHXHXHXHXHXHXHXHXHXHXHX",
"HXHXHXHXHXHXHXHXHXHXHXFXHXHXjX<Xl.N.l.7.A.CXGXGXHXHXHXHXHXHXHXHXHXHXHXHXHXHXHXHXHXHXHXHXHXHXHXHXHXHXHXHXHXHXHXHXHXHXHXHX",
"HXHXHXHXHXHXHXHXHXHXHXGXGXSXg.r.=.y.b.m.:.Y.FXbXHXSXHXGXHXFXSXGXSXHXGXSXSXSXHXGXHXHXSXbXSXHXHXGXHXHXHXHXHXDXHXHXHXHXHXHX",
"HXHXHXHXHXHXHXHXHXHXHXHXGXjX+.K F Z $.y.a.[ GXSXGXSXHXGXHXZXZXGXxXHXHXHXHXHXHXHXSXHXGXHXFXHXCXHXHXHXHXHXHXGXHXHXHXHXHXHX",
"HXHXHXHXHXHXHXHXHXFXSXHXHXFX/.6.D.D n $.a.f.O.@XGXSXHXGXGXkXiXhXjXCXHXHXCXGXHXHXHXHXDXjXDXHXHXcXHXFXHXHXHXHXHXGXHXHXHXHX",
"HXHXHXHXHXHXHXHXHXFXHXHXHXHXZXSX5X' F n I ] ! A  .G./.U.S.X.T.VXSXHX5XxXGXHXGXxXGXkX5.J.<.,.jXHXHXFXHXHXHXHXHXHXHXHXHXHX",
"HXHXHXHXHXHXHXHXHXHXHXHXZXHXGXHXVXg.$.` 9 C S N ;._.+XsXiX#XT.<XwXU.2X5X5XHXHXSX5X,.M.V.l.; h 5XHXHXHXGXHXHXHXHXHXHXHXHX",
"HXHXHXHXHXHXHXHXHXHXHXHXHXHXDXGXHX-.I L L N A H Y t.z.yXHXHXzXSX|.c #XGXmXDX<XT.5.oXv.c.] - 1 z qXHXHXHXHXHXHXHXHXHXHXHX",
"HXHXHXHXHXHXHXHXHXHXGXGXHXHXHXHX5X7.;.%.F p _._.p.c.z.gXCXSXdXpXuX>X-.J.L.f -.+XoXB.a.8.S * 3 - K.SXHXHXHXHXHXHXHXHXHXHX",
"HXHXHXHXHXHXHXHXHXHXGXGXHXHXSXHX@X2.G m 9 2.H =.t.p.M.bXBXAXyX).p.c.v.z.f.z.n.a.m.a.v.z.- 5 4 * x xXHXHXHXHXHXHXHXHXHXHX",
"HXHXHXHXHXHXHXHXGXHXHXHXGXHXHXSX XH A ] E.e - ] a.e.0XGXbX:Xp.s.] L h.n.n.B.n.n.m.v.8.G Z - = = l cXHXHXGXHXHXHXHXHXHXHX",
"HXHXHXHXHXHXHXHXHXHXHXHXHXFXHX1X_ k.M.0.E.  a +.a._.zXNX,Xh.b.s.q.n 8.i.0.i.m.v.m.i.p.b.W = 0 - A.SXHXHXGXHXHXHXHXHXHXHX",
"HXHXHXHXHXHXHXHXHXFXHXHXHXFXHXK.l.M.i.V W o X 9.m.aXGXnXb.y.d.n.n.r.8.r.P 0.B.m.m.p.B.0.6 5 < 9 2XHXHXHXGXHXSXHXHXHXHXHX",
"HXHXHXHXHXHXHXHXHXHXHXHXHXHXZXK.x.w.x.r.4.5.L.;XuXGXVXyXa.$.W , K c.T Y J z.v.v.v.B.0.B * < 5 <.ZXHXHXHXGXHXSXHXHXHXHXHX",
"HXHXHXHXHXHXHXHXHXFXHXHXHXHX#X|.tX>X:X,XZXY.I.Y.K.kXHX*Xw.g.5 e i P r.G N 8.t.c.c.0.` : - 1 | kXHXHXHXHXFXHXHXHXHXHXHXHX",
"HXHXHXHXHXHXHXHXHXSXHXHXHXZXZ.$XBXlXY.fXHXd % i v f HX,Xm./ . 1 q S y.#.C J Y L L K : 6 = w iXHXHXFXHXHXHXHXHXHXHXHXHXHX",
"HXHXHXHXHXHXHXHXHXSXHXGXHXFXX.$XbX(.3.%XcXW.@ .   ,.ZX0Xz.S @ . s #.=.Y S J $.S : : 2 % 1 L.HXBXHXGXHXHXHXHXHXHXHXHXHXHX",
"HXHXHXHXHXHXHXHXFXHXHXDXHXHX>.[.HXSX].>.HX0X/ ~ J.aXSXvXoXe.` y A.q.e.Y ] N L 7 1 & = & ,.HXHXGXHXHXFXHXHXFXHXHXHXHXHXHX",
"HXHXHXHXHXHXHXHXHXHXGXHXGXFXqX| vXSXeX& g g 0 tXcXrXrXNXyX'.y.s.J Y x.R $.G , 6 % % + X.SXHXFXHXHXHXHXHXHXHXHXGXHXHXHXHX",
"HXHXHXHXHXHXHXHXSXHXGXHXHXHXkXZ.7XbXbXo.# M $ / AXGXZXFXHXfX*Xb.x.t.t.T Y #.D X + q L.HXFXHXGXGXHXHXHXFXHXZXDXHXHXHXHXHX",
"HXHXHXHXHXHXHXHXSXHXHXGXHXHXHX#Xo.bXvX@Xm M M # j ].iXkXeXH.3XfXk.z.r.E U #.2.c 2XMXFXHXGXGXGXGXGXGXHXHXHXHXDXFXHXHXHXHX",
"HXHXHXHXHXHXHXHXHXHXHXHXHXSXHXSX,.>.zX0Xy W D m $ m 7 % O  .H.SXuX>Xb.U R 9./.4XFXHXDXGXGXHXHXFXHXGXHXHXDXHXHXHXHXHXHXHX",
"HXHXHXHXHXHXHXHXHXHXHXHXHXDXHXHXSXh =X].G.Q.j.!.! b , ~ %XSXcXzXSXbXpX).l.OXG. XHXHXHXHXFXHXZXSXGXFXGXHXHXFXHXHXHXHXHXHX",
"HXHXHXHXHXHXHXHXHXHXHXHXHXHXHXDXHX<Xh ^ Q.'.&.!.*.Q /.bXbXSXAXSXCXHXaX@X;X}.| wXCXHXSXCXxXZ.T.U.ZXHXHXDXHXHXFXHXHXHXHXHX",
"HXHXHXHXHXHXHXHXHXHXHXHXHXHXHXDXFXHX|.j Q.j.&.*.Q G.F.L.SXlXAXSXAXxX7X.X-X3.X.rXHXHXHXFXjXx 3X#X .>.xXHXHXHXFXHXHXHXHXHX",
"HXHXHXHXHXHXHXHXHXFXHXHXFXFXHXHXHXHXcXg 4.@.! D k 1.W.=X7XsXkXiXpX;X;X^.1.^ SXHXGXGXHXZXHX1X|.SX0Xl 5XHXHXHXHXHXHXHXHXHX",
"HXHXHXHXHXHXHXHXSXHXHXGXHX6XK.K.U.iXK.| 6 [ 7 * t ~ / 6.^.^.}.|.K.1.i & Z.FXHXGXDXHXGXcXHX6X^.HXSX$XK.lXGXGXHXFXHXHXHXHX",
"HXHXHXHXHXHXHXHXHXHXGXHXZ.o.eXqX#Xs K.bX@.y A 6.{.W.W.+.) A > > * > > ; l wXkXSXSXGXAXHXFX1X).:XAXSXx #XHXHXHXHXHXHXHXHX",
"HXHXHXHXHXHXHXHXGXHXHXU. .F.D.2XbX3X,.sXdX}.{.{.=X}.}.-X:XQ.9.Y #.8.$.Z - g l ( F.XXHXHXHX6.M.f.rXHXK.3XHXFXDXAXHXHXHXHX",
"HXHXHXHXHXHXHXHXGXHXeXD./.fXP.X.iXbX3.{.dX$XL.0XsXbX|.9XdXtX_.t.y.y.8.r - 4 e u u z ..1X1Xf.w.t.7XsXT.2XHXHXHXGXHXHXHXHX",
"HXHXHXHXHXHXHXHXHXHXSXt y r ^.5.[.tXW.}.sX9X0X8XpX>.A.dXfXSX*Xt.a.t.] - q 2 * - 2 3 { 7.( t.e.r.d.>XL.xXHXDXHXHXHXHXHXHX",
"HXHXHXHXHXHXHXHXFXAXNX].} ! 8 6 @X}.-X{.0XzXtXG.) H.qXdXkXxXtXc.w.u.S ; q 5 4 4 3 * K C.;.R U ' ' { F.lXGXHXHXHXHXHXHXHX",
"HXHXHXHXHXHXHXHXHXDXGXHXQ.} [ ..(.&X&X/.{.-X$Xz ;XkXzXpXzXVXcXc.a.y.S : 3 2 4 3 0 & - q.oXW ` ; , ^ qXGXHXHXHXHXHXHXHXHX",
"HXHXHXHXHXHXHXHXHXHXHXDXHX5X5XL.+.~.@X3...1.u $XbXlXnXuXpXGXyX0.w.u.F r = 3 3 1 9 a e y.n.( X * / zXGXGXHXHXHXAXHXHXHXHX",
"HXHXHXHXHXHXHXHXHXHXHXHXHXHXHXHXwXD.Z.D.q 4 ;XzXaXaXdXaXkX0X`.Y P J L #.D * 2 1 9 c.r.t.p.7.w R.HXHXHXHXHXHXHXHXHXHXHXHX",
"HXHXHXHXHXHXHXHXHXHXHXHXHXHXHXHXGXHXAXkXX.aXnXfXaXzX;X$X X X>X9.r d.'.{ 7 - 4 1 H t.y.x.w.g.3XFXHXHXHXHXHXHXHXHXHXHXHXHX",
"HXHXHXHXHXHXHXHXHXHXHXHXHXHXHXHXGXGXHXK. .9XzXfXzXpXG.G.tX/.).B 3.=X&X~.4 - = + ] c.y.t.T 2.jXHXHXHXHXHXHXHXHXHXHXHXHXHX",
"HXHXHXHXHXHXHXHXHXHXHXHXHXHXHXHXDXFXFXZ.].F.{.8X7X6.6 +.3.g t g.7X[.9XF.+ 1 ../.OXb.z.f.P 6.jXHXHXHXHXHXHXHXHXHXHXHXHXHX",
"HXHXHXHXHXHXHXHXHXHXHXHXHXHXHXHXHXHXFXkXo.,.l & h l 2 4.4.{..X=X.X=X;XL.l ,.9X8X$X*X).; r J.GXHXHXHXHXHXHXHXHXHXHXHXHXHX",
"HXHXHXHXHXHXHXHXHXHXHXHXHXHXHXHXGXjXHXHXHXqX3XqXSXcX,.d ^.-X-X~..X&X:X0X0XpX].}.jX$X9X[.~.[.GXDXHXHXHXHXHXHXHXHXHXHXHXHX",
"HXHXHXHXHXHXHXHXHXHXHXHXHXHXHXHXGXGXGXCXCXHXGXHXHXHXHXX.O g G.{.(.{.~.G.^.^ ^ }.1X=X$X9X=X].mXHXHXHXHXHXHXHXHXHXHXHXHXHX",
"HXHXHXHXHXHXHXHXHXHXHXHXHXHXHXHXHXFXFXHXHXFXHXHXGXGXGXHX9Xt 4 @ & < o @ X % * W..X>X0X[.&X].VXHXHXHXHXHXHXHXHXHXHXHXHXHX",
"HXHXHXHXHXHXHXHXHXHXHXHXHXHXHXHXHXHXHXHXHXHXHXHXHXHXGXDXHXo./ @.A Q t X.1XZXX.f `..X`..XF.].HXGXHXHXHXHXHXHXHXHXHXHXHXHX",
"HXHXHXHXHXHXHXHXHXHXHXHXHXHXHXHXHXHXHXHXHXHXHXHXHXHXGXHXZXo.g +.`.~. .SXHXxXSXD.* 1.4.6.^ qXHXHXHXHXHXHXHXHXHXHXHXHXHXHX",
"HXHXHXHXHXHXHXHXHXHXHXHXHXHXHXHXHXHXHXHXHXHXHXHXHXCXHXGXHXqXl d k | $XHXDXHXSXiXd g g | L.HXFXGXHXHXHXHXHXHXHXHXHXHXHXHX",
"HXHXHXHXHXHXHXHXHXHXHXHXHXHXHXHXHXHXHXHXHXHXHXHXSXHXHXGXHXHXwXU.L.qXHXHXGXHXHXZXqXH.K.T.HXHXFXHXHXHXHXHXHXHXHXHXHXHXHXHX",
"HXHXHXHXHXHXHXHXHXHXHXHXHXHXHXHXHXHXHXHXHXHXHXHXHXFXHXDXDXHXHXHXHXSXHXGXGXHXHXHXHXSXFXFXHXHXHXHXHXHXHXHXHXHXHXHXHXHXHXHX",
"HXHXHXHXHXHXHXHXHXHXHXHXHXHXHXHXHXHXHXHXHXHXHXHXHXHXDXHXHXxXHXxXHXGXGXGXHXCXHXFXFXHXHXHXCXHXHXCXHXHXHXHXHXHXHXHXHXHXHXHX",
"HXHXHXHXHXHXHXHXHXHXHXHXHXHXHXHXHXHXHXHXHXHXHXHXHXHXHXHXHXHXHXGXHXHXFXFXHXHXHXHXHXGXFXHXHXDXHXHXHXHXHXHXHXHXHXHXHXHXHXHX",
"HXHXHXHXHXHXHXHXHXHXHXHXHXHXHXHXHXHXHXHXHXHXHXHXHXHXHXHXHXHXHXGXHXGXHXHXSXHXZXHXHXHXGXHXHXHXHXHXHXHXHXHXHXHXHXHXHXHXHXHX",
"HXHXHXHXHXHXHXHXHXHXHXHXHXHXHXHXHXHXHXHXHXHXHXHXHXHXHXHXHXHXHXHXHXHXHXHXHXHXHXHXHXHXHXHXHXHXHXHXHXHXHXHXHXHXHXHXHXHXHXHX",
"HXHXHXHXHXHXHXHXHXHXHXHXHXHXHXHXHXHXHXHXHXHXHXHXHXHXHXHXHXHXHXHXHXHXHXHXHXHXHXHXHXHXHXHXHXHXHXHXHXHXHXHXHXHXHXHXHXHXHXHX",
"HXHXHXHXHXHXHXHXHXHXHXHXHXHXHXHXHXHXHXHXHXHXHXHXHXHXHXHXHXHXHXHXHXHXHXHXHXHXHXHXHXHXHXHXHXHXHXHXHXHXHXHXHXHXHXHXHXHXHXHX",
"HXHXHXHXHXHXHXHXHXHXHXHXHXHXHXHXHXHXHXHXHXHXHXHXHXHXHXHXHXHXHXHXHXHXHXHXHXHXHXHXHXHXHXHXHXHXHXHXHXHXHXHXHXHXHXHXHXHXHXHX"
};
