/* XPM */
static char *xpm_[] = {
/* columns rows colors chars-per-pixel */
"60 60 226 2 ",
"   c #010101",
".  c #050904",
"X  c #090A06",
"o  c #0B0B0B",
"O  c #080808",
"+  c #11110F",
"@  c #0E0E10",
"#  c #0F1110",
"$  c #1A1A1B",
"%  c #151513",
"&  c #0F0E0C",
"*  c #1A2A0E",
"=  c #1B2814",
"-  c #1E3414",
";  c #20201E",
":  c #253919",
">  c #242424",
",  c #2C2C2B",
"<  c #282B24",
"1  c #302E2F",
"2  c #2D322C",
"3  c #2B3826",
"4  c #33372E",
"5  c #2E2E30",
"6  c #323232",
"7  c #3C3C3C",
"8  c #343338",
"9  c #29451C",
"0  c #2A4B1E",
"q  c #32551F",
"w  c #314F1D",
"e  c #314527",
"r  c #2F5523",
"t  c #335622",
"y  c #355C24",
"u  c #395E25",
"i  c #355E28",
"p  c #3F4339",
"a  c #356326",
"s  c #3A6226",
"d  c #366927",
"f  c #3A6A26",
"g  c #366529",
"h  c #3C652A",
"j  c #3C6B2B",
"k  c #36692A",
"l  c #3E722C",
"z  c #3E782E",
"x  c #3E6E31",
"c  c #3F7430",
"v  c #45553C",
"b  c #426D2C",
"n  c #41642C",
"m  c #43742D",
"M  c #49762E",
"N  c #45792E",
"B  c #497A2E",
"V  c #436533",
"C  c #436D32",
"Z  c #4A6B39",
"A  c #447431",
"S  c #4A7633",
"D  c #467A31",
"F  c #4B7C32",
"G  c #4C743B",
"H  c #4D7D39",
"J  c #517D34",
"K  c #537C3C",
"L  c #507738",
"P  c #474746",
"I  c #565656",
"U  c #5B5B5B",
"Y  c #575759",
"T  c #4F6C42",
"R  c #526C44",
"E  c #527443",
"W  c #557C44",
"Q  c #5A7D44",
"!  c #5A744D",
"~  c #5B7B4C",
"^  c #577848",
"/  c #5E7A52",
"(  c #5D7751",
")  c #4F7343",
"_  c #656A5C",
"`  c #627C54",
"'  c #647C59",
"]  c #677A58",
"[  c #646465",
"{  c #6C7A63",
"}  c #727372",
"|  c #767978",
" . c #7B7C7C",
".. c #787878",
"X. c #4C812F",
"o. c #47802F",
"O. c #468132",
"+. c #4D8333",
"@. c #4D8834",
"#. c #4D8239",
"$. c #528534",
"%. c #548A36",
"&. c #598C36",
"*. c #53843A",
"=. c #59863E",
"-. c #558B3A",
";. c #5A8D3B",
":. c #598536",
">. c #57913B",
",. c #5B913B",
"<. c #589037",
"1. c #568342",
"2. c #5A8443",
"3. c #5C8A43",
"4. c #5E834A",
"5. c #5F8949",
"6. c #5D9240",
"7. c #618C46",
"8. c #61854E",
"9. c #628A4B",
"0. c #69944D",
"q. c #65964A",
"w. c #648354",
"e. c #668B53",
"r. c #6B8D54",
"t. c #668259",
"y. c #6B845C",
"u. c #6C8C5B",
"i. c #698556",
"p. c #6B9154",
"a. c #6D925A",
"s. c #649153",
"d. c #74995A",
"f. c #718F5D",
"g. c #6E8A61",
"h. c #6C8362",
"j. c #728464",
"k. c #728C64",
"l. c #74856B",
"z. c #7A8D6B",
"x. c #758A69",
"c. c #749363",
"v. c #7B936C",
"b. c #7C9B6B",
"n. c #789865",
"m. c #7C8C72",
"M. c #7F9472",
"N. c #7E9C70",
"B. c #819D6E",
"V. c #828A79",
"C. c #819374",
"Z. c #849B74",
"A. c #86957A",
"S. c #899C7D",
"D. c #87977B",
"F. c #83A26C",
"G. c #80A562",
"H. c #85A374",
"J. c #89A375",
"K. c #8CA37C",
"L. c #8AA678",
"P. c #91A97D",
"I. c #91A47E",
"U. c #817F80",
"Y. c #858585",
"T. c #8E8E8D",
"R. c #878888",
"E. c #8D9D82",
"W. c #8C9289",
"Q. c #93938E",
"!. c #929D88",
"~. c #908E91",
"^. c #949493",
"/. c #9C9C9C",
"(. c #969698",
"). c #8EA382",
"_. c #8FA881",
"`. c #93A484",
"'. c #94AA83",
"]. c #94A58A",
"[. c #9AA68D",
"{. c #96A98B",
"}. c #9BAB8C",
"|. c #98AD86",
" X c #9DB18C",
".X c #9EAC92",
"XX c #98A792",
"oX c #9FB292",
"OX c #A2AE94",
"+X c #A5AE9A",
"@X c #A3A796",
"#X c #A3B294",
"$X c #A5B399",
"%X c #AAB59D",
"&X c #ACB99D",
"*X c #A8B797",
"=X c #A8B596",
"-X c #9C9DA1",
";X c #AFAFAF",
":X c #A6A6A6",
">X c #B2AEAF",
",X c #ACB4A2",
"<X c #AEBBA1",
"1X c #B2BBA4",
"2X c #B4BAAA",
"3X c #B3B3B4",
"4X c #BEBEBE",
"5X c #B6B9B7",
"6X c #AFB3B2",
"7X c #B8C1A9",
"8X c #BEC0BE",
"9X c #BEC5B5",
"0X c #C0C0BE",
"qX c #C6CEB7",
"wX c #BCBBC0",
"eX c #C1BFC0",
"rX c #BFC1C1",
"tX c #C1C1C1",
"yX c #C6C8C6",
"uX c #C6C5C9",
"iX c #C9C7C9",
"pX c #CACACA",
"aX c #C8C6C7",
"sX c #D3D3D3",
"dX c #D7D8D9",
"fX c #CFD0D2",
/* pixels */
"2.m i.!._.E./ v.K.E.c.+.D C :.=.A C D #.j H :.C h b *.S j F *.b V D +.x H $.A u C $.A C :.;.S A A #.j H %.C s C :.D x 1.",
"B +.b.,X X&Xw.S.7X&XE.j $.@.m F -.D d m M N @.A N S A +.$.A M ;.N a A A N *.N D S N @.$.A F 1.N a z N m :.m A F A $.*.A ",
"h k u.$X%X,Xw.v.<X&XE.j A $.b i l m m D %.%.%.%.+.*.B m J m y b N S F -.$.-.%.X.@.S b :.m t j M A F %.%.-.-.+.$.S b $.S ",
"*.N F 3.H.M.N 2.V.M.5.j y s F +.B $.-.$.%.%.$.F F F j u s F +.D $.&.$.$.%.$.H F F h s y F +.B %.%.-.*.%.$.J F D j s u H ",
";.*.p.$.+.8.k.i.R ! a.3.3.B +.;.%.F $.-.M f n y f D F J S O.,.&.F $.%.D f s t f F N H B +.,.-.F $.%.F h s y n N F H B +.",
"-.d.$XJ.2.b.<X,Xv.y.1X`.OXp.O.+.$.j b @.F h h m J F F s B %.+.+.h b $.m C ( t.0.<.F y F $.+.$.h b $.M n f M $.+.F s B -.",
"c.1X.X,X{ m.#X Xv.y.#X[.%Xy.k m j A j s m %.:.&.&.F m h y b b b N f a m ;.n.<X%Xc.b s s m m j N f a N $.%.;.%.B m s s j ",
"e.n.e.K.e.c.OX%XC.t.+XOX,X( f +.F @.F M F m A @.%.m F F u b +.F %.B S A 3.{.OX<XM.F F u b F J +.F N F m N $.$.m F F y A ",
"-.@.+.$.;.6.7.! Q G e.4.! V +.&.%.$.-.&.;.B f $.%.F m f s +.,.%.$.:.%.$.K ].}.}.t.m h i O.%.%.$.%.&.-.B f +.:.D D h s #.",
"@.D O.$.b m S l B N x z f f F F F +.%.b S F A O.m A D f b F +.N +.$.H 7.3.^ 2.8.W H G W +.+.=.%.2.Q 3.J m +.c m D f b +.",
"h b $.+.M u a j l A b N $.J N D B J +.M u s j l m b S $.S u y m @.m C.,XOXZ.~ ).{.}.i.N..X`.Z.8.g.N.2X' k f m b F -.F h ",
"*.$.l j @.F b N B F u j O.&.$.%.$.l k +.D m B +.$.y b $.F m S $.l a I.#X{.I.y.}.}.$Xy.M.*X.XE.x.n.D s.u.N +.$.u n $.F A ",
"-.-.A b m F @.r.0.3.n V 8.3.+.+.+.4.w.W m F K =.A a y b ;.$.%.%.m b _.&X$X].` .X$X&Xu.v.&X*XS.j.$Xb.Z.e.A $.B s y m %.=.",
"#.N N F u m %.a.}.&Xj.D.2XK.5.z f.$XZ.^ ] [.XXE.F +.N N $.X.D D A F ` V.v.` E ] k.z.T E C.m.! b a.z.A.! a b F O.N m %.#.",
"C a f S M s 2.q.J.,Xg.2.}.,XZ.i.#X[.L.K c.1X'.}.E l +.m b F f s f m b t W z.v.w.F 4.D.v.Z T ' u.2.b y M +.m h m +.m j S ",
"*.b j m +.a ` %X+X,Xg.=.K.}.d.7.OX%X$X2.H OXoX<X` a +.A f $.$.b j m @.a g.qX&X Xk.'.$X<Xk.g.1X2XH.O.k N %.b t b +.m j *.",
"+.=.N a A B F r.z.f.L Q 3.$.m m 7.k.{ l B `.C.g.#.M m $.$.A B ;.D k l m r.%X}.}.l.}.OX$Xj.k.*X.XXXW m D $.m N S N $.@.H ",
"h j m N F -.%.$.+.+.~ 8.2.Q ! / X.B b 8.2.J J F +.%.F b $.b i j m M F m 2.}.XXb.y.D.K. Xj.{ #XL.`.0.$.%.%.-.@.%.F b H S ",
"*.F $.&.%.$.%.$.=.K.%XOXy.D.$X,Xc.+.J.7Xb.%.%.%.F F h s s D $.B $.;.$.m H K T O.$.S $.S G 2.8.$.&.:.%.$.$.F F D h s s F ",
",.-.F $.%.B h y j.9X[.|.2.F..XOX`.=.F.|. X~ j s f N N J B F ,.&.F #.%.S s s y j B +.+.N +.<.$.N @.-.M f n u h F F J F #.",
":.+.h x +.S f s 8.d.P.1Xh.z.1X%Xv.' }..X,X^ t A -.@.F u B $.+.*.h b F N j s M $.+.A s B $.@.$.h b J F j h M $.+.N h B -.",
"A j A f h m $.&.%.%.5.g.! R ` ' Z D 2.( ) $.=.b.;.$.M s s j m b N f h A ;.&.&.;.F b s s h m j N f a A :.-.-.&.B b s u C ",
"$.O.+.F N B A C $.&.j m F u s K S.n.b.B m P.}.%Xa.$.$.F y j +.F $.B B F N A +.%.m F J q b +.F @.F N F A m @.-.m F F y N ",
";.%.$.-.;.,.F f $.$.O.A f - . X o !.}.%.;.'.$X#XK.%.y . . . w %.$.$.&.$.N k $.$.D m h a $.,.-.$.%.;.,.F j $.$.D l s s *.",
"#.F $.*.b M F m F N m N h -   + O ] |.~ b 3.OXu.~ C y & o   : 1.F $.Q 3.8.S +.W G #.A b B F F +.:.b M F m B K 1.2.~ m H ",
"h b @.+.m u s j j m h u . . 6 eX} . O C y V h.C q . 2 eXY.  . o G 5.u.}.%XE.^ P.`.8.-.B a s C $.H M u a j f n.$X9.0.H s ",
"*.$.l d +.H m F %.$.t r     6 sXU.@ # q b y s m t & 7 sX(.@ o   _ ] k Q m.~ b Q !.z.=.B b F $.b f +.+.m F F 0.&XZ.3.F m ",
"3.%.A l m F $.N $.S h 0     5 yX4X5XY.    .     , wX5XeX4X5XY.  .           .   O 2 k.O.%.%.%.m l f N +.A J b.].+X`.+.-.",
"#.A N J u b &.F b A y 0 & @ 7 yXeXpX(.O X @ @ o 7 pXuXtXtXpX(.@ o o o o o o & o o = V b D m l z S ` a.%.F A 1.F #.e.=.#.",
"j s h m N h J &.m 0     8 5X5XtXeXtX>X} Y.5X>X .R.tXeX8XeXeX4X5X:X..| }  .;X:X..Y     4 B.Z.Z.^ r.H. Xp.%.m a l O.f b S ",
"*.b f m @.a u s w -     6 pXtXeXeXeX>XV.(.pXtXR.^.tXrXtXtX8X4X5X:X.. .Y.R.tX5XY.[ X X 4 ! 7.#Xt.u.@.].B.$.n t n $.m f *.",
"+.=.N k m M .           6 pXuXtXtXeXeXwX4XtXtX4X4XtX0XtX0XiX^.o o O , Y.Y.tX3X . . .U .   Z q.A h N.K.B.J m N F A +.$.S ",
"h b m D F %.X           6 pXtXpXyXeXeXtXtXpXaXtXtXtXtXpXyXpXT.      $ Y.Y.4X3X . .Y.U   o 7 v V S a.$.@.%.$.+.%.D m *.S ",
"*.D $.-.$.$.X           6 pX/.6 [ yXeXyX/.6 7 5XtXiX/.6 Y yX3XT.T.T.(.;X3X0X4X;X;X3X:X^.} @   u $.:.=.@.+.r.$.N f s s H ",
",.-.B $.%.N .     O $   , fXT.  7 iXtXsX^.    5XpXiXT.  > aXyXpXsXpXpXtXtXtXtXyXtXuXyXsX^.    ! :.+.c. XK.2X( l S J B #.",
"*.$.f b J N .     . 6 ^./.yX5X~.:XpX/.6 P (.R.6 I yX5XT./.pX/.6 6 4 Y aXtX0XwXtXtXtXtXpX~.    m.P.9.r.#X'.b.2.F B s F -.",
"A j N s s z .       6 sXaX0XtXpXyXpXR.  , sX5X  ; iXtXpXyXpXT.      , yX4XeXtX0XtX0XtXpXT.  & < < W.w.7.=.@.&.F l h u C ",
"*.J +.F S F .       6 iXtXeXtXtXeXyX5X~./.tX4X^.(.uXtXeXtXtX3XT.T.T./.tXrXeX0XtXeXtXtXtX3X^.} . . 4.K A Z :.%.l J F y A ",
";.-.%.%.&.,.u 0 .   6 yX4XtXtXtXtXtXtXpXpXtXtXpXpXtXtXtXeXeXtXpXpXpXpX4XtXtXtXwX0XtXrXtXyXsX^.  X %.;.N f $.*.B N h s *.",
"#.D +.$.m M F m .   6 pX8XtX4XtXtXtXtXtXeXtXtXtX0XtXtX0XtXrXtXtXtXtXtXtXtXtX4XtXtX8XtXtXtXyX~.  X J.K B A F m m N f l +.",
"h b $.O.A y a s .   6 pX4X4XtX0X0XtXrXrXtX4XtX0XtXtXtX0X0XtXwXtXeXtXeXrX4XtX0XtXtXwX4XrXrXpXT.  o H.T y j l m b N %.S h ",
"J $.m j +.F m m .   6 aX0XtXrXeXtX0X0XeXtXtXwXtX4X8XtXtXtX0XtXrXtX8XtXtXtXtXtXwXtXtXtXtXtXpXT.  X D B A B +.$.y n %.F A ",
",.-.m b b O.$.m .   6 pX0XtXtX4XwXtXtX0X4X4XtXeXtXtXtXwXtX4X8XeXrX0XtXtX0XtX4XtXtX8XtXeXtXuX^.  . G *.$.B +.F a y b %.-.",
"+.D B J u M &.m .   6 aX0XwXtXtXtX0XrXtXtXtXtX8XtX4XeX8XtXtXtXtXrXeX4XtXtX4X8XtXrX0X0XeXrXpXT.  . u S %.F l F +.N N %.$.",
"C a f A N h +.$..   4 aX0X8XeXrXrX0XtX0XeXrX8XtXtXtXrXeX0XtX0X4XtXtXtX4X4XtXtXtXtXaXyXtXrXpXT.  . m h J &.N s m +.m j F ",
"*.b j m +.f M J .   6 pX0XtXwXtXtX0XwXtX8XeXtXtX4XtXtX8XtXwXtXtXtX4XtXtXtXeX4XiX/.6 Y tXtXpX~.  . @.j A $.f y b +.N j K ",
"#.%.m d A S N G     8 fXyX4XtX0X0XtX0XtXtXwXtX0XrXeXeXrXrXtX0XtXtXwXtXpXuXyXpXfXQ.  > pXuXfX(..   l F m K w.X.O.m $.$.S ",
"h j D D F m N 4._ P ; 6 I yX0XtXtXwXtXtX0XtXtXwX0XtX8XeXeX8XtX0X0XyX/.6 1 4 6 8 7 [ ..pX(.6 , : 9 F m A K.1Xc.s.F b +.F ",
"*.F $.;.$.b N r.OXl.    5 sXyXeX4XtXeXtXeX0XeXrXeXtXeXwXtXtX0X4XtXdX^.          % Y.(.dX(.    n &.%.m N F.+X#XI.V a s H ",
"6.:.F @.%.M y ^ +X!.v - $ [  .yXeXeXwXeX4XtXtX0X8XtXrXtX0XtXtXtX:X[ I P P U I 7 U :X~.[ P * 9 b $.:.B V S.%X%Xf.m J F #.",
"#.+.h h o.B m y / d.F t     , fXyXiXuXiXyXyXuXiXyXyXuXuXyXiXaXsX^.  $ ^.T.fXtXR.-XdX^.  . t $.h j $.N n w.c.d.e.D u N -.",
"#.^ N A ` 2.d.c.W X.2.~ v = & 6 4 6 6 6 1 4 6 6 6 6 6 6 6 6 6 8 >   o > > 6 5 > > 6 > * r h n N f s N $.$.$.$.F S s s x ",
"e.%Xn.I.A.A..X1X].^ &XF.G.e                                                           - b $.+.+.H B F m m $.%.m F J u A ",
"s.#X,X1Xz.`.#X$XK.` OX.X+X3                                                           - +.,.%.$.%.&.,.B f $.%.N m f s *.",
"#.Z.}.P.=.9.}.{.*.W E.`.@Xe . o o X O . o @ o . . . . . . . O . . . . . . . . . . . . : N N m +.$.b m M c F A l F j j F ",
"V W -.F $.F 2.2.F F ! K 3.A m.$Xe.F O.-.=.! T C N b M $.B y u m $.F m s s j j A ~ / y.G ~ Z.4.B K E T ~ G j N j D -.S s ",
"*.O.j j +.+.m A 3.F.#X8.D |.7X<XJ.f j @.@.m N %.$.q b %.F b J $.l k @.F C F X.7.7X1X&XC.D.2X Xv.' OX&X[.8.+.$.y n $.+.m ",
"-.%.N l l H N G .X}.&Xy.a ].N.p.B.' b j F $.N +.M s y b %.$.-.%.m m l O.$.N X.2.XX}.oXz.Z.}.#X).i.oXOXb.$.$.M u s b $.-.",
"F D N F u S -.1..X&X<Xj.d ^ b.D A E F u M -.D l D +.m N -.O.D D A J u S %.+.j W +XOXOXz.m.#X$X).W ).1X'.3.O.+.O.N N $.+.",
"A j C S S j +.-.w.l.x.8.c x t.Z j x S F V #.;.H C H *.S D H C C C F L C *.;.D V / i./ E E ! ! ! K r.j.k.9.*.S A #.A A H "
};
