/* XPM */
static char *xpm_[] = {
/* columns rows colors chars-per-pixel */
"60 60 227 2 ",
"   c #010101",
".  c #050A04",
"X  c #080905",
"o  c #0C0C0B",
"O  c #070708",
"+  c #0D140A",
"@  c #121E0C",
"#  c #11110F",
"$  c #0E0D11",
"%  c #1D1D1D",
"&  c #141813",
"*  c #17260E",
"=  c #1B2D13",
"-  c #192515",
";  c #1E3514",
":  c #242D1E",
">  c #233C16",
",  c #243E1A",
"<  c #223416",
"1  c #232323",
"2  c #2D2D2D",
"3  c #262925",
"4  c #2D322A",
"5  c #2C3426",
"6  c #323B2B",
"7  c #2E2F31",
"8  c #333334",
"9  c #3B3B3B",
"0  c #26421A",
"q  c #2B481B",
"w  c #2F521F",
"e  c #33541D",
"r  c #2F5622",
"t  c #335623",
"y  c #355C24",
"u  c #395D25",
"i  c #395929",
"p  c #3C413A",
"a  c #334A24",
"s  c #356325",
"d  c #3A6226",
"f  c #366927",
"g  c #3A6B26",
"h  c #366528",
"j  c #3C642A",
"k  c #3D6B2B",
"l  c #376A2A",
"z  c #3E722C",
"x  c #3E782E",
"c  c #3F6C31",
"v  c #455839",
"b  c #424E38",
"n  c #41642D",
"m  c #426C2C",
"M  c #426827",
"N  c #43742D",
"B  c #49762F",
"V  c #45792E",
"C  c #4A7B2F",
"Z  c #446633",
"A  c #436D32",
"S  c #4A6D3A",
"D  c #4B643C",
"F  c #457431",
"G  c #4A7632",
"H  c #467A31",
"J  c #4B7C32",
"K  c #4C723B",
"L  c #4D7D39",
"P  c #517E34",
"I  c #52773A",
"U  c #537C3C",
"Y  c #5A7E3E",
"T  c #3F3F41",
"R  c #413F44",
"E  c #464747",
"W  c #5D5D5D",
"Q  c #595957",
"!  c #4E544A",
"~  c #4E6C42",
"^  c #526C41",
"/  c #55694A",
"(  c #4E7442",
")  c #527442",
"_  c #547B43",
"`  c #597C45",
"'  c #5B754D",
"]  c #5C7C4C",
"[  c #56774A",
"{  c #5D6A52",
"}  c #5E7A51",
"|  c #5D7751",
" . c #627E4F",
".. c #626E59",
"X. c #627C54",
"o. c #677B59",
"O. c #636262",
"+. c #6B6A6B",
"@. c #666668",
"#. c #767677",
"$. c #7A797A",
"%. c #6E7C65",
"&. c #4A812F",
"*. c #478132",
"=. c #4D8333",
"-. c #4D8835",
";. c #4D8339",
":. c #528434",
">. c #548A36",
",. c #588C36",
"<. c #53843A",
"1. c #59843D",
"2. c #558B3A",
"3. c #5A8D3B",
"4. c #5A913B",
"5. c #57913A",
"6. c #558342",
"7. c #5B8444",
"8. c #5C8B43",
"9. c #5E834A",
"0. c #5D8A49",
"q. c #5D9240",
"w. c #628C45",
"e. c #62854E",
"r. c #628A4B",
"t. c #6A944E",
"y. c #65944B",
"u. c #638353",
"i. c #668C52",
"p. c #6A8D55",
"a. c #66835A",
"s. c #6B855C",
"d. c #6C8C5B",
"f. c #698356",
"g. c #728E5E",
"h. c #6B9253",
"j. c #6D925B",
"k. c #669350",
"l. c #72955E",
"z. c #769C5A",
"x. c #709C4F",
"c. c #6D8464",
"v. c #6F8A62",
"b. c #728C64",
"n. c #748569",
"m. c #798D6B",
"M. c #76866B",
"N. c #749263",
"B. c #7A9B64",
"V. c #7A926B",
"C. c #7D9A6B",
"Z. c #779565",
"A. c #7C8E72",
"S. c #7F9771",
"D. c #7BA162",
"F. c #819D6E",
"G. c #80966F",
"H. c #819274",
"J. c #849C74",
"K. c #85947A",
"L. c #8B9E7C",
"P. c #879A7C",
"I. c #83A26A",
"U. c #85A76B",
"Y. c #89A375",
"T. c #8CA37B",
"R. c #89A778",
"E. c #90A57F",
"W. c #94AB7F",
"Q. c #848483",
"!. c #868688",
"~. c #8D8D8D",
"^. c #888887",
"/. c #8D9C82",
"(. c #8A9682",
"). c #929D87",
"_. c #8F8E90",
"`. c #939393",
"'. c #9B9B9B",
"]. c #999798",
"[. c #8EA382",
"{. c #92A385",
"}. c #94A983",
"|. c #95A68B",
" X c #96AA89",
".X c #9BAB8C",
"XX c #99AB88",
"oX c #9EB18C",
"OX c #9EAD93",
"+X c #98A692",
"@X c #9FB191",
"#X c #A1B28E",
"$X c #A2AE95",
"%X c #A3AE99",
"&X c #A8AF9E",
"*X c #A2A695",
"=X c #A3B295",
"-X c #A6B29A",
";X c #AAB59D",
":X c #ABB99D",
">X c #A8B497",
",X c #AAAAAA",
"<X c #A4A3A5",
"1X c #ACB5A2",
"2X c #AEBBA1",
"3X c #B2BBA4",
"4X c #B4B7AA",
"5X c #B4B4B4",
"6X c #B6B8B7",
"7X c #BEBDBD",
"8X c #B9BAB7",
"9X c #B8C1A9",
"0X c #BEC2B9",
"qX c #C0C0BE",
"wX c #C4C9B6",
"eX c #BFBFC1",
"rX c #C1BFC0",
"tX c #BFC1C1",
"yX c #C1C1C1",
"uX c #C8C9C7",
"iX c #CACACB",
"pX c #C9C7C9",
"aX c #CFD1CF",
"sX c #D2D2D2",
"dX c #DBDBDA",
"fX c #D0CECF",
"gX c #DEE2E1",
/* pixels */
"7.N a.{.{./.} Z.T./.Z.=.H A 1.3.A m H ;.k L >.A j A <.G j J <.A Z G *.c L <.F u A <.F F 1.3.F F F ;.m H 2.A i F 1.F A 6.",
"C =.C.;XoX:Xa.P.3X:X).k -.>.V H 3.F f N G B :.V V G N :.:.G B 3.V f F H B :.N G J F :.<.N J 2.F l N G V <.N F P N :.>.F ",
"j l j.-X-X1Xu.V.:X:X/.c N :.m u z N F H >.>.>.>.=.:.C N P N y z V F J 2.>.>.>.-.:.H N J F y g N F J 2.>.>.>.:.-.H m :.G ",
";.B J 8.Y.S.B 8.K.A.r.k t d J =.B :.,.:.:.>.=.=.J H j j d H -.B :.,.:.:.>.-.J J H k u j J J J :.>.:.>.>.:.P H J k d u L ",
"3.2.h.=.=.e.b.f./ [ j.2.8.C =.4.,.J :.2.B k M y g H H P G =.5.,.J :.>.B f j y k H B :.G =.,.2.J >.>.C g j t m B G P C ;.",
"2.l.%XY.6.C.2X1XV.a.3X}.$Xi.=.-.=.k m =.C j j N P =.J d C :.=.=.j m P V A | a.w.4.J j V >.:.=.k M J C d M N :.=.H d H 3.",
"N.4XOX1Xc.m.=X=XC.s.=X|.;Xs.s N k H k s N >.1.,.,.H m j u m N k V k d N 3.B.1X:Xl.N u d k N k V k j N >.>.,.3.H N d j k ",
"r.B.h.T.u.Z.$X-XH.o.&X$X1X| m &.J -.J B H V N :.>.N J P y m =.J :.C V V 9. X=X2XH.C B X . . . X . . . O . X + m J J y F ",
"2.-.-.:.,.q.w.' ` K u.i.' Z =.3.>.:.1.,.3.C h :.>.J V j d -.5.>.:.2.,.:.U {.XX.Xa.N y O                       =.N d d 2.",
";.H &.=.m N G z C N z x f g H J B :.:.m H J F =.F F V g m J J C =.-.I 8.w.[ 7.e.U L F                       . x H k k *.",
"j m :.=.B u s k z F k C :.J B H C :.=.V u d k z N m G :.J u u N :.N H.1X#XJ.9.{. X+XX.v ! ! b a #           . M C 2.H j ",
"<.:.z k -.H N V C J u k =.,.:.>.:.z l =.J N H P :.u m :.J m C :.c s E.=X|.{.s.|. X-Xs.H.;X@XL.A.:             u m <.J G ",
"3.2.F m m J <.p.t.8.n Z u.8.*.-.=.} u._ N G U 3.H s y m 2.:.>.>.N m [.;X-X{.X..X-X:Xd.m.(.5 : - o         , d y y m :.3.",
";.V V J u V >.h..X;Xv.P.4XT.9.H l.=XJ.` o..X+XL.J *.V V :.=.H B B H } H.m.X.) s.N.m.) ~ /                 0 H -.F V <.-.",
"c s k B B d 7.y.Y.1Xb.7..X1XJ.a.=X|.R.U Z.2X}..X[ k =.N m J k s k V m y ] b.b.s.P e.A.& O                   . F =.N k G ",
"<.m k N -.s X.;X%X1Xd.1.T..Xx.r.%X;X;X6.L %X#X2XX.s J V k :.:.m k N -.s b.wX:X.Xg.}..XO                     . M :.N k <.",
":.2.N f V V I p.m.l.I ` w.-.N N w.b.o.m H ).H.g.;.G B :.:.N J 3.F j x V d.-X.X.Xm. X.XO                       H N :.:.G ",
"j k N B C >.>.>.=.J  .e.` ` ' X.:.B N u.w.=.C C *.>.H B P A y m d = = = < p 9 6 5 6 9 { v b ../ { v t e t t y :.J m ;.J ",
";.H :.,.>.>.:.:.<.E.-X$Xd.P.-X;XZ.=.U.3XF.>.,.>.J H j u s J &.H d                     G K 7.7.:.:.1.1.:.:.P J H k d s L ",
"q.3.J :.>.B j y n.wX.X X1.F.OX=XE.<.Y..XXX` j j m V H P C &.5.3.u                   . N *.4.>.C :.>.C g j y k J H P J ;.",
"<.=.j k =.G f d 9.D.R.3Xs.V.3X;XH.X.|.$X&X` t m :.<.G s C :.:.:.q                   . N :.:.=.j m -.B k M G :.J H d J <.",
"G k H f j V ,.>.>.:.7.b.' ^ o.X.S H 7.X.( -.8.C.4.:.V d u m F k y                     t k z k V f d N ,.>.2.,.H m j d A ",
"P =.:.H B V F A -.>.k N J y s U L.B.C.H V E.#X&Xl.&.>.C t z J J j         . 0 q < > 0 t m :.C -.J C J N N -.>.N J J t B ",
"3.>.:.3.,.4.J k :.>.J N d d =.0.;X0X X>.3.W.-X#XR.3.C j j -.2.>.d         + :.:.H V k d :.5.2.:.:.3.3.C k :.:.H z d d 2.",
"=.L :.:.N B J N J V F B k k G 2.E..X#Xe.k 0.@Xp.] K V g z F <.0.y           * @ @ * - M H =.H :.:.B B J N C U 6.7.] k L ",
"j m <.*.F u d k k N j C >.H y ) N.<.i.7.y Z c.A k m G >.V j %XJ.S O . o o o   O     . F u y N :.J B u s k f Z.-Xi.t.P j ",
"<.<.k k -.J N J :.:.u j :.C N C =.k f =.=.m N :.:.u M :.B ` I.t.=XN.V r.T.i.V r.&XG.P H N J -.k k -.J N C :.t.;XJ.3.H F ",
"3.-.F z k =.P V :.J s s m >.-.H d t r k =.:.N :.G y q w g J :.m M.{ } z.k.j.7.B.|.$Xv.=.=.2.>.N m g B -.F P C.|.-X{.=.2.",
"*.V V :.u N 3.J N H =.V H :.=.0     . y B 3.J k H j       j H       6 e.>.i.] _ V 6.7.=.H V x x G X.j.,.H N _ =.;.e.1.;.",
"A d j N B M :.2.F u N =.N y = : @.3 O = 0 J ,.N = * 1 +.9 * =       < s C >.F c.j.<.) u.C.Y.P.[ d.I.#Xi.>.N s z C k N G ",
"<.m k x ;.d N :.m t M =.N w   8 gXE     * m C y .   4 gXO.  O       > s m H S 4X}.h.V.b.D.t.=Xo.d.-.|.J.=.M t m =.V j <.",
"P 2.B s V C H :.N B G V =.k   8 uX<X`.2 . . X . % Q.'.pX,X`.8       . . X X O i U.XXy.8.B.z.x.z c C.T.F.P N B G F =.>.G ",
"j k F H C 2.:.,.,.=.-.H y q   2 pXuXaX8         O 7XiXyXpXsX2                 = d S i n %.`.m.P G d.:.:.:.:.=.-.J m :.G ",
";.G :.3.:.>.>.:.=.J B j   3 `.'.yXyXyX$.Q Q.`.+.O.8XyXyXyXyX'.`.+.W W W ^.^.@.2         & U X.:.>.:.3.-.=.h.<.H k j s L ",
"4.,.H :.>.G y ; = < 0 > X 8 sXuXyXyXyX`.Q.6XiX`.Q.8XyXyXyXrXiXsX'.!.Q.^.qXyX_.R       O @ q B Z.1.&.Z.=XT.4X] N G :.C ;.",
"2.:.j m =.B q             7 uXyXyXpXpX5X,X7XpX5X5XtXpXpXyXpXQ 7 1 % @.^.5X8XQ.+.W $.].3     a %XE.w.p.=X}.G.8.J H d J <.",
"G j N j j N k           o 9 pX7X5X5X5XrXpX8X5XeXyX5X5X5X8XuX8 O O O @.~.6X5XQ.Q.^.,XsXR o % % - o.(.u.w.>.-.,.J N d j m ",
"<.J -.J G N w         $ <X7XiX_.. O   ].dX8 O ].pX#   O O.fXeX7X7X7X7XeXeXyX7X7X7XqXyX5X8X8     i 9.U K S <.>.N C P y F ",
"3.2.:.>.3.+ .         # 5XpXpX'.2 7 8 #.].E 8 #.~.8 8 7 $.iX'.].`.`.5XyXyXtXyXyXrXyXrXyXiX8     M :.,.C l -.:.J V j d <.",
";.J :.=.m .             ,XpXyXqXiXuXiX1   `.dX1   5XuXuXyXiX3       ~.iXtXyXrXyX7XyXrX0XpX2   # v o.U B V J N x H k m *.",
"j N :.=.F           E +.7XyXyXrXyXpXyX$.O.,XuX$.O.7XyXyXyXpX$.O.O.{ <XpX7XyXyXeXyXtX7XyXpX$.O.3 O O D y c k N m C >.G j ",
"U :.k k :.t ;       '.sXyXeXyXyXyX7XyXuXiXyXyXuXiXyXyXyX7XyXuXiXfXiXpXyXyXeXeXrXeXyXyXqX7XuXiX%   . V m J -.:.u m :.J F ",
"4.>.F k z J M       ~.uXyXyXrXtX7XyXeXeXyXyXyXtXyXyXrXtXyXyX7XyXeXeXyX7XyXeXyXrXqXqXyXeXyXyXeX1   . L -.B -.B s t m >.2.",
";.V H P u V m       ~.uXeXyXyX7XyXeXyXyXyXyXyXyXtXrXrX0XrXtXyXyXeXeXyXqXyX7X0XyXyXeX7XyXrXyX7X%     m ,.=.k H =.H B >.;.",
"A d f B N M u       _.uXqXyX7XyX7XyXyXrX7XyXyX7XyXeXyX7X7XyXyXyXrXrXeXyXeXyXeX7XrXyXyXyXyXyXyX1   X u =.3.x j N -.N z J ",
"<.m k N :.k y       ~.uX7XyXyXyXeXyX0XrXyX7XyXyXeXyXyXeXeXyX7XyXeXrX7XeXeX0XyXyXyX8X5X7XyX8X5X3     s B :.k y m J N k <.",
";.>.V s z H y       `.iXyX7X7XyX7XyXyXyXyXyXyX7XyX7X7XyX7XyXrXeXyX7XyXyXyXpXpXyXfX+.O `.fX9 o % = , V V U  .*.*.N :.:.G ",
"j z F J J N t       Q.7X7XyXyXyXqXyXyX7X7XyXyX7XyXyXyXqXyXeXyXrXyXyX7XeX5X5X5X5X7XW O `.sX7     u J N H T.4Xl.h.J m =.G ",
"<.G :.3.:.N m ^ M.%.3 % 8XuXrXrXeXtXtXrXtX7XyXyXyXyXtXtXrXtXrX0XqXtXpX0X2 o o o o E $.5XuX8     m :.N V I.&X=XE.j j d L ",
"4.,.H :.>.B y [ &X%X4 # <X8XrXrXrXrXrXrXyXrXyX7XtXtXrXyX0XrXtXrXrXyX5X5X1 O O O   E ~.<X8X8   O j ,.F m L.&X;Xl.N P J ;.",
"2.J j k J C N y ] z.F h # b fXpXpXuXiXpXuXuXiXpXpXuXuXuXiXpXpXuXuXaXT o @._.7X'.#.<XfX9 o   , j M :.H n X.N.z.i.H d G 2.",
"L ] x F } 7.x.l.] =.7.] - 4 `._.~._._._._.~.~.~._._._._._._.~._.~.`.1   ! +.].$.W $.].1 . @ 0 H k s N >.:.:.:.G F j d k ",
"p.;XB.E.K.K.$X3X{.[ :XU.U.v                                                             * :.J :.J H J V N :.-.N C :.u F ",
"i.=X2X1Xm.{.=X-XR.} OX=X=Xv                                                             @ 2.,.-.,.,.3.J k :.>.C N j d <.",
";.J.OXE.3.w.@X|.1.` /.{.OXi O o o X O . o $ o . . . . . . . X X . . . X . . . O O . . . * V V =.:.m N V z =.N N H m k J ",
"j _ 1.J :.C 7.7.H C ' Y 8.K m.-Xp.J *.>.1.' ~ A N M C 2.B y u N :.J B y d k k H 9.} s.K ] S.9.J U ) ~ ] K k N m G 2.H j ",
"P =.k l *.<.N V 8.I.=Xr.H  X9X1XY.k k =.-.x V :.:.u M :.J N J :.z l -.=.F J &.w.3X2X;XH.P.3XoXV.X.%X;X.X9.=.:.u j :.=.N ",
"q.2.N k N J N ( OX.X;Xs.h |.I.h.F.X.k z J :.B =.C u u k >.:.2.:.N N k =.:.F C 8.OXOX=Xm.J..X=X/.s..X$XB.:.:.B u d k :.2.",
"*.H H J u G >.1.OX:X2Xv.s [ C.H F _ J u B 2.H z H *.B H -.J H H H J u F ,.J l _ *XOX$Xm.A.=X&X[._ [.4X}.8.=.J =.V H :.=.",
"K k c J G k *.2.u.n.n.u.x c a.S k c J J Z =.3.K A L <.F L L A F F J I Z <.4.F Z } p.] [ ) ' ' | _ p.b.b.0.2.F F ;.F F L "
};
