/* XPM */
static char *f19e508257b940bade928058d838ef7alMMqyeWTRQUTDAfa[] = {
/* columns rows colors chars-per-pixel */
"60 60 206 2 ",
"   c None",
".  c #020203",
"X  c #0A0708",
"o  c #0B0B0D",
"O  c #07070A",
"+  c #130C0D",
"@  c #130E11",
"#  c #1A1B1B",
"$  c #191314",
"%  c #251B1B",
"&  c #271B1B",
"*  c #351D1F",
"=  c #261F20",
"-  c #242323",
";  c #2C2424",
":  c #2C2D2E",
">  c #342626",
",  c #352B2C",
"<  c #3C2C2C",
"1  c #3D2526",
"2  c #3E2F30",
"3  c #343534",
"4  c #3C3939",
"5  c #45292C",
"6  c #522E30",
"7  c #433C3D",
"8  c #4D3938",
"9  c #4B3635",
"0  c #523434",
"q  c #553C3C",
"w  c #5C3B3D",
"e  c #623E3E",
"r  c #4B4444",
"t  c #4C4A4B",
"y  c #414142",
"u  c #5D4443",
"i  c #59494A",
"p  c #504B4B",
"a  c #545353",
"s  c #5B5D5D",
"d  c #5A5758",
"f  c #634545",
"g  c #654649",
"h  c #6A4C4B",
"j  c #694645",
"k  c #774748",
"l  c #734E4C",
"z  c #77484A",
"x  c #6C504F",
"c  c #75504E",
"v  c #695655",
"b  c #695A5A",
"n  c #745554",
"m  c #7E5958",
"M  c #785A59",
"N  c #6E5F60",
"B  c #666364",
"V  c #746464",
"C  c #7B6562",
"Z  c #7B6C6B",
"A  c #746B6A",
"S  c #7D7472",
"D  c #7C7B7B",
"F  c #884C4E",
"G  c #844C51",
"H  c #894E52",
"J  c #954F52",
"K  c #845C5B",
"L  c #905155",
"P  c #955659",
"I  c #9D525A",
"U  c #AA595E",
"Y  c #87615D",
"T  c #94605E",
"R  c #AA5B62",
"E  c #B75E64",
"W  c #896764",
"Q  c #916966",
"!  c #986967",
"~  c #847676",
"^  c #867B7B",
"/  c #8A7A79",
"(  c #9B7F7E",
")  c #A86666",
"_  c #B96266",
"`  c #B8666A",
"'  c #A2736F",
"]  c #AC7B77",
"[  c #B67675",
"{  c #C5686B",
"}  c #C37B7C",
"|  c #C8757A",
" . c #D47277",
".. c #DB7579",
"X. c #FB6C79",
"o. c #E6767C",
"O. c #9B837F",
"+. c #B5817D",
"@. c #C27F80",
"#. c #ED7B82",
"$. c #FB7D86",
"%. c #FF7F89",
"&. c #F37E83",
"*. c #838484",
"=. c #898A8A",
"-. c #8B8484",
";. c #9B8D8A",
":. c #968885",
">. c #9D918E",
",. c #9C9796",
"<. c #A78885",
"1. c #B78D8B",
"2. c #BE928F",
"3. c #A29495",
"4. c #AA9D9B",
"5. c #A49A99",
"6. c #B89D9B",
"7. c #ADA09D",
"8. c #9FA0A1",
"9. c #A3A4A4",
"0. c #ADA2A0",
"q. c #B4A6A4",
"w. c #B5A9A6",
"e. c #B9ABA9",
"r. c #BEB0AD",
"t. c #B9BABB",
"y. c #C8908D",
"u. c #D9928E",
"i. c #CB9C97",
"p. c #D99A94",
"a. c #C48786",
"s. c #E88489",
"d. c #FD838A",
"f. c #F48A8D",
"g. c #F98186",
"h. c #FF8991",
"j. c #EC9895",
"k. c #DBA29E",
"l. c #C7A19C",
"z. c #E7A29E",
"x. c #FDA39F",
"c. c #FA9DA3",
"v. c #D7AAA8",
"b. c #CCBDBA",
"n. c #C6B7B4",
"m. c #D3AAA7",
"M. c #EDA9A4",
"N. c #FDA5A1",
"B. c #F2AAA4",
"V. c #FDAAA4",
"C. c #FCADAA",
"Z. c #F1ADA8",
"A. c #E7B4AE",
"S. c #F7B2AB",
"D. c #FBB4AD",
"F. c #E6BBB7",
"G. c #E4BBB8",
"H. c #FAB4B3",
"J. c #F5BAB5",
"K. c #FABAB5",
"L. c #FABCB9",
"P. c #F4B8B9",
"I. c #CFC1BE",
"U. c #C7C2BF",
"Y. c #D1C2BF",
"T. c #F1C1BD",
"R. c #FBC2BD",
"E. c #FABFC1",
"W. c #C5C6C5",
"Q. c #CCCCCA",
"!. c #DAC9C6",
"~. c #DECDCB",
"^. c #D6C7C4",
"/. c #CFD0D2",
"(. c #D9D7D6",
"). c #EBC9C6",
"_. c #E4CCCA",
"`. c #EECDC8",
"'. c #F5C5C2",
"]. c #FAC5C2",
"[. c #FCCAC7",
"{. c #F6CCCB",
"}. c #F9CDC9",
"|. c #E1D0CE",
" X c #FAD1CE",
".X c #F3D3CE",
"XX c #E9D6D4",
"oX c #ECDCD9",
"OX c #E6D6D4",
"+X c #FBD5D3",
"@X c #FCD9D5",
"#X c #F0DEDA",
"$X c #FBDDDA",
"%X c #F5D6D4",
"&X c #F5E1DE",
"*X c #FAE1DE",
"=X c #EEE7E6",
"-X c #F7E5E3",
";X c #FBE6E3",
":X c #FEE9E6",
">X c #F4EEEC",
",X c #FEEBE9",
"<X c #EEF0EF",
"1X c #FDF0ED",
"2X c #FCF4F2",
"3X c #F3F3F2",
/* pixels */
"                                                                                                                        ",
"                                                                                                                        ",
"                                                                                                                        ",
"                                                                                                                        ",
"                                                                                                                        ",
"                                                                                                                        ",
"                                                                                                                        ",
"                                                                                                                        ",
"                                                                                                                        ",
"                                                                                                                        ",
"                                                                                                                        ",
"                                                                                                                        ",
"                                      s =.t                                 3 D B                                       ",
"                                    D <X/.t.y                             3 9./.3X*.                                    ",
"                                  =.3XOXr / 3.            # #             :.-.r _.>X=.                                  ",
"                              3 9.2X.XC P G <.i # t D 9.t.W.W.t.9.*.s - r <.l L W '.>X8.:                               ",
"                            s Q.,XT.W H $._ 7 *.W.<X2X2X2X1X,X1X2X2X>XQ.=.7 ) $.G ! L.,Xt.a                             ",
"                      - s 9.=X+Xi.l L &.E M W.2X1X:X;X;X;X;X;X;X;X;X;X:X,XU.b E #.H K k.+XoX,.a #                       ",
"                      t _.F.1.m j _ d.{ V (.,X;X;X;X;X;X;X;X;X;X;X;X;X;X;X,XOXV _ g.R j K 2.)._.t                       ",
"                      % @.[ G ` &.d.o.h ^.:X;X;X;X;X;X;X;X;X;X;X;X;X;X;X;X;X:X~.v  .d.#.E G } a.=                       ",
"                        w s.h.d.%.%.F ,.:X;X;X;X;X;X;X;X;X;X;X;X;X;X;X;X;X;X;X:Xw.z g.%.d.h.s.e                         ",
"                          e } f.f.{ v oX;X;X;X;X;X;X;X;X;X;X;X;X;X;X;X;X;X;X;X;X;XZ ` f.j.} e                           ",
"                            % 0 q ; 0.:X;X;X:X;X;X;X;X;X;X;X;X;X;X;X;X;X;X:X;X;X:Xn., 0 0 %                             ",
"                                  t oX;X;XXXY.-X;X;X;X;X;X;X;X;X;X;X;X;X#XY.&X;X;X&Xb                                   ",
"                                  3.:X;X&XS d r.:X;X;X;X;X;X;X;X;X;X;X:X;.a 5.:X;X:Xe.#                                 ",
"                                4 |.;X;X!.- o ^ :X;X;X;X:X:X:X:X;X;X;X&Xp O t &X;X;X#Xa                                 ",
"                                D ;X;X;Xb.$ . S :X;X:X;X^.q.q.!.;X;X;X&X7 . 3 oX;X;X:X>.                                ",
"                              # e.:X;X;X|.- . 5.:X;X^.S N -.^ N ~ _.;X;XB . a -X;X;X:XI.;                               ",
"                              , !.;X'.c.H.~ d XX:Xn.v P | c.c.| G b !.:Xb.t e.E.N.{.;XXX7                               ",
"                              9 _.;X'.X.$.{.&X;XXXb ` 6 * o.g.6 5 I C &X;X&X+X$.X.P.;X%Xi                               ",
"                              < G.:X%XH.].*X;X;Xq.G { + @  .g.1 X _ k b.:X;X;XE.H.%X;X`.q                               ",
"                              % i.;X;X:X:X;X;X:X>.U { X $ ..d.6 . E J w.:X;X;X;X;X;X;Xv.1                               ",
"                                Q +X;X;X;X;X;X:Xe.H o.6 k g.d.R 0  .k b.:X;X;X;X;X;X$X]                                 ",
"                                5 v.;X;X;X;X;X;X#XZ H ` | .... .` z ^ &X;X;X;X;X;X;XA.8                                 ",
"                                o n T.;X;X;X;X;X;XoX3.Z V V V V ~ q.&X;X;X;X;X;X;X'.Y #                                 ",
"                                a ^ Q '.;X;X;X;X;X;X,X,X;X-X;X;X,X,X;X;X;X;X;X;X}.Q ~ B                                 ",
"                                *.`.W Q P.@X;X;X;X%X+X$X$X$X$X$X@X X]. X;X;X$XF.K C ).^                                 ",
"                                ,.6.<./ ] V.H.R.}.].K.H.K.K.K.J.D.C.D.R.R.K.C.' Q k.O.;.                                ",
"                                4.1.W {.).K.C.x.x.x.x.x.N.V.V.N.N.N.x.N.N.N.C.T.[.y.W 4.                                ",
"                                4.p.l J.;X;X$X[.K.V.x.x.x.x.N.N.x.N.N.C.L. X*X;X[.' :.4.                                ",
"                                ;.S.c p.@X;X;X;X;X$X}.R.K.K.K.K.L.]. X$X;X;X;X*XK.n l.-.                                ",
"                                ~ D.! ' ].;X;X;X;X:X|._.;X;X;X;X-XI.&X;X;X;X;X@Xp.g M.n                                 ",
"                                b D.u.h z.+X;X;X;X,X>.4.:X;X;X;X&XA ~.:X;X;X;XR.Y Q B.8                                 ",
"                                7 A.N.T ! K.*X;X;X,X:.7.,X:X:X:X&XV !.:X;X;X Xp.u z.p.;                                 ",
"                                - <.[ [ u u.R.$X$X@XO.( F.m.l.m.v.v G.@X$X@XD.n h +.Q                                   ",
"                                  8 ! K , u B.S.M.B.] > < % % & > 8 j.M.Z.D.[ % x ! 2                                   ",
"                                  5 m n , o u h f f q X           ; h f g j & - n m <                                   ",
"                                            . , g g > .           $ q g q @                                             ",
"                                                                                                                        ",
"                                                                                                                        ",
"                                                                                                                        ",
"                                                                                                                        ",
"                                                                                                                        ",
"                                                                                                                        ",
"                                                                                                                        ",
"                                                                                                                        ",
"                                                                                                                        ",
"                                                                                                                        ",
"                                                                                                                        ",
"                                                                                                                        "
};
