/* XPM */
static char *f2b9f8fd6fdb47278f7060d67e043de0jGcs1ZbLCNltW1wL[] = {
/* columns rows colors chars-per-pixel */
"60 60 246 2 ",
"   c None",
".  c #3C343D",
"X  c #3E3237",
"o  c #55362E",
"O  c #5C3A2D",
"+  c #58372D",
"@  c #493738",
"#  c #523631",
"$  c #533935",
"%  c #5C3B31",
"&  c #553E39",
"*  c #4C332E",
"=  c #623E2D",
"-  c #59443E",
";  c #66412F",
":  c #694837",
">  c #734B34",
",  c #764E38",
"<  c #7A523B",
"1  c #6D523E",
"2  c #2F3549",
"3  c #32394D",
"4  c #373848",
"5  c #333C50",
"6  c #132568",
"7  c #473D42",
"8  c #542C70",
"9  c #165358",
"0  c #3A4456",
"q  c #3F4F61",
"w  c #1E6367",
"e  c #29666C",
"r  c #296667",
"t  c #554846",
"y  c #4F4C51",
"u  c #6A5748",
"i  c #795845",
"p  c #66554F",
"a  c #766557",
"s  c #726552",
"d  c #465A69",
"f  c #4C6574",
"g  c #536D7B",
"h  c #5A6C70",
"j  c #74746C",
"k  c #745070",
"l  c #83553A",
"z  c #8B5C3D",
"x  c #85583B",
"c  c #925E39",
"v  c #8A5726",
"b  c #A14337",
"n  c #98673C",
"m  c #906234",
"M  c #A9763B",
"N  c #B87A3A",
"B  c #A36F34",
"V  c #D67917",
"C  c #C67D34",
"Z  c #8C5D42",
"A  c #825D46",
"S  c #955542",
"D  c #8A6648",
"F  c #936243",
"G  c #9B6C44",
"H  c #9C6B4A",
"J  c #936A49",
"K  c #997448",
"L  c #876C55",
"P  c #997653",
"I  c #897057",
"U  c #A6784A",
"Y  c #A77A55",
"T  c #877A68",
"R  c #957D66",
"E  c #93726B",
"W  c #AD7761",
"Q  c #AD4F46",
"!  c #C37D6B",
"~  c #983833",
"^  c #4A9375",
"/  c #7B847D",
"(  c #668574",
")  c #B6823D",
"_  c #D8861D",
"`  c #E5941A",
"'  c #C6843C",
"]  c #D98D2C",
"[  c #E39B2D",
"{  c #DFA23B",
"}  c #BB8A49",
"|  c #AA8358",
" . c #B5895B",
".. c #BB9358",
"X. c #B68B4A",
"o. c #9C8568",
"O. c #878877",
"+. c #958A75",
"@. c #A68967",
"#. c #B68C61",
"$. c #AB936A",
"%. c #BC9366",
"&. c #B99768",
"*. c #A69773",
"=. c #B79B75",
"-. c #B0A878",
";. c #9BA071",
":. c #C48A45",
">. c #CB944C",
",. c #C8954B",
"<. c #D49C4F",
"1. c #CD9B53",
"2. c #C79A58",
"3. c #D29C52",
"4. c #D7A44D",
"5. c #CCA35B",
"6. c #D4A155",
"7. c #D8A454",
"8. c #D7A758",
"9. c #CEA14D",
"0. c #E5B657",
"q. c #E1AB4D",
"w. c #C59C65",
"e. c #C49B6C",
"r. c #C59B6C",
"t. c #C49E73",
"y. c #C89F70",
"u. c #D29260",
"i. c #CAA46A",
"p. c #D6AA68",
"a. c #C6A074",
"s. c #CBA473",
"d. c #CDAA7B",
"f. c #C8A877",
"g. c #D1AD7C",
"h. c #D1AC75",
"j. c #D4B27D",
"k. c #D9B878",
"l. c #D5B470",
"z. c #E5BB66",
"x. c #E1B66F",
"c. c #E39F45",
"v. c #DDC07E",
"b. c #E8C77C",
"n. c #F2D17C",
"m. c #2D708F",
"M. c #326AA1",
"N. c #5A7D8C",
"B. c #557482",
"V. c #4D7E94",
"C. c #4478A2",
"Z. c #725389",
"A. c #8F74AE",
"S. c #3AA4AD",
"D. c #388B93",
"F. c #5C808F",
"G. c #588989",
"H. c #5E8392",
"J. c #588D9C",
"K. c #4F9298",
"L. c #66848D",
"P. c #758888",
"I. c #628694",
"U. c #6A8A93",
"Y. c #728E92",
"T. c #6C949C",
"R. c #679999",
"E. c #759799",
"W. c #6C978B",
"Q. c #70AA93",
"!. c #5795B3",
"~. c #729CA4",
"^. c #779BA1",
"/. c #719AA7",
"(. c #69A5A7",
"). c #74B0B3",
"_. c #54A19C",
"`. c #378FCA",
"'. c #3BBAC5",
"]. c #4799C9",
"[. c #458CC1",
"{. c #53A7C9",
"}. c #6DB0D4",
"|. c #53B6E6",
" X c #64BDE9",
".X c #37CAD8",
"XX c #71C7D1",
"oX c #62C9DF",
"OX c #848B86",
"+X c #879B97",
"@X c #949A8B",
"#X c #B09F8E",
"$X c #89A598",
"%X c #95A592",
"&X c #BDB68B",
"*X c #A8AC95",
"=X c #B9B393",
"-X c #AEAB8D",
";X c #968FAF",
":X c #8CB4AD",
">X c #AFBBAD",
",X c #CBB68C",
"<X c #D4B482",
"1X c #DABB83",
"2X c #DCBC89",
"3X c #D5B987",
"4X c #C8B992",
"5X c #CCB18F",
"6X c #E1BE8E",
"7X c #C2B8B1",
"8X c #94C6B0",
"9X c #B6CAB2",
"0X c #BEC09A",
"qX c #DDC284",
"wX c #DEC18B",
"eX c #D9C68E",
"rX c #D9C597",
"tX c #CFC191",
"yX c #E2C48C",
"uX c #E6C887",
"iX c #F7D984",
"pX c #E5CA94",
"aX c #E4C893",
"sX c #ECD49D",
"dX c #ECD596",
"fX c #F5D392",
"gX c #FAE296",
"hX c #C8C6A9",
"jX c #DCD3AD",
"kX c #D0CEAF",
"lX c #EBD6A4",
"zX c #EAD3A8",
"xX c #F7E4A6",
"cX c #F9E6B2",
"vX c #9CB2CC",
"bX c #95CCCF",
"nX c #B8CAC4",
"mX c #ABD0D1",
"MX c #8DD4E8",
"NX c #B0E2F3",
"BX c #A6E4DA",
"VX c #CCD1CA",
"CX c #C3E8F1",
"ZX c #E4F0EC",
"AX c #E0DCC3",
"SX c #C4ADDF",
/* pixels */
"                                                                                                                        ",
"                                                                                                                        ",
"                                                                                                                        ",
"                                                                                                                        ",
"                                                                                                                        ",
"                                                                                                                        ",
"                                                                                                  xXxXcX                ",
"                                                                              lXlXlXsXsXsXpXaXi.pXdXqXxX                ",
"                                                sXsXsXsXsXsXpXpXaXaXwX2X3X<Xd.a.=.=.$.@.o.R T u D h.uXgXgX              ",
"                wXxXcXsXxXxXsXsXsXpXpXaXyX2X1X<Xd.f.a.=.=.$.@.o.+.O.O.O./ / P.P.P.Y.Y.Y.T.T.T.I.y - ..iXiXiX            ",
"              qXqXdXxXk.uXxX=.@.@.R R T T T T j / P.P.P.Y.E.E.^.$X^.^.~.~.~.~.~.~.~.~.~.~.~.~.T.L.3 D b.n.iX            ",
"              1Xk.uXgXiXiXeXP.L.U.U.Y.T.T.~.~.~.~.~.~.~.U.+.jXjX,XhXkX9XT.T.T.T.T.E.E.E.E.+X+X$X%XO.$.b.l.uXuX          ",
"            qXi.&.v.iXiXiXuX$X~.~.~.~.T.T.T.T.T.T.T.T.U.d 1 k.pXX.i.sXxX0X*X*X=X=X4X4X4X3XeXwXwXyXaXaXyXh.k.yX          ",
"            1XP j 1Xb.iXiXiX&XE.E.E.E.+X$X$X%X%X*X*X*X=X#X=.2.b.X.N j.gXiXb.yXwXwXwX2X2X1X1X<Xg.d.f.a.e.%.#. .          ",
"          qXi.a U.&Xv.uXb.k.b.tX4X4X3X2X2XwXwXwXwXwXwXyXyXyXw.1.U n h.wX2. .r.e.%.#. .Y Y U H H F Z Z F J F             ",
"          qX| h I.@Xk.qXuXp.b.uXyXyXwX2X1X3X<Xg.d.s.r.e.%.#.Y H z n 5.uXY D A i i < , , > > : = = ; < F F               ",
"          k.L L.N.OXk.j.g.s.i.e.%.#. .| Y Y U H J D Z A i i i < n ..m w.+.@ . X * o O % % % O O > Z F                   ",
"        yXs.a N.L.#X1Xf.U H H D A i u u t t t 7 7 7 @ . . t t K ) 2...f.a . X * + O % % O O ; x F                       ",
"        yX#.h F.@Xj.p.s.U H i @ . . . . . . . . @ @ @ @ @ @ $ > , > J i @ @ o + O % O + = , F J                         ",
"        wXP h +X<Xj.i.| H < $ @ @ $ $ $ $ $ $ $ $ $ $ $ $ # # # # # # # o O + + O + O > Z F                             ",
"        1XD / ,X1Xj. .H < % % % $ $ $ $ # # # # # # # # o % % % O O O O O O O O O ; l F J                               ",
"        j.P f.1Xj. .H , o o o o o o o o + O % % % % % O O O = ; j P.j j u > , < l Z F                                   ",
"        1Xd.1Xj. .H , O O O O O O O O O O O = = = = ; ; > > i +XMXMXMXMXP.A L F F                                       ",
"        1X1Xj.#.H , O O O O O O = = ; ; > , < l L I J F D s J. X XXXMXXXV.m.].a F D (                                   ",
"        h.h.#.J , = ; ; > , < l z z Z Z F F I E.XXbX).Y.G.R.!.].|. XMX}.w M.|.C.h R.).Q.W.                              ",
"        h. .H Z x z Z F D a j j L F F J #XY W..X.X.X'.D.(.AXnX(.^.:XXXC.6 [.|.].M.vXXXQ.:X^                             ",
"        &.H J J F z z z ( m.e ~.R.h i +.hXhXnX).XXmX:XK.:XVX4Xk.n.0.=.+.o.%X].].`.].).^ ^ _.bX9X                        ",
"        Y z z x D a u : K.S.9 9 w w E.;XZ.#X3XuXrXVX9X).NXmX=.4XjX0.c.fXcX7.P !.].{.mXmX8XbXBX$X,XkX                    ",
"        f.Y H L G.K.r d S.S.e 9 9 g VX;X8 k ' x.d.*.J.mXZXmX~.-Xd.] V p.xX{ V $.(.Q.ZXZX:X).$Xj (.MXbXkX                ",
"        h.s.2XrX$XK.E.9X-.-.%X;.+X;XA.Z.8 L %.nXCX).K.bX:XR.E.f.] _ V ] c._ V ,.Q.Q.8XQ.^ W.>X*XXXNXoX$XyXlXlX          ",
"          ..f.6XsXhX>XjX{ q.0.2XVXSXA.Z.8 OXbXNXCXNX{._.E.R 5XjXp.[ ` ` ` ` z.k.9XBX8Xr r $X9X9X9X9X9XtXaXpXaX2X        ",
"          %.e.d.1XsXzXrXrX1Xb.VXhX7XSXA.k ). X}.}.}.}.bXE ~ Q S b ] ` _ { qXjXk.lXhX9X-X&XrX4X4X2X1Xg.d.h.i.s.s.        ",
"          %.P t.d.j.pXsXAXVX9XmXVX7XVXnX7X>X{.`.`.`.mXVX5XW ! b Q u.l.p.pXzXlXpX1X2XuXuXuXj.s.s.s.y.y.%.e.2.w.s.        ",
"          &.< s &.s.g.aXlXkX!.C.!./.-.rXVXhX&.@X).bXjXjXrX6XwXyXpXuXuXb.b.z.z.p.%.,.7.5.7.p.r.e.&.@.o.D | i.i.s.        ",
"          &.A 4 p &.s.d.wXsXhX!.C.I.5.uXjXjXyXuXaXpXuXuXuXj.e.2.0.6...i.p.9.0.8.%.} 4.,.6.| a p y t 4 & Y ..w.          ",
"            F @ 3 p $.y.i.<XsXrXrXrXyX2X1Xj.g.d.w.6.8.p.8.i.%.,.q.) M ,.l.8.0...a U 4.6.1.t 3 3 5 0 4 : %.y.y.          ",
"            G @ 3 5 y @...| d.j.h.h.d.s.s.a.y.r. .,.1.1.7.%.P X.q.N v 5.qXb.q.s 2 i 3.8.| d f g B.B.4 A y.s.s.          ",
"            G % 3 3 5 y P U w.2.i.s.s.r.e.&.#.@.I } 7.<.<.u 4 K 7.N v } } 0.8.p 2 1 } 2.O.H.I.I.I.g @ P s.s.            ",
"            U : 3 3 3 3 t G w.w.w.r.P a p y y 4 4 J <.<...y 2 J q.M n } } 0.&.B.0 1 1.2.P.I.I.I.I.d & #.s.s.            ",
"            U , 4 3 3 3 t z #.w.i.@.4 3 3 0 0 3 2 1 :.1.$.g 3 p 7.,.B p.z.8./ N.0 < 3.8.OXH.F.F.N.0 1 e.f.d.            ",
"            U < . 3 3 3 4 x  .w.w.@.f g B.N.N.B.0 t :.1.*.F.q 4 K 4.m ) q.$.F.B.3 z 1.8.+.H.H.H.B.7 K p.p.p.            ",
"          U G l @ 2 3 3 4 < Y s.s.=.U.I.H.H.H.H.d t >.8.*.F.f 3 4 X.,.4.5.L.H.g 4 z :.,.O.N.N.N.d 1 >.6.3.3.            ",
"          G U n i 4 2 3 3 : U s.s.=.U.H.H.H.H.H.d 1 1.6.&.F.N.d 2 t 9.8.O.H.H.g 3 1 N | L.H.F.B.y n >.,.1.>.            ",
"          G n n F i 4 2 3 - H r.s.a.Y.H.H.H.H.F.d 1 ,.5.&.I.I.N.0 2 s +.F.F.F.N.0 @ c j I.Y.+X@XP } >.:.>.3.            ",
"            l l z F i 4 2 7 z e.a.a.OXF.F.H.H.H.d 1 :.:.o.H.F.F.B.q f N.F.H.U.Y./ j =.&X,X<X<Xd.i.6.8.6.3.3.1.          ",
"                l x F i 4 7 x %.a.s.@XH.H.H.H.H.d @ M X.P.H.H.H.I.U.E.+X*X-X,X,X<Xg.d.f.a.a.&...3.>.5.>.:.' :.          ",
"                  l l F i u U i.p.p.i.P.F.F.F.F.f 2 < T E.+X%X*X=X,X3X<Xg.d.s.a.t.t.t.t.t.t.Y M ' N M N N N             ",
"                    l l z H U 3.7.6.7.*.F.L.U.Y.OXT *.,X,X3X<Xg.d.s.a.a.t.t.t.t.t.t.                                    ",
"                      l n G M 1.,.p.6.5.-.=X,X3X<Xg.d.s.a.t.t.t.t.t.t.t.t.                                              ",
"                        n G n >.:.:.1.7.8.p.s.a.t.t.t.t.t.t.t.                                                          ",
"                        n U U 1.6.6.8.8.3.<.1.w.t.t.                                                                    ",
"                          c n >.>.:.} 2.' ' :.                                                                          ",
"                            m N C C N N N                                                                               ",
"                              N                                                                                         ",
"                                                                                                                        ",
"                                                                                                                        ",
"                                                                                                                        ",
"                                                                                                                        ",
"                                                                                                                        ",
"                                                                                                                        "
};
