/* XPM */
static char *_3cef6a019984b0fb00af459f56591cdhhvi90mCWyFJoa20[] = {
/* columns rows colors chars-per-pixel */
"60 60 239 2 ",
"   c #050305",
".  c #1D140B",
"X  c #1E190B",
"o  c #1A1506",
"O  c #181316",
"+  c #211A0C",
"@  c #281B0D",
"#  c #281A13",
"$  c #331E19",
"%  c #381718",
"&  c #2D0D14",
"*  c #1C2402",
"=  c #282B09",
"-  c #2E3704",
";  c #323C01",
":  c #2E2313",
">  c #34211A",
",  c #342617",
"<  c #353A15",
"1  c #26212A",
"2  c #43191B",
"3  c #511F1E",
"4  c #4B221E",
"5  c #50201C",
"6  c #4A1E20",
"7  c #4C2324",
"8  c #4C2925",
"9  c #522525",
"0  c #532926",
"q  c #5B2B25",
"w  c #522628",
"e  c #562B2A",
"r  c #5A2E2B",
"t  c #582726",
"y  c #5D322C",
"u  c #57322A",
"i  c #5B3533",
"p  c #5C2E30",
"a  c #622E2B",
"s  c #62352E",
"d  c #65392E",
"f  c #69392D",
"g  c #633531",
"h  c #693631",
"j  c #663A32",
"k  c #6B3D33",
"l  c #6E3E38",
"z  c #723E35",
"x  c #753B2F",
"c  c #394804",
"v  c #3D5301",
"b  c #414C06",
"n  c #445702",
"m  c #444A1C",
"M  c #4B6402",
"N  c #536901",
"B  c #5B7B01",
"V  c #577502",
"C  c #637D02",
"Z  c #617702",
"A  c #667F1A",
"S  c #6D4135",
"D  c #6D423B",
"F  c #724236",
"G  c #75433A",
"H  c #79453A",
"J  c #7C4B3C",
"K  c #75483B",
"L  c #7F513E",
"P  c #637823",
"I  c #535B28",
"U  c #504A50",
"Y  c #784D43",
"T  c #645859",
"R  c #775350",
"E  c #776F51",
"W  c #676465",
"Q  c #757579",
"!  c #746B6F",
"~  c #605A67",
"^  c #814B3C",
"/  c #80513D",
"(  c #864F41",
")  c #895745",
"_  c #945D4A",
"`  c #995F4C",
"'  c #935C47",
"]  c #8F5F50",
"[  c #95624C",
"{  c #9B634C",
"}  c #9B654A",
"|  c #976956",
" . c #99735C",
".. c #8B6452",
"X. c #A46C52",
"o. c #AA6E54",
"O. c #A56852",
"+. c #AC7256",
"@. c #AE7359",
"#. c #A47258",
"$. c #B17457",
"%. c #B27559",
"&. c #B5795B",
"*. c #BA7C5D",
"=. c #B27A57",
"-. c #A1634A",
";. c #9C7561",
":. c #816366",
">. c #BC7D61",
",. c #AB7B64",
"<. c #5C8801",
"1. c #5C9000",
"2. c #648401",
"3. c #6A8501",
"4. c #638A00",
"5. c #6B8C02",
"6. c #6A8B0E",
"7. c #728E06",
"8. c #659401",
"9. c #6B9302",
"0. c #6C9902",
"q. c #6B9908",
"w. c #739302",
"e. c #749B03",
"r. c #7B9C02",
"t. c #7C9C0E",
"y. c #75980A",
"u. c #6C8913",
"i. c #6E9611",
"p. c #779913",
"a. c #748E11",
"s. c #75A301",
"d. c #7BA302",
"f. c #7DAB02",
"g. c #78A508",
"h. c #7BB100",
"j. c #7EA411",
"k. c #7BA518",
"l. c #6EA200",
"z. c #7D9928",
"x. c #798B34",
"c. c #7D9538",
"v. c #738A2A",
"b. c #7A8D43",
"n. c #819E06",
"m. c #819B15",
"M. c #83A603",
"N. c #84AB03",
"B. c #8BAC03",
"V. c #85A60D",
"C. c #90AE03",
"Z. c #84B202",
"A. c #8CB302",
"S. c #8DBA01",
"D. c #8CB40E",
"F. c #88BA05",
"G. c #92B502",
"H. c #95BB01",
"J. c #9BBD02",
"K. c #97BA0C",
"L. c #82A411",
"P. c #86AA11",
"I. c #8BAA17",
"U. c #92AD18",
"Y. c #8CB211",
"T. c #87B511",
"R. c #94B412",
"E. c #9ABC11",
"W. c #94B914",
"Q. c #A2BE0E",
"!. c #859C29",
"~. c #84983A",
"^. c #8CA728",
"/. c #9AB629",
"(. c #8CA23A",
"). c #9CB537",
"_. c #92A830",
"`. c #A4BB2C",
"'. c #9CC202",
"]. c #9AC406",
"[. c #9FC412",
"{. c #A3C402",
"}. c #A3C60B",
"|. c #A3C511",
" X c #A8CA13",
".X c #B1C72C",
"XX c #899B43",
"oX c #939B5B",
"OX c #889259",
"+X c #BE805E",
"@X c #8BA245",
"#X c #9AA858",
"$X c #9BB14B",
"%X c #A5B947",
"&X c #A9BA56",
"*X c #B1BD5B",
"=X c #90936A",
"-X c #BB8163",
";X c #B78E72",
":X c #9CA565",
">X c #9FA774",
",X c #A9B568",
"<X c #B2BB6B",
"1X c #ACB477",
"2X c #B5BB78",
"3X c #A4AC6C",
"4X c #C38362",
"5X c #C68A68",
"6X c #CC9672",
"7X c #D39D78",
"8X c #C4916F",
"9X c #DBA47B",
"0X c #E0AB7F",
"qX c #B4C34F",
"wX c #B9C469",
"eX c #BDC47B",
"rX c #7E7D84",
"tX c #827D84",
"yX c #7D8087",
"uX c #86858E",
"iX c #BABE83",
"pX c #B9BA88",
"aX c #B9BA8E",
"sX c #A39D83",
"dX c #CEB089",
"fX c #E5AB81",
"gX c #EBBA90",
"hX c #BDC381",
"jX c #C3C48C",
"kX c #C5C987",
"lX c #C4C493",
"zX c #C9C898",
"xX c #D0D195",
"cX c #F8C799",
"vX c #FFD19F",
"bX c #FDCEA0",
"nX c #FFD7A7",
"mX c #FEE3AD",
"MX c #CCC8A3",
/* pixels */
"/.t.@XpX2X1X~.#X,X1X%XD.j.p.E.[.m.y.j.T.i.P.E.t.u.t.R.j.p.E.|.m.p.j.Y.i.P.E.t.u.m.R.j.p.E.|.m.p.j.Y.i.P.E.t.u.t.R.j.y.`.",
"B.A.%XlXeXkXc.,XxXkX,X0.A.H.d.M.'.d.8.s.d.d.G.d.d.M.e.r.c X . c 5.<.s.d.d.G.r.d.M.e.G.H.d.M.J.d.4.s.d.d.A.d.d.M.e.G.H.d.",
"6.8.).jXjXjX_.#XkXkX3Xw.M.G.r.<.0.d.d.N.'.J.J.'.F.w.c . 8 F F 0 . c 3.H.J.'.H.F.S.N.r.A.e.<.0.s.d.N.'.J.J.J.F.S.N.r.A.L.",
"Y.d.N.E.qX:XM.U.:X:X/.9.B 2.N.A.M.H.J.G.H.J.G.3.b @ 8 h h k k g h 7 # n w.G.G.N.d.9.3.2.N.Z.f.G.'.K.H.H.H.A.N.f.9.3.2.D.",
"|.J.).A.G.^.$X(.v.x.).W.W.M.Z.{.'.N.J.J.d.V ; : y k h r y k k y r h k y : - n 0.N.d.G.M.Z.{.'.N.J.J.M.5.7.2.9.f.M.G.N.D.",
"W.`.pX*XI.&XlXlX#X(.zXwXiX).Z.A.A.5.w.3.c : e s H d r r y j j r u r d H s e > b w.f.2.N.S.A.A.5.w.G.d.5.5.r.G.A.f.4.N.E.",
"$XzXiXlXOXoXkXeX#X@XkX2XjXXX4.s.9.V c # e G d r k g e y r j k y y r g k p g H 0 : c M 2.e.e.9.s.9.<.s.J.J.].{.N.r.3.2.i.",
").%X/.*X_.%XiXaX#XXXaXiXlXx.9.C b > 8 h g S r r k s r r y k k y r r s k r y z g h e > ; M B.B.S.N.d.N.d.e.G.J.e.B.C.C t.",
"[.S.S.H.{.{.U.c.!.p.(._.x.M v , 7 G z e y l r r k s r r y j j y u r s k r y k y q G F 7 , n 5.Z.J.'.J.N.8.G.H.N.s.5.3.W.",
"D.N.A.G.r.d.N.0.f.s.0.<.- # u l g s j r s l y r k s r r y j j y u r s l r y k y e j d s z u @ v u.!.U.A.s.Z.e.s.s.9.e.Y.",
"6.r.G.A.r.2.2.0.0.B ; , 8 g G l t d k r y l y r k s r r y j j y u r s l r y S s t a a 5 d x q 4 , m =XXX1.0.d.w.M.J.M.u.",
"Y.G.e.8.F.B.r.B c : 8 H l r j f e d k r y k y r k s r r y j j y r r s k r y k q i :.:.R E ! :.R H 7 , < B G.G.2.w.H.A.j.",
"|.H.s.e.0.9.; , u h s F g t j j r s k r y k y r k s r r y j j s r r s k r y k q T ~ U ~ ~ U U Q G a h u , ; 3.2.2.e.H.E.",
"T.s.d.B.N : 8 g H y r k g e j k e s k r y k y r k s r r y j j y r r s k r y l q W 1   O O     ! G q y G g 8 : 4.s.d.H.Y.",
"p.4.9.d.+ k j g k u r k s e k k e s k e y l y r k s r r y j j y r r s k r y k q R U O O O O 1 Q F e i k y g l + A.e.e.P.",
"R.r.9.s.. l a y l y r k s e j d r s j r y k y r k s r r y j j y r r s k r y k q U rXrXQ Q Q yX! j r y k s r F X A.d.9.R.",
"Y.'.s.4.o k s y l y r k s t j j r s j r y k y r k s r r y j j y r r s k r y k q U uXrXrXrXtXyXT f e y k y r k + e.G.J.L.",
"6.0.d.d.X k y y l y r k s t j j r s j r y k y r k s r r y j j y r r s k r y k t T uXuXtXtXtXuXW f e y k y r k + N.r.A.L.",
"D.M.H.J.X k y y l y r k s t j j r s j r y k y r k s r r y j j y r r s k r y l r u W Q Q ! ! Q T d e y l y r k + 5.3.2.Y.",
" X'.N.H.X k y y l y r k s t j j r s j r y k y r k s r r y j j y r r s k r y S s 5 i T yXuXuXuXW d e y k y r l + f.C.B.T.",
"E.G.5.9.X k y y l y r k s t j j r s j e y k y r k s r r y j j s r r s k r y k y r s q U T Q Q T k r y l y r l + f.4.M.E.",
"j.9.s.9.o l y y l y r k s t j j r d j r y k y r k s r r y j j y u r s k r y k y e k k 3 t 8 T W k r y k y r l + e.3.2.i.",
"R.Z.G.N.o k p y k y r k s t j j r s j r y k y r k s r r y j j y r r s k r y k y e k s e d a i i k r y l y r l + N.B.C t.",
"[.'.G.J.+ k y y k y r k s t j j r s j r y k y r k s r r y j j y r r s k r y l y e j g t k l t q k r y l y r l + l.4.4.W.",
"Y.N.A.G.. k y y l y r k s t j k r g j r y k y r k g r r y l k s r e s k r y k y r j d e j g e j k r y k y y l + I.z.e.Y.",
"u.r.G.Z.. k y s l y r k s t j j r d j r s k y r k g r y t e e t y r g k u y l s r k g r j j t s k r y k y r l # /.`.V.6.",
"R.G.0.8.X k y y l y r k s t d j r s k r y k y r l j 0 w 8 9 9 w w 0 g l r y k y r j g r j j t s k r y k y r l # &XE.B.j.",
"|.H.d.e.. k s y k y r k s t j j r g k r y S y r j w 7 0 y d d y t 7 t g r y l a r k j e j j t s k r y k y r l # pX<XS.E.",
"T.s.d.C.. k s y k y r k s t j j e g j r g k r 7 7 t y s s s y y y y t 7 8 r k g r k g r j j e g k r y k y r l + j._.K.D.",
"p.4.9.d.. k y y l y r k s t j j r k k r t r 7 t y s s e G _ ' J r s s y t 7 e e r k j t j j e g k r y k y r k + Z.9.q.V.",
"R.w.9.s.X k y y l y r k s t j k e g g 8 7 9 g y y y J X.+.5X5X+.X.J y y y g 0 7 7 y j r k j t g l r y k y r k + A.d.8.R.",
"R.J.d.1.X k r y l y r k s r k k t 9 9 0 g j r g F O.&.{ O.O.O.O.{ %.O.F g r d g w 7 7 t j k r s k r y k y r l + r.G.H.L.",
"6.0.d.d.X k y y k y r l j e s t 7 t y k y s k ' *.4X{ % ' F l [ % ` 4X>.' S s r k y t 9 t s t j l r u l y r l + N.r.G.L.",
"Y.d.H.J.X k y u k y y S y 8 6 t y j s r K { @.o.&.&.+.F k k k k S +.&.&.X.+.{ K r y j y e 7 8 y l y y l y r k + 9.3.2.Y.",
" X{.N.J.X k y g F s w e 7 9 g i s u S { &.4Xo.O.&.+.*.+.y u y r +.>.@.%.O.O.4X&.{ F r y g g 9 7 r 9 s S g r l X f.B.B.D.",
"E.A.9.w.X z y y d 0 8 8 g k k S F X.+X5X*.+X+.| %.@.@.o.X.j s O.X.%.@.&.O.+.*.*.5X*.X.F l k j g 7 7 w d s r S + f.4.N.E.",
"L.9.s.9.. l p 9 w w y j k y 2 h Y O.` ^ ^ ( [ +.%.@.%.O.%.J G %.O.%.@.@.+.{ ( ^ J { O.J f 2 y k j y w 8 7 y z + e.5.2.y.",
"Y.B.S.N.  2 a w e d y s 0 0  .;...7 j | ;.R 2 { &.+.%.+.+.*.>.+.o.%.+.*.{ 2 Y ;.| j 7 ..;.| 0 9 s s j r w s 4   B.C.2.t.",
"|.'.G.J.M   . 7 k y J ` 9 ,.nXvXgXe ] bXbXcXY z -X+.4X' k J J h ' -X$.+Xk D cXvXbX[ e gXvXnX,.9 ' J y l 7 .   v s.5.2.W.",
"Y.N.A.G.w.M = . J ) #.*.k 8X9X6X8Xs ) 7X8X9X#.z -X+X{ 8 l ' ) S 8 } *.-Xl  .fX8X7X) y 8X6X9X8Xl &.#.) J . = n 0.f.9.e.Y.",
"6.r.G.Z.e.N M * J -.@.*.s % 7 2 7 k y 6 4 7 2 / 5X[ 7 F ^ s y J H 7 [ 5X( 2 9 7 6 y k 7 6 7 2 y &.+.{ ( * V 2.5.M.J.M.6.",
"U.G.e.8.Z.C B = J [ #.%.j .. .| ..s K | ..;.Y J 4Xr H G D  . .K z J r +XJ Y  ... .K s ..|  ...g %.o.` / = 7.3.Z w.H.B.t.",
"[.H.d.e.8.2.3.= J ` +.o.k gXnXvXcXs [ nXcXmX;Xz *.d f Y dXcXcXdXY k g *.z ;XmXcXnX| y gXbXnXgXl X.o.[ Y = 3.C B 2.e.H.E.",
"T.d.d.G.C B w.= J ` +.%.8 ( fX9X6Xs ) fX0X7Xr H 4Xy % #.gX7X7XgX,.2 r 4XG e 6X0X9X] s 6XfXfX) 7 %.o.} / = N B s.s.d.H.D.",
"p.4.8.d.r.N 3.= J ` o.*.g & s i y 2 7 i g 9 & ) 4Xs 6 { fX9X9XfX| 7 r +X) & 0 g y 7 2 y s y & s *.o.` L - V M 9.S.e.0.P.",
"R.r.9.s.N.N B = J _ O.*.@.k r s y k k s g r H @.&.g 0 J [ _ ) ( F 9 y %.@.G r s s k k y s r k +.*.X._ Y = N M 5.A.d.9.R.",
"Y.'.d.1.9.C B = J { X.%.%.*.*.*.o.=.>.*.*.+X+.X.&.s u r 6 7 y ] ' h e &.X.+.-X*.*.>.&.X.&.*.>.&.%.X.` L = P <.d.d.G.H.L.",
"6.0.d.M.d.V B = J ` X.%.@.@.%.%.O.+.$.%.$.&.X.X.&.s y y y j K [ ^ r r &.X.X.&.%.%.%.+.{ $.%.@.+.&.X.` ^ , =Xv.U.N.r.A.L.",
"Y.M.H.{.B.V V = J _ o.&.+.$.%.+.} +.%.@.$.%.X.X.*.s u y r k g 6 7 t s &.X.X.%.@.%.%.+.{ +.%.+.@.&.X.[ / , =XOX3Xu.4.2.P.",
" X{.N.H.J.e.M = ) _ ' *.*.&.&.&.O.%.&.&.&.>.+.+.>.g y s r l j s d y g >.+.+.>.*.&.&.%.O.&.*.&.*.*._ ' ' , =XpX).s.A.B.D.",
"K.Z.5.9.N.Z.e.; u ` ) @.%.@.$.@.O.+.%.$.@.%.o.o.*.k t r q g s r r t g %.X.X.%.$.%.$.+.O.$.$.$.%.+.) ` j m )..X/.g.4.M.E.",
"I.!.s.e.c.U..X(.< > > $ $ > $ $ $ > > > > > $ $ $ # 8 r t 9 0 e e 9 # $ $ $ > > $ $ > $ $ > > > $ > > b N.G.G.L.t.5.2.i.",
"$XlX%XwX:X:XeXzX>XP =X~.!.P E sXOXx.A =X=XOXb.3.3.* o X o . . . o o * Z C V 5.w.B 3.3.M V 3.3.5.2.C 3.w.s.G.J.e.B.B.C t.",
"/.hXdXlX#X1XjXkX<X~.iXeXhXz.(.kXkXpXc.hXiXjX3XA.H.N.s.5.3.F.'.'.G.J.{.{.N.9.H.H.Z.s.5.3.S.'.'.G.J.{.{.N.9.G.H.Z.s.5.3.D.",
"Y.,X2XwXW./.iX1XT.^.3X<XaXz.!.pX1X&XP.).2XaX#Xf.s.s.f.9.e.N.Z.N.A.G.r.M.B.d.Z.e.8.l.1.0.f.s.d.S.G.e.r.d.s.Z.s.s.f.0.0.P.",
"u.m.K.B.G.A.U.U.N.N.x.I.W.t.oXaX_.Z.S.H.R.x.v.i.s.w.M.J.M.2.2.r.G.Z.n.3.2.0.0.d.!.c.@Xp.!.3X^.N.I.z.v.c.p.0.d.w.M.J.M.6.",
"R.A.0.8.Z.A.d.d.E.qXkX_.N.wXMXlX*X8.8.Z.G.s.d.H.H.2.w.H.B.r.B.G.0.8.F.N.r.N.Z.E.xXzXlX:X:XzXeX#Xb.iXlX2X^.G.G.2.w.H.B.L.",
"[.'.d.e.e.Z.f.v.iXeXjXXX<.1X&X/.&X~.0.0.N.G.M.A.M.2.2.0.H.G.'.H.d.e.0.Z.G.d.Z.U.iXeXeX#X:XeXhX,X@XeXiX%XG.G.d.2.2.w.H.E.",
"h.s.d.B.2.n.'.Y.hXkXzX@X<.z.%Xh.q.p.B.2.n.'.N.0.f.Z.s.d.H.Z.h.s.d.B.C n.'.N.8.k.pXpXpXoX#XjXdX<XI.,XzXwXW.Z.Z.Z.s.d.H.S.",
"p.i.i.P.V.a.D.}.(.oXoX_.g.p.XXp.i.i.P.I.a.Y. Xj.a.j.Y.j.j.P.p.y.i.P.I.a.Y.|.j.u.XX).~.c.z.~.~.c.^.).oX#X/.E.L.j.D.j.j.I."
};
