/* XPM */
static char *xpm_[] = {
/* columns rows colors chars-per-pixel */
"60 60 256 2 ",
"   c #4B5D16",
".  c #465A05",
"X  c #526B05",
"o  c #5A7707",
"O  c #4E6A0C",
"+  c #627D02",
"@  c #617605",
"#  c #687B18",
"$  c #5C6C2B",
"%  c #677828",
"&  c #6B7933",
"*  c #727E2B",
"=  c #525D23",
"-  c #73784D",
";  c #58744C",
":  c #FF130B",
">  c #FE251A",
",  c #FF301E",
"<  c #D63C34",
"1  c #D23429",
"2  c #FA3427",
"3  c #FA3128",
"4  c #CB271D",
"5  c #B84B39",
"6  c #F94837",
"7  c #F14C3B",
"8  c #C94739",
"9  c #886D56",
"0  c #D8544A",
"q  c #FD4B45",
"w  c #FB5849",
"e  c #FD5B53",
"r  c #F95854",
"t  c #E7584F",
"y  c #FD6254",
"u  c #FD635C",
"i  c #F66759",
"p  c #F26F55",
"a  c #FD6C62",
"s  c #F36D65",
"d  c #FB756C",
"f  c #FE796E",
"g  c #F67668",
"h  c #EA7A75",
"j  c #FD7B73",
"k  c #F57B76",
"l  c #E87168",
"z  c #DD6E65",
"x  c #5C8301",
"c  c #5D8C01",
"v  c #548A00",
"b  c #5D9100",
"n  c #648401",
"m  c #698402",
"M  c #648B01",
"N  c #6B8C02",
"B  c #69880C",
"V  c #718D02",
"C  c #728B09",
"Z  c #659401",
"A  c #6B9402",
"S  c #6D9A02",
"D  c #699808",
"F  c #729302",
"G  c #749C02",
"H  c #7B9C03",
"J  c #78980A",
"K  c #6B8715",
"L  c #728C19",
"P  c #7C9B13",
"I  c #769718",
"U  c #6D9712",
"Y  c #6DA101",
"T  c #75A302",
"R  c #7BA302",
"E  c #74A901",
"W  c #7CAA02",
"Q  c #7CA30E",
"!  c #75A30F",
"~  c #7DB201",
"^  c #75B000",
"/  c #7CA411",
"(  c #7CA717",
")  c #6A8625",
"_  c #75892A",
"`  c #7C9825",
"'  c #7A8B37",
"]  c #7D9438",
"[  c #6F892B",
"{  c #7DA325",
"}  c #24A069",
"|  c #7A8942",
" . c #739475",
".. c #829F03",
"X. c #819B0B",
"o. c #829A16",
"O. c #82A503",
"+. c #84AB02",
"@. c #8BAD03",
"#. c #86A90B",
"$. c #91AE04",
"%. c #84B301",
"&. c #8CB302",
"*. c #8CBA02",
"=. c #8CB30D",
"-. c #87B706",
";. c #92B503",
":. c #94BB02",
">. c #9ABD02",
",. c #94B50A",
"<. c #98BC0B",
"1. c #82A412",
"2. c #85AB12",
"3. c #8CAC13",
"4. c #8BAC1C",
"5. c #87A61A",
"6. c #92AC18",
"7. c #8CB416",
"8. c #9BBC12",
"9. c #95B719",
"0. c #A1BF0C",
"q. c #859B28",
"w. c #849938",
"e. c #828F3F",
"r. c #8AA625",
"t. c #93AC28",
"y. c #8CB422",
"u. c #94B421",
"i. c #9AB727",
"p. c #8BA436",
"a. c #95A939",
"s. c #9BB536",
"d. c #A4BE29",
"f. c #A5BA39",
"g. c #97C100",
"h. c #9CC202",
"j. c #9BC605",
"k. c #9CC21B",
"l. c #A2C302",
"z. c #A4C60A",
"x. c #A5C519",
"c. c #B0CC18",
"v. c #9BC224",
"b. c #A7C625",
"n. c #ACC439",
"m. c #B4CD2E",
"M. c #828E45",
"N. c #889948",
"B. c #8B9656",
"V. c #939E5A",
"C. c #899252",
"Z. c #8BA145",
"A. c #99AC47",
"S. c #9CB545",
"D. c #99A757",
"F. c #9DB456",
"G. c #A6BA47",
"H. c #A7B855",
"J. c #B1BC5A",
"K. c #A0AE5F",
"L. c #8F936A",
"P. c #9AA564",
"I. c #9DA578",
"U. c #A5AC6B",
"Y. c #AAB568",
"T. c #B1BC6A",
"R. c #A5A877",
"E. c #ADB676",
"W. c #B5BB77",
"Q. c #A09A6A",
"!. c #EA8868",
"~. c #EB8679",
"^. c #F98579",
"/. c #EB9576",
"(. c #F49678",
"). c #F08E69",
"_. c #ECA378",
"`. c #F0A87C",
"'. c #EC8464",
"]. c #B2C74E",
"[. c #B7C468",
"{. c #BCC37C",
"}. c #BAC475",
"|. c #BED86B",
" X c #C4CE74",
".X c #66B68C",
"XX c #5CC59B",
"oX c #919D81",
"OX c #BABD84",
"+X c #BBBC8B",
"@X c #B5B886",
"#X c #B9BA95",
"$X c #ACAB89",
"%X c #BDB8A5",
"&X c #EA8B84",
"*X c #F48A84",
"=X c #F68A87",
"-X c #EC9588",
";X c #F5928C",
":X c #F59989",
">X c #EB9B95",
",X c #F69995",
"<X c #F68F90",
"1X c #C3BA96",
"2X c #D0B194",
"3X c #F4A889",
"4X c #E5A898",
"5X c #F3A499",
"6X c #F2B58E",
"7X c #D9BCAD",
"8X c #F7A8A4",
"9X c #F6B8A9",
"0X c #F7B9B6",
"qX c #E6B5AB",
"wX c #DB9B89",
"eX c #BDC382",
"rX c #BDC38A",
"tX c #B0D298",
"yX c #99D0AE",
"uX c #C3C38C",
"iX c #C6C888",
"pX c #C3C492",
"aX c #C8C898",
"sX c #CFD691",
"dX c #F9C79B",
"fX c #D3CAAC",
"gX c #F8C9A6",
"hX c #FAD7AE",
"jX c #F7C5BB",
"kX c #F9D6B5",
"lX c #E3D2B9",
"zX c #FCE7B8",
"xX c #F3EBB7",
"cX c #F6C4C2",
"vX c #FCCCCC",
"bX c #F8C8C5",
"nX c #FAD4CB",
"mX c #FBD4D4",
"MX c #FED5DB",
"NX c #FEDCDB",
"BX c #FCDAD5",
"VX c #F1D3CD",
"CX c #FCF4CA",
"ZX c #FEE2DE",
"AX c #F3E1D7",
"SX c #FEFBD7",
"DX c #F7E8CC",
"FX c #FCDCE5",
"GX c #FEE4E3",
"HX c #FDEAE5",
"JX c #FEEBEA",
"KX c #FEE5EA",
"LX c #FEFDFD",
"PX c #FDF5F2",
"IX c #FDEFEC",
"UX c #CFD2C7",
/* pixels */
"b.J Z.@XE.E.w.F.E.E.G.=./ I 8.x.P I Q 7.U #.8.P K P 9.1.I 8.0.o.J / i.p.4.k.P B X.,./ U 8.x.P J / =.U 2.8.P K P ,.1.I d.",
"3.*.G.pX{.iXw.Y.sXiXY.F ;.:.R O.h.R Z R R R *.H R O.G ;.:.R @.j.Q U F.tXy.<.1.Q O.G *.:.R O.h.R M E R R *.R R O.G ;.:.1.",
"I Z a.uXrXpXp.F.iXiXU.F R ;.H x S R R +.g.:.>.g.*.:.+.H &.H K p.[. XtXXX].|.tXv.*.+.H &.H o S R R O.g.>.>.>.*.*.O.H ;.r.",
"u.W %.9.].P.O.6.P.P.t.A x n +.&.W :.>.,.>.>.;.&.+.W A N B i.iX(.i u ~..XyX.XtX9.Q N n n O.-.W :.h.,.:.>.:.&.+.W A m m y.",
"x.>.s.;.:.r.A.p._ _ s.<.9.O.%.l.h.+.:.>.O.A V n A W O.9.].4Xy y d d u !.} .X] D W R ,.O.%.l.h.O.:.>.O.N V n A W O.$.+.u.",
"i.f.+X].4.H.pXpXD.w.aXW.OXi.%.*.*.N F &.W N N ..;.=.y.W.^.e d j d f f u ; yXM.q.:.+.n +.:.*.&.N F ;.R N N H ;.-.W N +.v.",
"H.1XOXpXC.V.iX{.F.Z.eXW.pXN.M T A E A c T >.>.h.z.u.iXa y f f f d d f u 9 XX$XR.a.H N M A G A R A c T >.>.j.l.+.H N N ` ",
"G.G.i.J.t.G.OX#XD.w.+XOXpX' A &.@.*.+.R +.R G ;.b.aXi u f f f f f d j a 0 } yX+XP.O.&.+ G &.@.*.+.R +.R G ;.>.G @.$.n 5.",
"x.*.*.:.l.z.6.] q.I p.t.' K %.j.g.:.>.z.c.u.{ ].sXa u f f f d g d j ^.q 8 } XXaXF.( J M %.j.>.:.>.l.>.O.Z ;.:.+.T N N 9.",
"9.+.&.;.H R +.S W E S T c A W %.3.9.n.}.sXlXAXHX^.y j f g d f f ^.j t < 5  .oXUXAXlXaXE.s.9.9.;.4.r.9.@.T %.T T W A G 7.",
"L H :.-.H m n Z S R F O.:.=.y.f.iXlXHXHXGXGXLX-Xq ^.^.^.j j ^.f s 0 < < 5 oX=X>XGXZXBXBXAXVXeXs.S.F.1XN.c S T F O.>.O.L ",
"9.,.G Z *.+.H W &.&.m J i. XlXBXGXZXGXHXJXJXLX4X1 < 7 t i i t 0 < < 1 1 l ,X^.*XNXJXGXHXZXGXIXrXH.E s.a.O.:.;.n F :.=.5.",
"b.:.R G S %.,.s.b.s.N.rXVXHXHXHXHXHXJXJXJXJXJXLXVX&X0 < 1 4 4 4 1 < 0 l *X=X*XbXLXLXLXPXGXmX8XlXpX].H.p.R :.O.n n G :.k.",
"9.E R &.n ..g.s.pXAXNXNXNXZXZXZXZXZXGXJXJXJXJXJXLXLXPXmX0X5X-X&X-X,X8XjXvXmXPXLXHXnX0X,X&Xh t 4XG.D.Q.` c S W %.T R >.9.",
"` c Z R O.N 4.x.}.NXmXNXNXNXNXNXMXNXNXNXNXNXZXHXHXJXPXLXLXLXLXLXLXLXLXLXIXNXcX8X=Xh h /././.p 4Xa.A n W -.G M T *.G G 4.",
"i.J A T *.c ] uXrXfXvXnXmXcX0XjXjXnXnXBXGXNXNXNXNXNXHXJXJXJXJXLXGXjX0X8X;Xh h h ~./._.p 6 '.).3XP.E M O.>.F @ F &.R A 9.",
"u.<.R M E W 1.a.D.Y.8X*Xs 5XzXhXzXdXs f 5XjXjXbXMXNXBXNXZXJXPXbX;X^.k ~.&X/./.(._.`.w > : w ).4XL.I T O.;.R R O.T ;.:.r.",
"L S R W +.>.>.:.%.4.2Xq q ^.CXCXSX*Xq e w 3XkX9X9X0XvXMXNXKXjX^.*X~./.~.6 '._.)._.p > 2 > y 3X#XB.r.:.>.>.g.*.*.+.H &.4.",
"u.O.:.0.;.>.:.:.3.}.7Xq a e 6XzXdXi u a u r hXSXzXgX9XgXjXFX8Xh h !._.6 : w _.3X).> > , > w qX' C #.:.>.:.@.+.W A m n y.",
"c.l.+.:.>.W N x B.lX4Xq a e :XSXgXu u a a e s zXCXCXCXzXgXhX-Xz ).6Xp > , 7 6X`.2 3 r s k g 4X% N &.O.N N + A W W @.@.u.",
"v.&.N F ;.W F N t. X5Xw y q g xX6Xr a a a a r (.zXhXzXCXSXCX6X).3X/.2 2 > 6 6Xg r ;X,X,X,X*XqX% o @.W F V R ,.&.W M O.k.",
"r.A R A c T g.h.j.].mXvX0X5X5XkX3Xe e y e y e a DXCX'.g hXCXgX)._.7 > 2 , y &X&X,X,X;X,X8X=Xh P.B c G >.g.h.l.O.G N N I ",
"u.@.&.+.O.+.R G ,.].nXnXJXPXFXvXbXcX8X:X^.d a q 6XdXq q :XCXdX3Xg : 2 7 l &X&X*X;X;X,X;Xr 2 7 1X1.O.+.R G ;.>.H +.$.+ r.",
"b.j.;.>.l.z.+.A ,.].zX).r 9XnXbXBXGXKXKXHXNXcX8X5X^.e q u CXCX(.2 2 l &X-X;X,X<X;X:X).2 2 s ~.1X6.l.l.+.A :.:.W Y M M i.",
"u.O.&.,.H R @.T #.S.DX(.q 7 6XhXgXgXjXnXvXMXGXJXGXBXcX,Xr 3XxXp t -X,X,X8X<X*X:X(._.p s ,X&X0 1X5.H O.@.G +.( { 4.` G y.",
"` H &.%.R m n A S F.nXBXmX8X8XSXgXy y (.gXkXjXjXcXvXGXPXmX9X5X~.,X,X>X,Xs 6 !._./.(.;X-Xh z 0 2Xq.J n m A Z A.uXi.d.1._ ",
"i.,.F Z *.@.H +.<.[.0XbXbXBXmXMXmX8X^.u g dXzXhXgX9XjX0XvXIXmX,X*X-X).2 : w -X*X<X*Xh z l h g 4X) %.+.H +.&.x.uXH.8.+.5.",
"b.:.R G S %.,.W ,.4._ C.I.1XfXjXvXGXIXNX0X9XjXkXzXhX^.3X9X0XjX-X/.'.2 3 s :X<X;X*Xh ~.&X*X^.k 2XK M W :.W @.G.E.+XT.*.k.",
"7.E R @.n H h.+.G W T o O # % | I.fXjXvXPXHXvXvXnXjXd g gXdXdX/.l i l >X8X;X&X*X*X;X*Xk ;X2XR.) B ' s.g.+.G 4.%./ r.8.9.",
"` M A R O.N @.h.T n N m X . X .   $ R.qX8XvXGXZXMXMXGXbXjXkX9X&Xh <X5X;X&X&X;X<X;Xk k 2X$X- -   * G.eXi.>.R c G %.A J 4.",
"9.J A T *.M R :.F @ V O.N o V m X . O ' $XqX9XvXNXNXMXZXGXMXBX8X=X,X;X&X;X;X*Xk h wX$X- * # - $ _ ~ E.G.*.F @ V ;.R A i.",
"u.g.R c T W O.,.R R +.R *.;.H ..-.N X X o & R.7X0XvXNXNXBXMXGX9X~.~.*X*Xk *X>X1XR.C.# @ % _ o.x o H.J.H.@.G R O.H ;.:.4.",
"L S R R +.g.>.g.g.*.*.+.H &.G M &.;.H N N @ # ) P.7XcXbXmXNXHX8X~.h k wX2XU.[ O o $   @ C.L.C.P R s.:.;.:.*.*.*.+.H ;.5.",
"u.O.;.>.;.:.>.:.&.@.W A m n +.-.W &.l.9.#.F n o % - L.@X7XcXmX,Xs >X@X_ # o $ $ O   $ & I P q.;.:.,.<.*.*.s.#.W A m n u.",
"b.>.O.:.>.W V V n A W W @.+.%.l.>.S r.{.W.Y.P K L.C.- % [ R.aX4X#XL.- - = & L.L.' U i.s.%.j.z.G.>.&.G.{.T.%X] Y W $.+.9.",
"k.,.N F ;.W N N O.,.-.W N O.:.*.:.x B.aX{.rXt.&.E.P.B.- % o # % $ - - - & M.w.f.t./ E.G.,.%.d.+XT.9.a. XT.G.9.+.W N +.v.",
"r.A T A M T >.>.l.l.+.G N m F G A Y r.#XW.;.*.*.f.+XE._ | B.- $ X $ 9 N.+.+.*.>.a.a.W.rXW.p.D.y.H.I.w.0.,.:.l.+.G N m P ",
"u.@.*.+.O.+.R G ;.>.G @.$.+ G &.@.*.O.r.t.Q 2.:.:.w.M.9.q.e.| & o o w.' q.w.3.*.` 6.8.' Z.u.7.%.P r.1.I L ;.g.G @.@.n 5.",
"b.>.;.>.l.l.O.Z :.>.+.E N N &.j.g.:.>.g.:.s.#Xi.8.J D.uXW.+.+.Y.R.U.o.F.+X@X9.#.H.OXW.L T j.:.;.*.:.l.+.Z ,.:.%.T N M i.",
"u.+.&.;.H O.@.G %.T T W A G +.%.O.&.;.H H f.uXT.+XN.Y.eXOXu.%.[.uXW.5.H.uX{.A.Z.iX{.1Xw.E %.s.d.].J.3.+.R %.R T W A G u.",
"` H :.%.H n n S S R F O.>.O.n n H :.-.H o D.pXE.}.p.U.rXiXH.w.uXiX{.r.U.uXeXD.Z.iXb.f.` x L A.n.n.J._ x A S R F O.>.O.L ",
"u.,.G Z *.+.G +.:.;.n F :.@.G @.,.S Z *.O.q.f.9.=.2.i.H.D.C.M.D.V.A.#.9.f.f.*.#.V.q.+.%.G #.9.R.D.~ +.H O.:.;.m F :.@.r.",
"b.>.R G S %.,.O.;.O.n n G >.:.g.>.T G G %.&.T +.R F &.R ' I R T ) D.s.~ T P x.=.c G R *.*.j.>.I L J =.&.O.*.+.n n G >.k.",
"y.R W ;.m H j.+.S W %.E T ;.%.~ E W ;.m ..h.O.G W %.E Z Y.].~ y.P.G.T.W.N.P.pXT.s.( E >.%.~ W W &.m X.j.O.A W %.E E >.9.",
"P M Z R ..N &.l.G M T &.G G O.N M Z R ..N &.l.H M G *.S D.aXT.Y.P.].].aXa.S.eXOXOX4.A S O.A M Z O.O.N &.l.G M G *.G S 4.",
"9.J A T *.Z R >.A o N ;.&.S +.&.H S T *.M R :.F @ F *.S D.n.d.R.B.Y.E.#Xi.:.W.aXJ.-.T A ,.;.H A T *.A W >.A m J ;.T A 9.",
"i.k.1.D / 3.#.r.D.H.G.t.9.f.G.].k.( U Q 3.2.8.1.2.2.1.7.9.#.I ' ] ' w.p.4.9.a.s.a.5.<.8.1.3.x.1.D Q 2.#.r.p.7.=./ 8.8.t.",
"B S R O.@.R W p.aXuXiXN.D.aXaX#XI T O.+.g.>.>.g.*.*.#.H &.G V.uXT.Y.2.*.*.>.*.~ %.+.H &.H x S R O.@.R W T.aXS.i.#.H ;.1.",
"=.O.;.l.,.G W s.OXE.uXM.M.pXH.J.r.;.>.;.:.>.;.@.+.W N m n W n. X{.@Xr.g.:.;.@.+.W N m n W &.O.;.l.;.G W ].+XiXT.B M n 2.",
"x.>.O.;.>.W o q.#X+XH.4.u.G.%.>.h.O.:.>.W N N + A R O.@.+.%.>.l.{.#X` G N N + A R O.$.O.%.j.h.O.:.>.R K Y.#XuXs.T @.+.=.",
"<.%.N N +.&.G n w.n.O.Y F X.%.~ +.N F +.T F V R ,.%.W n O.:.%.3.B.L.P S F V O.;.-.W n O.*.*.*.N V &.W C w.G.n.t.T M O.8.",
"5.` T G ] 6.c.A.` %.9.r.w.K r.A.p.E A ] s.<.j.j.>.O.H V n S G N S M M R >.>.h.l.+.H N n A G A R A x T >.*.*.:.Q J N m U ",
"A.pXS.[.P.P.eXaXE.` uX].m.] D.fXW.S.r.OXuXW.K.@.>.G +.$.+ G &.&.:.+.O.+.R G :.>.G @.@.+ G *.@.*.O.O.+.H G :.>.T @.@.n P ",
"i.eX1XpXD.E.eXiXJ.w.OXeXeXq.p.iXiXE.e.eXeXuXU.&.:.+.E N M &.h.g.:.>.l.z.@.Z :.:.+.E N N &.j.g.,.>.l.l.+.Z ,.:.+.T N N ,.",
"7.Y.W.[.9.u.OXE.4.r.U.E.@X` q.OXE.H.2.s.W.#XD.W T T W A G +.%.O.&.;.H O.@.T %.G Z S b A W E R %.;.H H O.G %.T T W A A 2.",
"L o.,.@.;.&.6.6.O.+.' 3.8.J V.#Xa.&.&.:.8.' [ U R F O.>.O.n n H ;.%.H m n S S R q.w.p.I w.K.r.@.5.` _ w.I S R F O.g.O.B ",
",.*.S Z %.&.R W 8.].iXt.O.[.aXpXJ.Z Z %.:.T W :.;.n F :.@.H @.;.S Z *.+.H O.&.8.sXaXpXP.U.aX}.D.| OXpXW.t.;.;.n F :.@.o.",
"k.g.R G G %.W L OX}.uXN.x E.H.i.H.e.S S +.,.O.*.O.n n A >.:.g.>.R G S %.;.O.&.4.@X{.{.D.P.{.eXY.Z.{.OXG.:.:.R n n F >.<.",
"~ E W +.n ..g.=.OXiXaXZ.v ` H.^ S P @.n ..h.+.S W %.E R :.%.~ E W @.+ ..h.+.Z ( +XOX+XV.D.uX1XT.5.Y.aX[.9.&.%.%.E R ;.%.",
"P U U #.1.C =.z.p.L.V.t.! U N.I U U 2.3.U =.z./ U / 9.Q Q 2.I J U 2.2.C =.z./ K N.s.w.] ` e.e.] r.s.V.D.i.<.1.Q =./ Q 4."
};
