/* XPM */
static char *xpm_[] = {
/* columns rows colors chars-per-pixel */
"60 60 256 2 ",
"   c #475909",
".  c #496803",
"X  c #546B07",
"o  c #597604",
"O  c #5A6F17",
"+  c #637C01",
"@  c #647A07",
"#  c #647B13",
"$  c #5A6631",
"%  c #677729",
"&  c #6A7737",
"*  c #6E774B",
"=  c #697758",
"-  c #FF140C",
";  c #FE251A",
":  c #D3342B",
">  c #D83C34",
",  c #CF362C",
"<  c #FE2B22",
"1  c #FB3425",
"2  c #F03933",
"3  c #CC281A",
"4  c #AC513B",
"5  c #FA4738",
"6  c #F14D3D",
"7  c #C94739",
"8  c #BD5145",
"9  c #DC544B",
"0  c #FC4B46",
"q  c #FA574A",
"w  c #FC5B53",
"e  c #F85953",
"r  c #E75950",
"t  c #F8654B",
"y  c #FD645B",
"u  c #FA6557",
"i  c #F0725A",
"p  c #FD6C63",
"a  c #F76A65",
"s  c #E9776A",
"d  c #FD796E",
"f  c #F87669",
"g  c #EB7974",
"h  c #FE7C73",
"j  c #F57B75",
"k  c #E86C65",
"l  c #DC6E63",
"z  c #5C8201",
"x  c #5D8C01",
"c  c #558901",
"v  c #5C9201",
"b  c #648402",
"n  c #698402",
"m  c #648B02",
"M  c #6C8C02",
"N  c #68850C",
"B  c #728E02",
"V  c #718603",
"C  c #649401",
"Z  c #6B9302",
"A  c #6C9A02",
"S  c #6B970B",
"D  c #739302",
"F  c #749C02",
"G  c #7B9C02",
"H  c #76970A",
"J  c #6D8714",
"K  c #728D1B",
"L  c #779916",
"P  c #6E9611",
"I  c #6DA100",
"U  c #75A302",
"Y  c #7BA302",
"T  c #7CAA02",
"R  c #7DA30D",
"E  c #76A809",
"W  c #7BB100",
"Q  c #7DA311",
"!  c #7CA616",
"~  c #6C8629",
"^  c #748927",
"/  c #7C9925",
"(  c #778839",
")  c #7E9437",
"_  c #6E9022",
"`  c #26A069",
"'  c #7A8845",
"]  c #798C6C",
"[  c #819D09",
"{  c #829D18",
"}  c #83A503",
"|  c #84AB03",
" . c #8BAD03",
".. c #87A90B",
"X. c #91AE04",
"o. c #85B302",
"O. c #8CB302",
"+. c #86B901",
"@. c #8CBA02",
"#. c #8DB30D",
"$. c #92B502",
"%. c #95BA02",
"&. c #9ABD02",
"*. c #93B50B",
"=. c #9BBC0D",
"-. c #94BB0B",
";. c #82A413",
":. c #85AC11",
">. c #8CAB1D",
",. c #87A719",
"<. c #91AC19",
"1. c #8BB317",
"2. c #9BBB12",
"3. c #96B719",
"4. c #A1BF05",
"5. c #A2BC19",
"6. c #839B28",
"7. c #849938",
"8. c #818D3A",
"9. c #8BAA21",
"0. c #89A526",
"q. c #92AA29",
"w. c #94B322",
"e. c #99B727",
"r. c #8CA536",
"t. c #95AB39",
"y. c #9AB435",
"u. c #8EB221",
"i. c #A4BA38",
"p. c #A4BD2A",
"a. c #96C101",
"s. c #9CC202",
"d. c #9DC40F",
"f. c #9CC11E",
"g. c #A3C402",
"h. c #A3C509",
"j. c #A6C619",
"k. c #9CC021",
"l. c #A6C725",
"z. c #AFC637",
"x. c #889945",
"c. c #8D9B56",
"v. c #939E5A",
"b. c #858C51",
"n. c #8DA346",
"m. c #98A948",
"M. c #9BB645",
"N. c #99A856",
"B. c #9DB257",
"V. c #A6B944",
"C. c #A7BA58",
"Z. c #B1BD5A",
"A. c #A2AF5F",
"S. c #949967",
"D. c #8B9268",
"F. c #A29D74",
"G. c #9BA765",
"H. c #9CA37A",
"J. c #AAB569",
"K. c #B2BB6A",
"L. c #A4A976",
"P. c #ACB577",
"I. c #B5BB79",
"U. c #A6AE6D",
"Y. c #F1875E",
"T. c #F29269",
"R. c #EB8579",
"E. c #F98579",
"W. c #EB9577",
"Q. c #F59879",
"!. c #EF8C6A",
"~. c #ECA278",
"^. c #F0A77B",
"/. c #DE8370",
"(. c #B3C357",
"). c #AFC74C",
"_. c #BCC37C",
"`. c #B9C476",
"'. c #B8C567",
"]. c #9AC343",
"[. c #C2C77C",
"{. c #C5CD72",
"}. c #5CB389",
"|. c #54C299",
" X c #6ECCA7",
".X c #949D82",
"XX c #BABD84",
"oX c #BCBD8B",
"OX c #B5B784",
"+X c #BCB995",
"@X c #B1AB90",
"#X c #BEB9A6",
"$X c #DC9C8D",
"%X c #EA8B84",
"&X c #F48A85",
"*X c #F58A86",
"=X c #EC9589",
"-X c #F4928C",
";X c #F6968A",
":X c #F39A94",
">X c #F79997",
",X c #ED9793",
"<X c #C4BC99",
"1X c #D4AB92",
"2X c #E9AA86",
"3X c #F4A889",
"4X c #F4A599",
"5X c #F1B393",
"6X c #D3BAAA",
"7X c #F8A9A5",
"8X c #F6B8A9",
"9X c #F6B8B6",
"0X c #E7AFA5",
"qX c #BDC283",
"wX c #BEC38B",
"eX c #BDD69C",
"rX c #8ECCAC",
"tX c #A4CDAA",
"yX c #C4C48C",
"uX c #C5C987",
"iX c #C3C293",
"pX c #C8C896",
"aX c #CED496",
"sX c #F9C79B",
"dX c #D0CEA9",
"fX c #F8C9A5",
"gX c #FBD7AE",
"hX c #F9C3BC",
"jX c #F5C5BA",
"kX c #F8D5B7",
"lX c #EFC1B4",
"zX c #FCE6B8",
"xX c #F2E9B8",
"cX c #FCCDCC",
"vX c #F8C6C4",
"bX c #F9D4CA",
"nX c #FCD4D4",
"mX c #FED6DB",
"MX c #FEDCDB",
"NX c #FADAD4",
"BX c #F2D2CF",
"VX c #F9E8C8",
"CX c #FCF4CA",
"ZX c #FDE1DD",
"AX c #F2E6DA",
"SX c #FDFBD6",
"DX c #E8E1D0",
"FX c #FDDCE3",
"GX c #FEE4E3",
"HX c #FEEBE5",
"JX c #FFECEA",
"KX c #FEE6EA",
"LX c #FEFEFD",
"PX c #FEF6F4",
"IX c #FDF0EE",
"UX c #D0D3C8",
/* pixels */
"l.H n.OXP.P.7.B.P.P.V.#.R L 2.j.L H R :.P :.=.L J H 3.;.L 2.2.[ L Q :.P :.=.{ J [ -.Q L 2.j.L L Q #.P :.2.L J L *.;.L p.",
"<.@.V.iX_.uX7.J.aXpXJ.D $.%.Y } s.U C U T Y @.G Y } G $.%.Y } s.Y v U T } $.F Y } F $.%.Y } s.Y m U Y T @.Y Y } F $.%.;.",
"K C t.yXwXiXr.B.uXuXU.D Y $.G z A Y T | s.&.&.&.+.@.| G O.G z A Y Y | s.%.&.a.+.@.| G O.G z A Y Y | s.&.&.&.@.@.| G $.9.",
"w.T o.3.(.G.} <.G.G.q.Z z b | O.T %.&.*.&.&.%.O.| T M n b | O.} $.4.$.&.&.%.$.| T Z n b | O.T $.s.*.%.&.%.O.| T Z n b w.",
"j.&.y.$.%.0.m.r.^ ^ y.-.3.} +.g.&.| %.&.} D B b Z T T X.| o.g.s.| %.&.} M M o A | T $.} o.g.s.| %.&.} M B b Z T } X.| 3.",
"e.i.oX(.>.C.iXiXN.7.pXI.XXe.+.@.@.M D O.T M M G $.O.T n } %.@.O.M D O.Y P ) 7.e.g.| b } %.@.@.M D $.T M B G $.O.T n | k.",
"C.<XXXiXb.v.uX_.N.n.qXI.iXx.m F Z U Z m F &.&.s.g.| F n b A F Z U Z x F s.).yXuXV.G n b A F Z U Z x U &.&.s.g.| G n n / ",
"V.V.e.Z.q.V.XX+XN.7.oXXXiX) Z O. .@.| Y | Y F $.a.F  .X.+ F O. .@.| T T 9.`.qXpXG.}  .+ D O. .@.| Y | Y F $.&.F  .X.b ,.",
"j.@.@.%.s.g.<.) 6.L r.q.( J +.s.&.%.&.g.g.| C $.%.| U M b O.g.s.%.&.j.l.<.L._.I.r.I m b | s.&.$.s.s.s.| C %.%.| U M n 3.",
"w.| O.$.G Y | A T U A U C Z T | | O.$.G }  .Y o.Y U T Z F | o.| *.2.C.eXi.7.w.t.L Q L / :.o.#.%.>.0.3. .F o.Y U T Z F 1.",
"K G %.O.G b b A A U D } %.| Y |  .O.O.G n b Z A U D } %.} n K t.{._.dX XdXpXtXqXI.OXr.A.qXK.C.w.M.A.<Xx.x A U D } &.} K ",
"w.*.F C @.| G T O.O.b Z O.g.&.&.%.A v +.| Y T @.$.n D %.#.0.uX&Xu y R.}.rX}.tXqX`.uXx.B.yXXXJ.v.M.W y.t.| $.$.b D %.#.,.",
"j.&.Y F A o.*.y.l.<.N J r.=.+.%.O.7.7.! U } ,.=.} b b L (.2Xu y d f y /.` rXG.I.qXpXn.N.uXuXJ.c.oX].C.r.T %.} b b F %.f.",
"1.E Y O.b G a.y.I.yXn.U.pXK.9.U y.qXZ.6.x.I.OXL.R +.,.`.E.w f d f d d w = rX( ( x.N._ / N.G.( S y.N.F./ x A T +.U Y &.3.",
"/ x C G } n 1.j.Z.iXm.9.`.iXA.r.qXI.(.,.m.pX'.`./ ! aXp w d d d f d d p 4 |.S.( } <.G.m.J ~ x.t.<.D b }  .F m U @.F F >.",
"e.G Z U @.x ) yXoX+Xt.<.K.I.l.5.oXiXuX1.Q XX[.aXN.iXu u d d h d d f h p 8 ` tXI.m.K.uXpXn.n.aXiXC.W m T s.D + D O.Y Z 3.",
"w.=.Y m U T ;.t.N.m.;.6.=.@.G Y 2.m.b.H 1.OXP.`.aXp y h d d f f d h E.0 7 ` |.pXL.wXwXyXN.m.uXoXI.,.U } $.G T } F $.%.9.",
"K A Y T | &.&.%.O.| 6.r.,.>.8.7.*.1.y.wXdXxXDXHXE.u d d f f d h E.h r > 4 ] .XUXAXDXdXaXJ.S.oXZ.K.y.%.&.&.a.+.@.| G O.>.",
"w.} %.4.$.&.&.@.<.'.wXI.n.L.pXdXaXxXHXHXGXGXPX-X0 h E.E.h h E.d a 9 > > 7 .X*X,XZXZXmXMXNXdX(.=.=.*.%.&.%. . .T Z n b u.",
"j.g.| %.&.T M z c.dXqX`.p.aXDXMXGXZXGXHXJXJXLX4X: : 6 r u u r 9 > , , : k >XE.&XMXJXGXGXZXGXHX(.=.s.} M M + Z Y T  . .w.",
"k.@.M D @.T D n y.).{.DXDXHXGXHXJXJXHXJXHXJXJXLXBX%X9 > : 3 3 3 : > 9 k *X*X&XbXLXLXPXIXZXnX7XdX{ O.T Z M } $.O.T m } f.",
"0.Z Y Z x U &.s.l.xXNXMXMXZXZXGXZXZXGXKXHXHXHXJXLXLXPXnX9X4X=X%X=X>X7XhXcXNXPXLXGXnX9X:X&Xg r 1X/ x U &.&.s.4.| G n n L ",
"w. .@.| } | Y U l.NXnXMXMXMXmXmXmXmXMXMXMXMXZXGXHXJXPXLXLXLXLXLXLXLXLXLXIXMXhX7X*Xg g W.W.W.i 1X0.Y | Y F $.s.F |  .+ 0.",
"l.s.$.&.g.h.| C 2.(.bXbXnXvXhXhXjXbXnXNXGXmXmXmXNXMXGXHXJXJXJXLXGXhX9X7X-Xg s g R.W.2Xi 5 i T.2X0.%.g.| Z %.%.T I m m e.",
"w.} O.$.G }  .U o.r.0X&Xa 5XzXgXzXsXa j 4XjXhXvXmXMXMXMXZXJXPXvX-XE.j R.&XW.W.T.~.^.t ; - q T.2X/ B }  .F o.! 0.>./ F u.",
"_ G *.o.Y n b Z A 0.1X0 0 E.CXVXSX;X0 w q 3XkX8X8X9XcXmXmXKXhXE.*XR.W.!.5 Y.~.T.~.t < 1 ; t 3XOXJ B n b A C m.uXe.5.,._ ",
"e.*.D C +. .G | %.3.1Xq y w 5XzXsXu y p y e gXSXzXfXfXlXhXFX7Xg s !.~.6 - q ~.2X!.; ; 1 ; t 5X& . T  .G | O.j.iXC.2.| ,.",
"l.%.Y F A o.*.T $.w.$X5 p e ;XSXfXu y p p w a zXCXCXCXzXfXgX=Xk T.5Xu ; < 0 3X^.1 < e f j s 1X% o x T %.T  .V.P.oXK.@.f.",
"1.U Y  .b G s.| A ].4Xq u 0 f zX5Xe p p p p e Q.zXgXzXCXSXCX5XT.3XW.1 1 ; 5 5Xf e -X>X:X:X*X0X~ M 8.y.s.| D ,.o.! 0.2.3.",
"/ m Z Y } M  .s.R N.nXcX9X4X:XkX3Xw w u w u w p VXCXY.f gXCXfX!.~.6 ; 1 < t %X%X:X:X-X>X7X&Xs H.7.(.qXe.&.F x F o.Z H >.",
"3.G Z U @.m Y %.H x.bXbXJXPXFXcXvXvX7X;XE.f p 0 5XsX0 0 ;XCXsX2Xi - 1 6 k %X%X-X-X-X:X-Xe 1 5 <Xn.+.I.V.@.D + B $.Y Z e.",
"w.s.Y x U T } *.R (.zX!.e 8XbXbXmXGXKXKXGXmXvX7X4XE.w 0 u CXCXQ.1 2 k %X%X-X>X-X-X:X!.1 1 a R.oX~ C.K.C. .F Y } G $.%.>.",
"K A Y Y | s.&.s.&.].VXQ.5 6 5XgXfXfXjXbXcXnXZXJXGXnXvX:Xw 3XxXi r =X:X>X7X-X&X;XQ.~.i a :X%X9 @XL t.@.$.%.@.@.@.| G $.,.",
"w.} $.&.$.%.&.%.*.).cXnXcX7X7XSXfXt t T.fXkXjXhXvXcXGXPXmX8X4XR.>X>X,X:Xa 5 Y.~.W.Q.-X%Xg l 9 1X0...=.@.$.y.:.T Z n b u.",
"l.&.| %.&.T B B N J.lXvXcXNXnXmXmX7X&Xy i sXzXgXfX8XjX9XcXIXnX>X&X=X!.1 - q W.&X-X&Xg l s R.s 0X6.| V._.Z.#X) I T X. .3.",
"f.@.M D @.T M M } 3.q.c.F.+XdXjXcXGXIXMX9X8XkXgXzXgXE.3X8X9XhX=XW.Y.1 2 k ,X-X-X&Xg R.%XR.E.E.6XG.>.t.uX'.V.2.o.T n | k.",
"9.Z U Z m U &.&.s.&.D X     $ ' H.dXhXcXPXGXcXcXbXjXf f sXsXsXW.s i k :X4X-X*X&X&X-X*Xj -X1X@X( ' S.7.5.*.%.g.| F n n L ",
"w. .@.| } | Y F @.%.n n +   . o O ~ L.0X7XvXGXZXmXmXGXvXhXkXfX%Xg -X4X-XR.&X-X:X-Xj g 1X.X& O X o / ,.L K O.s.F  . .b ,.",
"l.&.$.&.g.g.| C %.%.T Z + X Z D n @ # ) OX0X9XcXMXmXmXZXGXmXnX7X*X>X-X%X-X;XE.j g $X@X$ X @ o + D O.g.| C %.%.| E M m e.",
"w.| O.$.G }  .F | Y I T C Z Y T D D V X O ' @X6X9XcXMXmXNXmXGX8XR.R.&X&Xj &X$X1X@Xb.= $ . o ^ { i.C.,. .Y o.Y F T Z F w.",
"K G *.o.G n b A A Y D } &.} b b G O.Y n   $ b.b.@X6XvXvXnXMXGX7XE.g j $X6X@X* * = # % O . O n.l.z.Z.^ z A A Y D } &.} K ",
"w.*.F C @.| F | %.$.n D %. .F  .$.A C o.F ~ ( # # % c.+X6XvXnX>Xf ,X@X( & % X X $ O @ S Z ..3.L.N.W | G | %.$.n D %. .,.",
"l.&.Y F A o.$.T $.} b b F &.%.s.&.U F A o.| Z Z o . o O * D.<X1X@X] % X . X J @ . z D +.@.s.%.L K H #.@.T $.| b b F &.f.",
"1.Y T $.n G s.| A T +.E U %.+.W U T O.n G s.| Z F Z o . * ' # & * % & * & * L.N.t.Q U &.O.T U T O.n [ s.| A T +.U Y %.w.",
"/ m Z } [ M O.g.Y m U O.F F } M m Z Y } B O.g.F m F T z ' S.' * $ & b.F.7.m.XXXXqX<.Z F } Z b Z Y } M O.g.F b F @.U A 9.",
"e.G Z U @.m Y &.Z X M $.O.A | O.G Z U +.m Y %.D + D O.A n.y.0.b.& b.S.@Xe.%.I.iXJ. .U Z $.$.G Z U @.m Y %.Z n G O.Y Z e.",
"w.&.Y m F | Y ;.N.m.y.>.-.y.i.i.&.U x U T T $.Y Y } Y O.@.T N % ~ ~ ^ 0.:.O.0.e.q.H @.%.Y } s.U C F } Y ,.0.o.o.Y $.&.9.",
"_ Z Y } | Y T r.pXyXuXx.N.pXpX@XP U } | s.&.&.a.+.@.| D O.Z S.wXI.U...@.@.&.@.W o.| G O.G z Z Y } | Y T J.pXM.e.| G $.9.",
"3.| $.g.$.F T y.oXK.iXx.x.iXC.Z.9.$.g.$.&.&.%. .| T M n b T z.{._.OX9.a.%.%. .| T Z n b | @.} %.g.$.G T ).oX[.K.J m b 1.",
"l.s.| %.&.T z 6.+XoXC.1.3.).o.a.g.| %.&.T M M b Z T } O. .+.a.h.[.iX/ F B M b Z E } X.} +.g.s.| %.&.Y J J.+XyXi.U  . .3.",
"3.o.M M | O.G b 7.z.} I D [ o.T o.M D | U D B Y $.O.T b } %.O.#.c.S.L A D M Y $.@.T b } %.@.@.M D $.T B 7.V.z.e.Y m } k.",
"q./ U F 7.>.l.M./ O.<.0.7.J 0.m.7.U Z ) i.4.=.s.&.| F M b Z G M A m m Y &.&.s.s.| F M b Z F Z Y Z z U s.@.@.%.R H M n L ",
"m.wXM.'.G.G._.pXP./ yX).z.) v.dX_.y.0.XXyXI.A.O.&.F | X.+ F @.O.%.| } | Y F $.&.F  . .+ F @. .@.| } | G F $.&.F |  .+ 0.",
"e.qX<XiXN.U.yXuXK.7.XXqXqX6.t.uXuXP.7.qXqXyXU.O.&.o.E M m @.s.s.%.&.g.g.O.Z %.&.| E Z M @.g.s.%.&.g.g.| Z -.%.| E M M -.",
"e.J.uX{.e.e.wXOXu.r.P.I.oX0.r.oXP.J.9.V.OX<XU.:.Q Q :.P Q :.#.:.-.2.{ ,.#.R #.R S R S P :.R :.-.=.L ;.:.Q #.Q Q :.L L w.",
"K 6.*.O.$.O.<.<.| | ) >.3.L c.+Xt.O.O.a.3.( ~ P Y D } s.} b b G %.o.[ n b A A R 7.8.n.L 7.A.q. .,./ ^ 7.L A Y D } s.} J ",
"*.@.Z C o.O.Y T 2.).qXq.| '.dXyXZ.C C +.@.U T %.$.+ B $.| G  .$.F C +.| G | O.5.aXiXyXG.G.pX`.N.' XXyXI.0.$.$.+ D $.| ;.",
"d.&.U F F | Y _ XX`.yXx.z P.C.e.C.7.A A | @.} @.} b b Z &.@.a.&.Y F A o.$.Y O.>.OX`.[.N.G.`.qXU.n.I.XXV.%.$.Y b b Z &.-.",
"o.U T  .b [ s.:.XXuXpXx.c / B.W S {  .n [ s.| A T o.U Y $.+.T U T  .+ [ s.| Z L oXOXoXv.N.qXoXK.,.J.pXK.3.O.o.o.U Y $.+.",
"L P P :.;.P #.h.r.S.v.y.R L x.K P P :...P #.j.Q P Q #.R R :.H H P :.,.P :.j.Q J 7.t.7.) / 8.8.) 0.y.v.N.e.=.;.Q #.Q R >."
};
