/* XPM */
static char *result[] = {
/* columns rows colors chars-per-pixel */
"60 60 246 2 ",
"   c #010100",
".  c #090602",
"X  c #190900",
"o  c #0D1204",
"O  c #181801",
"+  c #2E0100",
"@  c #250801",
"#  c #340000",
"$  c #3A0100",
"%  c #231902",
"&  c #361C00",
"*  c #1B2400",
"=  c #1B2701",
"-  c #252301",
";  c #2D2103",
":  c #222D01",
">  c #342504",
",  c #293603",
"<  c #32330F",
"1  c #333029",
"2  c #560000",
"3  c #4B1203",
"4  c #660600",
"5  c #770000",
"6  c #483307",
"7  c #533904",
"8  c #5D3719",
"9  c #344401",
"0  c #394A01",
"q  c #3D5402",
"w  c #374017",
"e  c #4E4B07",
"r  c #425402",
"t  c #475C04",
"y  c #4A5616",
"u  c #754900",
"i  c #755401",
"p  c #4C6602",
"a  c #536703",
"s  c #536B01",
"d  c #5B7401",
"f  c #587801",
"g  c #556B14",
"h  c #576816",
"j  c #627D01",
"k  c #6F760F",
"l  c #657808",
"z  c #4F492E",
"x  c #5D6930",
"c  c #66712D",
"v  c #102E46",
"b  c #365A7F",
"n  c #565245",
"m  c #6D6B50",
"M  c #6D6A55",
"N  c #840101",
"B  c #980800",
"V  c #A60000",
"C  c #B90000",
"Z  c #912E00",
"A  c #C70000",
"S  c #D30000",
"D  c #DD0000",
"F  c #CA130F",
"G  c #DB0E10",
"H  c #E30000",
"J  c #EA0000",
"K  c #F40000",
"L  c #FF0000",
"P  c #F41211",
"I  c #E32E2D",
"U  c #894700",
"Y  c #965100",
"T  c #A6540A",
"R  c #986813",
"E  c #B57335",
"W  c #FE5806",
"Q  c #E94F4D",
"!  c #F27476",
"~  c #5C8301",
"^  c #588604",
"/  c #5E8C01",
"(  c #5B9100",
")  c #648401",
"_  c #6A8402",
"`  c #648A01",
"'  c #6B8C01",
"]  c #6A880E",
"[  c #718C06",
"{  c #659301",
"}  c #6B9301",
"|  c #6C9901",
" . c #6C9809",
".. c #739302",
"X. c #769607",
"o. c #749C02",
"O. c #7B9C02",
"+. c #749A0E",
"@. c #7C9C0E",
"#. c #6B8715",
"$. c #6F9413",
"%. c #789914",
"&. c #6CA200",
"*. c #75A201",
"=. c #7BA402",
"-. c #76AA00",
";. c #7CAA02",
":. c #7BA30E",
">. c #7EB200",
",. c #7DA511",
"<. c #6E8724",
"1. c #768B28",
"2. c #7D9928",
"3. c #788A36",
"4. c #7E9337",
"5. c #798862",
"6. c #839E12",
"7. c #AC920C",
"8. c #BB990C",
"9. c #82A503",
"0. c #84AB02",
"q. c #8BAD03",
"w. c #86A60B",
"e. c #86AA0F",
"r. c #90AD03",
"t. c #84B301",
"y. c #8CB302",
"u. c #8CBA02",
"i. c #8BB40E",
"p. c #88B80A",
"a. c #92B602",
"s. c #95BA01",
"d. c #9ABD02",
"f. c #95BC0E",
"g. c #98BA0D",
"h. c #86A716",
"j. c #8CAC12",
"k. c #91AD17",
"l. c #8CB211",
"z. c #89B610",
"x. c #94B411",
"c. c #99B816",
"v. c #849B29",
"b. c #83983A",
"n. c #89A526",
"m. c #92AB2A",
"M. c #89B322",
"N. c #9AB626",
"B. c #8CA439",
"V. c #96AB3A",
"C. c #9CB433",
"Z. c #99B538",
"A. c #A4BE26",
"S. c #A3BA37",
"D. c #FF9E00",
"F. c #D2B40F",
"G. c #FFB907",
"H. c #E38A39",
"J. c #9CC202",
"K. c #9AC403",
"L. c #9FC610",
"P. c #A2C402",
"I. c #A4C70A",
"U. c #A4C513",
"Y. c #B0C731",
"T. c #FFCA01",
"R. c #FBCA0C",
"E. c #FFD60B",
"W. c #FFCE10",
"Q. c #FFD411",
"!. c #FFDA14",
"~. c #FFE706",
"^. c #FFE512",
"/. c #FFEB12",
"(. c #FFE618",
"). c #FFF914",
"_. c #FFD53D",
"`. c #899A46",
"'. c #8B9154",
"]. c #929E5A",
"[. c #B48452",
"{. c #8DA145",
"}. c #99AB46",
"|. c #9CB646",
" X c #99A757",
".X c #9DB05A",
"XX c #A7BA46",
"oX c #A8B958",
"OX c #ADBA5C",
"+X c #93946E",
"@X c #999C68",
"#X c #9CA665",
"$X c #9CA276",
"%X c #A3AD66",
"&X c #ABB469",
"*X c #B2BC67",
"=X c #A7AB77",
"-X c #ACB378",
";X c #B4BB77",
":X c #F99C5A",
">X c #EE9564",
",X c #F1B574",
"<X c #B2C44E",
"1X c #B8C468",
"2X c #BCC37A",
"3X c #FFDA5C",
"4X c #FFD470",
"5X c #416486",
"6X c #FE7B82",
"7X c #7E97A1",
"8X c #65D1FF",
"9X c #6BD0FF",
"0X c #A6A188",
"qX c #B6B884",
"wX c #BABE84",
"eX c #BCBD8B",
"rX c #BBBA94",
"tX c #AEB5AC",
"yX c #F19190",
"uX c #C2BE97",
"iX c #FAB196",
"pX c #F6AEAD",
"aX c #BDC184",
"sX c #C5C987",
"dX c #C3C58D",
"fX c #C3C392",
"gX c #C8C799",
"hX c #D1D195",
"jX c #FFE48B",
"kX c #D3CBA9",
"lX c #FCD0AF",
"zX c #FFEBAD",
"xX c #FFE7BD",
"cX c #81BAF3",
"vX c #A5DFFE",
"bX c #90EFFF",
"nX c #ECDAD4",
"mX c #FFE9C8",
"MX c #FFF7C9",
"NX c #FFEAD7",
"BX c #FFFED3",
"VX c #FFFFDD",
"CX c #CEF9F8",
"ZX c #FCE5E5",
"AX c #FFFFE5",
"SX c #FFFCF8",
/* pixels */
"c.@.{.qX-X-XB..X-X-XXXi.w.+.c.g.6.+.,.z.$.e.g.@.] @.x.,.+.c.U.@.+.:.z.$.e.f.@.] @.x.,.+.c.U.6.+.:.z.+.e.g.%.#.6.g.,.+.c.",
"0.u.XXfX2XsX4.%XhXsX&X .a.a.9.9.J.t , ~ =.q r ' O.9.O.a.s.' t J.f , p -.=.a.O.-.9.O.a.a.=.w.d.=./ *.=.=.a.=.=.9.o.a.s.=.",
"] { Z.aXdXdXm..XhXsX=X..=.a.O.~ { o   a d.    f u.u.0.O.q.p   | ,   * K.d.d.s.u.u.0.O.a.O.~ | =.=.0.d.s.K.d.y.u.9.O.q.h.",
"l.9.0.c.<X#X;.k.@X XM.} f ` 0.' O V S 3 : C A 3 p =.} _ q 3 C : B 5 * a.d.s.y.0.=.{ _ ) 9.y.=.s.J.a.d.d.a.y.q.;.' ` ` l.",
"L.s.C.y.u.n.}.B.3.1.C.f.x.0.t.j X K L V 5 K L 4 = =.9.q.0 4 L   A V * ' _ ' f | 0.=.r.0.0.P.J.0.s.J.9.' [ ) } =.9.a.w.i.",
"z.Y.aX1Xk.oXgXfX.XB.gX;XwXC.t.' O V H L L J A $ r 9.;.) > 5 V + S B O j ] b.b.A.P.t.) 0.s.s.y.' ..a.=.' ' O.a.y.;.) 0.g.",
"|.gXqXfX'.].aX2X.Xb.aX;XdX`.` o.f . V L J H X r [ ' ..o C A   J L 5 o f q.XXdXsXXXo.' ` | o.} -.} ` =.d.d.J.d.0.O.' ` +.",
"C.XXN.*Xn.XXwXuX#Xb.rXwXuXb.} 0.X.j o V K . 9 s j f =.*   2 H H L N o f v.1XwXhX#X=.q.j X.y.q.u.w.=.0.=.o.s.d.o.0.r.j +.",
"L.u.u.s.P.P.m.4.v.%.B.m.3.#.t.K.9.[ a & 2 0 q d _ ..| *   $ L L N > j ` 6.=X2X;XB.&.' ~ t.K.s.s.K.d.d.0.{ a.s.0.*.} ` x.",
"z.0.y.a.O.9.0.o.;.-.| &.{ } ;.0.9.O._ 9 = a 9 9 q t s o   . 2 5 X = r e h y a c 2.,.+.2.z.t.l.y.k.n.k.q.*.t.=.*.-.} | i.",
"] O.s.q.O.) ~ | | =.| 9.s.0.=.9.q.0.o.d q 9 > > % ; ; ; ; * * o % > ; ; ; & ; < #XqXB.oX;X*XoXm.|..XgX`./ } *.X.w.d.9.] ",
"l.a.o.{ u.0.O.=.y.y._ } y.J.d.d.s.o.( *.p   F./.Q.Q.Q.Q.Q.Q.Q.!.Q.Q.Q.Q.Q.Q.(.F.  @X`..XdXeX&X X|.-.C.B.9.s.a.j ..s.q.@.",
"U.d.=.o.| t.p.C.U.m.] #.n.x.t.u.q.b.b.g O F.W.!.Q.!.!.E.Q.!.Q.!.!.Q.E.!.!.E.!.E.F.O x  XdXsX&X'.aX|.oXV.;.s.9.` ) o.s.L.",
"z.-.=.q._ O.K.S.;XdX].%XgX*XM.-.Z.aX3.6 F.).W.W.W.W.W.W.W.W.W.W.W.W.W.W.W.W.W.Q./.F.6 y #X#X1. .Z. X@X2./ | t.t.-.=.d.i.",
"+.` { O.9.` j.U.*XdX{.k.2XfX%XB.aX;X< k ).W.W.W.W.W.W.W.W.W.W.W.W.W.W.W.W.W.W.W.W.).k < #.<.`.B.k.o.) 9.t.O.` o.y.*.o.w.",
"x.X.} *.y./ 4.fXeXrXZ.k.&X;XY.c.qXaX1 R /.W.W.W.W.W.W.W.W.W.W.W.W.W.W.W.W.W.W.W.W.).i 1 `.{.gXgX*X>./ =.d...j ..y.o.} x.",
"l.s.=.` *.;.w.V..XV.6.n.c.a.o.O.k.o 7.(.Q.W.D.R.Q.W.W.Q.W.W.W.W.W.W.W.W.W.W.W.W.W.W./.7.. x aXwXqXh.-.9.a.o.=.w.O.a.a.,.",
"] | =.9.0.d.d.s.q.q.n.B.h.h.b.b.;.  8.).W.W.D.G.Q.W.W.G.G.Q.W.W.W.W.W.W.W.W.W.W.W.W./.F.  z eXOX*XC.u.d.d.K.u.u.9.O.y.e.",
"x.;.s.d.a.d.s.a.l.1XuX;X{.=XdXfXV.. 8./.Q.W.D.G.Q.Q.Q.D.G.!.W.W.Q.W.W.W.W.W.W.W.W.W./.8.  y h.a.g.x.d.s.s.q.0.9.{ _ ) l.",
"U.J.0.s.d.=.' ~ '.kX;X;Xx.XX;XsX%Xo 8.).E.R.D.R.!.T.R.D.G.Q.W.W.W.W.W.W.W.W.W.W.W.R./.8.  r 9.=.s.d.9.' ' ) | =.9.a.0.z.",
"c.y.' ..y.9...' m.Y.1XgX`. XgXdX].. 8./.Q.W.D.G.Q.W.W.D.G.W.W.W.W.W.W.W.W.W.W.W.W.W./.8.  9 ..` ..y.=...[ 9.a.y.;._ 9.f.",
"e.{ =.{ / O.d.J.K.s.n.V.3.<.b.`.#.{ - . z xXMXz z MXzXmX3XT.W.W.W.W.W.W.W.W.W.W.W.W./.8.. , f o.} / o.d.d.J.d.0.o.' ` %.",
"l.q.u.0.w.0.*.o.s.d...o.0.j / n.&X{.x * 1 AXSX1 1 SXNXAX3XT.W.W.W.W.W.W.W.W.W.W.W.W./.8.  9 ..t.0.9.q.=.o.a.K.o.0.q.j @.",
"U.K.a.d.P.P.0.{ s.d.0.-.' ` t.l.aXrX'.0 1 BXVX< 1 AXmXZX3XT.W.W.W.W.W.W.W.W.W.W.W.W./.8.  0 O.q.d.P.P.0.{ s.s.;.*.` ` x.",
"i.9.y.a.O.9.q.O.0.O.*.;.| } ;.K.*X;X&X< n MXAXz z BXlXZX3XT.Q.W.W.W.W.W.W.W.W.W.W.W./.8.. , _ 0.a.O.9.q.o.0.,.n.h.v.o.e.",
"] O.u.t.9.j ~ | | =.} 9.d.9.f 1.V.x.> 5.AXxXxXBXlX! 6XnX4XT.W.W.W.W.W.W.W.W.W.W.W.E./.8.  , ) q.q.9.j ` | { |.aXN.A.e.] ",
"x.a.| { p.y.O.0.a.a.j ..a.0.O.0.a...* M SXAXAXVXxXlXlXNX3XT.W.W.W.W.W.W.W.W.W.W.W.R.).F.  , o.} { u.t.=.0.y.A.dXOXf.0.:.",
"L.d.=.X.| t.a.=.a.0.` ) X.d.u.K.d.=.: 5.BXQ Q iXBXmXmXSX4XT.W.W.W.W.W.W.W.W.W.W.W.).F.6 9 f O.o.X.{ -.y.=.q.XX;XeX*Xy.L.",
"z.-.=.q.) 9.d.0.| ;.t.-.=.s.t.;.-.=.: +XmXS S >XAXmXNXzX_.T.W.W.W.W.W.W.W.R.Q.^.^.F.6 9 a s ^  .9.b.Z.K.0. .h.t.,.n.g.z.",
"$.` { =.9.' q.P.=.` o.u.o.| 9.' ` { = 5.lXD H iXVXxXxXQ.T.!.Q.Q.W.W.W.Q.W.Q.W.R.W.- < y c c '.1.V.<XeXA.d.=./ | t.}  .e.",
"x...} *.p.{ =.s...d ..a.=.} a.a.X.{  .9 n AXBXSXjX~.^.^.^.^.^.^.!.^.^.^.^.).7.  o t x x 1.h.-X`.V.u.-XXXy...j ..a.=.} x.",
"x.d.=./ *.=.9.a.O.=.w.=.y.s.=.q.L.-.^ s 9 n n z z 7 e > % % - - O 6 e e 7 e < h y m g #.b.S.U.*.^ oX*XoXq.O.=.9.o.a.s.w.",
"] | =.=.9.K.s.d.d.u.s.9.O.y.X.` y.d.=._ s             1 m z n n n 1         o q s h h #.%X0X].,.9.V.s.a.s.u.u.u.9.O.y.h.",
"l.9.a.d.s.d.d.s.y.0.;.{ ' ) 0.p.9.y.P.j.t # # . . + X >X,X:X:X:XiXE . +   X $ + y h c 3.h.6.v.s.s.x.g.s.a.C.w.;.} ' ` e.",
"U.P.0.s.d.9.' [ j } =.9.y.0.t.P.K.| n.n $ L L # # L K H D D D D D H L K   N L S   g N.Z.t.K.I.XXg.q.XX2XOXtXb.*.=.r.0.i.",
"c.a.' ..y.9.[ ..=.a.y.;.' 9.s.a.a.^ {.m # L L + $ L J S yXSXSXSXI D K J   N L A   ] ;XY.a.t.A.eX*Xc.V.sX1XXXc.y.;.` 0.g.",
"e.} -.} ` o.d.s.J.P.9.O.' _ ..o.| | n.M # K L + # L D pXpXI Q Q nX6XH H   N L A   c -XaX;XB.#XM.oX$Xv.c.g.s.P.0.O.' ' $.",
"l.0.u.9.=.0.=.*.a.K.o.0.q.j X.y.q.u.=.y # K L + # L H yXyXQ Q Q pX! H H   N L A   h e.3.{.N.j.t.@.B.h.%.$.y.J.o.q.q.j :.",
"U.K.s.d.P.P.0.{ a.d.t.*.' ` y.K.d.a.g.p # K L + # L H D yXSXSXSXQ H J H   N L A   m #X#.&.K.d.s.a.a.P.0.` a.s.0.*.' ` x.",
"i.9.y.a.O.9.r.O.t.*.*.-.} o.t.t.0.y.a.r # K L + # L D SXyXS D D nXpXH H   5 L A   x 0Xb.-.u.C.N.Y.OXj.0.*.t.*.o.;.} ..z.",
"] O.a.y.O._ ` | | =.[ 9.d.9.` ) O.a.t.q # K L + # L D I pXSXZXSXyXG J H   N L A   h B.%.` #.}.Y.Y.1X<.~ | | =...w.d.=.] ",
"x.a.| { u.0.o.0.s.a._ ..s.q...0.a.o.{ p # K L + # L H D Q pXyXiXG D J H   5 L A   y ..>.o.w.N.=X Xt.;.o.9.s.a.) ..s.0.@.",
"U.d.=. .| y.a.=.a.0.) j | d.s.K.d.*.| 0 + J L + # L J J H D J H J J K K   5 L A   q ] y.u.K.s.6.#.+.z.y.=.s.9.` ) | s.L.",
"z.-.=.a._ O.J.0. .;.t.-.=.s.y.-.-.=.a., 3 P P # $ P G G G G G G G G G G   N P F o q { g.t.;.-.=.y._ 6.J.0.| ;.t.-.=.d.f.",
"$.` } =.9.' q.P.o.` o.y.o.| 9.} ` { , M VXmXVX1 v vXcXcXcXcXcXcXcXcXcXcX  +XAXMXMX1 9 | 9.' ` { =.9.' y.J.O.` o.y.o.| e.",
"x.X.} *.u.{ =.d.} f ' a.t.o.9.y.X.{ = +XVX,XSXz v 9X8X8X9XbXbXbX9X8X9X8X  0XNX,XVX1 9 } a.s.O.} *.u.` 9.s.} ` o.y.=.} x.",
"l.s.=./ o.9.=.h. X}.S.h.x.Z.S.S.L.*.= M VXH.zX6 1 CXvXCX7Xb 5Xb tXCXCXvX  [.jX:XAX1 0 r.O.9.d.=.( *.9.=.h.v.t.t.=.y.s.w.",
"] | =.9.0.=.-.B.gXdXsX`. XgXgXrX$.-.w M kXE E . z lXiX:X8 o O   T ,XlXiX. 6 E [.kX1 9 X.X.^ | =.9.0.=.9.&XgX|.N.w.O.r.w.",
"l.9.s.d.g.o.9.C.qX*XfX`.4.gXXX<Xn.s.a.0         2 K H C $ = c . 4 S K H X         9 r s =.y.;.s.d.a.o.;.<XeX2X*X] _ ` e.",
"U.J.0.a.d.9.f v.rXeXoXh.N.oXt.K.J.9.q._ r 0 r o i /.E.G.u - f . T T.~.E.% : 0 0 q p d ' ;.P.P.9.d.d.=.#.&XeXfXS.*.q.0.i.",
"L.t.' } y.y.=.) b.Y.9.&.} 6.t.t.t.} ' ' s r r = 7 W W W 3 : f . Z W W W @ , t s p p t ..y.a.y.} ..y.=.[ b.S.S.S.=.` 9.f.",
"h.2.&.*.b.k.U.}.2.y.c.n.b.] v.}.b.-.{ 3.4.[ a = 4 S C V $ * d   2 C F C 3 : d _ d d d f  .o.} =.} ` =.d.a.a.s.6.@.' ` $.",
"}.fXXX1X$X#X2XgX-X2.dX<XY.4. XkX;X|.n.qXqX'.. u T u i i > O ' . 7 i u u T 6 = 9.` @.0.j o.y.q.u.0.w.0.=.o.s.d.o.0.r.) @.",
"A.2XrXgX X=XaXsXOX4.aXaXaX2.{.aXsXqX4.aX+X  U U U U U U & = O.. 7 Y U U U T 7 o 9.*.' ' y.J.K.s.d.P.P.0.{ a.s.t.*.' ' f.",
"z.%X;X1Xx.N.aX-Xz.n.%X;XrX2.4.aX&XoXh.S.'.  X @ X X X % = s _ f % X % X @ % X . { &.( | ;.-.9.y.s.X.=.=.o.t.*.*.;.|  .e.",
"#.h.a.y.y.y.k.k.0.9.4.j.c.+.@XaXB.0.t.s.6.w < , , : , : q q p j r : : : = : : 9 1.4.B.1.v..Xn.q.h.2.<.4.%.{ =...9.d.9.] ",
"x.y.| { t.y.*.;.c.<X2Xm.>.1XkXaXOX} { u.y.' f d a r r a a p [ 9.f q f p t a s k $XrXdX#X%XgX2X.X3.eXdX;Xm.y.s.j ..s.q.w.",
"L.s.*.o.o.q.=.<.;X2XsX{.^ -X<XN.oXb.| | 9.O.f d a t r t j ' q.y.' s p d f a d g '.-X2X X%X2X2X&X`.2XaXXXs.a.O.` ) ..d.f.",
";.-.=.q.j 9.K.j.2XsXgX{.^ 2..X-.| v.0.` 9.a.} f ` } ` ~ X.=.-.-.o...p j O.' f l $XqXeX].].eXeX-Xh.&XgX1Xx.y.t.t.-.*.a.t.",
",.$.+.e.j.] i.L.B.+X].C.:.+.`.%.$.+.e.w.$.l.g.X.] @.e.+.+.e.$.+.$.w.6.] ,.L.+.#.b.V.b.1.2.4.b.4.n.Z. X XN.f.,.@.z.:.:.k."
};
