/* XPM */
static char *result[] = {
/* columns rows colors chars-per-pixel */
"60 60 251 2 ",
"   c #010100",
".  c #080906",
"X  c #0A0F0B",
"o  c #150B00",
"O  c #180A00",
"+  c #131803",
"@  c #171714",
"#  c #2F0E06",
"$  c #251400",
"%  c #381C00",
"&  c #1C2401",
"*  c #232B03",
"=  c #2A3704",
"-  c #323C02",
";  c #2E3018",
":  c #071125",
">  c #001935",
",  c #152534",
"<  c #272726",
"1  c #373528",
"2  c #292D32",
"3  c #353433",
"4  c #3D3D3D",
"5  c #531300",
"6  c #472402",
"7  c #512E06",
"8  c #722C00",
"9  c #7C2F00",
"0  c #783702",
"q  c #7D3D00",
"w  c #483D2A",
"e  c #423E33",
"r  c #384801",
"t  c #3E5301",
"y  c #435B01",
"u  c #445802",
"i  c #434E19",
"p  c #7C4207",
"a  c #456501",
"s  c #4D6501",
"d  c #526B01",
"f  c #546802",
"g  c #5A7702",
"h  c #5A7018",
"j  c #627C01",
"k  c #647806",
"l  c #647C19",
"z  c #494637",
"x  c #4F5231",
"c  c #735537",
"v  c #5C692C",
"b  c #697530",
"n  c #012855",
"m  c #3A3D41",
"M  c #012E64",
"N  c #394450",
"B  c #3F5875",
"V  c #424243",
"C  c #4A4B4B",
"Z  c #444F58",
"A  c #585857",
"S  c #5D5B5A",
"D  c #757252",
"F  c #74736D",
"G  c #833900",
"H  c #D90000",
"J  c #824100",
"K  c #8C4500",
"L  c #8F4E00",
"P  c #954B00",
"I  c #994B00",
"U  c #8A4F13",
"Y  c #A65300",
"T  c #865425",
"R  c #AF7233",
"E  c #8B6E4F",
"W  c #8D7D68",
"Q  c #EA5A4B",
"!  c #FF6978",
"~  c #5C8201",
"^  c #5E8C01",
"/  c #598B07",
"(  c #5D9100",
")  c #648401",
"_  c #698302",
"`  c #658A01",
"'  c #6B8C01",
"]  c #6A890E",
"[  c #718E05",
"{  c #659301",
"}  c #6B9301",
"|  c #6C9A01",
" . c #6C9809",
".. c #739302",
"X. c #749C02",
"o. c #7B9C02",
"O. c #769608",
"+. c #74990E",
"@. c #7D9C0E",
"#. c #6C8715",
"$. c #719116",
"%. c #789814",
"&. c #6DA100",
"*. c #75A201",
"=. c #7BA402",
"-. c #76AA00",
";. c #7CAA01",
":. c #7BA30E",
">. c #7EB200",
",. c #7DA411",
"<. c #6E8724",
"1. c #768A27",
"2. c #7C9829",
"3. c #778836",
"4. c #7E9537",
"5. c #7B8947",
"6. c #7C8076",
"7. c #829D0E",
"8. c #82A503",
"9. c #84AB02",
"0. c #8BAD03",
"q. c #82A30D",
"w. c #88A90B",
"e. c #90AD03",
"r. c #84B301",
"t. c #8CB302",
"y. c #8CBA02",
"u. c #8BB40E",
"i. c #88B80A",
"p. c #93B602",
"a. c #95BA01",
"s. c #9ABD02",
"d. c #95BC0E",
"f. c #98BA0D",
"g. c #83A411",
"h. c #8BAC12",
"j. c #88A718",
"k. c #91AD17",
"l. c #86B310",
"z. c #8CB211",
"x. c #94B411",
"c. c #98B816",
"v. c #A1BF0B",
"b. c #849A2C",
"n. c #808F3C",
"m. c #83973A",
"M. c #89A526",
"N. c #92AC28",
"B. c #89B322",
"V. c #9AB626",
"C. c #8DA438",
"Z. c #96AB3A",
"A. c #9CB433",
"S. c #99B538",
"D. c #A3BB33",
"F. c #E18F3F",
"G. c #9AC303",
"H. c #9CC202",
"J. c #9FC610",
"K. c #A2C402",
"L. c #A4C70A",
"P. c #A4C513",
"I. c #ACC72B",
"U. c #B3C739",
"Y. c #889847",
"T. c #86924B",
"R. c #8B9756",
"E. c #929D5B",
"W. c #B28759",
"Q. c #8DA145",
"!. c #98AA47",
"~. c #9CB646",
"^. c #99A757",
"/. c #9DB05A",
"(. c #A6B947",
"). c #A8BA58",
"_. c #ADBA5C",
"`. c #95946F",
"'. c #A99A7C",
"]. c #9DA665",
"[. c #9CA276",
"{. c #A8A86D",
"}. c #ABB56A",
"|. c #B2BC69",
" X c #A7AA77",
".X c #ACB378",
"XX c #B4BB77",
"oX c #CE9153",
"OX c #DD9B59",
"+X c #FF8E75",
"@X c #CBA275",
"#X c #EEAB66",
"$X c #B2C34D",
"%X c #B8C468",
"&X c #BDC37B",
"*X c #EBC577",
"=X c #03488A",
"-X c #024996",
";X c #0D5298",
":X c #195796",
">X c #1D5995",
",X c #235B93",
"<X c #266099",
"1X c #2466A9",
"2X c #759CC5",
"3X c #91918F",
"4X c #9D9C95",
"5X c #AAA784",
"6X c #B5A88C",
"7X c #B6B785",
"8X c #BABD83",
"9X c #BCBD8B",
"0X c #BCB693",
"qX c #B2B1AF",
"wX c #FA9488",
"eX c #D8B588",
"rX c #DCBA8E",
"tX c #C5B796",
"yX c #CFB193",
"uX c #F8B295",
"iX c #FFBAAB",
"pX c #BDC282",
"aX c #B7D1AE",
"sX c #C4C886",
"dX c #C3C48D",
"fX c #C6C596",
"gX c #D1D195",
"hX c #E9CC98",
"jX c #D2C2A1",
"kX c #D4CEB1",
"lX c #F1D2AD",
"zX c #FCE7B9",
"xX c #FFE7BF",
"cX c #88AED0",
"vX c #99C3EB",
"bX c #CCCFC6",
"nX c #D4D4D4",
"mX c #FFDFC0",
"MX c #FFEBC3",
"NX c #FFEECC",
"BX c #FEF4C7",
"VX c #FFF3CA",
"CX c #E6EBD6",
"ZX c #FFF5D1",
"AX c #FFFED5",
"SX c #FFFFDB",
"DX c gray91",
"FX c #FFFFE7",
"GX c #F3F3F3",
"HX c #FFFFF1",
"JX c #FFFFFF",
/* pixels */
"c.@.Q.7X.X.XC./.}..X(.u.:.+.f.v.@.+.,.l.+.q.f.@.#.@.x.,.+.c.P.7.+.,.l.$.l.f.@.] @.x.,.+.f.P.7.+.,.l.$.w.f.@.#.@.x.,.+.c.",
"9.y.(.fX&XsX4.].gXgX}. .p.a.=.8.G.:.` *.=.=.p.=.=.8.*.p.a.=.8.s.*.` *.;.;.p.o.=.8.o.p.a.;.8.s.=.^ *.;.=.p.=.=.8.X.p.s.=.",
"] { S.pXdXdXN./.sXsX X .=.t.o.~ | *.=.9.s.s.s.s.y.p.9.o.t.o.~ X.o.=.9.s.s.s.s.y.y.9.o.t.O.~ | =.:.9.H.s.s.s.y.y.9.o.t.h.",
"z.8.9.c.$X].;.c.[.^.N.d - & - - = - r - r * ' 0.9.;.} _ ) 9.t.=.p.K.p.s.a.p.t.9.=.} _ ) 9.t.8.p.s.p.s.s.p.e.9.;.} ) ) z.",
"J.a.A.p.i.M.!.m.3.1.S.g & O % % % % % % % % - u y s d f f d j g d g g s y t r a a ) 0.0.r.K.H.9.s.s.=.....) } ;.;.e.9.u.",
"d.U.pX_.k.).fXfX^.C.fX5.< 7 Y P P P P P P Y 7   o o o o o o o o o o o o o o o o O r ) 8.a.t.y.' O.t.8.' ' o.p.0.;._ 8.f.",
"~.fX8XfXT.E.&X&X/.Q.&XD ; % I J q p J J q J J J J J J J J J J K J K J K J J K J I 6 + _ | X.} =.} ^ X.s.s.G.s.9.X.' ` +.",
"S.(.V.}.N.(.8XfX/.m.tXD < 6 I p p G J p G p J J K J K J K K J J J K J J J K J J I 6 * j X.t.0.y.9.=.9.=.=.p.s.X.0.0.j @.",
"J.y.y.a.K.L.k.4.b.%.C.h + 6 I G G p q J J J p J J p p J p p J J p G J J p G G J P 6 + g ;.H.a.p.s.K.H.9.{ p.s.9.*.} ` x.",
"u.9.t.p.o.=.0.| ;.*.| a + 6 Y K K P J J q q J G J J G p J G J p J q p J J p p J P % + l :.y.z.p.k.b.k.0.X.r.*.*.;.{ | u.",
"] o.p.t.o._ ) | | =...g = % J 0 0 0 q J J p q q q q q q q q q q q q q q q q q J P 6 + 5..X|.).N.!./.fXY.^ | *.O.9.s.8.] ",
"x.p.| { y.9.X.=.t.t.) ' ..r         % Y J J 8 8 8 8 8 8 8 8 8 8 8 8 8 8 8 8 8 p P 6 X 5..XpX}.E.~.-.S.Z.8.p.p.) ..a.0.@.",
"J.s.=...| r.i.A.I.k.#.#.1.h t t t r < % K 8 W.lXrXrXrXrXrXrXrXrXrXrXrXrXrXjXeXq K 6 o D 7XsX}.R.pX(.).C.=.a.8.) _ ..G.d.",
"l.-.;.e._ o.G.A.XXdXQ.].7XT.h a h D i o K 5 @XJXSXSXSXSXSXSXSXSXSXSXSXSXSXHXNX8 G 6 + h R.].1. .S.^.].2.^ | >.r.-.*.s.x.",
"+.` { o.8._ z.P._.dX!.j.}.6X5.v 5.D x o J U eXZXxXVXMXxXxXxXMXxXxXxXxXVXMXNXzXR I 6 + b l <.m.!.k.| ) 8.r.o.` o.y.X.| g.",
"x.O.} *.y.^ 4.fX9X0X!.x.|..XV.j.[.{.A . q lXSXxXMXzXxXMXxXxXxXxXMXxXxXzXxXzXMXHXR # @ `.T.Q.gXfX%X-.( 9.s...j ..t.=.} x.",
"h.s.=.^ *.;.:.Z.^.Z.7.M.c.t.X.o.c.!.z o G lXAXVXlX  6XAXMXxXxXxXxXMXBX@ `.AXMXFXR # # `.T.E.sX8XXXM.*.8.t.=.=.8.X.p.a.g.",
"] } =.8.9.H.s.s.y.0.M.C.j.j.4.m.e.s o . 9 lXZXZXkX  5XSXxXmXxXMXxXBXBX  D FXMXZXR # . ; b T.7X_.|.A.y.s.s.s.y.y.9.o.t.g.",
"z.9.p.K.p.s.s.t.h.%XfX8XQ.{.pXfX(.= < D 8 hXAXSXlX  5XSXxXxXxXxXxXMXNX  D HXMXAXR p C   u M.M.a.f.f.a.s.a.0.9.9.} _ ) z.",
"P.H.9.a.s.8.' ~ R.jXXX|.x.).&XpX|.- F SX8 hXNXMXhX@ 0XSXxXxXMXMXxXMXBX1 W NXlXSXp @XCX  a H.s.;.p.s.8.' ' ) ' ;.9.e.9.i.",
"d.t.'  .t.8...' N.U.%XfXY.^.gXdX^.; F zX8 lXiX! wXVXMXxXxXxXMXMXxXxXxXAXiX! wXZXT oXkX. u 9.y.' ..t.;...[ 8.p.t.-.' 8.d.",
"g.} =.} ^ *.s.s.G.y.M.Z.3.<.n.Y.#.* F zX5 gXNXlXlXBXMXxXMXxXoXrXVXxXxXBXmXlXlXAXp W.kX  - ) ` =.} ^ X.s.H.H.s.9.O.' ) +.",
"z.t.y.9.8.0.=.X.p.s.X.o.w.j { ,.}.; 6.FXF.lXAXVXBXMXxXxXBXSXhXBXFXxXxXxXMXNXBXBXOXlXCX  - ..8.y.0.8.9.=.*.p.H.X.9.9.j @.",
"J.H.p.s.K.K.9.{ a.a.r.*.' ` r.x.sX3 z tXoXlXBXxXxXMXxXVXlXwXuXwXuXMXxXMXxXMXxXNX@X@X`.  r =.a.p.s.K.K.9.{ a.p.;.X.` ' d.",
"u.;.y.p.o.8.0.X.9.*.*.=.| } ;.d.%Xz   .   tXAXxXMXxXxXSXuXH H H Q SXxXxXxXxXMXAX3 . . . r ' =.t.p.o.8.0.X.r.,.M.k.M. .h.",
"#.o.p.r.7._ ~ } | =.} 8.H.8.g 1.Z.q.$.i   jXAXxXxXxXMXAXuXH H H Q FXxXxXxXxXMXAXe = f u u d O.p.t.7._ ` { { !.pXV.V.g.] ",
"x.p.X.{ y.0.=.9.a.p._ ..p.0.o.9.t.` d a   jXAXxXxXxXxXAXuXH H H Q ZXxXxXxXxXMXAXe ; g s s ' p.| { y.9.o.9.t.I.dX).d.9.:.",
"J.a.=...| 9.p.;.p.8.) ) X.a.y.G.a.X.g y . kXHXSXSXSXSXFXMX+X+X+XlXFXSXAXSXSXSXHXz 1 v j ' 8.y.-.X.{ -.y.;.0.(.XX9X|.t.J.",
"l.-.=.0._ o.H.9.| ;.r.*.=.a.r.;.-.=.8.s + [.jX0XtX0XtX6X6XaXaXaXqX6XtX0X6XtXtXjX1 r l o.&.| &.&.9.n.A.H.9. .j.r.,.M.d.i.",
"+.` } o.8.' t.K.X.` *.y.X.| =.' ` { o.8.g +                       .             i g h 4.$X}.].2.Z.$XpXD.a.=.^ | r.} +.g.",
"x.O.} *.y.{ =.a...k ..t.=.} p.p...} X.y.g +           c *X#X#XOX#XoX            x b 5.Y.U.P.sXm.Z.y..X(.t...j ..p.=.} x.",
"h.s.=.^ *.=.=.p.o.=.w.=.p.a.8.0.K.;.^ ` = < 3 @   < @ S W.c c c E E < 2 X . 2 3 * v j.f.$XU.P.*./ /.%X).0.o.o.8.X.p.a.g.",
"] | =.=.9.s.s.s.G.y.y.9.o.p.O.` t.s.9._   V S 2   C A < m 3X6.3XB : C A @ . A A @ ; $.w.}.4XE.q.=.Z.p.p.G.y.y.y.9.o.t.g.",
"z.9.a.s.p.a.s.p.0.9.=.} _ ` 9.t.=.p.K.7.  3 C <   m 4 4 6.GXGXJXqXN 4 C @ . m m @ ; 3.5.j.7.b.p.a.f.f.p.t.A.j.;.} ` ) h.",
"P.H.9.a.s.8.} [ ) } ;.8.t.8.r.K.s.| M.`.  2 C @   V < qXnX  JXm C JX3 V @ . m m X = N.A.r.H.L.(.f.t.(.&X%X0X4.&.9.0.0.u.",
"d.p.' ..p.;.[ ' =.p.0.;.' 9.a.y.a.^ Y.5X  6XAX`.  m @ qXGXbXJXnXDXGX4 V   1 MXzX1 = E.(.y.r.I.tX|.k.Z.sX%X(.c.9.;.` 9.d.",
"g.} =.} ^ X.s.s.H.H.9.X._ ) O.*.} &.M.[.  kXJX5X  m 4 m 4XJXJXJXnXC 4 C   z HXFXz ; R.XX&XC.^.B.).[.m.v.a.p.K.9.O.' ' +.",
"h.t.y.9.8.9.=.X.p.G.X.0.e.j ..t.0.y.=.<.  jXHX'.  V 4 C 3XqXqXqX4XS m C   e SXAX4 = %.D Y.V.x.r.%.M.h.%.$.u.H.X.0.0.g @.",
"P.H.p.a.K.L.8.{ a.a.9.*.' ` y.G.H.p.s.8.  jXHX'.  V < qXDX< 2 @ 4XJX3 C   e SXAXe 1 E.#.-.G.p.p.p.s.K.9.{ p.a.9.*.' ` d.",
"z.9.y.p.o.8.e.o.9.=.*.;.} | 9.y.8.t.p.j   jXHX'.  m V < S JXJXJXqX@ m C   e SXAXz 1 `.4.-.y.A.V.U._.g.9.=.9.*.*.;.} X.u.",
"] o.p.r.7._ ^ }  .*...8.a.8.) ) o.a.0._   jXHX'.  m < 3XDXF 6.F qXnX4 V   z SXAX1 - b.1.~ #.!.U.U.).1.~ | | =...8.s.8.] ",
"x.p.X.{ y.9.X.9.a.p._ ..s.9.O.9.p.| { *.  tXHX'.  e < 3XqXo < o F qXw V   e SXAX1 ; ' ;.*.e.V. X^.>.9.X.9.p.p.) ..a.r.@.",
"P.s.=...| r.t.9.p.8.) ) | s.p.H.s.*. .s 1 kXHX'.  N Z m , N N Z m , N Z   e SXAXD & g 9.y.G.p.%.$.+.u.t.;.p.9.) _ } s.d.",
"l.-.=.p._ o.H.9.X.;.r.-.=.a.r.>.=.8.s ; FXNXSX'.  :X>X>X>X:X:X:X:X:X:X1X: w SXMXHX`.+ t.r.;.;.;.t._ 7.H.9.} ;.r.-.=.s.u.",
"+.` { 8.7.' t.K.*.` *.y.X.| 8.} ~ { s < AXOXzX0X  >X>X,X<X-X-X=X;X,X,X<X: w FXF.BX`.+ ' ;.' ` { =.8.' t.H.o.` *.t.X.| h.",
"x.O.} X.y.{ =.s.} d ' t.r.X.9.t.o.} u 2 JX#X*XW.  >X,X:XM : > : n ;X,X1X: w hXF.SX3X+ ) 0.s.o.} *.y.` =.s.} _ ..t.=.} x.",
"h.s.*.{ X.9.=.g.^.!.A.j.x.~.D.D.J.*.s = '.E T 7   ,X,X;Xn   * . : -X,X<X> O T c '.x r O.o.9.s.=.` *.9.=.g.C.r.>.*.p.a.g.",
"] } =.;.9.=.;.C.fXsXgXY.^.pXjX0X$.&.=.j .   . . X ,X<X;XM   x 1 > -X,X1X,   + .   = u _ ' ~ } *.=.0.*.=.}.fX(.V.9.o.t.g.",
"z.9.a.K.p.O.;.A.8X|.dXY.T.pX).$Xj.p.p.o.j g f r X :X,X;XM   b ; > -X>X1X, @ f f a t u s X.i.=.a.K.f.X.9.$X9X&X|.#.` ) l.",
"P.H.9.a.s.=.g b.9XtX).j.N.$X>.G.K.9.p.0.j u u =   =X-X-Xn   j - > -X=X-X> o r y s s k ' 9.K.H.9.p.s.=.#.}.9XdXS.=.0.0.u.",
"d.r.} ' 9.t.=.) m.D.8.&. .8.r.9.9.` } ;.' g s u : cXcX2XB   g - , 2XcXvXN + f j ) g d o.p.y.p.' ..p.;.[ Y.D.D.A.-.` 8.d.",
"j.2.*.*.4.x.I.!.2.y.c.M.m.#.b.~.C.-.} 4.Z.e.7.- 6 yXjXyXD   d = w 6XyXrXc o g 0.o.' ) ) | X.} =.} ^ X.s.t.p.s.g.@.' _  .",
"!.dXS.%X].].pXfX.X2.sX$XU.4.^.kX&X~.M.9XdX8X1 6 Y 8 9 q 7   j - $ q 9 8 I 0 . X.X.0.0.j X.t.t.t.0.8.9.o.X.p.s.*.0.0._ @.",
"V.pXfXfX^. XsXsX}.m.pXpXpX2.C.sXsX.X4.pXXX; 6 Y P L K I 7   [ - % P K K P P p   ) *.} ' t.H.H.p.s.K.K.9.} a.s.9.*.' ` d.",
"z.}.&X%Xx.V.&X.Xl.j.{.XX7X2.b.7X.X).h.A.7X@ O % O $ $ $ $ t j ' - O $ $ $ $ $   a | (  .;.-.=.y.p.X.=.;.X.r.*.&.;.} } l.",
"#.%.p.0.p.t.h.N.9.0.3.h.c.+.E.aXC.9.r.a.c.r ; = = & & * - t u j g * * & & & & = l 3.Q.$.b./.N.9.j.2.<.4.%.{ =...8.s.8.] ",
"x.t.| ( r.t.*.;.f.$X&XN.;.%XjXpX_.} { y.y.X.j j f r u f s y j 8.~ a d s y s f k `.5XdX].{.fX&X/.5.7XdXXXN.t.p._ ..s.0.@.",
"P.G.=.X.| t.=.<.8X&XsXQ./ .X$XV.(.m.| | 9.8.g j f u u s j _ 9.p.} g a g g s g h D {.&X^./.&X&X}.C.&XpX(.p.p.8.) ) } p.J.",
">.*.;.0._ o.H.z.8XsXfXQ./ 2.~.>.| b.t.) 8.p...g ~ ' ~ g ..X.-.-.o.o.s j o.` d l `. X7XE.^.9X9XXXj.}.gXXXc.r.r.r.-.-.p.y.",
"%.+.+.q.w.$.z.J.C.E.E.A.:.%.Y.1. . .h.g.%.u.f.+.] +.l.+.+.:.+.+.+.g.7.] :.J.+.#.n.Z.m.2.2.m.n.m.M.A.^.^.V.f.,.+.z.:.:.j."
};
