/* XPM */
static char *result[] = {
/* columns rows colors chars-per-pixel */
"60 60 250 2 ",
"   c #010100",
".  c #080906",
"X  c #0A0F0B",
"o  c #150B00",
"O  c #180A00",
"+  c #131803",
"@  c #171714",
"#  c #2F0E06",
"$  c #251400",
"%  c #381C00",
"&  c #1C2401",
"*  c #232B03",
"=  c #2A3704",
"-  c #323C02",
";  c #2E3018",
":  c #071125",
">  c #001935",
",  c #152534",
"<  c #272726",
"1  c #373528",
"2  c #292D32",
"3  c #353433",
"4  c #3D3D3D",
"5  c #531300",
"6  c #472402",
"7  c #512E06",
"8  c #6F2F00",
"9  c #722C00",
"0  c #7C2F00",
"q  c #783702",
"w  c #7D3D00",
"e  c #483D2A",
"r  c #423E33",
"t  c #384801",
"y  c #3E5301",
"u  c #435B01",
"i  c #445802",
"p  c #434E19",
"a  c #7C4207",
"s  c #456501",
"d  c #4D6501",
"f  c #526B01",
"g  c #546802",
"h  c #5A7702",
"j  c #5A7018",
"k  c #627C01",
"l  c #647806",
"z  c #647C19",
"x  c #494637",
"c  c #4F5231",
"v  c #735537",
"b  c #5C692C",
"n  c #697530",
"m  c #012855",
"M  c #3A3D41",
"N  c #012E64",
"B  c #394450",
"V  c #3F5875",
"C  c #424243",
"Z  c #4A4B4B",
"A  c #444F58",
"S  c #585857",
"D  c #5D5B5A",
"F  c #757252",
"G  c #74736D",
"H  c #833900",
"J  c #D90000",
"K  c #824100",
"L  c #8C4500",
"P  c #8F4E00",
"I  c #954B00",
"U  c #994B00",
"Y  c #8A4F13",
"T  c #A65300",
"R  c #865425",
"E  c #AF7233",
"W  c #8B6E4F",
"Q  c #8D7D68",
"!  c #EA5A4B",
"~  c #FF6978",
"^  c #5C8201",
"/  c #5E8C01",
"(  c #598B07",
")  c #5D9100",
"_  c #648401",
"`  c #698302",
"'  c #658A01",
"]  c #6B8C01",
"[  c #6A890E",
"{  c #718E05",
"}  c #659301",
"|  c #6B9301",
" . c #6C9A01",
".. c #6C9809",
"X. c #739302",
"o. c #749C02",
"O. c #7B9C02",
"+. c #769608",
"@. c #74990E",
"#. c #7D9C0E",
"$. c #6C8715",
"%. c #719116",
"&. c #789814",
"*. c #6DA100",
"=. c #75A201",
"-. c #7BA402",
";. c #76AA00",
":. c #7CAA01",
">. c #7BA30E",
",. c #7EB200",
"<. c #7DA411",
"1. c #6E8724",
"2. c #768A27",
"3. c #7C9829",
"4. c #778836",
"5. c #7E9537",
"6. c #7B8947",
"7. c #7C8076",
"8. c #829D0E",
"9. c #82A503",
"0. c #84AB02",
"q. c #8BAD03",
"w. c #82A30D",
"e. c #88A90B",
"r. c #90AD03",
"t. c #84B301",
"y. c #8CB302",
"u. c #8CBA02",
"i. c #8BB40E",
"p. c #88B80A",
"a. c #93B602",
"s. c #95BA01",
"d. c #9ABD02",
"f. c #95BC0E",
"g. c #98BA0D",
"h. c #83A411",
"j. c #8BAC12",
"k. c #88A718",
"l. c #91AD17",
"z. c #86B310",
"x. c #8CB211",
"c. c #94B411",
"v. c #98B816",
"b. c #A1BF0B",
"n. c #849A2C",
"m. c #808F3C",
"M. c #83973A",
"N. c #89A526",
"B. c #92AC28",
"V. c #89B322",
"C. c #9AB626",
"Z. c #8DA438",
"A. c #96AB3A",
"S. c #9CB433",
"D. c #99B538",
"F. c #A3BB33",
"G. c #E18F3F",
"H. c #9AC303",
"J. c #9CC202",
"K. c #9FC610",
"L. c #A2C402",
"P. c #A4C70A",
"I. c #A4C513",
"U. c #ACC72B",
"Y. c #B3C739",
"T. c #889847",
"R. c #86924B",
"E. c #8B9756",
"W. c #929D5B",
"Q. c #B28759",
"!. c #8DA145",
"~. c #98AA47",
"^. c #9CB646",
"/. c #99A757",
"(. c #9DB05A",
"). c #A6B947",
"_. c #A8BA58",
"`. c #ADBA5C",
"'. c #95946F",
"]. c #A99A7C",
"[. c #9DA665",
"{. c #9CA276",
"}. c #ABB56A",
"|. c #B2BC69",
" X c #A7AA77",
".X c #ACB378",
"XX c #B4BB77",
"oX c #CE9153",
"OX c #DD9B59",
"+X c #FF8E75",
"@X c #CBA275",
"#X c #EEAB66",
"$X c #B2C34D",
"%X c #B8C468",
"&X c #BDC37B",
"*X c #EBC577",
"=X c #03488A",
"-X c #024996",
";X c #0D5298",
":X c #195796",
">X c #1D5995",
",X c #235B93",
"<X c #266099",
"1X c #2466A9",
"2X c #759CC5",
"3X c #91918F",
"4X c #9D9C95",
"5X c #AAA784",
"6X c #B5A88C",
"7X c #B6B785",
"8X c #BABD83",
"9X c #BCBD8B",
"0X c #BCB693",
"qX c #B2B1AF",
"wX c #FA9488",
"eX c #D8B588",
"rX c #DCBA8E",
"tX c #C5B796",
"yX c #CFB193",
"uX c #F8B295",
"iX c #BDC282",
"pX c #B7D1AE",
"aX c #C4C886",
"sX c #C3C48D",
"dX c #C6C596",
"fX c #D1D195",
"gX c #E9CC98",
"hX c #D2C2A1",
"jX c #D4CEB1",
"kX c #F1D2AD",
"lX c #FCE7B9",
"zX c #FFE7BF",
"xX c #88AED0",
"cX c #99C3EB",
"vX c #CCCFC6",
"bX c #D4D4D4",
"nX c #FFDFC0",
"mX c #FFEBC3",
"MX c #FFEECC",
"NX c #FEF4C7",
"BX c #FFF3CA",
"VX c #E6EBD6",
"CX c #FFF5D1",
"ZX c #FFFED5",
"AX c #FFFFDB",
"SX c gray91",
"DX c #FFFFE7",
"FX c #F3F3F3",
"GX c #FFFFF1",
"HX c #FFFFFF",
/* pixels */
"v.&.<.c.#.[ #.g.j...z.>.@.&.I.g.&.h.c.#.[ #.g.j...z.>.@.#.b.g.&.<.c.#.[ #.g.j...z.<.@.#.g.g.&.>.i.)..X}.(.5..XXX5X!.@.v.",
"-.s.a.O.9.-.-.a.-.-.=.} -.J.9.-.s.a.O.9.-.-.a.9.-.o./ -.J.e.-.s.a.O.9.-.-.a.-.-.=.' -.H.q.-.d.a...}.fXfX}.5.aX&XdX).u.q.",
"h.y.O.0.u.t.d.d.d.d.0.-.-. .^ o.y.O.0.u.u.s.J.s.H.0.>.-.| ^ O.a.O.0.u.u.d.d.d.J.9.-.-. .^ o.a.-.X. XaXdX(.B.sXsXiXD.} %.",
"x._ ` | :.q.y.s.d.d.a.d.a.9.p.0._ ` | -.0.y.s.s.s.a.L.a.:.i.0._ ' | :.0.y.] * - - t - = - = & - f B.(.[.l.0.[.$Xv.t.-.z.",
"i.q.y.9.:.] _ ] { 9.d.d.0.L.J.t.0.r._ s u t u i d h h f l l f d g d d u u - % % % % % % $ % o + h S.2.2.Z.~.N.a.u.S.d.I.",
"g.9.' :.i.a.O.] ] -.a.X.] y.u.s.0._ t O o o o o o o o o o o o o o o o o   6 T I P I I I U T 6 ; 6.dX!./.dXdX_.k.`.iXU.c.",
"@.` ] +.0.L.L.d.d.=./ | ;.| o.o._ + 6 U K K L L K L K L K L K K K L K L L K a H w K K K K U 6 < F iXT.(.&XaX/.6.dX7XdX^.",
"#._ q.q.o.J.a.o.-.e.-.0.u.q.y.X.k + 6 T L K K K L K K L K K K L K L K K L K K a K w w K K U 6 < F 0XT.(.9X8X^.A.`.F.).S.",
"f._ ] =.0.s.a.} 0.J.L.d.u.s.H.t.h + 6 I a K K a w H a H K K a H a H a a K H a K a H a a K U 6 + z Z.&.3.5.B.L.L.s.y.u.K.",
"z.o.} :.o.-.t.=.q.l.N.l.a.c.t.>.z + 6 I H w K H K a K a a K K a K w K K K a H K a K P L L T 6 + s *.;.,.*.0.9.O.a.y.0.i.",
"[ 9.s.0.X.=. .) !.iX(.~.B.`.}..X6.X 6 I a w w w w w w w w w w w w w w q w w w K K w q q q K % = h X.-. .| ^ ` O.q.s.O.[ ",
"8.q.d.X.` a.a.:.!.D.;.^.W.}.iXXXn + 6 U K 9 9 9 9 9 9 9 9 9 9 9 9 9 9 9 9 q K a T 6     .   - O.] _ y.0.:.O.0.u.} o.a.j.",
"f.s. ._ _ 0.s.-.A._.).iXE.}.&X8XF + % I a eXhXrXrXrXrXrXrXrXrXrXrXrXrXrXkXQ.9 K % < p t y t h 2.z [ B.U.S.y.t. .o.=.H.K.",
"i.d.-.=.t.:. ./ 3.[./.D...4.[.E.j + 6 H 9 CXDXAXAXAXAXAXAXAXAXAXAXZXAXAXHX@X5 L o t F b s j R.6X[.T.sXXXS.J.O._ a.-.;.i.",
"j. .=.y.=.' O.q.-._ o.l.!.T.1.z n @ 6 I E kXmXmXBXzXzXzXzXzXmXzXzXmXBXzXZXeXY K O p F 6.b R.5XXXl.!.sX|.I.l.] 9.O.} ' &.",
"c.| =.a.X.k X.d.:.' ,._.dXfXT.T.{.@ # E DXmXmXzXlXmXzXmXzXzXzXzXzXzXzXmXzXAXkXH O S  X{.k.C.XX|.l.^.0XiXsX5./ p.=.| X.c.",
"w.s.a.O.9.-.O.a.9.;.k.7X8XaX!.R.'.@ # E DXmXAXQ @ BXmXmXzXzXzXzXZX6X  jXCXAXkX0 o c !.v.O.o.a.v.N.8.A./.A.h.:.=./ -.H.x.",
"h.p.O.0.u.t.H.J.d.u.A.|.`.9XR.n ; . # E CXmXAXF   BXmXzXzXzXzXmXCX5X  kXCXCXkXH . . g r.M.m.k.k.Z.N.q.t.s.d.J.0.-.-.| %.",
"j._ ` | 0.0.q.a.s.s.g.d.s.B.k.p   Z Y E CXBXDXG   NXmXzXzXzXzXzXAX5X  jXZXAXgX9 F 2 = D.sXsX[.!.XXtX%Xi.a.s.s.a.L.a.9.i.",
"i.q.y.9.:.| k { ] 0.J.a.9.s.H.s   VX@XK AXkXmXQ 1 MXmXmXmXmXzXzXZXyX@ kXmXmXgX9 DXQ = |.&X&X_.g.%X&XjXE.^ ] 9.d.s.0.L.I.",
"f.0._ :.p.a.9.{ X.-.a.X.| y.-.i   jXoXY ZXwX~ uXZXzXzXzXmXzXlXlXzXmXBXwX~ kXkX0 zXG ; /.sXdX/.E.dX%XY.C.' { 0.a.X.] y.f.",
"@._ ] +.0.J.d.d.d.=./ | -.' _ -   lXQ.w CXzXkXzXNXzXzXCXgXoXzXmXzXmXNXkXkXMXgX5 lXG = $.M.M.1.4.!.N.s.s.d.d.o./ | ;.] <.",
">.k q.q.=.d.a.o.-.q.-.0.y.0.| -   bXkXOXMXMXNXmXzXzXzXAXNXgXDXmXzXzXmXmXMXMXkXG.DXG - }.k.) _ e.O. .d.a.=.-.0.9.0.u.q.x.",
"f._ ' =.:.a.s.| 0.L.L.d.a.s.9.t   '.@X@XMXmXzXzXzXzXBXgXwXuXwXkXmXzXzXzXmXMXkXQ.tXx 4 sXl.t.' ] ;.t.s.a.| 0.L.L.d.a.H.I.",
"z.X.n.z.N.<.e.=.q.-.O.a.p.O.] t . . . 1 CXmXzXzXzXzXDX! J J J uXZXmXmXzXzXZXhX  .   p %Xu.-.| ..:.o.=.0.=.0.9.O.a.y.9.z.",
"[ h.C.C.iX^.} } _ ` 9.q.a.X.f y u g = 4 ZXmXzXzXzXmXCX! J J J uXZXzXzXzXmXCXhX  i 2.8.~.2.^ 9.d.9.| -.|  ._ ` O.y.a.O.[ ",
">.q.v.`.dXI.y.0.-.0.u.} o.q.{ g d g ; r ZXmXmXmXzXzXAX! J J J uXAXmXzXzXzXZXhX  u d ' q.q.O.t.s.X.` a.d.0.O.q.t.}  .a.c.",
"f.y.|.iXXX).i.-.u.;.} o.-.a.0.] h n 1 x GXAXZXZXAXAXDXkX+X+X+XmXDXAXZXZXAXGXjX  y ^  .H.H.s.s.X._ _ 9.a.-.u.t.o.+.;.s.K.",
"i.g.N.<.t.k...t.H.D.M.0.;.*.*. .O.z t 2 hXtXtX0X6XtX6X0XpXpXpX6X6XtXtX0X0XhX{.+ f 9.-.=.:.t.s.-.;.t.:. .0.J.O.` q.-.-.z.",
"j... .t.o.^ -.s.C.iX$XA.3.[.(.$X3.z h p               .                     + h 9.-.} ' ] 9...=.u.o.' o.L.y.{ 9.-.} ' @.",
"c.} ;.a.X.l X.y.$X.X,.D.T.&XU.Y.!.6.z c             Q.#X#XOX#X#Xv           + h y.=.| X.a.a.| -.a.{ l X.d.-.' u.-.| X.c.",
"w.a.a.O.9.-.o.q.(.%X_.[ =.I.U.$Xv.k.v @ 2 3 . X 2 < Q W v F v Q.D @ 2   @ 3 < = } / -.L.q.-.s.y.O.q.=.O.a.:.-.=./ -.J.l.",
"h.y.O.0.u.u.u.s.a.u.S.-.<.W.5X}.e.%.- @ S S X @ S Z : S 3XG xXM : S Z   2 S C   ` q.d.y.' +.a.O.0.u.t.H.d.d.d.0.-.-.| [ ",
"x._ ` | :.e.S.u.y.H.c.s.a.n.8.k.R.n ; @ C C . @ Z M M qXHXHXFX7.M M C   < Z 2   8.L.y.-.y.0._ ` ] :.p.q.s.s.d.a.L.a.0.x.",
"i.q.r.0.o.5.tX`.&X).y.g.F.P.H.t.F.B.= @ 4 M   @ C 3 HXZ M HX  bXqX< r   @ Z 2   [.N. .J.L.t.0.y.9.:.| _ { | 9.d.s.0.J.I.",
"f.9.' :.t.v._.%XaXA.v.|.9XF.y.i.S.'.= 3 lXnX3   C 4 FXSXbXHXvXHXqX< M   '.ZX6X  5XE.^ a.a.s.9.' -.p.a.9.] { -.a.X.| a.g.",
"@.` ] +.0.L.s.g.I.M.{._.V.[.Z.XX9XW.; r DXGXx   Z M A bXHXHXHX4XM 4 M   6XHXjX  {.3. .| =.X._ ] +.0.L.J.d.d.=.' | ;.| <.",
"#._ q.q.o.d.i.%.&.h.N.#.,.c.C.!.n %.= r ZXAXr   Z M D 3XqXqXqX3XZ 4 4   ].GXhX  1.0.u.q.p.X.k r.q.o.s.a.=.O.0.9.0.y.q.x.",
"f.' ] ;.0.s.a.' 0.J.a.a.a.a.H.;.$.E.1 r ZXAXr   C 3 HX4XX 3 @ FXqX< M   ].GXhX  O.d.s.J.H.y.' ] =.t.d.a.} 0.L.L.d.a.H.K.",
"z.| | :.=.=.t.=.9.j.`.$XI.S.t.;.5.{.1 r ZXAXr   Z C @ qXHXHXHXD < C M   ].GXhX  k a.y.0.t.t.o.| :.=.o.t.o.q.9.O.a.y.0.x.",
"[ 9.d.9.X.-. .| ^ 2.$X$XU.~.$.^ 3.n.- 4 ZXZXr   C 3 bXqXG 3XG VX4X< 4   5XGXhX  ` y.a.O._ _ 9.s.9.X.-.|  ._ ` 8.0.a.O.[ ",
"#.q.s.X.` a.s.0.O.0.,./. XC.e.=.0.' ; 1 ZXAXr   r r vXD . @ @ qX3X< r   ].GXtX  o.| +.s.q.o.0.d.X.` a.s.0.o.0.t.} o.a.c.",
"K.a. ._ _ 9.a.:.y.i.@.%.&.s.H.u.:.h & F ZXAXe   A B , M A M B , 2 A B   ].GXjX1 s | -.s.H.a.s.+._ _ 9.a.-.a.t.o.+.;.H.K.",
"p.s.-.;.t.:. .0.J.9.l y.:.;.:.y.y.X '.GXzXAXe : 1X<X,X:X:X:X>X>X,X:X:X  ].AXNXAX< g -.:.,.t.s.;.;.t.:. .0.H.9._ a.-.;.z.",
"j. .=.y.=._ O.L.y.] 9.-.} ' | 0.| + '.NXoXZXr : 1X>X,X;X-X-X-X:X,X:X:X  0XlXOXZX< u } / | 9. .o.y.=.' =.L.q.] 9.-.| ' @.",
"c.| -.y.X._ | s.-.} y.=.| +.d.q.k + 3XAXG.gXe : 1X>X;Xm : : : N :X,X,X  Q.*X#XGX1 u | X.y.:. .y.a.] f | d.-.} u.o.| O.c.",
"h.d.a.=.t.t.N.k.-.9.=.) -.J.9.+.+.t c ].R R O > 1X,X-X: X *   m ;X<X>X  7 R W ].; f =.K.Y.F.S.c.k.S.~./.h.-.9.=./ ;.s.l.",
"h.a.+.0.C.^.dX}.-.-.q.-.-.| ^ { ` u -   o o   , 1X,X-X> 1 c   N ;X,X:XX . . . . h =. .%.0XdXdX/.T.fXsXdXZ.:.-.0.9.-. .[ ",
"z._ ' [ |.aXtX$X:.o.a.L.s.9.y.-.s i i s g f & , 1X>X-X> ; n   N ;X<X:X. - g g k X.d.a.N.$X_.sXR.R.sXXX8XS.-.o.a.L.s.9.c.",
"i.q.q.;.D.sX9X}.[ -.d.a.9.L.L.:.{ l d d y t + > -X=X=X> = l   m -X;X-X. = i u l q.a.0.L.H.t.$XC.z._.9X0Xn.^ -.d.a.0.J.I.",
"f.9._ -.B.Y.F.M.{ 0.a.X.] y.u.u.O.f h k l f & B cXxX2X2 - k   V 2XcXxXX i d h ' :.X.| t.:.t.O.X.} e.U.n._ -.y.0.| ] t.f.",
"@._ ] #.w.s.y.a.d.o./ | -.| o.+._ ` | o.e.h X v kXyX].e * g   F yXyXyX% t 9.c.A.M.} =.M.^.n.$.M.N.l.y.3.^.U.l.M.=.*.3.k.",
"#.k q.0.o.d.a.=.O.q.-.0.u.y.y.+.k q.q.o.O.. 8 U 9 0 w $ - k . 7 H H 0 U % e XXaX9XN.^.&XjXW.5.Y.$XaX3. XdXXX[.{.%X^.sX^.",
"f.] ] =.t.s.s.} 0.L.L.d.a.J.H.y.] | =._   K I P L L P $ t {   7 I L L P T 6 < XXiX5..XiXaXA.3.iXiX&XM.|.aXaX}./.dXtX&XC.",
"z.|  .:.=.=.0.=.9.O.o.a.u.-.-.:.| ) *.s . $ $ $ $ $ $ - ` h y O $ $ $ $ % O @ XXD.e._.}.7Xn.3.7XXX}.k.k.XXXXB.c.%X&X}.x.",
"[ 9.H.9.{ -.} &.3.2.3.k.0.B.(.n.%.!.4.z * & & & & * * h _ u y - * * & * = ; p c.H.y.0.Z.0X/.&.v.k.5.0.0.B.l.y.a.0.c.h.$.",
"#.p.a.{ ` a.a.B.XXsX8X6./.&XfX[.[.iX5X'.l d d u f f s ^ 8.k u g g i t g l _ | u.t.} } `.iXjX%X:.B.aXY.v.:.-.y.,.)  .y.c.",
"f.s.X._ ' -.a.a.).iX&X!..XiX&X(./.&X X6.j f f h f d h } y.9.` k u i u g h _ 0.0. . .M.$XC.$X.X( T.sX&X8X1.;.t.o.o.-.s.K.",
"y.s.-.;.t.,.y.v.%XdX}.k.}.sXiX/.W.7X X'.z f ' O.k g +.-.=.;.o.X.^ ^ ] _ h | s.9._ 0.3. .;.^.3.( E.dXaX&Xj.J.8.` q.-.;.t.",
"k.>.>.i.@.>.K.C././.S.N.5.6.5.3.3.M.A.R.$.#.g.h.[ 8.>.@.@.@.w.@.@.z.@.[ &.b.e.%.e.j...@.3.T.@.>.B.W.W.Z.K.c.{ e.h.@.@.&."
};
